<?xml version="1.0" encoding="utf-8"?>
<svg xmlns="http://www.w3.org/2000/svg" xml:space="preserve" style="enable-background:new 0 0 50 50" viewBox="0 0 50 50">
	<path d="M0 17.8h7.1c0-2.4-.3-4.9-1.1-7.3L4.2 5.3c-.2-.6-1-.6-1.3 0l-1.8 5.3C.5 12.9 0 15.4 0 17.8zm6 22v3.1h1.1v2.4H0v-2.4h1.3v-3.1H0V20.7h7.1v19.1H6zm8.2-22h7.1c0-2.4-.3-4.9-1.1-7.3l-1.8-5.3c-.2-.6-1.1-.6-1.3 0l-1.8 5.3c-.6 2.4-1.1 4.9-1.1 7.3zm6 22v3.1h1.2v2.4h-7.2v-2.4h1.3v-3.1h-1.3V20.7h7.2v19.1h-1.2zm22.5-22h7.1c0-2.4-.3-4.9-1.1-7.3l-1.8-5.3c-.2-.6-1.1-.6-1.3 0l-1.8 5.3c-.6 2.4-1.1 4.9-1.1 7.3zm6 22v3.1H50v2.4h-7.3v-2.4H44v-3.1h-1.3V20.7H50v19.1h-1.3zm-20.2-22h7.1c0-2.4-.3-4.9-1.1-7.3l-1.8-5.3c-.2-.6-1.1-.6-1.3 0l-1.8 5.3c-.6 2.4-1.1 4.9-1.1 7.3zm6 22v3.1h1.3v2.4h-7.3v-2.4h1.3v-3.1h-1.3V20.7h7.3v19.1h-1.3z"/>
</svg>
