<?xml version="1.0" encoding="UTF-8"?>
<svg xmlns="http://www.w3.org/2000/svg" viewBox="0 0 24 24">
	<path d="M19.33 3.04H15.7l2.16 2.95 1.47-2.95Zm-2.19 6 2.55 3.95V3.93l-2.55 5.1ZM11.61 21l8.08-6.04V21H11.6Zm-1.72-4.31c-1.15-.57-1.76-1.9-1.65-2.87.04-.32.22-.68.4-1.01.18-.18.36-.36.57-.54-3.59.36-3.99 3.74-2.69 5.14 1.26 1.4 1.54 2.41 1.22 3.59h.43c.25-1.22 0-2.34.5-2.77 1.11-1.01 2.55.32 1.9 1.62-.14.25 1.87-1.94-.68-3.16"/>
	<path d="M7.11 19.46c.18.5.29 1.01.32 1.54H4.3v-3.99c.75.43 1.37.83 1.62 1.01.54.36.97.86 1.19 1.44m10.06-8.05c.11-.32.29-.9.25-.9s-.07-.04-.11-.04l-.5-.72-.57-.83c.4-.47 1.01-2.26.29-3.45-.75-1.37-1.65-1.98-2.48-2.44h-1.58c.83.75 1.26 1.54 1.54 2.37-.68-.68-1.44-1.33-2.23-1.94-.22-.14-.43-.32-.65-.47H4.31v4.86c2.23.25 4.31 1.8 4.89 2.77a6.033 6.033 0 0 0-4.89-1.37v7.08c.5.25.93.47 1.08.61-1.11-5.35 3.77-5.28 3.77-5.28l.75.72.5.47a5.81 5.81 0 0 0-.83-.07c-1.22 2.12.32 2.87.32 2.87s-.4-1.01.29-1.33c0 .65.47 1.62 1.11 2.34.18.18.36.29.57.4.14.22.25.4.36.57.97 1.54-.65 2.01-.65 2.01s1.11.07 2.41-1.37c.79-.9 1.44-1.51 1.44-1.51s-.83-.11-1.33-.18l.25-.54-.36.11s-.68.25-.83.14c-.97-.83-.57-1.9-.57-1.9.9-.83 2.08-.93 2.44.29 0 0-.07.9-.18 1.15-.07.14-.18.29-.29.43l1.08-.5-.07.47c.29 0 .61-.07.9-.14.5-.14 1.51-.75 1.51-.75l-.36-.75.11-.68.36.11v.93l.14.11.5-.54.36-.61-1.94-2.48Zm-4.24-2.59s-1.98-2.19-2.19-2.01c-.25.18-.07 2.66-.07 2.66s-.97-3.09-.4-3.41c.57-.32 2.41 1.51 2.41 1.51l.43-.75-.18 2.01Zm1.26 1.47c-.07-.11 1.8.57 1.8.57l-.36.32.65 1.15s-2.01-1.94-2.08-2.05Z"/>
</svg>
