<?xml version="1.0" encoding="UTF-8"?>
<svg xmlns="http://www.w3.org/2000/svg" viewBox="0 0 24 24">
	<path d="m12.21 7.46 2.86-1.64c.21-.14.21-.5 0-.64l-2.86-1.64a.466.466 0 0 0-.43 0L8.92 5.18c-.21.14-.21.5 0 .64l2.86 1.64c.14.07.29.07.43 0Zm-.92.93L8.43 6.75c-.21-.14-.57.07-.57.36v3.29c0 .14.07.29.21.36l2.86 1.64c.21.14.57 0 .57-.29V8.75c-.07-.14-.14-.29-.21-.36Zm1.28.36v3.29c0 .29.29.43.57.29L16 10.69a.39.39 0 0 0 .21-.36V7.12c0-.29-.29-.43-.57-.29l-2.86 1.64c-.14 0-.21.14-.21.29Zm-5.21 6.86 2.86-1.64c.21-.14.21-.5 0-.64l-2.86-1.64a.466.466 0 0 0-.43 0l-2.86 1.64c-.21.14-.21.5 0 .64l2.86 1.64c.21.07.36.07.43 0Zm-.93.92-2.86-1.64c-.21-.14-.57 0-.57.29v3.29c0 .14.07.29.21.36l2.86 1.64c.21.14.57 0 .57-.29v-3.29a.4.4 0 0 0-.21-.36Zm1.28.36v3.29c0 .29.29.43.57.29l2.86-1.64a.39.39 0 0 0 .21-.36v-3.29c0-.29-.29-.43-.57-.29l-2.86 1.64a.39.39 0 0 0-.21.36ZM17 15.61l2.86-1.64c.21-.14.21-.5 0-.64L17 11.69a.466.466 0 0 0-.43 0l-2.86 1.64c-.21.14-.21.5 0 .64l2.86 1.64c.14.07.29.07.43 0Zm-.93.92-2.86-1.64c-.21-.14-.57 0-.57.29v3.29c0 .14.07.29.21.36l2.86 1.64c.21.14.57 0 .57-.29v-3.29a.4.4 0 0 0-.21-.36Zm1.29.36v3.29c0 .29.29.43.57.29l2.86-1.64a.39.39 0 0 0 .21-.36v-3.29c0-.29-.29-.43-.57-.29l-2.86 1.64a.39.39 0 0 0-.21.36Z" style="fill:#000;stroke-width:0"/>
</svg>
