<?xml version="1.0" encoding="UTF-8"?>
<svg xmlns="http://www.w3.org/2000/svg" viewBox="0 0 24 24">
	<path d="M12 2C6.48 2 2 6.48 2 12s4.48 10 10 10 10-4.48 10-10S17.52 2 12 2Zm0 19.6c-5.3 0-9.6-4.3-9.6-9.6S6.7 2.4 12 2.4s9.6 4.3 9.6 9.6-4.3 9.6-9.6 9.6Z"/>
	<path d="M12 2.73c-5.12 0-9.27 4.15-9.27 9.27s4.15 9.27 9.27 9.27 9.27-4.15 9.27-9.27A9.27 9.27 0 0 0 12 2.73Zm0 16.71c-4.11 0-7.44-3.33-7.44-7.44S7.89 4.56 12 4.56s7.44 3.33 7.44 7.44-3.33 7.44-7.44 7.44Z"/>
	<path d="M18.8 12.85V11.1H17V7.28a6.864 6.864 0 0 0-4.57-2.15v5.97h-.92V5.14c-1.75.13-3.39.92-4.58 2.21v3.75H5.2v1.75h1.74v3.8c.51.55 1.1 1.02 1.75 1.38v-5.17h1.07v5.65c.57.19 1.16.31 1.75.36v-6h.92v6c.6-.04 1.18-.15 1.75-.34v-5.67h1.07v5.2c.65-.35 1.24-.81 1.75-1.35v-3.85h1.78ZM9.76 11.1H8.69V7.77l1.07-.62v3.95Zm5.5 0h-1.07V7.15l1.07.62v3.33Z"/>
</svg>
