<?xml version="1.0" encoding="UTF-8"?>
<svg xmlns="http://www.w3.org/2000/svg" viewBox="0 0 24 24">
	<path d="M6.01 16.96c3.74 1.21 4.79 1.53 5.82 1.8v-.57c-.89-.54-3.23-1.95-4.3-2.64-1.28-.82-.72-1.05-.28-1.99 1.48-2.4 3.84-5.94 4.58-7.17V5.26c-.28.34-5.38 4.45-8.52 7.55C1.83 14.52.42 15.09 6 16.96Zm14.66-4.17c-3.13-3.1-8.24-7.22-8.52-7.55v1.13c.74 1.23 3.1 4.77 4.56 7.17.46.95 1 1.16-.28 1.99-1.07.69-3.4 2.1-4.3 2.64v.57c1.05-.28 2.08-.57 5.82-1.8 5.61-1.85 4.2-2.43 2.71-4.15Z" style="fill:#000;stroke-width:0"/>
</svg>
