<?xml version="1.0" encoding="UTF-8"?>
<svg xmlns="http://www.w3.org/2000/svg" id="icon" viewBox="0 0 24 24">
	<defs>
		<style>
			.cls-1{fill:#000;stroke-width:0}
		</style>
	</defs>
	<path d="m15.77 10.48-.28 1.02s.02.08.06.08h.81l-.14-.16-.2-.22s-.02-.08.03-.12c.22-.17.44-.36.67-.56l.16-.12h-1.02s-.09.05-.09.09Zm-.88-.09h-.97l.06.14c.11.17.23.36.34.56.02.03 0 .09-.05.11l-.34.2-.2.14h.83s.09-.03.11-.08l.28-1.02s-.02-.06-.06-.06Z" class="cls-1"/>
	<path d="M17.39 5.59h-4.13L16.29 2h-3.25L4.63 12l1.98 6.41h4.13L7.71 22h3.25l8.42-10-1.98-6.41Zm-5.91 7.97-.62.59c-.03.03-.08.05-.11.02-.53-.38-.94-.84-1.23-1.42-.03-.06-.14-.03-.16.05l-.47 1.67s-.06.08-.11.08h-.62s-.06-.03-.06-.08l.47-1.61c.02-.08-.06-.11-.12-.05-.58.52-1.25 1-2.03 1.42-.05.03-.09.02-.11-.02-.08-.2-.17-.39-.28-.56-.02-.05 0-.09.06-.13.89-.39 1.66-.87 2.31-1.42.06-.05.05-.14-.02-.14H6.63s-.06-.03-.06-.08l.16-.58s.06-.08.11-.08h2.11s.09-.03.11-.08l.14-.5s-.02-.08-.06-.08H7.33s-.06-.03-.06-.08l.16-.58s.06-.08.11-.08h1.8s.09-.03.11-.08l.19-.64s.06-.08.11-.08h.62s.06.03.06.08l-.19.64s.02.08.06.08h1.84s.06.03.06.08l-.16.58s-.06.08-.11.08h-1.86s-.09.03-.11.08l-.14.5s.02.08.06.08h2.14s.06.03.06.08l-.16.58s-.06.08-.11.08h-1.78c-.06 0-.12.08-.09.14.36.58.87 1.03 1.55 1.34.05.02.05.08 0 .11Zm6.35-3.25s-.06.08-.11.08h-.81l.14.14.23.22s.02.08-.02.11c-.23.22-.45.39-.66.55l-.16.14h1.23s.06.03.06.08l-.16.56s-.06.08-.11.08h-1.58c-.08 0-.13.09-.09.14.34.45.8.8 1.36 1.05.05.02.05.08 0 .13-.19.17-.38.36-.55.56-.03.03-.08.05-.11.03-.58-.38-1-.83-1.28-1.33-.03-.06-.14-.02-.16.05l-.44 1.56s-.06.08-.11.08h-.66s-.06-.03-.06-.08l.44-1.55c.02-.08-.06-.11-.13-.05-.58.52-1.25.97-2.03 1.34-.05.02-.08.02-.09-.03-.08-.19-.16-.38-.23-.53-.02-.05.02-.09.06-.13.7-.28 1.36-.66 1.94-1.12.06-.05.06-.14-.02-.14h-1.48s-.06-.03-.06-.08l.16-.56s.06-.08.11-.08h1.17l-.06-.12c-.08-.17-.19-.36-.31-.58-.02-.03 0-.09.05-.11l.31-.2.2-.14h-.77s-.06-.03-.06-.08l.16-.58s.06-.08.11-.08h1.83s.09-.03.11-.08l.13-.45s.06-.08.11-.08h.66s.06.03.06.08l-.13.45s.02.08.06.08h1.86s.06.03.06.08l-.19.59Z" class="cls-1"/>
</svg>
