<?xml version="1.0" encoding="UTF-8"?>
<svg xmlns="http://www.w3.org/2000/svg" viewBox="0 0 24 24">
	<path d="m18.51 21-2.68-2.61c-.63.32-1.26.55-2.05.55h-3.63c-.79 0-1.42-.16-2.05-.55L5.49 21l-1.66-1.66 2.45-2.53c-.32-.32-.55-.63-.71-.79-.55-.71-.79-1.66-.79-2.61v-2.84c0-.95.32-1.89.79-2.61.16-.24.47-.55.79-.87L3.99 4.64l1.58-1.58 2.61 2.61c.63-.32 1.26-.47 1.97-.47h3.63c.71 0 1.42.16 1.97.47l2.68-2.68 1.66 1.66-2.53 2.53c.32.32.63.63.79.87.55.71.79 1.66.79 2.61v2.84c0 .95-.32 1.89-.79 2.61-.16.24-.39.47-.71.79l2.53 2.53-1.66 1.58Zm-3.94-4.5c.71-.39 1.74-1.66 2.13-2.29.16-.24.16-.47.16-.79v-2.76c0-.32-.08-.55-.16-.79-.39-.71-1.42-1.89-2.13-2.29a1.55 1.55 0 0 0-.71-.16h-3.71c-.32 0-.55.08-.71.16-.71.39-1.82 1.66-2.21 2.29-.16.24-.16.47-.16.79v2.76c0 .32.08.55.16.79.39.71 1.42 1.89 2.21 2.29.16.08.39.16.71.16h3.71c.32 0 .55-.08.71-.16Z" style="fill:#000;stroke-width:0"/>
</svg>
