<?xml version="1.0" encoding="UTF-8"?>
<svg xmlns="http://www.w3.org/2000/svg" id="icon" viewBox="0 0 24 24">
	<defs>
		<style>
			.cls-1{fill:#000;stroke-width:0}
		</style>
	</defs>
	<path d="M4.1 19.81c-1.47-1.51-1.49-3.88.06-5.42.88-.88 2.05-1.17 3.15-1.19 2.39-.06 5.69-3.4 5.85-5.87.08-1.11.3-2.33 1.17-3.13 1.51-1.49 4.04-1.55 5.51.08 1.59 1.51 1.55 4.06-.06 5.53-.86.8-1.95 1.06-3.05 1.08-2.75.06-6.07 3.62-5.97 5.73.04 1.02-.24 2.37-1.08 3.27-1.51 1.49-4.14 1.39-5.57-.08Z" class="cls-1"/>
	<path d="M16.96 12.78c2.19 0 4.02 1.85 4.02 4.04 0 2.31-1.85 4.14-4.02 4.14-2.31 0-4.14-1.85-4.14-4.14s1.85-4.04 4.14-4.04M7.17 3.04c2.19 0 4.02 1.85 4.02 4.04 0 2.31-1.85 4.14-4.02 4.14-2.31 0-4.14-1.85-4.14-4.14s1.85-4.04 4.14-4.04" class="cls-1"/>
</svg>
