<svg xmlns="http://www.w3.org/2000/svg" viewBox="0 0 50 50">
	<path d="M28.2 19a6 6 0 0 0-6 6 6 6 0 1 0 6-6Zm0 2.13A3.86 3.86 0 0 1 32.06 25a3.86 3.86 0 0 1-3.87 3.86A3.86 3.86 0 0 1 24.33 25a3.85 3.85 0 0 1 3.86-3.85Z" class="a"/>
	<path d="M17.88 19a6 6 0 1 0 0 12 6.85 6.85 0 0 0 4.92-2.05 7 7 0 0 1-1-2.06 5.16 5.16 0 0 1-3.93 2 3.86 3.86 0 1 1 0-7.71A5 5 0 0 1 21.8 23a4.81 4.81 0 0 1 1-2 6.69 6.69 0 0 0-5-2Zm-11.31.26L2.12 30.6H4.4l.92-2.34H10l1 2.34h2.23L8.77 19.26Zm1.11 3 1.54 3.91H6.13Zm28.08-3-2 11.34h2.17l1.24-7.14 2.43 7.14h1.9l2.5-7.14 1.23 7.14h2.07l-1.92-11.34h-2.13l-2.69 7.93-2.67-7.93Z" class="a"/>
	<path d="M7.66 16.2a1.33 1.33 0 0 0-1.28 1H2.84A2.77 2.77 0 0 0 0 19.89v10.3a2.77 2.77 0 0 0 2.84 2.7h35.25v-.68H2.77a2.09 2.09 0 0 1-2.1-2.09V20a2.1 2.1 0 0 1 2.1-2.1h3.64a1.31 1.31 0 1 0 1.25-1.7Z" class="a"/>
	<path d="M10.22 17.19v.74h36.93A2.09 2.09 0 0 1 49.24 20v10.12a2.08 2.08 0 0 1-2.09 2.09h-5.21a1.31 1.31 0 1 0-1.28 1.59 1.32 1.32 0 0 0 1.25-.91h5.25a2.77 2.77 0 0 0 2.84-2.7v-10.3a2.77 2.77 0 0 0-2.84-2.7Z" class="a"/>
</svg>
