<?xml version="1.0" encoding="UTF-8"?>
<svg xmlns="http://www.w3.org/2000/svg" viewBox="0 0 24 24">
	<path d="m16.04 15.88.69-1.09-.02-.05h-1.15l.49 1.14ZM13.36 9.6l1.66 3.9h1.13l-3.9-8.81v8.8h1.1v-3.9Zm-1.1 10.14 1.1-1.95v-3.04h-1.1v5Zm-1.58-1.95 1.06 1.95v-5h-1.06v3.04ZM7.31 14.8 8 15.89l.49-1.14H7.34l-.02.05Zm3.37-5.2v3.9h1.06V4.68l-3.86 8.81h1.14l1.66-3.9Zm-2.13 5.61-.38.91c.61.67 1.39 1.17 2.25 1.44v-.94c-.75-.29-1.39-.78-1.87-1.41Zm5.33-7.49L14.44 9c1.39.93 2.11 2.58 1.85 4.23l.56 1.28c.25-.61.37-1.26.37-1.92a5.22 5.22 0 0 0-3.35-4.87ZM9.57 9l.56-1.28a5.204 5.204 0 0 0-3 6.72c0 .02.02.05.03.07l.56-1.28c-.03-.21-.05-.43-.05-.64 0-1.44.72-2.78 1.91-3.59Zm4.02 7.63v.94c.86-.28 1.63-.78 2.25-1.44l-.38-.91c-.48.63-1.13 1.12-1.86 1.41Z"/>
	<path d="m12 3.22 1.77 4.09c2.96.98 4.56 4.17 3.58 7.13a5.662 5.662 0 0 1-3.83 3.66L12 20.97l-1.53-2.87a5.642 5.642 0 0 1-.25-10.79l1.77-4.09ZM12 2l-.44 1.02-1.69 3.9C6.7 8.1 5.08 11.63 6.27 14.8a6.122 6.122 0 0 0 3.88 3.7l1.43 2.69.42.8.43-.81 1.43-2.69c3.22-1.03 5.01-4.47 3.98-7.7a6.139 6.139 0 0 0-3.7-3.89L12.45 3l-.44-1.02Z"/>
	<path d="M8.09 13.78h-.16l-.47.69v.02h.16l.08-.12h.24v.12h.17l-.03-.7Zm-.15.44h-.15l.15-.24v.24Zm.75-.05-.15-.39h-.16l-.21.71h.17l.11-.4.16.4h.16l.17-.71h-.16l-.1.4Zm.53.07-.05-.47h-.16v.02l.08.68.16.01.38-.69v-.02h-.16l-.25.47Zm.34.24h.17l.12-.71h-.16l-.13.71Zm.56-.71h-.16l-.12.71h.5l.02-.14h-.32l.09-.57Zm.98 0h-.16l-.31.69v.02h.16l.05-.12h.24l.03.12h.17l-.19-.7Zm-.04.45h-.15l.09-.24.06.24Zm.48-.03h.28v-.14h-.28v-.14h.35v-.14h-.5l-.03.71h.53v-.14h-.36v-.15Zm.93.02s.07-.02.07-.06v-.3s-.04-.07-.08-.08h-.48v.71h.17v-.57h.22v.18h-.2v.09l.23.31h.18v-.02l-.2-.25h.08Zm.65-.44h-.42s-.07.03-.07.06v.01l.02.56s.03.08.08.08h.44s.07-.02.07-.06v-.02l-.05-.56s-.03-.08-.08-.08Zm-.07.14.03.44h-.26l-.03-.44h.25Zm.72-.14h-.39s-.07.03-.07.06v.01l.02.16s.02.06.05.07l.37.17v.09h-.22v-.13h-.18l.02.18s.04.08.08.08h.41s.07-.02.07-.05v-.02l-.03-.18s-.02-.06-.05-.07l-.37-.17v-.08h.21V14h.18l-.02-.17s-.04-.08-.09-.08Zm.73.08s-.05-.08-.09-.08h-.46l.11.71h.17l-.04-.23h.31s.06-.02.07-.05v-.03l-.06-.32Zm-.15.06.04.2h-.22l-.03-.2h.22Zm.53-.14h-.16l-.1.69v.02h.17v-.12h.26l.07.12h.17v-.02l-.4-.68v-.01Zm.1.45h-.15l.02-.24.13.24Zm.68-.45h-.41s-.07.03-.06.08l.14.55s.05.08.1.08h.44s.07-.03.06-.08l-.06-.19h-.17l.04.14h-.25l-.11-.43h.24l.03.13h.16l-.05-.19s-.05-.08-.1-.08Zm.52.57-.05-.15h.28l-.05-.14h-.28l-.04-.14h.34l-.05-.14h-.5l.22.71h.53l-.05-.14h-.36Z"/>
</svg>
