<svg xmlns="http://www.w3.org/2000/svg" viewBox="0 0 50 50">
	<path d="m44.18 22.942-7.234-2.963a12.166 12.166 0 0 1-.602 4.818l7.414 2.946-2.01-3.117zm-30.524 1.866a12.182 12.182 0 0 1-.605-4.819l-7.232 2.953 2.434 1.684-2.014 3.117zm12.054 9.629 9.085 3.262 1.749-4.802-3.261-1.331a13.305 13.305 0 0 1-7.573 2.87m-12.255-1.539 1.758 4.837 9.025-3.301a13.299 13.299 0 0 1-7.522-2.868zm.622-7.02-9.015 3.698L.54 36.582l16.431-6.708a12.101 12.101 0 0 1-2.894-4m21.845 0a12.117 12.117 0 0 1-2.898 3.997l16.431 6.711-4.522-7.01zm.867-7.125 8.51 3.407.128-.087L50 18.909l-16.741-6.754a12.092 12.092 0 0 1 3.531 6.597M4.697 22.159l8.51-3.407a12.088 12.088 0 0 1 3.521-6.59L0 18.914l4.57 3.16zm10.998 15.98 9.301 5.222 9.337-5.245-9.37-3.37z"/>
	<path d="M32.15 16.896a7.62 7.62 0 0 0-1.659-2.051v5.057h4.371a9.368 9.368 0 0 1 .051.981c0 .297-.013.572-.033.868h-4.39v5.127a8.508 8.508 0 0 0 2.277-3.473h1.824a10.213 10.213 0 0 1-.606 1.682 9.933 9.933 0 0 1-5.359 5.066V11.634a9.84 9.84 0 0 1 6.02 6.997h-1.751a8.265 8.265 0 0 0-.747-1.735zm-4.48 13.568a7.52 7.52 0 0 1-2.681.379 10.656 10.656 0 0 1-2.556-.346V11.294a9.934 9.934 0 0 1 2.556-.329 10.055 10.055 0 0 1 2.683.36v7.31h-1.864v-5.807a7.393 7.393 0 0 0-.82-.044c-.235 0-.46.013-.692.027v7.091h3.376v1.848h-3.377v7.237c.235.016.454.023.692.023.287 0 .558 0 .82-.023v-5.585h1.864zm-6.186-.316a10.018 10.018 0 0 1-5.383-5.1V16.71a9.992 9.992 0 0 1 1.859-2.726v10.842a8.016 8.016 0 0 0 1.66 2.095v-14.32a10.146 10.146 0 0 1 1.863-.975zm3.514-20.135a10.837 10.837 0 0 0-10.8 10.877v.014a10.92 10.92 0 0 0 4.014 8.463 10.694 10.694 0 0 0 13.569 0 10.898 10.898 0 0 0-6.783-19.35zm-2.455-5.82-.793 1.405 1.892-.229z"/>
	<path d="m13.636 7.057 3.302.757-1.243-2.034.955-.599 1.567 2.56-1.638 1.022-3.304-.76 1.249 2.037-.951.595-1.567-2.558zm8.003-3.221 1.829-.222 2.622 2.709-1.391.168-.539-.572-2.788.337-.386.686-1.264.155zm7.252.062.884 2.788 2.172-1.95 1.194.33-2.638 2.392-1.873-.515-1.066-3.413zm6.254 2.177 1.16.904.331 2.076 2.107-.175 1.018.797-3.093.235-.552.723-.981-.77.551-.72zM13.65 11.893l.151-.135a16.454 16.454 0 0 1 10.86-4.382l.336-.007.362.007a16.458 16.458 0 0 1 10.824 4.37l.168.152 3.746 1.43 4.142 1.58A21.214 21.214 0 0 0 5.761 14.9l4.573-1.745zM37.82 33.66l-1.915 5.255-10.907 5.84-10.908-5.84-1.301-3.581-.605-1.673-.139-.169L7.853 35.2l1.782 8.161L25 47.372l15.36-4.011 1.782-8.16-4.19-1.712z"/>
</svg>
