<?xml version="1.0" encoding="UTF-8"?>
<svg xmlns="http://www.w3.org/2000/svg" viewBox="0 0 24 24">
	<path d="M19.83 17.8c-.11 0-.22-.04-.29-.11a.543.543 0 0 1-.15-.77c.99-1.46 1.5-3.18 1.5-4.97s-.51-3.51-1.5-4.97c-.18-.26-.11-.58.15-.77s.58-.11.77.15c1.1 1.64 1.68 3.54 1.68 5.55s-.58 3.94-1.68 5.55c-.15.26-.29.33-.47.33Zm-15.7 0c-.18 0-.33-.07-.44-.22-1.1-1.61-1.68-3.54-1.68-5.55s.58-3.94 1.68-5.55c.18-.26.51-.29.77-.15.26.18.33.51.15.77-1.02 1.42-1.53 3.1-1.53 4.93s.51 3.51 1.5 4.97c.18.26.11.58-.15.77-.07 0-.18.04-.29.04ZM17.24 4.69c-.11 0-.22-.04-.29-.11-2.88-1.97-7.01-1.97-9.9 0-.26.18-.58.11-.77-.15s-.11-.58.15-.77c3.25-2.23 7.85-2.23 11.1 0 .26.18.33.51.15.77-.11.18-.26.26-.44.26ZM11.98 22c-2.01 0-3.94-.58-5.55-1.68a.543.543 0 0 1-.15-.77c.18-.26.51-.33.77-.15 2.88 1.97 7.01 1.97 9.9 0 .26-.18.58-.11.77.15s.11.58-.15.77c-1.64 1.1-3.58 1.68-5.59 1.68Zm2.92-10.81-4.45 6.94h-.48l1.35-5.4H9.06l1.1-6.28h3.98l-1.9 4.74h2.66z" style="fill:#000;stroke-width:0"/>
</svg>
