<?xml version="1.0" encoding="UTF-8"?>
<svg xmlns="http://www.w3.org/2000/svg" viewBox="0 0 24 24">
	<path d="m19.67 11.18-2.89-1.19c.05.65-.03 1.31-.24 1.93l2.97 1.18-.8-1.25.97-.67Zm-12.21.75c-.21-.62-.29-1.28-.24-1.93l-2.89 1.18.97.67-.81 1.25 2.97-1.17Zm4.82 3.85 3.63 1.3.7-1.92-1.3-.53a5.32 5.32 0 0 1-3.03 1.15m-4.9-.62.7 1.93 3.61-1.32a5.26 5.26 0 0 1-3.01-1.15l-1.3.53Zm.25-2.81-3.61 1.48-1.81 2.8 6.57-2.68c-.49-.45-.89-.99-1.16-1.6m8.74 0c-.27.61-.67 1.15-1.16 1.6l6.57 2.68-1.81-2.8-3.6-1.48Zm.35-2.85 3.4 1.36.05-.03 1.83-1.26-6.7-2.7a4.82 4.82 0 0 1 1.41 2.64M3.86 10.87l3.4-1.36a4.82 4.82 0 0 1 1.41-2.64l-6.69 2.7 1.83 1.26.05.03Zm4.4 6.39 3.72 2.09 3.73-2.1-3.75-1.35-3.71 1.36Z"/>
	<path d="M14.86 8.76c-.17-.31-.4-.59-.66-.82v2.02h1.75c.01.13.02.26.02.39 0 .12 0 .23-.01.35H14.2v2.05c.41-.38.73-.86.91-1.39h.73a4.007 4.007 0 0 1-2.38 2.7V6.65c1.22.48 2.12 1.52 2.41 2.8h-.7c-.07-.24-.17-.47-.3-.69Zm-1.79 5.43c-.35.12-.71.17-1.07.15-.35 0-.69-.05-1.02-.14V6.52c.33-.09.68-.13 1.02-.13.36 0 .72.05 1.07.14v2.92h-.75V7.13c-.11-.01-.22-.02-.33-.02-.09 0-.18 0-.28.01v2.84h1.35v.74h-1.35v2.89h.61v-2.23h.75v2.82Zm-2.47-.13a4.01 4.01 0 0 1-2.15-2.04V8.68c.19-.4.44-.77.74-1.09v4.34c.17.31.4.6.66.84V7.04c.23-.16.48-.29.75-.39v7.41Zm1.41-8.05c-2.39 0-4.33 1.96-4.32 4.35 0 1.32.59 2.56 1.61 3.39a4.293 4.293 0 0 0 5.43 0 4.354 4.354 0 0 0 .63-6.13 4.34 4.34 0 0 0-3.34-1.61Zm-.98-2.33-.32.56.76-.09-.44-.47Z"/>
	<path d="m7.45 4.82 1.32.3-.5-.81.38-.24.63 1.02-.66.41-1.32-.3.5.81-.38.24-.63-1.02.65-.41Zm3.2-1.29.73-.09 1.05 1.08-.56.07-.22-.23-1.12.13-.15.27-.51.06.77-1.3Zm2.9.02.35 1.12.87-.78.48.13-1.06.96-.75-.21-.43-1.37.53.15Zm2.5.87.46.36.13.83.84-.07.41.32-1.24.09-.22.29-.39-.31.22-.29-.22-1.23ZM7.46 6.76l.06-.05a6.546 6.546 0 0 1 4.34-1.75h.27c1.61.03 3.15.66 4.33 1.75l.07.06 1.5.57 1.66.63c-1.97-4.25-7.02-6.1-11.27-4.12-1.82.84-3.28 2.3-4.12 4.12l1.83-.7 1.33-.5Zm9.67 8.71-.77 2.1L12 19.91l-4.36-2.34-.52-1.43-.24-.67-.06-.07-1.68.68.71 3.26 6.15 1.6 6.14-1.6.71-3.26-1.68-.68-.05.07Z"/>
</svg>
