<?xml version="1.0" encoding="UTF-8"?>
<svg xmlns="http://www.w3.org/2000/svg" xml:space="preserve" style="fill-rule:evenodd;clip-rule:evenodd;stroke-linejoin:round;stroke-miterlimit:2" viewBox="0 0 100 100">
	<path d="M0 0h24v24H0z" style="fill:none" transform="scale(4.16667)"/>
	<path d="M78.626 29.004c1.638 0 5.112.482 6.718.559a.15.15 0 0 1 .14.155c-.08 1.803-1.559 3.84-2.397 4.526a.11.11 0 0 1-.17-.038c-.62-1.323-2.212-2.913-6.265-2.734-1.999.089-4.027 1.247-4.027 5.638 0 5.455 3.22 8.052 6.702 8.052 1.896 0 3.276-.77 3.276-2.797 0-2.026-1.614-2.892-4.393-2.892a12 12 0 0 0-.804.03.21.21 0 0 1-.195-.288c.366-.927.778-1.697 1.3-2.095a.3.3 0 0 1 .185-.063l6.43-.024c.17 0 .307.139.304.308-.026 1.693-.28 3.538-1.237 5.143a.3.3 0 0 0 .115.422c.782.424 1.635.904 2.253 1.248.234.13.27.452.069.63-2.699 2.386-5.527 3.038-9.33 2.976-3.662-.06-8.851-2.78-8.851-8.677v.001c0-5.117 3.792-10.08 10.177-10.08" style="fill-rule:nonzero" transform="translate(-139.448 -42.91)scale(2.41336)"/>
	<path d="M50 17.721a32.1 32.1 0 0 1 22.829 9.456 32.1 32.1 0 0 1 9.455 22.83 32.1 32.1 0 0 1-9.455 22.825 32.1 32.1 0 0 1-22.83 9.458 32.1 32.1 0 0 1-22.826-9.458 32.1 32.1 0 0 1-9.458-22.828 32.1 32.1 0 0 1 9.458-22.827A32.1 32.1 0 0 1 50 17.72m0 1.211c-17.135 0-31.075 13.94-31.075 31.072 0 17.133 13.94 31.075 31.075 31.075s31.072-13.94 31.072-31.075S67.135 18.932 50 18.932"/>
	<path d="M24.952 75.048a35.23 35.23 0 0 1-9.507-17.198l-.002-.01a6.03 6.03 0 0 0-1.617-2.956l-5.493-5.493 5.799-5.674.004-.004a6 6 0 0 0 1.614-2.788 35.24 35.24 0 0 1 8.814-15.573A35.5 35.5 0 0 1 50 14.577a35.5 35.5 0 0 1 25.436 10.775 35.24 35.24 0 0 1 8.814 15.573 6 6 0 0 0 1.614 2.788l.004.004 5.799 5.674-5.493 5.493a6.03 6.03 0 0 0-1.617 2.956l-.002.01a35.23 35.23 0 0 1-9.507 17.198c-6.325 6.323-14.62 9.963-23.501 10.342a36 36 0 0 1-3.094 0c-8.88-.379-17.176-4.019-23.5-10.342m-9.044-25.082v.08c.021 18.768 15.284 34.031 34.053 34.052h.078c18.77-.02 34.032-15.284 34.053-34.052v-.206c-.09-18.773-15.356-33.905-34.052-33.927h-.08c-18.696.022-33.962 15.154-34.052 33.927z"/>
</svg>
