<?xml version="1.0" encoding="UTF-8"?>
<svg xmlns="http://www.w3.org/2000/svg" viewBox="0 0 24 24">
	<path d="M14.04 6.54C8.54 5.58 3.48 10.1 2 16.63c2.16-5.54 6.31-8.96 12.04-10.09Z"/>
	<path d="M17.51 8.2c.09.05.18.1.27.14a.962.962 0 0 0-.18-.22c-3.47-2.9-9.2.63-11.2 2.57 3.04-2.19 7.46-4.44 11.11-2.5Zm2.17 3.38c-.57.68-1.19 1.33-1.86 1.92-1.09.99-2.3 1.84-3.6 2.53-1.31.72-2.19 1-4.29 1.45 1.5.25 3.04.09 4.46-.46a12.19 12.19 0 0 0 4.35-3.28c.6-.67 1.13-1.4 1.6-2.17.73-1.33 1.29-2.74 1.65-4.21-.55 1.52-1.33 2.94-2.32 4.21Z"/>
	<path d="M8.06 9.85c-2.86 2.6-4.12 5.82 1.5 6.23-4.16-.61-3.83-3.2-1.5-6.23Z"/>
	<path d="M10.86 9.1c-2.14.94-3.29 3.02-2.58 4.65s3.03 2.18 5.17 1.23c.37-.16.72-.37 1.05-.61.12-.09.24-.22.34-.32.74-.64 1.23-1.52 1.39-2.49.02-.17.02-.33 0-.5-.02-.48-.21-.93-.52-1.29l-.05-.05c-.64-.7-1.55-1.09-2.5-1.09h-.14c-.74 0-1.48.15-2.16.46Zm3.14 0c.41.15.76.41 1.04.75.11.14.21.3.28.46.17.4.22.85.14 1.28-.17.73-.56 1.39-1.12 1.89l-.12.1c-.35.29-.74.54-1.16.72-.73.34-1.53.47-2.32.4-.93-.05-1.76-.59-2.18-1.42-.62-1.4.4-3.2 2.27-4.03 1-.46 2.14-.52 3.17-.15Z"/>
	<circle cx="13.09" cy="10.48" r=".51"/>
	<circle cx="13.62" cy="11.35" r=".24"/>
	<path d="m14.16 15.74.12-.06c.64-.36 1.24-.79 1.78-1.3a7.55 7.55 0 0 0 1.97-2.8c1.29-3.02-1.85-3.69-4.24-3.72 1.98.05 4.63.85 3.64 3.73-.35.99-.92 1.89-1.65 2.64-.44.42-.93.78-1.45 1.08-2.58 1.26-5.68 1.84-8.13.35 2.06 2.16 5.38 1.33 7.6.26l.36-.18Z"/>
</svg>
