<?xml version="1.0" encoding="UTF-8"?>
<svg xmlns="http://www.w3.org/2000/svg" xmlns:xlink="http://www.w3.org/1999/xlink" viewBox="0 0 24 24">
	<path id="icon" d="m11.04 7.38.38.1c.12.03.22.15.22.27v11.41c0 .14-.09.24-.22.27l-.38.1a.301.301 0 0 1-.33-.14l-3.26-5.67a.353.353 0 0 1-.03-.14v-.27c0-.05.02-.1.03-.14l3.26-5.67a.29.29 0 0 1 .33-.14Zm1.9 0-.38.1c-.12.03-.22.15-.22.27v11.41c0 .14.09.24.22.27l.38.1c.12.03.26-.02.33-.14l3.26-5.67c.02-.05.03-.09.03-.14v-.27c0-.05-.02-.1-.03-.14L13.27 7.5c-.05-.12-.19-.17-.33-.14ZM2.54 4.93l.21-.36a.29.29 0 0 1 .26-.14h7.71c.1 0 .21.05.26.14l.21.36c.05.09.05.21 0 .29L7.33 11.9a.29.29 0 0 1-.26.14h-.43c-.1 0-.21-.05-.26-.14L2.52 5.22c-.03-.1-.03-.21.02-.29Zm10.28 0 .21-.36a.29.29 0 0 1 .26-.14H21c.1 0 .21.05.26.14l.21.36c.05.09.05.21 0 .29l-3.86 6.68a.29.29 0 0 1-.26.14h-.43c-.1 0-.21-.05-.26-.14L12.8 5.22c-.03-.1-.03-.21.02-.29Z" class="cls-1"/>
</svg>
