<?xml version="1.0" encoding="utf-8"?>
<svg xmlns="http://www.w3.org/2000/svg" xml:space="preserve" id="Layer_1" x="0" y="0" style="enable-background:new 0 0 50 50" version="1.1" viewBox="0 0 50 50">
	<path d="M42.5 0H20.6l-6.5 6.5h-1.4l-.6-.5v-.8l-2-2h-.7L3.6 9v.8l2 2h.8l.5.5v1.4l-1 1v31.4L9.7 50h32.8l3.9-3.9V3.8L42.5 0zm-17 44.2c-5.9 0-10.7-4.7-10.7-10.6 0-2.1.6-4.2 1.8-6 .2-.3.4-.6.7-.9 4.6-5.3 4.9-11 9.7-14.4-1.4 5.6 3 10.1 6.7 14.4.2.3.5.6.7.9 3.3 4.9 2 11.5-2.9 14.8-1.9 1.2-4 1.8-6 1.8zM42.7 6.6H17.9l4-4h18.9l2 2-.1 2zM24.9 22.7c1 2 2.3 3.9 3.9 5.5.4.5.8.9 1.2 1.4 2.2 2.5 1.9 6.3-.6 8.5s-6.3 1.9-8.5-.6c-1.9-2.2-1.9-5.6 0-7.8 1.6-1.9 2.9-4.1 3.8-6.5l.2-.5m.6-4c-2 2.3-2.5 6.3-5.6 10-.2.2-.3.4-.5.6-2.3 3.4-1.4 8 2 10.2s8 1.4 10.2-2c1.7-2.5 1.7-5.8 0-8.2-.1-.2-.3-.4-.5-.6-2.5-3-5.6-5.7-5.6-10z"/>
</svg>
