<?xml version="1.0" encoding="utf-8"?>
<svg xmlns="http://www.w3.org/2000/svg" xml:space="preserve" id="Layer_1" x="0" y="0" style="enable-background:new 0 0 50 50" version="1.1" viewBox="0 0 50 50">
	<path d="M49.8 22.1v-.4l-8.7.1v-.5l-8.6.1v.9h-1.1v.5l-1.2-1.1h-.9v-.4h-3.7l-.2-.4h-4.7v-.4h.4v-2.2h-1.5l-.4.6h-5.9l-.7-.6h-1.8v2.2h1.4v.5H11v.5h-1v.3H6.1l-1.1.5H2l-.5-.5H.9l-.2.5.6.7v.3H.6l-.3.3L0 25l.3.7v1.5l-.3.9s0 .5.3.4c.3 0 2.3-.2 2.3-.2 2.2.3 3.2 1.2 3.2 1.2l.2.6 1.3.8.3-.2.6.4.6.5.1-.5-.1-.6 1.2-2s.3-.6.6-.6.6.3.6.3h2.9v.3h1.4l.4.2-1.1 2.1.4.5h1s1.8-2.8 2.1-3.3c.3-.5.9-.5.9-.5h1.7l.2-.4v-1h3.1l.3.5-.5.5h-1.6v.5l8.6-.1v-1.1l7.4-.1v-.6h-.9v-.8h2.9l.5-.9 9.1-.1v-2.1l-.2.3zM7.9 28.6c-.4.5-.8.4-.8.4s-4.4-1.4-4.7-1.5-.2-.3-.2-.3.6-.8.7-1.2c.1-.4.6-.4.6-.4h3.8l1.5 1.2c0-.1-.5 1.3-.9 1.8z"/>
</svg>
