<?xml version="1.0" encoding="utf-8"?>
<svg xmlns="http://www.w3.org/2000/svg" xml:space="preserve" id="Layer_1" x="0" y="0" style="enable-background:new 0 0 50 50" version="1.1" viewBox="0 0 50 50">
	<path d="M50 18.5v-2.3h-1.4l-.5-.3h-1.7v-1.2l-.4-.4h-1.7v.7h-7.8l-.3.3h-.7l-.3-.4H33l-.4.4h-.1l-.5-.5h-2.9l-.3.3h-.4l-.4-.3h-.7l-.4.4h-.6l-.3-.4h-2.5l-.3.3h-.6l-.3-.3h-.8l-.5.5h-2v-.7h-6.6v-.7h-1.3v1.8H8.8l-2 .7H5.7l-.4-.4H3.9l-.7.7-.6 1.3-.5 2.2s1.1.4 2.6 1.3c.3.2.6.3.8.5C3.5 26.1 0 33 0 33s.5.8 2 1.7c2.1.9 2.7 1 2.7 1l2.4.5s.3 0 .5-.4c.3-.4.4-1 .4-1s-.3-.4.1-1.3c.3-.9 2.5-5.6 2.5-5.6s.3-.6 1.3-.6.8 1 1.2.9H16v.8s.9.6 1.9.6h6.2l.3-.4V27l-.3-.3v-.3h-.5v-.7l2.8-1.8v-.5H36l.7.7h7.7l.4.4h2.5l1.1-1V23l.5-.6-.4-1.3v-1.3l-.4-.4-.2-.2.7-.9 1.4.2zm-31.5 7.7c-.3.4-.5.5-.5.5h-3.9c-1.5 0-2.1-1.1-2.1-2 0-.9.9-1 .9-1h1.8l.2-.2h2v-.3c.7.2 1.8 1.4 1.8 1.4s.3 1-.2 1.6z"/>
</svg>
