<?xml version="1.0" encoding="UTF-8"?>
<svg xmlns="http://www.w3.org/2000/svg" viewBox="0 0 24 24">
	<path d="M18.39 10.96h.34c.08.36.16.72.25 1.08l.12.51.04.53v.02h-.35v-.34h-.44l-.02.32v.02h-.34v-.02l.04-.53c.12-.53.24-1.06.37-1.6m0 1.44h.32c-.06-.23-.11-.46-.16-.69-.05.23-.11.46-.16.69Zm-2.24-1.44h.32v.02l-.04.5v.03l-.35 1-.02.06v.52h-.33v-.52l-.08-.18c-.1-.28-.19-.56-.29-.84v-.08l-.03-.47v-.04h.34v.04c0 .16.02.32.03.48v.08c.06.16.12.33.18.5l.14-.4.05-.13v-.1l.03-.43.05-.04Zm.82 0h.49s.1 0 .14.03l.09.06c.03.03.05.06.07.1.02.04.03.08.03.12v.35h-.33v-.28c0-.02-.03-.04-.05-.04h-.3c-.02.01-.04.04-.04.06v1.3s.03.07.06.08h.28s.04-.02.04-.04v-.28h.34v.45c0 .04-.02.09-.05.12-.04.06-.11.11-.18.12H17s-.08-.01-.11-.03a.254.254 0 0 1-.1-.08.329.329 0 0 1-.07-.16v-1.6c0-.05.02-.1.04-.14.05-.08.12-.13.21-.14Zm-4.22 0h.8s.09.02.13.04c.08.04.13.12.16.2v.98s-.01.1-.03.14c-.03.05-.07.09-.11.12.04.22.09.44.14.66h-.33s-.02 0-.02-.02l-.12-.6h-.26v.62h-.3v-2.14m.35.34v.83h.34s.06-.05.05-.09v-.7a.068.068 0 0 0-.06-.04h-.34Zm5.96-.35h1.09v.33h-.36v1.8h-.34v-1.78h-.37v-.35Zm-7.52 0h.63c.08.02.15.06.2.12.03.04.05.09.06.15v.36h-.35v-.22s0-.05-.03-.06h-.29s-.05 0-.06.03c-.01.01-.02.03-.02.05v1.33c.01.02.03.04.05.04h.26s.06-.02.07-.06v-.31h-.19v-.33h.53v.83a.338.338 0 0 1-.15.2c-.04.02-.08.04-.13.04h-.47s-.08 0-.12-.02a.418.418 0 0 1-.12-.08c-.05-.05-.08-.1-.08-.17v-1.69c.01-.04.04-.08.07-.12.04-.04.08-.07.13-.08Zm2.52-.01h.97v.32h-.62v.55h.49v.31h-.49v.55h.6V13h-.95v-2.08Z"/>
	<path d="M11.94 4a8.042 8.042 0 0 0-.36 16.08h.36c2.97 0 5.7-1.65 7.09-4.27h-2.3c-2.09 2.65-5.93 3.1-8.58 1.01s-3.1-5.93-1.01-8.58a6.107 6.107 0 0 1 9.59 0h2.3A8.052 8.052 0 0 0 11.94 4Z"/>
	<path d="M11.99 2C6.47 2 1.99 6.48 2 12.01c0 5.52 4.48 10 10.01 9.99 5.52 0 10-4.48 9.99-10.01 0-2.65-1.06-5.19-2.93-7.07a9.997 9.997 0 0 0-7.08-2.93Zm0 1c3.87 0 7.3 2.49 8.52 6.16h-4.23A5.173 5.173 0 0 0 9.1 7.73a5.173 5.173 0 0 0-1.43 7.18 5.173 5.173 0 0 0 9.11-.96h-6.36v-3.84h10.36c1.04 4.85-2.06 9.63-6.91 10.67-4.85 1.04-9.63-2.06-10.67-6.91C2.16 9.02 5.26 4.24 10.11 3.2c.61-.13 1.24-.2 1.87-.2Zm0 4.8c1.17 0 2.29.49 3.09 1.34h-5.6v5.75h5.6c-1.58 1.71-4.25 1.81-5.96.23s-1.81-4.25-.23-5.96a4.23 4.23 0 0 1 3.1-1.35v-.02Z"/>
</svg>
