<?xml version="1.0" encoding="UTF-8"?>
<svg xmlns="http://www.w3.org/2000/svg" data-name="Layer 5" viewBox="0 0 24 24">
	<path d="M13.28 9.58c-1.33 0-2.4 1.07-2.4 2.4s1.07 2.4 2.4 2.4 2.4-1.07 2.4-2.4-1.07-2.4-2.4-2.4Zm0 .85a1.54 1.54 0 0 1 0 3.08 1.54 1.54 0 0 1 0-3.08Z"/>
	<path d="M9.15 9.58c-1.33 0-2.4 1.07-2.4 2.4s1.07 2.4 2.4 2.4c.74 0 1.45-.29 1.97-.82-.18-.25-.31-.53-.4-.82-.38.49-.95.78-1.57.8a1.543 1.543 0 0 1-.16-3.08h.16c.61 0 1.19.26 1.57.73.07-.29.21-.57.4-.8-.53-.54-1.25-.83-2-.8h.03Zm-4.52.1-1.78 4.54h.91l.37-.94H6l.4.94h.89L5.51 9.68h-.88Zm.44 1.2.62 1.56H4.45l.62-1.56Zm11.23-1.2-.8 4.54h.87l.5-2.86.97 2.86h.76l1-2.86.49 2.86h.83l-.77-4.54h-.85l-1.08 3.17-1.07-3.17h-.85Z"/>
	<path d="M5.06 8.46c-.24 0-.45.17-.51.4H3.13c-.61-.02-1.12.47-1.14 1.08v4.12c.02.61.52 1.1 1.14 1.08s14.1 0 14.1 0v-.27H3.11c-.46 0-.84-.37-.84-.83V9.99c0-.46.38-.84.84-.84h1.46c.09.28.38.43.66.34a.52.52 0 0 0 .34-.66.525.525 0 0 0-.5-.37Z"/>
	<path d="M6.09 8.86v.3h14.77c.46 0 .83.37.84.83v4.05c0 .46-.37.83-.83.84h-2.08a.524.524 0 0 0-.62-.4c-.28.06-.46.34-.4.62a.524.524 0 0 0 1.01.05h2.1c.61.02 1.12-.47 1.14-1.08V9.95c-.02-.61-.52-1.1-1.14-1.08H6.09Z"/>
</svg>
