<?xml version="1.0" encoding="UTF-8"?>
<svg xmlns="http://www.w3.org/2000/svg" id="icon" viewBox="0 0 24 24">
	<defs>
		<style>
			.cls-1{fill:#000;stroke-width:0}
		</style>
	</defs>
	<path d="M8.64 14.35c-.14 0-.27-.11-.31-.23l-.36-1.5 1.62-.81c.39-.19.72-.58.84-1.06l.56-2.14c.14-.53-.2-.97-.77-.97h-6l-2.23 8.75H4.1l.55-2.12 1.42-.72.52 2.11c.09.39.5.72.91.72h1.69l.52-2.02H8.65Zm-3.33-2.64.02-.06.5-1.98h2.44c.19 0 .31.08.27.22-.03.12-.12.27-.36.38l-2.86 1.45Zm11.61.91-3.39-2.25c-.19-.12-.27-.27-.22-.45.05-.19.19-.27.38-.27h3.17l.52-2.03h-4.89c-.42 0-.83.33-.92.72l-.48 1.92c-.09.39.09.91.44 1.14l3.42 2.28c.19.13.22.25.17.41-.03.13-.17.25-.38.25h-2.55l-.53 2.05h4.27c.42 0 .86-.33.95-.72l.48-1.91c.09-.39-.09-.92-.44-1.14Zm2.97-4.99h-.01l-2.26 8.75h2.15L22 7.63h-2.11zm-8.8 6.72h-.34l-.53 2.03h.36l.51-2.03zm-.7 0h-.34l-.53 2.03h.36l.53-2.03h-.02z" class="cls-1"/>
	<path d="M11.47 14.35h-.03l-.52 2.03h.36l.53-2.03h-.34zM19 9.66l.52-2.03h-.35l-.51 2.03H19zm-.7 0 .51-2.03h-.34l-.52 2.03h.35zm-.18-2.03h-.37l-.53 2.03h.37l.53-2.03z" class="cls-1"/>
</svg>
