<?xml version="1.0" encoding="UTF-8"?>
<svg xmlns="http://www.w3.org/2000/svg" id="icon" viewBox="0 0 24 24">
	<defs>
		<style>
			.cls-1{fill:#000;stroke-width:0}
		</style>
	</defs>
	<path d="M12 19.82c-1.54 0-2.88-.41-4.01-1.2-.9-.64-1.65-1.52-2.24-2.64-1.01-1.89-1.17-3.75-1.19-3.82v-.08l.06-.05c2.12-1.69 4.66-2.59 7.37-2.59s5.3.91 7.37 2.59l.06.05v.08c0 .08-.18 1.94-1.17 3.82-.59 1.11-1.34 2.01-2.24 2.64-1.14.81-2.48 1.2-4.02 1.2Zm-7.13-7.6c.05.37.27 2.01 1.14 3.64 1.3 2.44 3.31 3.67 5.99 3.67s4.69-1.23 5.99-3.67c.85-1.62 1.1-3.28 1.14-3.64-2.01-1.6-4.54-2.47-7.13-2.47s-5.07.85-7.13 2.47Z" class="cls-1"/>
	<path d="M21.16 12.33c-.18 0-.32-.15-.32-.32 0-.18.14-.32.32-.32h.2s.08-.02.14-.08c-.05-1.02-.24-2-.58-2.91-.08-.03-.14-.03-.15-.02l-.18.08c-.17.08-.35 0-.41-.17-.08-.17.02-.35.17-.41l.18-.08s.08-.05.09-.12c-.41-.88-.96-1.69-1.62-2.41-.08 0-.14.03-.15.05l-.14.14c-.12.12-.34.12-.46 0s-.12-.34 0-.46l.14-.14s.05-.06.05-.15a9.696 9.696 0 0 0-2.47-1.65c-.08.03-.11.08-.12.11l-.08.18c-.06.17-.26.24-.41.17a.304.304 0 0 1-.17-.41l.08-.18s.02-.08-.02-.15c-.9-.32-1.84-.52-2.85-.56-.06.06-.08.11-.08.14v.2c0 .18-.14.32-.32.32s-.32-.15-.32-.32v-.21s-.02-.08-.08-.14c-1.02.05-2 .24-2.91.58-.03.08-.03.14-.02.15l.08.18c.08.17-.02.35-.17.41-.17.08-.35 0-.41-.17l-.08-.18s-.05-.08-.12-.09c-.88.41-1.69.96-2.41 1.62 0 .08.03.12.05.15l.14.14c.12.12.12.32 0 .46-.12.12-.34.12-.46 0l-.14-.14s-.06-.05-.15-.05c-.67.73-1.22 1.57-1.65 2.47.03.08.08.11.11.12l.18.08c.17.06.24.26.17.41-.06.17-.26.24-.41.17l-.18-.08s-.08-.02-.15.02c-.32.9-.52 1.84-.56 2.85.06.06.11.08.14.08h.2c.18 0 .32.14.32.32s-.15.32-.32.32h-.2s-.08.02-.14.08c.05 1.01.24 2 .58 2.91.08.03.14.03.15.02l.18-.06c.17-.08.35.02.41.17.08.17-.02.35-.17.41l-.18.08s-.08.05-.09.12c.41.88.96 1.69 1.62 2.41.08 0 .12-.03.15-.05l.14-.14c.12-.12.34-.12.46 0s.12.32 0 .46l-.14.14s-.05.06-.05.15c.73.67 1.55 1.22 2.47 1.65.08-.03.11-.08.12-.11l.08-.18c.06-.17.26-.24.41-.17.17.06.24.26.17.41l-.08.18s-.02.08.02.15c.9.32 1.84.52 2.85.56.06-.06.08-.11.08-.14v-.2c0-.18.14-.32.32-.32s.32.14.32.32v.2s.02.08.08.14c1.02-.05 2-.24 2.91-.58.03-.08.03-.14.02-.15l-.08-.18c-.08-.17.02-.35.17-.41.17-.08.35.02.41.17l.08.18s.05.08.12.09c.88-.41 1.69-.96 2.41-1.62 0-.08-.03-.12-.05-.15l-.14-.14c-.12-.12-.12-.34 0-.46s.32-.12.46 0l.14.14s.06.05.15.05c.67-.73 1.22-1.55 1.65-2.47-.03-.08-.08-.11-.11-.12l-.18-.08a.304.304 0 0 1-.17-.41c.06-.17.26-.24.41-.17l.18.08s.08.02.15-.02c.32-.9.52-1.84.56-2.85-.06-.06-.11-.08-.14-.08h-.2ZM12 20.63c-4.77 0-8.64-3.85-8.64-8.62S7.23 3.38 12 3.38s8.62 3.87 8.62 8.62-3.87 8.62-8.62 8.62Z" class="cls-1"/>
	<path d="M12 3.86c-4.49 0-8.15 3.64-8.15 8.15s3.64 8.15 8.15 8.15 8.15-3.64 8.15-8.15S16.49 3.86 12 3.86ZM12 19c-3.87 0-6.99-3.14-6.99-6.99S8.15 5.02 12 5.02s6.99 3.14 6.99 6.99S15.85 19 12 19Z" class="cls-1"/>
	<path d="M12 9.63 6.21 6.81l5.27 2.81.52.01z" class="cls-1"/>
	<path d="m11.98 9.52-6.39-.54 5.91.73.48-.19zm.02 0 6.4-.54-5.91.73-.49-.19z" class="cls-1"/>
	<path d="m12 9.63 5.64-2.76-5.12 2.75-.52.01z" class="cls-1"/>
	<path d="m12 4.36-.14 5.26h.28L12 4.36z" class="cls-1"/>
	<path d="m8.19 4.92 3.67 4.7h.28l-3.95-4.7z" class="cls-1"/>
	<path d="m15.81 4.92-3.69 4.7h-.27l3.96-4.7zm-.58 2.33c.18 0 .18-.29 0-.29-.18-.02-.18.29 0 .29Zm-1.39 1.09c.18 0 .18-.29 0-.29-.2 0-.2.29 0 .29Zm-.76-1.89c.18 0 .18-.29 0-.29-.2-.02-.2.29 0 .29Zm3.73 3.38c.18 0 .18-.29 0-.29s-.18.29 0 .29Zm-.27-1.45c.18 0 .18-.29 0-.29-.2 0-.2.29 0 .29Zm2.06 2.71c.18 0 .18-.29 0-.29s-.18.29 0 .29ZM8.71 7.25c.18 0 .18-.29 0-.29-.2-.02-.2.29 0 .29Zm1.39 1.09c.18 0 .18-.29 0-.29s-.18.29 0 .29Zm.76-1.89c.18 0 .18-.29 0-.29-.18-.02-.18.29 0 .29ZM7.12 9.83c.18 0 .18-.29 0-.29-.2 0-.2.29 0 .29Zm.28-1.45c.18 0 .18-.29 0-.29s-.2.29 0 .29Zm-2.07 2.71c.18 0 .18-.29 0-.29s-.18.29 0 .29ZM20.2 3.58h-2.03v.23h2.03v2.03h.23V3.58h-.23zm.23 16.55V18.1h-.23v2.03h-2.03v.23h2.26v-.23zm-16.63.23h2.01v-.23H3.8V18.1h-.23v2.26h.23zM3.57 3.81v2.03h.23V3.81h2.01v-.23H3.57v.23zm14.34 8.7.12-1.33h-.24l.12 1.33zm-.79.96.2-2.7h-.4l.2 2.7zm-.81.76.22-3.78h-.45l.23 3.78zm-.84.52.25-4.65h-.49l.24 4.65zm-.8.38.26-5.23h-.54l.28 5.23zm-.86.26.32-5.68h-.65l.33 5.68zm-.85.2.35-5.96h-.7l.35 5.96z" class="cls-1"/>
	<path d="m11.98 15.68.52-6.11h-1l.48 6.11zm-5.92-3.17-.12-1.33h.24l-.12 1.33zm.79.96-.2-2.7h.4l-.2 2.7zm.81.76-.22-3.78h.45l-.23 3.78zm.84.52-.25-4.65h.49l-.24 4.65zm.8.38L9.03 9.9h.53l-.26 5.23zm.86.26-.34-5.68h.66l-.32 5.68zm.85.2-.35-5.96h.7l-.35 5.96z" class="cls-1"/>
</svg>
