<?xml version="1.0" encoding="utf-8"?>
<svg xmlns="http://www.w3.org/2000/svg" xml:space="preserve" id="Layer_1" x="0" y="0" style="enable-background:new 0 0 50 50" version="1.1" viewBox="0 0 50 50">
	<path d="M49.5 24.1 38 4.3l-.5-.9h-25l-.5.8L.5 24 0 25l.5.9L12 45.7l.5.9h25l.5-.9 11.5-19.9.5-.8-.5-.9zM36.6 5l5 8.7h-22l5-8.7h12zM13.5 5h10.3L12.6 24.4l-5.1-8.9 6-10.5zM2.1 25l5-8.7 11.3 19.6H8.3L2.1 25zm11.4 19.9-4.8-8.3h22.4l-4.8 8.3H13.5zm23.1 0h-9.5l11-19 4.7 8.2-6.2 10.8zm6.6-11.6L32.4 14.5h9.7L48 25l-4.8 8.3z"/>
</svg>
