<?xml version="1.0" encoding="UTF-8"?>
<svg xmlns="http://www.w3.org/2000/svg" viewBox="0 0 24 24">
	<path d="m7.47 19.24-2.26-.75c.84-2.51.17-4.19-.33-5.53-.08-.25-.17-.5-.25-.67a.75.75 0 0 1-.25-.59c-.59-1.42-1.34-3.43-.33-7.2l2.34.67c-.84 2.93-.25 4.44.25 5.69.08.25.17.42.25.67.08.17.17.42.25.59.5 1.51 1.34 3.77.33 7.12Zm12.47 0-2.26-.75c.84-2.51.17-4.19-.33-5.53-.08-.25-.17-.5-.25-.67-.08-.17-.17-.33-.25-.59-.59-1.51-1.34-3.52-.33-7.2l2.34.67c-.84 2.93-.25 4.44.25 5.69.08.25.17.42.25.67.08.17.17.42.25.59.5 1.51 1.42 3.77.33 7.12ZM13 21l-2.18-1c1.59-3.35.84-5.36.17-6.95-.08-.25-.17-.5-.25-.67s-.17-.33-.25-.59C9.9 10.2 8.98 7.77 10.74 3l2.26.84c-1.42 3.93-.75 5.69-.25 7.12.08.25.17.42.25.67.08.17.17.42.25.59.67 1.59 1.76 4.52-.25 8.79Z" style="fill:#000;stroke-width:0"/>
</svg>
