<?xml version="1.0" encoding="UTF-8"?>
<svg xmlns="http://www.w3.org/2000/svg" id="icon" viewBox="0 0 24 24">
	<defs>
		<style>
			.cls-1{fill:#000;stroke-width:0}
		</style>
	</defs>
	<path d="M16.99 13.4h2.69c-1.29 2.21-2.57 4.41-3.85 6.6H8.17c-1.28-2.18-2.55-4.37-3.85-6.59h2.69c.82 1.41 1.65 2.84 2.49 4.27h4.97c.83-1.43 1.67-2.86 2.52-4.29M15.83 4c1.28 2.2 2.55 4.39 3.85 6.6h-2.69c-.83-1.43-1.69-2.86-2.52-4.27H9.53C8.7 7.74 7.86 9.17 7.01 10.6H4.32C5.61 8.37 6.89 6.19 8.17 4h7.66Z" class="cls-1"/>
	<path d="M14.81 8.85c.1 0 .15.05.15.14v1.4c0 .09-.05.14-.15.14h-1.82v5.43c0 .1-.05.15-.14.15h-1.7c-.1 0-.14-.05-.14-.15v-5.43H9.19c-.1 0-.15-.05-.15-.14v-1.4c0-.09.05-.14.15-.14h5.62Z" class="cls-1"/>
</svg>
