<?xml version="1.0" encoding="utf-8"?>
<svg xmlns="http://www.w3.org/2000/svg" xml:space="preserve" id="Layer_1" x="0" y="0" style="enable-background:new 0 0 50 50" version="1.1" viewBox="0 0 50 50">
	<path d="M30.6 18.3c-.3 1-.9 1.7-1.7 2.3-.8.6-1.8.9-2.8.9-1 0-2-.3-2.8-.9-.8-.6-1.4-1.4-1.7-2.3-2.3.9-4.2 2.4-5.6 4.4-1.5 2.1-2.2 4.4-2.2 6.9 0 3.4 1.2 6.3 3.6 8.7 2.4 2.4 5.3 3.6 8.7 3.6s6.3-1.2 8.7-3.6c2.4-2.4 3.6-5.3 3.6-8.7 0-2.6-.7-4.9-2.2-6.9-1.4-2-3.2-3.5-5.6-4.4zm-1.2 14.6c-.9.9-2 1.3-3.3 1.3s-2.4-.4-3.3-1.3c-.9-.9-1.3-2-1.3-3.3s.4-2.4 1.3-3.3c.9-.9 2-1.3 3.3-1.3s2.4.4 3.3 1.3c.9.9 1.3 2 1.3 3.3.1 1.3-.4 2.5-1.3 3.3z"/>
	<path d="M42.5 0H20.6l-6.5 6.5h-1.4l-.6-.5v-.8l-2-2h-.7L3.6 9v.8l2 2h.8l.5.5v1.4l-1 1v31.4L9.7 50h32.8l3.9-3.9V3.8L42.5 0zm-6.1 40c-2.8 2.8-6.3 4.2-10.3 4.2-4 0-7.4-1.4-10.2-4.2-2.8-2.8-4.3-6.3-4.3-10.3 0-3.2 1-6 2.8-8.6 1.9-2.5 4.2-4.2 7.2-5.2.3-1 .8-1.9 1.6-2.6.9-.7 1.8-1 2.9-1s2 .3 2.9 1c.8.7 1.3 1.5 1.6 2.6 2.9 1 5.3 2.7 7.2 5.2 1.9 2.6 2.8 5.4 2.8 8.6.1 4-1.3 7.4-4.2 10.3zm6.3-33.4H17.9l4-4h18.9l2 2-.1 2z"/>
</svg>
