<?xml version="1.0" encoding="UTF-8"?>
<svg xmlns="http://www.w3.org/2000/svg" viewBox="0 0 24 24">
	<path d="M20.28 6.81c.14-.11.35-.18.49-.25a4.146 4.146 0 0 0-3.82-2.49c-1.54 0-2.88.81-3.61 2.04-.42-.28-.88-.42-1.37-.42s-.95.14-1.33.39a4.295 4.295 0 0 0-3.19-2.04C7.31 4 7.17 4 7.03 4h-.18c-1.58.11-2.98 1.09-3.61 2.49l.49.32c.49-1.19 1.65-2.04 2.95-2.18v.63c-1.47.18-2.63 1.44-2.63 2.95s1.12 2.77 2.63 2.95v.63c-1.23-.11-2.28-.88-2.84-1.93l-.53.21c.63 1.16 1.75 2 3.09 2.21-.63.42-1.12 1.02-1.47 1.72l.53.21c.49-.98 1.37-1.72 2.46-1.96h.04c.25-.04.49-.11.77-.11.81 0 1.58.28 2.18.74l-.49.42c-.49-.35-1.09-.53-1.68-.53-1.47 0-2.7 1.09-2.95 2.53-.04.14-.04.28-.04.46v.11c.04 1.16.74 2.18 1.79 2.6l.14-.56a2.482 2.482 0 0 1-1.33-2.04h1.12v-.11c0-.18.04-.32.11-.46.18-.49.63-.81 1.19-.81.7 0 1.26.56 1.26 1.26 0 .63-.46 1.12-1.05 1.23-.07.04-.14.04-.21.04-.11 0-.25-.04-.35-.04v2.42c-1.3-.14-2.39-.95-2.91-2.11l-.56.21c.67 1.47 2.11 2.49 3.82 2.49 1.3 0 2.46-.6 3.23-1.54.77.95 1.93 1.54 3.23 1.54 1.75 0 3.23-1.09 3.86-2.6l-.56-.21c-.14.28-.28.6-.49.84l-.39-.46c.32-.46.53-.98.56-1.54v-.21c0-.11 0-.25-.04-.35s-.04-.21-.04-.28c-.21-.88-.81-1.61-1.58-2l-.21.56c.56.28.95.77 1.16 1.37l.11.42v.11h-1.12v.25c0 .07 0 .14-.04.21-.11.6-.63 1.05-1.23 1.05-.7 0-1.26-.56-1.26-1.26 0-.49.28-.95.74-1.12.18-.07.35-.11.56-.11h.04l-.18-.56-.14-.67-.14-.53c-.18.04-.39.07-.56.14-.67.21-1.23.7-1.58 1.3-.18.28-.28.56-.35.88-.11.42-.11.81 0 1.23.07.32.18.63.35.88.53.88 1.47 1.47 2.56 1.47.77 0 1.47-.28 2.04-.81l.42.49c-.63.6-1.51.95-2.42.95-1.19 0-2.25-.56-2.88-1.44-.14-.18-.25-.35-.35-.56-.14.28-.35.56-.56.81l-.42-.49c.11-.14.21-.28.28-.42.18-.28.28-.56.35-.88.11-.42.11-.81 0-1.23-.07-.32-.18-.63-.35-.88-.11-.21-.28-.42-.42-.56l.49-.42c.11.11.18.21.28.32.14.18.25.35.35.56.11-.21.21-.39.35-.56-.11-.18-.21-.35-.35-.49a4.15 4.15 0 0 0-2.63-1.47c-.21-.04-.42-.04-.63-.04-.46 0-.88.07-1.3.21-.07.04-.14.04-.18.07v-.74c.07 0 .14 0 .18-.04 1.05-.14 1.93-.81 2.32-1.75.11.21.25.42.42.56.14.14.28.25.46.35.39.25.84.35 1.33.35.11 0 .21 0 .35-.04V9.11c-.11.04-.21.07-.35.07-.11 0-.18 0-.21-.04-.21-.04-.42-.18-.56-.35s-.21-.39-.21-.63c0-.21.11-.46.21-.63.18-.21.49-.39.81-.39.35 0 .63.18.81.42.11.18.18.35.18.56 0 .11-.04.21-.07.35l.53.21c.07-.18.11-.35.11-.56s-.04-.46-.18-.67c-.11-.21-.25-.42-.46-.56-.28-.21-.63-.35-.98-.35s-.67.11-.95.32c-.18.14-.35.32-.46.53s-.18.49-.18.74c0 .28.07.53.18.74s.28.39.46.53c.21.14.42.25.67.28v.39c-.28-.04-.56-.14-.81-.28-.18-.11-.32-.25-.46-.42-.28-.35-.42-.77-.42-1.23s.18-.88.42-1.19c.14-.18.28-.28.46-.42.32-.21.67-.32 1.09-.32s.81.14 1.12.35c.18.11.32.28.46.42.07-.21.18-.39.25-.56.14-.21.28-.46.49-.67l.42.49c-.18.21-.35.49-.49.74-.18.35-.25.77-.25 1.19s.11.81.21 1.16a2.878 2.878 0 0 0 2.49 1.79v.63a3.664 3.664 0 0 1-2.91-1.86c-.14.14-.28.25-.46.35.32.56.74 1.02 1.26 1.37.63.42 1.33.67 2.07.7h.56V9.85c.88-.14 1.54-.88 1.54-1.79 0-1.02-.81-1.82-1.82-1.82-.91 0-1.68.67-1.79 1.58h-.56c.14-1.19 1.16-2.14 2.39-2.14 1.33 0 2.39 1.09 2.39 2.39 0 .98-.6 1.82-1.44 2.18l.18.56a2.954 2.954 0 0 0 1.82-2.74c0-1.65-1.33-2.98-2.98-2.98-.7 0-1.33.25-1.86.63l-.35-.35c.63-.49 1.4-.81 2.25-.81 1.47.04 2.74.95 3.33 2.25ZM6.67 10.6c-1.16-.18-2.04-1.16-2.04-2.35s.88-2.21 2.04-2.39v4.74Zm8.56 7.65c-1.12 0-2.04-.77-2.32-1.79-.04-.21-.07-.39-.07-.6s.04-.42.07-.6c.21-.77.74-1.4 1.51-1.65l.18.56c-.67.28-1.12.95-1.12 1.72 0 1.02.81 1.82 1.82 1.82.91 0 1.65-.67 1.79-1.54h.53c-.18 1.16-1.16 2.07-2.39 2.07Zm-4.18-2.98c.04.18.07.39.07.6s-.04.42-.07.6c-.11.32-.21.63-.42.88-.11.18-.25.28-.42.42l.35.42.42.49c-.56.46-1.26.74-2.04.81v-1.82c.91-.11 1.61-.88 1.61-1.82 0-1.02-.81-1.82-1.82-1.82-.84 0-1.58.6-1.79 1.4h-.56a2.412 2.412 0 0 1 2.39-1.96c1.09 0 2.04.77 2.28 1.82Zm-1.3-8.28c-.28-.63-.81-1.16-1.47-1.47l-.21.53c.81.39 1.4 1.19 1.4 2.18 0 1.19-.88 2.18-2 2.39-.07 0-.14.04-.18.04V4.67c.07 0 .14 0 .18.04 1.16.14 2.18.81 2.74 1.79-.21.11-.35.32-.46.49Zm5.37 1.54h.6c-.04-.11-.04-.21-.04-.32s0-.18.04-.25c.11-.56.63-1.02 1.23-1.02.7 0 1.26.56 1.26 1.26 0 .6-.42 1.09-.95 1.23-.11.04-.21.04-.32.04s-.18 0-.25-.04v1.19c-1.09-.11-1.96-.98-2.11-2.07l.53-.04Z"/>
</svg>
