<?xml version="1.0" encoding="UTF-8"?>
<svg xmlns="http://www.w3.org/2000/svg" viewBox="0 0 24 24">
	<path d="m11.82 9.62-.06.23h-.25l-.15.37.32-.19h.03l-.19.93v5.54l.48.71.47-.71V9.61h-.66Zm.09.32-.11-.11h.34l-.23.11Zm.97.4h3.73l-.4.6h-.39v.57l-.6.9v-1.48h-.18v1.75l-.61.92v-2.67h-.18v2.94l-.62.92v-3.86h-.18v4.01l-.61-.93v-3.07h-.12l.16-.6Zm-1.74 0 .16.6h-.12v3.07l-.61.93v-4h-.18v3.86l-.61-.92v-2.94H9.6v2.67l-.62-.92v-1.75H8.8v1.48l-.6-.9v-.57h-.39l-.4-.6h3.73Z"/>
	<path d="m2.5 4.86 9.55 14.27L21.5 4.86h-19Zm9.55 13.67L3.08 5.13h17.84l-8.88 13.41Z"/>
	<path d="M4.41 5.83 6.06 8.3h11.89l1.65-2.47H4.41Zm2.37.79v1.33h-.6V6.23h.6v.39Zm.05 1.07v-.84l.51-.62h.7l-.58.7-.41.49-.22.26Zm.53.26-.29-.49.41-.49.58.98h-.7Zm1.47-1.28v1.27h-.6V6.23h.6v.44Zm.61 1.27-.22-.56h-.35v-.44h.56v-.28h-.56v-.44h.89l.26.28v.49l-.25.27.3.67h-.64Zm1.66 0h-.59l-.28-.3V6.23h.6v1.23h.27v.49Zm.9-.3-.28.3h-.58v-.49h.26V6.22h.6v1.41Zm1.13.3h-.63l-.28-.3V6.52l.27-.3h.63v.45h-.3v.81h.3v.45Zm.95-.3-.27.3h-.63v-.45h.3v-.15H13v-.43h1.09v.74Zm0-.83h-.6v-.14h-.3v-.45h.63l.28.3v.29Zm.85 1.12h-.6V6.22h.6v1.71Zm.05-1.09h.74v.45h-.74v-.45Zm.84 1.09h-.84v-.45h.84v.45Zm0-1.26h-.84v-.45h.84v.45Zm.81-.01v1.27h-.6V6.22h.6v.44Zm.61 1.27-.22-.56h-.35v-.44h.56v-.28h-.56v-.44h.89l.26.28v.49l-.25.27.3.67h-.64Zm-10.6.61h.07v.65h-.07v-.65Zm2.01 0v.06h-.26v.58h-.07V8.6h-.26v-.07h.59Zm.87.07h-.45v.23h.41v.07h-.41v.23h.45v.07H9v-.65h.52v.06Zm-1.88-.07h.07v.65h-.1l-.41-.54h-.02v.54h-.07v-.65h.1l.41.55h.03v-.55Zm2.74.36.1-.1v-.15l-.11-.11H9.9v.65h.07v-.28h.35l.11.28h.07l-.11-.29Zm-.42-.05v-.24h.37l.08.08v.09l-.08.07h-.37Zm2.2-.31h-.12l-.28.65h.08l.08-.19h.37l.08.19h.07l-.28-.65Zm-.22.39.14-.33h.03l.14.33h-.31Zm2-.39h-.12l-.28.65h.07l.08-.19h.37l.08.19h.08l-.28-.65Zm-.22.39.14-.33h.03l.14.33h-.31Zm-.87.19h.42v.07h-.48v-.65h.07v.58Zm3.54-.58h.07v.65h-.07v-.65Zm-.35 0v.06h-.26v.58h-.07V8.6h-.26v-.07h.59Zm-4.61.09v.1h-.07v-.07l-.05-.05h-.34l-.05.05v.42l.05.05h.34l.05-.05v-.15h-.24v-.07h.31v.25l-.09.09h-.4l-.09-.09v-.48l.09-.09h.4l.09.09Zm6 0v.1h-.07v-.07l-.05-.05h-.34l-.05.05v.42l.05.05h.34l.05-.05v-.07h.07v.1l-.09.09h-.4l-.09-.09v-.47l.09-.09h.39l.09.09Zm-2.25 0v.1h-.07v-.07l-.05-.05h-.34l-.05.05v.42l.05.05h.34l.05-.05v-.07h.07v.1l-.09.09h-.4l-.09-.09v-.48l.09-.09h.39l.09.09Z"/>
</svg>
