<?xml version="1.0" encoding="UTF-8"?>
<svg xmlns="http://www.w3.org/2000/svg" viewBox="0 0 24 24">
	<path d="M17.77 7.6h-.02l-.52 2h.38l.52-2h-.35Zm-9.13 6.8a.363.363 0 0 1-.31-.27l-.36-1.52 1.62-.8c.42-.22.73-.6.84-1.06l.56-2.15a.75.75 0 0 0-.45-.96c-.1-.03-.2-.05-.3-.04h-6L2 16.4h2.11l.54-2.13 1.42-.72.51 2.12c.12.42.49.71.92.73h1.7l.52-2H8.64Zm-3.32-2.8.5-2h2.44c.19 0 .32.1.27.25-.05.18-.18.33-.36.4l-2.88 1.44.02-.09Z"/>
	<path d="m16.92 12.61-3.39-2.24a.385.385 0 0 1-.21-.45c.04-.19.21-.31.4-.29l3.15-.02v.02l.53-2.02h-4.9c-.42.03-.79.32-.9.73l-.49 1.92c-.08.43.09.88.44 1.14l3.42 2.28c.16.08.23.27.18.44a.41.41 0 0 1-.37.28h-2.6l-.52 2h4.27c.44-.02.82-.31.95-.74l.49-1.92c.08-.43-.09-.86-.44-1.12Zm2.96-4.98s0-.03-2.26 8.77h2.14L22 7.64h-2.12Zm-8.78 6.76h-.35l-.52 2h.35l.52-2Zm-.71 0h-.34v-.02l-.54 2.02h.36l.53-2h-.02Z"/>
	<path d="M11.46 14.4h-.02l-.52 2h.37l.52-2h-.34Zm7.53-4.8.52-2h-.34l-.52 2h.34Zm-.7 0 .52-2h-.34l-.52 2h.34Z"/>
</svg>
