<?xml version="1.0" encoding="UTF-8"?>
<svg xmlns="http://www.w3.org/2000/svg" id="icon" viewBox="0 0 24 24">
	<defs>
		<style>
			.cls-1{fill:#000;stroke-width:0}
		</style>
	</defs>
	<path d="M19.26 11.69c-.08-.85-.27-1.62-.58-2.36a.365.365 0 0 0-.62-.04c-.5.77-1.35 1.7-2.59 2.32-.39.19-.77.31-1.12.42l-.5-1.24c.54-.62 1.08-1.47 1.27-2.55.15-.81.08-1.54-.04-2.12-.08-.39-.35-.66-.69-.81-.73-.27-1.54-.39-2.39-.39-.27 0-.54 0-.81.04s-.39.35-.23.54c.66.77 1.27 1.81 1.47 3.24.04.35.08.66.08.97L11 9.83c-.42-.66-1.08-1.27-1.93-1.74-.77-.39-1.51-.54-2.08-.58-.35 0-.69.12-.93.42-.66.89-1.08 1.89-1.27 3.01-.04.27.23.5.46.39.89-.39 2.12-.69 3.51-.5.42.08.81.15 1.16.31l-.31 1.24c-.81.15-1.74.54-2.51 1.31-.58.54-.97 1.16-1.2 1.7-.15.35-.12.77.12 1.08a7.6 7.6 0 0 0 2.32 2.12c.23.15.54-.04.5-.31-.04-.97.08-2.2.73-3.4.27-.5.58-.93.89-1.27l1.08.66c-.08.89.04 2.01.66 3.09.39.69.89 1.2 1.35 1.58.27.19.66.27.97.15 1.04-.39 1.97-1 2.7-1.78.19-.19.08-.54-.19-.58-.97-.19-2.08-.58-3.13-1.51a7.42 7.42 0 0 1-1.04-1.2l.73-.62c.81.42 1.89.77 3.17.62.81-.12 1.47-.35 1.97-.66.31-.19.54-.5.54-.89v-.81Zm-6.22 1.43c-.15.15-.35.27-.58.31-.12.08-.27.12-.46.12-.15 0-.27 0-.42-.08-.27-.08-.5-.19-.73-.42s-.39-.54-.42-.89c0-.08-.04-.15-.04-.23 0-.19.04-.42.12-.58.15-.39.46-.69.81-.85.19-.08.42-.15.66-.15.15 0 .31 0 .42.08.42.12.81.39.97.81.12.23.19.46.19.73 0 .08 0 .15-.04.27 0 .35-.19.66-.46.89Z" class="cls-1"/>
	<path d="M12 2.89c5.02 0 9.11 4.09 9.11 9.11s-4.09 9.11-9.11 9.11S2.89 17.02 2.89 12 6.98 2.89 12 2.89M12 2C6.48 2 2 6.48 2 12s4.48 10 10 10 10-4.48 10-10S17.52 2 12 2Z" class="cls-1"/>
</svg>
