<?xml version="1.0" encoding="utf-8"?>
<svg xmlns="http://www.w3.org/2000/svg" xml:space="preserve" id="Layer_1" x="0" y="0" style="enable-background:new 0 0 50 50" version="1.1" viewBox="0 0 50 50">
	<path d="M50 9.5v-.9l-1.7-1.1h-2.2c0 .2-.2.4-.4.4h-2.5c-.2 0-.4-.2-.4-.4H31.1l.1.5h-8.5l-.6-.5H4.5L1.7 9.1c-.3.2-.5.4-.7.7l-.7 1.5V14l.7.8v1.1l5 2.3s1.2 2.5-.8 6-3.4 4.6-5 12.5c0 0-.8 3 1 3.7 0 0-.1.5.3.8l-.3.9s0 .3 1.5.4 7.8 0 7.8 0 2.7-.1 2.7-2.1l.5-2.2s-.7-.5-.2-2.5c.5-2 1.4-4.8 1.4-4.8s.2-1.2 1.3-1.7.4-1.1.4-1.1-.4-1.5.6-3.6l.4-.8s2.1-1.5 4.2.1h6.6l4.4-4.8 2.3-.7h11.4l.3-.4h.2l.5-.5h.7s.8-.1.8-1.1l-.1-2.3h.2l.5-1.3-.2-.2V12l-.2-.3s.5-.6.5-1.4l.3-.8zm-22.3 6.4 2.5 2.1-.2 2.4-1.8 2.1h-3.6l.1-.4-.1-.4s-2.5-1.1-1.9-5.8h5z"/>
</svg>
