<?xml version="1.0" encoding="utf-8"?>
<svg xmlns="http://www.w3.org/2000/svg" xml:space="preserve" id="Layer_1" x="0" y="0" style="enable-background:new 0 0 50 50" version="1.1" viewBox="0 0 50 50">
	<path d="m19.6 9.4-2-2L25 0l7.4 7.4-2 2L25 4l-5.4 5.4zM7.4 17.6 0 25l7.4 7.4 2-2L4 25l5.4-5.4-2-2zm35.2 14.8L50 25l-7.4-7.4-2 2L46 25l-5.4 5.4 2 2zM25 46l-5.4-5.4-2 2L25 50l7.4-7.4-2-2L25 46zm9.8-21L31 21.1 44.5 7.6l-2-2-13.6 13.5-3.9-3.9-3.9 3.9L7.6 5.6l-2 2 13.5 13.5-3.9 3.9 3.9 3.9L5.6 42.4l2 2L21.1 31l3.9 3.9 3.9-3.9 13.5 13.5 2-2L31 28.9l3.8-3.9z"/>
</svg>
