<?xml version="1.0" encoding="utf-8"?>
<svg xmlns="http://www.w3.org/2000/svg" xml:space="preserve" style="enable-background:new 0 0 50 50" viewBox="0 0 50 50">
	<path d="M46.5 31.1 50 25l-3.5-6h-4.7l-3.1-5.5L41 9.4l-3.5-6.1h-7l-2.4 4.1h-6.3l-2.4-4.1h-7L9 9.4l2.4 4.1-3.1 5.4H3.5L0 25l3.5 6.1h4.7l3.1 5.4-2.4 4 3.5 6.1h7l2.4-4.1h6.3l2.4 4.1h7l3.5-6.1-2.4-4.1 3.2-5.4h4.7zm-16 3.4-2.4 4.1h-6.3l-2.4-4.1h-4.7l-3.1-5.4L14 25l-2.4-4.1 3.1-5.4h4.7l2.4-4.1h6.3l2.4 4.1h4.7l3.1 5.4L36 25l2.3 4.1-3.1 5.4h-4.7z"/>
</svg>
