<?xml version="1.0" encoding="UTF-8"?>
<svg xmlns="http://www.w3.org/2000/svg" id="icon" viewBox="0 0 24 24">
	<defs>
		<style>
			.cls-1{fill:#000;stroke-width:0}
		</style>
	</defs>
	<path d="M11.97 20.05c-4.43 0-8.05-3.61-8.05-8.05s3.61-8.05 8.05-8.05c3.01 0 5.72 1.66 7.09 4.26h-2.33a6.019 6.019 0 0 0-4.76-2.29c-3.36 0-6.1 2.74-6.1 6.1s2.74 6.1 6.1 6.1c1.87 0 3.61-.86 4.76-2.29h2.33a8.062 8.062 0 0 1-7.09 4.23Z" class="cls-1"/>
	<path d="M21.81 10.08v-.02C20.9 5.47 16.86 1.99 12 1.99 6.49 2 2 6.49 2 12s4.47 10 10 10 10-4.47 10-10c0-.65-.07-1.3-.19-1.92Zm-1.04 3.84c-.07.33-.15.63-.26.94-1.2 3.56-4.55 6.13-8.51 6.13-4.97 0-8.99-4.02-8.99-8.99S7.03 3.01 12 3.01c3.96 0 7.31 2.57 8.51 6.13h-4.23A5.12 5.12 0 0 0 12 6.85c-2.84 0-5.15 2.31-5.15 5.15s2.31 5.15 5.15 5.15c1.8 0 3.36-.91 4.28-2.29.19-.29.36-.6.5-.94h-6.34v-3.84h10.33c.14.62.21 1.27.21 1.92.02.67-.07 1.3-.21 1.92Zm-5.67.94c-.79.87-1.92 1.37-3.1 1.37-2.33 0-4.23-1.9-4.23-4.23S9.67 7.77 12 7.77c1.2 0 2.31.5 3.1 1.37H9.52v5.72h5.58Z" class="cls-1"/>
	<path d="M12.5 11.23v.34l-.02.02h-.31l-.02-.02v-.22s-.03-.07-.07-.07h-.26s-.07.03-.07.07v1.3s.03.07.07.07h.24s.07-.03.07-.07v-.27h-.17l-.02-.02v-.31l.02-.02h.51l.02.02v.72c0 .17-.14.31-.31.31h-.48c-.17 0-.31-.14-.31-.31v-1.54c0-.17.14-.31.31-.31h.48c.17 0 .31.14.31.31Zm1.35 0v.91c0 .1-.05.21-.14.26l.14.65s0 .02-.02.02h-.31l-.02-.02-.14-.58h-.26v.6l-.02.02h-.31l-.02-.02v-2.12l.02-.02h.75c.17 0 .31.14.31.31Zm-.34.12s-.03-.07-.07-.07h-.33v.82h.31s.07-.03.07-.09v-.67h.02Zm.96-.07v.55h.5l.02.02v.31l-.02.02h-.5v.55h.62l.02.02v.31l-.02.02h-.94l-.02-.02v-2.11l.02-.02h.94l.02.02v.31l-.02.02h-.62v.02Zm1.96.21-.36 1.03v.53s0 .02-.02.02h-.31l-.02-.02v-.53l-.36-1.03-.02-.03-.03-.51s0-.02.02-.02h.31l.02.02.03.51s0 .03.02.03l.19.53s.02.02.02 0l.19-.53v-.03l.03-.51.02-.02h.31l.02.02-.03.51v.02l-.02.02Zm1.36-.26v.34l-.02.02h-.31l-.02-.02v-.24s-.03-.07-.09-.07h-.24c-.05 0-.09.03-.09.07v1.3s.03.07.09.07h.24s.09-.03.09-.07v-.22s0-.02.02-.02h.31l.02.02v.34c0 .17-.14.31-.31.31h-.46c-.17 0-.31-.14-.31-.31v-1.54c0-.17.14-.31.31-.31h.46c.17.02.31.15.31.33Zm1.35 1.83s0 .02-.02.02h-.31l-.02-.02-.02-.34h-.43l-.02.34-.02.02h-.33l-.02-.02.03-.53.38-1.59.02-.02h.33l.02.02.38 1.59.02.53Zm-.43-.68-.15-.68-.15.68h.31Zm1.47-1.44v.31s0 .02-.02.02h-.36v1.8l-.02.02h-.31l-.02-.02v-1.78h-.36l-.02-.02v-.31l.02-.02h1.08Z" class="cls-1"/>
</svg>
