<?xml version="1.0" encoding="utf-8"?>
<svg xmlns="http://www.w3.org/2000/svg" xml:space="preserve" id="Layer_1" x="0" y="0" style="enable-background:new 0 0 50 50" version="1.1" viewBox="0 0 50 50">
	<path d="M49.7 22.5c-.8-1-1.6-1.9-2.5-2.8-6-6-13.9-9.2-22.2-9.2-8.4 0-16.3 3.3-22.2 9.2-.9.9-1.7 1.8-2.5 2.8-.2.2-.3.6-.3.9 0 .5.2.9.6 1.1.2.2.6.3.9.3.5 0 .9-.2 1.1-.6.7-.9 1.5-1.8 2.3-2.6 5.4-5.4 12.6-8.3 20.2-8.3 7.7 0 14.8 2.9 20.2 8.3.8.8 1.6 1.6 2.3 2.6.3.3.7.6 1.1.6.3 0 .7-.1.9-.3.3-.3.6-.7.6-1.1-.2-.3-.3-.7-.5-.9z"/>
	<path d="M39.6 25.8c-3.9-3.9-9.1-6.1-14.6-6.1s-10.7 2.1-14.6 6.1c-.9.9-1.7 1.9-2.5 3-.2.2-.2.6-.2.8 0 .5.2.9.7 1.2.2.2.6.2.8.2.5 0 .9-.2 1.2-.7.7-.9 1.4-1.8 2.1-2.6 3.4-3.4 7.9-5.2 12.6-5.2s9.2 1.8 12.6 5.2c.8.8 1.5 1.7 2.1 2.6.2.5.7.7 1.2.7.2 0 .6-.1.8-.2.5-.2.7-.7.7-1.2 0-.2-.1-.6-.2-.8-1-1.1-1.8-2.1-2.7-3z"/>
	<path d="M32.3 32.1c-1.9-1.9-4.6-3-7.3-3-2.8 0-5.4 1.1-7.3 3-1 1-1.8 2.3-2.4 3.6-.1.2-.1.3-.1.6 0 .6.3 1.1.9 1.4.2.1.3.1.6.1.6 0 1.1-.3 1.4-.9.3-1 .9-1.8 1.7-2.6C21.2 32.7 23 32 25 32s3.9.8 5.3 2.3c.8.8 1.4 1.6 1.7 2.6.2.6.8.9 1.4.9.2 0 .3 0 .6-.1.6-.2.9-.8.9-1.4 0-.2 0-.3-.1-.6-.7-1.4-1.5-2.6-2.5-3.6z"/>
	<circle cx="25" cy="40.4" r="2.8"/>
</svg>
