<?xml version="1.0" encoding="UTF-8"?>
<svg xmlns="http://www.w3.org/2000/svg" id="icon" viewBox="0 0 24 24">
	<defs>
		<style>
			.cls-1{fill:#000;stroke-width:0}
		</style>
	</defs>
	<path d="M20.32 11.71h-3.19L15.4 9.53l-1.6 2.98-2.25-4.75-2.18 4.13-1.49-2.12-1.87 1.94H3.69c-1.63-1.8-1.56-4.65.17-6.38.9-.9 2.08-1.35 3.29-1.35s2.36.45 3.29 1.35l1.6 1.6 1.6-1.6c1.84-1.8 4.75-1.8 6.55 0 1.7 1.73 1.77 4.58.14 6.38Z" class="cls-1"/>
	<path d="M16.44 13.13h2.46l-6.9 6.9-6.9-6.9h1.56l1.11-1.18 1.8 2.6 1.94-3.68 2.26 4.75 1.87-3.53.8 1.04z" class="cls-1"/>
</svg>
