<?xml version="1.0" encoding="UTF-8"?>
<svg xmlns="http://www.w3.org/2000/svg" viewBox="0 0 24 24">
	<path d="M9.89 21.82c-1.08-.66-1.87-1.81-1.93-3.13-.06-2.47 1.63-3.73 2.65-5.42 1.45-2.41 1.08-3.92 1.08-3.92s1.2.66 1.93 3.25c.24.78.24 1.51.18 2.23-.12 1.81-.9 3.43-.9 3.43s1.33-.3 1.75-2.77c.6.66 1.2 1.57 1.27 2.59.12 1.69-.9 3.25-2.41 3.92 2.59-.6 4.46-2.83 5.12-4.46.84-2.05.6-3.86.48-5.48-.18-2.17.6-3.8.6-3.8s-1.45.42-2.47 2.17c-.48.9-.72 2.11-.72 2.11s.12-1.02-.6-2.95c-.66-1.87-1.33-2.53-1.69-3.92-.48-1.87.6-3.67.6-3.67s-4.22.78-6.14 4.58c-1.75 3.37-1.02 5.36-1.02 5.36s-.72-.66-1.08-1.63-.3-1.81-.3-1.81-3.07 3.37-1.57 7.65c.96 2.89 2.89 4.88 5.18 5.66Z" style="fill:#000;fill-rule:evenodd;stroke-width:0"/>
</svg>
