<svg xmlns="http://www.w3.org/2000/svg" viewBox="0 0 50 50">
	<path d="M0 15.26h7.8l1.13 1.18v7.1L7.8 24.69H0v-6.57h2.34v4.24h4.21v-4.78H0v-2.32m10.09 1.09 1.15-1.09h1.18v3.49h4.67v-1.21H13v-2.28h6.4v5.84H17l2.41 1.9v1.73h-1.74L13 21.09h-.62v3.6h-2.29Zm10.59-1.12H30v9.44h-2.38v-7.12h-6.94v-2.3m11.63.01 1.11 1.08v8.36h-2.28v-8.36Zm6.23-.01h1.66v1.56l-2.89 2.87L40.54 23v1.69H38.9l-3.38-3.57L34 22.33v-3.2l4.49-3.87m2.57 0h7.8l1.14 1.1-1.13 1.19h-7.8Z"/>
	<path d="M20.68 18.12H23v1.5h3.1l1.19 1.16-1.19 1.14H23v2.78h-2.32Zm20.38-.03h2.31v.66h4.28l1.1 1.25-1.11 1.1h-4.27v1.32h5.5L50 23.51l-1.12 1.18h-6.72l-1.1-1.22v-5.35m-15.37 9.55h.62V30h-.62zm-10.86 0h.62V30h-.62zm3.71 0h.62V30h-.62zm21.37 0h.62V30h-.62z"/>
	<path d="M0 25.77v9h50v-9Zm1.86 7.9h-.62V27h.62Zm3.73-.07H5q-.13-1.06-.33-2.11t-.34-2.17v4.28h-.62v-6.71h.58q.16 1 .37 2.11T5 31.16V30l-.05-.61v-2.48h.64ZM9 27.67h-.57v6h-.62v-6h-.62V27H9Zm3.52 0h-1.24V30h.93v.67h-.93V33h1.24v.7h-1.24a.59.59 0 0 1-.44-.2.74.74 0 0 1-.18-.5v-5.3a.7.7 0 0 1 .18-.49.58.58 0 0 1 .44-.21h1.24Zm3 6a1.75 1.75 0 0 1-.09-.23.86.86 0 0 1 0-.26v-2.5h-.62v3h-.62V27h1.25a.55.55 0 0 1 .44.21.69.69 0 0 1 .18.49v2.11a.6.6 0 0 1-.08.36.71.71 0 0 1-.19.18.39.39 0 0 1 .19.18.86.86 0 0 1 .07.44v2.23a.72.72 0 0 0 0 .25 2.33 2.33 0 0 0 .11.24ZM19.78 30a.72.72 0 0 1-.18.5.56.56 0 0 1-.44.2h-.62v3h-.62V27h1.24a.55.55 0 0 1 .44.21.69.69 0 0 1 .18.49Zm3.6 3.7h-1.86V27h.62v6h.62v-1.41h.62Zm3.55 0h-.62v-3h-.62v3h-.62V28a1.07 1.07 0 0 1 .08-.4 1.11 1.11 0 0 1 .2-.33 1 1 0 0 1 .29-.22.81.81 0 0 1 .72 0 1 1 0 0 1 .29.22 1.11 1.11 0 0 1 .2.33 1.07 1.07 0 0 1 .08.4Zm3.78 0h-.59q-.18-1.06-.38-2.11t-.34-2.17v4.28h-.62V27h.59a16.18 16.18 0 0 0 .28 2.11q.21 1.05.35 2.17V27h.71Zm3.67-6h-1.24V30h.93v.67h-.93V33h1.24v.7h-1.24a.59.59 0 0 1-.44-.2.74.74 0 0 1-.18-.5v-5.3a.7.7 0 0 1 .18-.49.58.58 0 0 1 .44-.21h1.24Zm3.29 0h-.62v6h-.62v-6h-.62V27h1.86Zm3.48 6h-.62v-3h-.62v3h-.62V28a1.07 1.07 0 0 1 .08-.4 1.11 1.11 0 0 1 .2-.33 1 1 0 0 1 .29-.22.81.81 0 0 1 .72 0 1 1 0 0 1 .29.22 1.11 1.11 0 0 1 .2.33 1.07 1.07 0 0 1 .08.4Zm3.18 0a1.75 1.75 0 0 1-.09-.23.86.86 0 0 1 0-.26v-2.5h-.62v3H43V27h1.27a.55.55 0 0 1 .44.21.69.69 0 0 1 .18.49v2.11a.6.6 0 0 1-.08.36.71.71 0 0 1-.19.18.39.39 0 0 1 .19.18.86.86 0 0 1 .08.44v2.23a.72.72 0 0 0 0 .25 2.33 2.33 0 0 0 .11.24Zm4.29-4a1.12 1.12 0 0 1-.17.6 1 1 0 0 1-.45.38v3h-.64v-3a1 1 0 0 1-.45-.38 1.12 1.12 0 0 1-.17-.6V27h.62v3H48v-3h.62Z"/>
	<path d="M43.62 27.67h.62V30h-.62z"/>
</svg>
