<?xml version="1.0" encoding="utf-8"?>
<svg xmlns="http://www.w3.org/2000/svg" xml:space="preserve" style="enable-background:new 0 0 50 50" viewBox="0 0 50 50">
	<path d="M48.6 10.1c.4-.3 1-.5 1.4-.7-1.8-4.2-6-7.1-10.9-7.1-4.4 0-8.2 2.3-10.3 5.8-1.2-.8-2.5-1.2-3.9-1.2s-2.7.4-3.8 1.1c-1.9-3.2-5.3-5.4-9.1-5.8-.4-.1-.8-.1-1.2-.1h-.5C5.8 2.4 1.8 5.2 0 9.2l1.4.9c1.4-3.4 4.7-5.8 8.4-6.2v1.8c-4.2.5-7.5 4.1-7.5 8.4s3.2 7.9 7.5 8.4v1.8c-3.5-.3-6.5-2.5-8.1-5.5l-1.5.6c1.8 3.3 5 5.7 8.8 6.3-1.8 1.2-3.2 2.9-4.2 4.9l1.5.6c1.4-2.8 3.9-4.9 7-5.6h.1c.7-.1 1.4-.3 2.2-.3 2.3 0 4.5.8 6.2 2.1l-1.4 1.2c-1.4-1-3.1-1.5-4.8-1.5-4.2 0-7.7 3.1-8.4 7.2-.1.4-.1.8-.1 1.3v.3c.1 3.3 2.1 6.2 5.1 7.4l.4-1.6c-2.1-1.1-3.6-3.2-3.8-5.8H12v-.3c0-.5.1-.9.3-1.3.5-1.4 1.8-2.3 3.4-2.3 2 0 3.6 1.6 3.6 3.6 0 1.8-1.3 3.2-3 3.5-.2.1-.4.1-.6.1-.3 0-.7-.1-1-.1V46c-3.7-.4-6.8-2.7-8.3-6l-1.6.6c1.9 4.2 6 7.1 10.9 7.1 3.7 0 7-1.7 9.2-4.4 2.2 2.7 5.5 4.4 9.2 4.4 5 0 9.2-3.1 11-7.4l-1.6-.6c-.4.8-.8 1.7-1.4 2.4L41 40.8c.9-1.3 1.5-2.8 1.6-4.4v-.6c0-.3 0-.7-.1-1-.1-.3-.1-.6-.1-.8-.6-2.5-2.3-4.6-4.5-5.7l-.6 1.6c1.6.8 2.7 2.2 3.3 3.9l.3 1.2v.3h-3.2v.7c0 .2 0 .4-.1.6-.3 1.7-1.8 3-3.5 3-2 0-3.6-1.6-3.6-3.6 0-1.4.8-2.7 2.1-3.2.5-.2 1-.3 1.6-.3h.1l-.5-1.6-.4-1.9-.4-1.5c-.5.1-1.1.2-1.6.4-1.9.6-3.5 2-4.5 3.7-.5.8-.8 1.6-1 2.5-.3 1.2-.3 2.3 0 3.5.2.9.5 1.8 1 2.5 1.5 2.5 4.2 4.2 7.3 4.2 2.2 0 4.2-.8 5.8-2.3l1.2 1.4c-1.8 1.7-4.3 2.7-6.9 2.7-3.4 0-6.4-1.6-8.2-4.1-.4-.5-.7-1-1-1.6-.4.8-1 1.6-1.6 2.3l-1.2-1.4c.3-.4.6-.8.8-1.2.5-.8.8-1.6 1-2.5.3-1.2.3-2.3 0-3.5-.2-.9-.5-1.8-1-2.5-.3-.6-.8-1.2-1.2-1.6l1.4-1.2c.3.3.5.6.8.9.4.5.7 1 1 1.6.3-.6.6-1.1 1-1.6-.3-.5-.6-1-1-1.4-1.8-2.2-4.5-3.8-7.5-4.2-.6-.1-1.2-.1-1.8-.1-1.3 0-2.5.2-3.7.6-.2.1-.4.1-.5.2v-2.1c.2 0 .4 0 .5-.1 3-.4 5.5-2.3 6.6-5 .3.6.7 1.2 1.2 1.6.4.4.8.7 1.3 1 1.1.7 2.4 1 3.8 1 .3 0 .6 0 1-.1v-4.4c-.3.1-.6.2-1 .2-.3 0-.5 0-.6-.1-.6-.1-1.2-.5-1.6-1-.4-.5-.6-1.1-.6-1.8 0-.6.3-1.3.6-1.8.5-.6 1.4-1.1 2.3-1.1 1 0 1.8.5 2.3 1.2.3.5.5 1 .5 1.6 0 .3-.1.6-.2 1l1.5.6c.2-.5.3-1 .3-1.6 0-.6-.1-1.3-.5-1.9-.3-.6-.7-1.2-1.3-1.6-.8-.6-1.8-1-2.8-1-1 0-1.9.3-2.7.9-.5.4-1 .9-1.3 1.5-.3.6-.5 1.4-.5 2.1 0 .8.2 1.5.5 2.1.3.6.8 1.1 1.3 1.5.6.4 1.2.7 1.9.8v1.1c-.8-.1-1.6-.4-2.3-.8-.5-.3-.9-.7-1.3-1.2-.8-1-1.2-2.2-1.2-3.5s.5-2.5 1.2-3.4c.4-.5.8-.8 1.3-1.2.9-.6 1.9-.9 3.1-.9 1.2 0 2.3.4 3.2 1 .5.3.9.8 1.3 1.2.2-.6.5-1.1.7-1.6.4-.6.8-1.3 1.4-1.9l1.2 1.4c-.5.6-1 1.4-1.4 2.1-.5 1-.7 2.2-.7 3.4s.3 2.3.6 3.3c1.2 2.9 3.9 4.9 7.1 5.1v1.8c-3.6-.3-6.6-2.3-8.3-5.3-.4.4-.8.7-1.3 1 .9 1.6 2.1 2.9 3.6 3.9 1.8 1.2 3.8 1.9 5.9 2h1.6v-7c2.5-.4 4.4-2.5 4.4-5.1 0-2.9-2.3-5.2-5.2-5.2-2.6 0-4.8 1.9-5.1 4.5h-1.6c.4-3.4 3.3-6.1 6.8-6.1 3.8 0 6.8 3.1 6.8 6.8 0 2.8-1.7 5.2-4.1 6.2l.5 1.6c3.1-1.3 5.2-4.3 5.2-7.8 0-4.7-3.8-8.5-8.5-8.5-2 0-3.8.7-5.3 1.8l-1-1c1.8-1.4 4-2.3 6.4-2.3 4.2.1 7.8 2.7 9.5 6.4zM9.8 20.9C6.5 20.4 4 17.6 4 14.2s2.5-6.3 5.8-6.8v13.5zm24.4 21.8c-3.2 0-5.8-2.2-6.6-5.1-.1-.6-.2-1.1-.2-1.7s.1-1.2.2-1.7c.6-2.2 2.1-4 4.3-4.7l.5 1.6c-1.9.8-3.2 2.7-3.2 4.9 0 2.9 2.3 5.2 5.2 5.2 2.6 0 4.7-1.9 5.1-4.4H41c-.5 3.3-3.3 5.9-6.8 5.9zm-11.9-8.5c.1.5.2 1.1.2 1.7s-.1 1.2-.2 1.7c-.3.9-.6 1.8-1.2 2.5-.3.5-.7.8-1.2 1.2l1 1.2 1.2 1.4c-1.6 1.3-3.6 2.1-5.8 2.3V41c2.6-.3 4.6-2.5 4.6-5.2 0-2.9-2.3-5.2-5.2-5.2-2.4 0-4.5 1.7-5.1 4H9c.6-3.2 3.4-5.6 6.8-5.6 3.1 0 5.8 2.2 6.5 5.2zm-3.7-23.6c-.8-1.8-2.3-3.3-4.2-4.2l-.6 1.5c2.3 1.1 4 3.4 4 6.2 0 3.4-2.5 6.2-5.7 6.8-.2 0-.4.1-.5.1V4c.2 0 .4 0 .5.1 3.3.4 6.2 2.3 7.8 5.1-.6.3-1 .9-1.3 1.4zM33.9 15h1.7c-.1-.3-.1-.6-.1-.9 0-.3 0-.5.1-.7.3-1.6 1.8-2.9 3.5-2.9 2 0 3.6 1.6 3.6 3.6 0 1.7-1.2 3.1-2.7 3.5-.3.1-.6.1-.9.1-.3 0-.5 0-.7-.1V21c-3.1-.3-5.6-2.8-6-5.9l1.5-.1z"/>
</svg>
