<?xml version="1.0" encoding="utf-8"?>
<svg xmlns="http://www.w3.org/2000/svg" xml:space="preserve" style="enable-background:new 0 0 50 50" viewBox="0 0 50 50">
	<path d="M50 19.4v.7h-1.1l-.3.3h-.5v.5h-.9l.7 1.2h-.5l.5.7h.7l.2.5H37.5l.1.9-.9.3-.3.4h-.5l-.4-.5h-3.3s-.4 0-.8.6c-.4.7-1.4 2.2-1.4 2.2s-.2.3-.5.3c-.4 0-.8-.1-.8-.1l-2.8 3.8-1.5-1.1 1.3-2.8-1-.5h-3.5s-.4-.4-.8-.4-.8.7-.8.7l-2 3.5.1 1.2-.2.6-2.8-1.7-.1-.9s-4.4-2.3-9.8-2.2l-1.2.3C3.2 28 1 28 1 28l-.1-.8-.9-.6.1-1s.4-3.2 0-4.6l.2-.4-.3-.5.4-1.4.8-.2.3-.4h1.6l.4.6h9.8l.2.2 1.1-.9.7-.1H19l.5-.2h3.3l.6.3h2.8l.1.2h.9l.1-.2h.8l.1.2h.9l.1-.2h.8l.1.2h.9V18h.8l.1.2h.9l.1-.2h.8l.1.2h.9l.1-.2h.8l.1.2h.9l.1-.2h.8l.1.2h.9l.1-.2h.8l.1.2h.9l.1-.2h.8l.1.2h.9L42 18h.8l.1.2h.9l.1-.2h1.5l2.1.8h1.2v.6H50zM7 22.3s-.5-.1-.7.3c-.2.4-1.7 2.7-1.7 2.7s-.4.5.3.6C5.5 26 15 28 15 28s.4.2.9-.4c.5-.5 2.1-3.2 2.1-3.2s0-.3-.5-.9c-.5-.6-1.8-1.2-3-1.2-1.1.1-7.5 0-7.5 0z"/>
</svg>
