<svg xmlns="http://www.w3.org/2000/svg" viewBox="0 0 50 50">
	<path d="M39.42 14h-.06l-1.3 5H39l1.3-5ZM16.6 31a.9.9 0 0 1-.77-.67l-.89-3.8 4.06-2a4.08 4.08 0 0 0 2.1-2.65l1.39-5.37A1.88 1.88 0 0 0 20.6 14h-15L0 36h5.28l1.36-5.33 3.56-1.79 1.27 5.3A2.49 2.49 0 0 0 13.76 36H18l1.3-5Zm-8.29-7 1.26-5h6.11c.47 0 .8.25.68.63a1.59 1.59 0 0 1-.89 1l-7.2 3.6Z"/>
	<path d="m37.31 26.52-8.48-5.6a1 1 0 0 1-.53-1.13.92.92 0 0 1 1-.73l7.88-.06v.06L38.5 14H26.26A2.52 2.52 0 0 0 24 15.82l-1.22 4.81a2.87 2.87 0 0 0 1.1 2.85l8.54 5.69a.9.9 0 0 1 .44 1.09 1 1 0 0 1-.92.7h-6.49l-1.31 5h10.68a2.58 2.58 0 0 0 2.37-1.84l1.22-4.79a2.89 2.89 0 0 0-1.1-2.81Zm7.39-12.44s0-.08-5.64 21.92h5.34L50 14.11ZM22.74 31h-.87l-1.31 5h.88l1.31-5h-.01zm-1.77 0h-.85v-.04L18.78 36h.91l1.32-5h-.04z"/>
	<path d="M23.66 31h-.05l-1.31 5h.92l1.3-5h-.86zm18.82-12 1.3-5h-.85l-1.31 5h.86zm-1.74 0 1.3-5h-.85l-1.31 5h.86z"/>
</svg>
