<?xml version="1.0" encoding="UTF-8"?>
<svg xmlns="http://www.w3.org/2000/svg" id="icon" viewBox="0 0 24 24">
	<defs>
		<style>
			.cls-1{fill:#eaeaea;stroke-width:0}
		</style>
	</defs>
	<g id="uee">
		<circle cx="12" cy="12" r="10" style="fill:#000;stroke-width:0"/>
		<path d="M11.96 17.44c1.6 0 3.03-.67 4.06-1.76a5.612 5.612 0 0 0 1.53-3.85c0-1.76-.82-3.34-2.1-4.35a5.518 5.518 0 0 0-3.51-1.24c-1.55 0-2.94.63-3.95 1.64C7 8.91 6.37 10.3 6.37 11.85s.59 2.84 1.53 3.85a5.643 5.643 0 0 0 4.06 1.74Zm1.89-10.36c1.56.63 2.75 1.93 3.11 3.59h-.92c-.19-.69-.69-1.47-1.24-1.95v2.6h2.27c.02.17.02.34.02.5s0 .29-.02.44h-2.25v2.63c.57-.5.97-1.18 1.18-1.79h.95a5.13 5.13 0 0 1-3.09 3.47V7.08h-.02Zm-3.2-.18a5.19 5.19 0 0 1 2.71.02v3.76h-.97v-3c-.13-.02-.29-.02-.42-.02-.11 0-.25 0-.36.02v3.65h1.76v.95h-1.76V16c.11 0 .23.02.36.02.15 0 .29 0 .42-.02v-2.86h.97v3.63c-.44.17-.92.19-1.39.19s-.9-.08-1.32-.17V6.9ZM7.36 9.69c.25-.52.57-.99.97-1.39v5.57c.23.4.52.76.86 1.07V7.57c.31-.19.63-.36.97-.5v9.52a5.17 5.17 0 0 1-2.79-2.61V9.69h-.02Z" class="cls-1"/>
		<path d="M5.78 11.85c0 1.49.53 2.86 1.41 3.95 1.15 1.37 2.86 2.25 4.79 2.25s3.53-.82 4.68-2.12a6.198 6.198 0 0 0 1.53-4.08c0-1.79-.76-3.42-1.98-4.54a6.199 6.199 0 0 0-4.22-1.66c-1.72 0-3.26.69-4.39 1.81a6.156 6.156 0 0 0-1.81 4.39Zm6.18-5.77c1.58 0 3.02.65 4.06 1.68 1.05 1.05 1.7 2.48 1.7 4.08s-.65 3.03-1.7 4.08c-1.05 1.03-2.48 1.68-4.06 1.68s-3.15-.71-4.22-1.83a5.726 5.726 0 0 1-1.56-3.93c0-1.58.65-3.02 1.68-4.06 1.07-1.05 2.52-1.7 4.1-1.7Z" class="cls-1"/>
		<path d="M18.49 10.99h.32c-.21-1.66-.99-3.15-2.18-4.22A6.919 6.919 0 0 0 12.81 5v.32c1.41.19 2.69.82 3.68 1.76a6.495 6.495 0 0 1 1.98 3.91Zm-13.36 0h.32c.19-1.47.88-2.81 1.87-3.8.99-.99 2.33-1.68 3.8-1.87V5c-1.55.19-2.94.9-3.99 1.93a6.805 6.805 0 0 0-2 4.06Zm13.36 1.7a6.524 6.524 0 0 1-1.85 3.78 6.565 6.565 0 0 1-3.82 1.89v.32c1.62-.19 3.07-.95 4.14-2.08.99-1.05 1.66-2.4 1.85-3.91h-.32Zm-7.37 5.66a6.51 6.51 0 0 1-3.89-1.97 6.568 6.568 0 0 1-1.77-3.7h-.32c.19 1.51.86 2.86 1.85 3.89a6.786 6.786 0 0 0 4.14 2.08v-.31ZM18.49 7.8l.71.5a8.07 8.07 0 0 0-1.55-2.18l-.1-.1-.02.04-.69-.15c.63.52 1.2 1.16 1.64 1.89ZM20 11.77v-.36h-.02l-.42-.61c.04.32.06.65.06.97 0 .52-.06 1.03-.15 1.53l.17.86c.23-.74.36-1.55.36-2.39Zm-.5-1.32.48.73a8.26 8.26 0 0 0-.69-2.71l-.04.02-.59-.4c.4.73.69 1.53.84 2.37Zm-3.09 7.52-.48.76c.63-.36 1.2-.8 1.7-1.3.13-.13.27-.29.4-.44l.13-.78c-.48.67-1.07 1.26-1.76 1.76Z" class="cls-1"/>
		<path d="m20.09 11.03.27-.76h.02c-.17-.99-.53-1.95-1.03-2.79l.02.88c.38.82.63 1.72.73 2.67Zm-.86-2.96-.02-.78.02-.02c-.34-.55-.74-1.07-1.2-1.53-.25-.25-.52-.48-.78-.69l.34.8c.65.63 1.2 1.37 1.64 2.21Zm.31 6.32-.17-.74c-.21.82-.55 1.6-1.01 2.29l-.15.88c.59-.73 1.05-1.55 1.34-2.42Zm-3.76 4.58c-.57.31-1.18.53-1.83.69l-.13-.04.11-.1c.63-.15 1.24-.38 1.79-.69l.42-.69c-.69.46-1.47.8-2.29.99l-.25.17c-.13.08-.4.27-.59.34-.25.13-.73.32-.99.34-.27-.02-.74-.21-.99-.34-.17-.1-.46-.27-.59-.34l-.25-.17c-.82-.21-1.6-.55-2.29-.99l.42.69c.55.31 1.16.53 1.79.69l.11.1-.13.04c-.65-.15-1.26-.4-1.83-.69v.02l-.86-.08c.82.53 1.72.92 2.69 1.15h.02c.57-.1.8.17 1.22.32-.25.21-.53.31-.82.52.31 0 .57.08.84.04.23-.04.42-.27.67-.36.25.08.44.32.67.36.27.04.52-.04.84-.04-.29-.21-.57-.31-.82-.52.42-.15.65-.42 1.22-.32h.02c.97-.23 1.87-.63 2.69-1.15l-.86.06Z" class="cls-1"/>
		<path d="M18.16 17.08c-.59.71-1.32 1.3-2.12 1.76l.84-.08c.4-.29.78-.59 1.13-.95.34-.34.67-.73.94-1.13l-.78.4Zm2.26-6.55-.31.82c0 .13.02.29.02.44 0 .8-.11 1.58-.34 2.31l.55-.63c.11-.55.17-1.11.17-1.7 0-.42-.04-.84-.1-1.24Zm-2.07 6.3.76-.38c.53-.82.94-1.72 1.16-2.69l-.59.65c-.31.88-.76 1.7-1.34 2.42ZM6.5 6.01l-.1.1c-.63.63-1.16 1.37-1.55 2.18l.71-.5C6 7.06 6.57 6.42 7.22 5.88l-.69.15-.04-.02Zm-2.42 5.4h-.02v.36c0 .84.13 1.64.36 2.39l.17-.86a7.782 7.782 0 0 1-.09-2.5l-.42.61Zm.46-.96c.15-.84.44-1.64.84-2.39l-.59.4-.04-.02c-.38.84-.63 1.76-.69 2.71l.48-.71Zm1.85 6.99c.5.5 1.07.94 1.7 1.3l-.48-.76c-.69-.5-1.28-1.09-1.77-1.76l.13.78c.15.15.29.29.42.44Z" class="cls-1"/>
		<path d="M3.95 11.03c.1-.95.34-1.85.73-2.67l.02-.88c-.5.84-.86 1.79-1.03 2.79h.02l.27.76Zm2.53-5.18.34-.8c-.27.21-.53.44-.78.69-.46.46-.86.97-1.2 1.53l.02.02-.04.78c.42-.84.97-1.58 1.66-2.21Zm-.82 10.08c-.46-.69-.8-1.47-1.01-2.29l-.17.74h-.02c.31.88.76 1.7 1.34 2.4l-.13-.86Zm.23 1.15-.8-.4c.29.4.59.78.94 1.13.34.34.73.67 1.13.95l.84.08c-.78-.48-1.51-1.07-2.1-1.76Zm-1.96-5.31c0-.15 0-.29.02-.44l-.31-.82c-.06.4-.1.82-.1 1.24 0 .57.06 1.15.17 1.7l.55.63c-.23-.73-.34-1.51-.34-2.31Z" class="cls-1"/>
		<path d="m4.35 14.4-.59-.65c.23.97.63 1.89 1.16 2.69l.76.38a8.694 8.694 0 0 1-1.34-2.42Z" class="cls-1"/>
	</g>
</svg>
