<?xml version="1.0" encoding="UTF-8"?>
<svg xmlns="http://www.w3.org/2000/svg" id="icon" viewBox="0 0 24 24">
	<defs>
		<style>
			.cls-1{fill:#000;stroke-width:0}
		</style>
	</defs>
	<path d="M12.22 10.08c-.47 0-.92.05-1.37.16v8.01c.72.48 1.77.51 2.54.1v-8.14c-.37-.1-.77-.13-1.17-.13Zm4.31-2.26h-3.7v-4c.21-.19.35-.47.35-.77a1.05 1.05 0 1 0-2.1 0 1 1 0 0 0 .35.77v4.01h-3.7l1.75 1.09h1.37v.5c.43-.1.9-.14 1.37-.14.4 0 .8.03 1.19.1v-.45h1.37l1.74-1.09Zm-1.26 6.83h2.74a6.008 6.008 0 0 0-3.83-4.25v2.91c.48.35.85.8 1.09 1.34Z" class="cls-1"/>
	<path d="M14.2 18.77s-1.27.66-1.98.64c-.79.02-2.16-.77-2.16-.77-.76-.56-1.14-1.48-1.19-2.41-.05-1.06.34-2.14 1.19-2.78v-2.98c-1.35.55-2.32 1.4-2.94 2.41-.63 1.01-.9 2.19-.85 3.35.06 1.53.68 3.02 1.79 4.1 1 .98 2.4 1.64 4.15 1.67a5.9 5.9 0 0 0 3.19-.93 5.958 5.958 0 0 0 2.61-3.65h-2.74c-.23.56-.6 1.01-1.06 1.35Z" class="cls-1"/>
</svg>
