<?xml version="1.0" encoding="utf-8"?>
<svg xmlns="http://www.w3.org/2000/svg" xml:space="preserve" id="Layer_1" x="0" y="0" style="enable-background:new 0 0 50 50" version="1.1" viewBox="0 0 50 50">
	<path d="M34.8 48.8H14.5l2.2-2.2h17.2L46 34.5V17.3l2.2-2.2v20.4L34.8 48.8zM4 16.7 16 4.6h16.2l2.2-2.2H15.1L1.7 15.8v20.4L4 33.9V16.7zm32 15.8V18.8l-4.1-4.1H18.2L14 18.8v13.7l4.1 4.1h13.7l4.2-4.1zm-19.7-.9V19.7l2.8-2.8h11.8l2.8 2.8v11.8l-2.8 2.8H19.1l-2.8-2.7z" style="opacity:.5;enable-background:new"/>
	<path d="M13.6 31.7c1.7-.6 2.5-2.5 1.9-4.2-.6-1.7-2.5-2.5-4.2-1.9-1.7.6-2.5 2.5-1.9 4.2.2.4.4.8.7 1.2.3.3.8.6 1.2.8v3.1l-8.6 8.7L4.3 45l9.3-9.3v-4zm-1.8-3.8c.4-.4 1-.4 1.4 0 .4.4.4 1 0 1.4-.4.4-1 .4-1.4 0-.5-.3-.5-.9 0-1.4-.1.1-.1 0 0 0zm-3.4-3.5 2.7-2.6c1.6.8 3.5.1 4.3-1.5.6-1.2.3-2.7-.6-3.7-1.3-1.2-3.3-1.2-4.6 0-1 1-1.2 2.4-.6 3.6l-3.4 3.3v11.1L0 40.7l1.6 1.6 6.8-6.8V24.4zm3.3-6.3c.4-.4 1-.4 1.4 0 .4.4.4 1 0 1.4-.4.4-1 .4-1.5 0-.3-.3-.3-1 .1-1.4zm6.9 21c.2.4.4.7.7 1 .5.6 1.3 1 2.1 1 .9 0 1.8-.3 2.5-.9 1.3-1.3 1.3-3.3 0-4.6-1.3-1.2-3.3-1.2-4.6 0-.3.4-.6.9-.8 1.4h-3.7l-9.2 9.2 1.6 1.6 8.6-8.6 2.8-.1zm2.2-2c.4-.4 1.1-.4 1.5 0s.4 1.1 0 1.5c-.4.4-1 .4-1.5 0-.4-.4-.4-1 0-1.5 0 .1 0 .1 0 0zm15.5-17.5c-1.7.7-2.5 2.5-1.8 4.2.7 1.7 2.5 2.5 4.2 1.8 1.7-.7 2.5-2.5 1.8-4.2-.2-.4-.4-.8-.7-1.1-.4-.3-.8-.6-1.3-.8v-3.4L47 7.6 45.4 6l-9.1 9.1v4.5zm1.9 3.7c-.4.4-1 .4-1.4 0-.4-.4-.4-1 0-1.4.4-.4 1-.4 1.4 0 .4.4.4 1 0 1.4zm10-14.5-6.6 6.6v11.1l-2.8 2.6c-1.6-.8-3.5-.1-4.3 1.6-.8 1.6-.1 3.5 1.6 4.3 1.6.8 3.5.1 4.3-1.6.4-.9.4-1.9 0-2.7l3.4-3.3V16.3l6-6-1.6-1.5zm-10 24c-.4.4-1 .4-1.4 0-.4-.4-.4-1 0-1.4.4-.4 1-.4 1.4 0 .4.3.4.9 0 1.4-.1-.1-.1-.1 0 0zm-7-20.8c-.2-.5-.4-.9-.8-1.2-1.3-1.3-3.3-1.3-4.6 0-1.3 1.3-1.3 3.3 0 4.6 1.3 1.3 3.3 1.3 4.6 0 .3-.3.6-.7.7-1.1h3.5L44 4.8l-1.5-1.5-8.7 8.7h-2.6zm-2.3 1.8c-.4.4-1 .4-1.5 0-.4-.4-.4-1 0-1.4s1-.4 1.4 0c.4.4.4 1 .1 1.4zm4.4 21.9c-1.3-1.2-3.3-1.2-4.6 0-1 1-1.3 2.5-.7 3.7l-3 3.2H15l-6.4 6.5 1.6 1.6 5.9-5.9H26l3.7-3.8c1.6.7 3.5-.1 4.2-1.7.4-1.2.2-2.6-.6-3.6zm-1.6 3c-.4.4-1 .4-1.5 0-.4-.4-.4-1.1 0-1.5s1.1-.4 1.5 0c.4.4.4 1 0 1.5.1-.1 0 0 0 0zM18.6 16.4c1.8 0 3.2-1.4 3.2-3.2 0-.5-.1-1-.3-1.4l3.2-3.3h9.9L41.2 2 39.6.4l-5.8 5.9h-9.9l-3.9 4c-1.2-.5-2.7-.3-3.6.6-1.3 1.3-1.3 3.3 0 4.6.5.6 1.3.9 2.2.9zm-.7-4c.4-.4 1-.4 1.4 0 .4.4.4 1 0 1.4s-1 .4-1.4 0c-.4-.4-.4-1 0-1.4z"/>
</svg>
