<?xml version="1.0" encoding="UTF-8"?>
<svg xmlns="http://www.w3.org/2000/svg" viewBox="0 0 24 24">
	<path d="M10.68 7.46V3.53H5.5C4.11 3.53 3 4.64 3 6.03v11.93c0 1.36 1.11 2.5 2.5 2.5h5.18v-3.93c-.61 0-1.11-.5-1.11-1.11V8.53c0-.61.5-1.07 1.11-1.07Zm-2.57 6.72c0 .46-.36.82-.82.82s-.82-.36-.82-.82V9.75c0-.46.36-.82.82-.82s.82.36.82.82v4.43ZM18.5 3.54h-5.18v3.93c.61 0 1.11.5 1.11 1.11v6.82c0 .61-.5 1.11-1.11 1.11v3.93h5.18c1.39 0 2.5-1.11 2.5-2.5V6c0-1.36-1.11-2.46-2.5-2.46Zm-.96 10.64c0 .46-.36.82-.82.82s-.82-.36-.82-.82V9.75c0-.46.36-.82.82-.82s.82.36.82.82v4.43Z" style="fill:#000;stroke-width:0"/>
</svg>
