<?xml version="1.0" encoding="UTF-8"?>
<svg xmlns="http://www.w3.org/2000/svg" viewBox="0 0 24 24">
	<path d="m13.876 14.926.974-1.043-.138-.433c.169-.208.333-.416.493-.625a170.265 170.265 0 0 0 5.794-8.143l-7.165 4.996.044.229c.01.052.219 1.285-1.902 2.555l-.023.014-.023-.014c-2.12-1.27-1.911-2.504-1.903-2.55l.053-.235L3 4.667c.015.023 2.624 4.123 5.701 8.16.157.207.321.414.488.619l-.133.439.974 1.043c-.152.381-.599 1.18-1.635 2.562l-.016.022c-.199.266-1.467 1.82-1.468 1.822l1.615-.835c.062-.031 1.522-.779 3.428-2.501 1.907 1.722 3.367 2.469 3.429 2.501l1.482.835s-.789-1.065-1.352-1.844c-.563-.779-1.484-2.182-1.636-2.563Zm-2.082.754c-1.912 1.743-3.416 2.512-3.431 2.519l-.128.065.087-.111s.139-.176.34-.444l.006-.007.005-.002.006-.013c1.259-1.68 1.894-2.813 1.745-3.108-.024-.046-.069-.07-.139-.073a.462.462 0 0 0-.167.031l-.021.007-.048-.053a23.92 23.92 0 0 1-.44-.498l-.164-.188.005-.016.006-.017a.088.088 0 0 0 .005-.015l.011-.036.005-.016.017-.005c.086-.025.178-.054.282-.089-.274-.324-.54-.655-.792-.985-3.067-4.023-4.539-6.391-4.553-6.414l-.08-.13 5.34 3.738-.005.02s-.08.375.133.916c.197.5.691 1.252 1.927 1.992l.015.009.044 2.913-.01.009Zm3.878 2.583-.128-.065c-.015-.007-1.52-.777-3.432-2.519l-.01-.009v-.014l.044-2.899.015-.009c1.238-.741 1.732-1.495 1.928-1.996.211-.54.132-.907.131-.911l-.005-.02.017-.012 5.324-3.727-.08.13c-.015.023-1.486 2.391-4.554 6.414-.252.33-.518.661-.792.985.1.034.194.064.282.089l.016.005.005.016a.273.273 0 0 1 .007.022l.005.015a.098.098 0 0 1 .005.016.098.098 0 0 1 .005.016l.005.016-.164.188c-.155.18-.299.343-.439.497l-.048.053-.021-.007a.45.45 0 0 0-.168-.031c-.07.002-.115.026-.138.073-.149.295.487 1.428 1.746 3.108l.006.013.005.002.006.007c.201.268.338.442.34.444l.087.111Z"/>
	<path d="M10.243 14.445a.099.099 0 0 0-.024.003l.024-.003Zm.016-.001h.029-.03Z"/>
	<path d="M9.666 10.807c-.171-.437-.166-.768-.151-.916L4.912 6.668c.607.927 1.984 2.959 4.201 5.866.258.339.533.68.816 1.013l.029.034.087.103-.173.059c-.076.026-.146.048-.211.069l.072.082c.146.17.282.324.416.472a.56.56 0 0 1 .125-.015h.018c.165.006.242.091.277.161.072.142.097.448-.515 1.459a23.841 23.841 0 0 1-1.223 1.778 19.758 19.758 0 0 0 2.812-2.143l-.042-2.76c-1.233-.753-1.733-1.522-1.935-2.038h-.001Z"/>
	<path d="M10.203 14.45a.131.131 0 0 0-.027.006l.027-.006Zm-.042.008c-.014.003-.029.008-.045.013l.045-.013Zm3.177.053c.036-.07.112-.154.277-.16h.019a.56.56 0 0 1 .125.015c.132-.146.268-.301.415-.471l.072-.083-.211-.069-.043-.015-.129-.045.087-.102.029-.034c.283-.333.558-.674.816-1.013 2.217-2.907 3.593-4.939 4.201-5.866L14.392 9.89c.015.148.02.48-.151.916-.202.515-.701 1.284-1.935 2.038l-.042 2.76a19.603 19.603 0 0 0 2.812 2.143 23.935 23.935 0 0 1-1.223-1.778c-.612-1.011-.587-1.317-.515-1.459h-.001Zm.281-.067h.029-.029Z"/>
	<path d="M13.79 14.472a1.07 1.07 0 0 0-.045-.013c.014.003.029.008.045.013Zm-.102-.024-.024-.003.024.003Z"/>
</svg>
