<?xml version="1.0" encoding="utf-8"?>
<svg xmlns="http://www.w3.org/2000/svg" xml:space="preserve" style="enable-background:new 0 0 50 50" viewBox="0 0 50 50">
	<path d="M50 20.4h-1.6l-1.1-2.2h-1.2l-.1.2h-1.6l-.1-.2h-.6l-.1.2H42v-.1h-.6l-.1.2h-1.6l-.1-.2H39v.1h-1.6l-.1-.2h-.6l-.1.2H35v-.1h-.6l-.1.2h-1.6l-.1-.2H32v.1h-1.6l-.1-.2h-.6l-.1.2H28v-.1h-.6l-.1.2h-1.6l-.1-.2h-.5L22 17.1l-1.6.7H5.9l-.3.3H2l-1.6 1s-.5.3-.4.9l.6 3.6.2 3.9s-.2.5.5.6c.7.1 2.3.4 2.3.4l.2.5 2 1.2 1.3-.6 14.7 3.3s.9.2 1.8-.2c.9-.3 5-1.4 5-1.4L27.4 25l.1-.2 1-1.2.3-.6.3.5h15l.7-.4h1.7l.6-.8.2-.1.2-.2H50v-1.6zM3.3 26.3s-.6.7-.8.7c-.2 0-.4-.6-.4-.6s-.3-1-.3-1.2c0-.2.1-.3.1-.3s1.4-1.1 1.5-1.3c.1-.1.3-.1.3-.1H5c.2 0 .1.3.1.3l-1.8 2.5zm10.8.2c-.4.6-1.5 2.6-1.5 2.6-4.9-.2-7-1.4-7.6-1.7-.6-.3-.4-.8-.4-.8l1.6-2.1-.1-.2.4-.3h.2s3.1-.9 3.5-1c.4-.1.4-.4.4-.4l-.1-.6h1.6l.1.7 1 .7h.9s1.2-.1 1.2.7c.1 1-.7 1.7-1.2 2.4zm4.3-2.1h.3l-.1.3v.8l.5.4h.5l-.4-.6v-.5l.6-.5h.7c.6.1.6.7.6.7s-.4.8-.6 1.1c-.2.3-.4.3-.4.3h-1.4l-.7-.6v-1.1l.4-.3zm2.8 7.6-4.6-1.1v-.4l-.2-.2s.4-1.2.5-1.4c0-.2.3-.5.6-.6.4-.1 0-.5 0-.8 0-.3.2-.6.2-.6h.7l.3-.1h1.7l1.9 1.5s.2.6.5 2.4c.3 1.9-1.6 1.3-1.6 1.3z"/>
</svg>
