<?xml version="1.0" encoding="UTF-8"?>
<svg xmlns="http://www.w3.org/2000/svg" viewBox="0 0 24 24">
	<path d="M17.13 12.1c0-2.15 1.1-3.25 1.31-3.43a7.492 7.492 0 0 0-3.03-3.03c-.18.22-1.28 1.31-3.43 1.31-2.15 0-3.25-1.1-3.43-1.31a7.492 7.492 0 0 0-3.03 3.03c.22.18 1.31 1.28 1.31 3.43s-1.1 3.25-1.31 3.43a7.492 7.492 0 0 0 3.03 3.03c.18-.22 1.28-1.31 3.43-1.31 2.15 0 3.25 1.1 3.43 1.31a7.492 7.492 0 0 0 3.03-3.03c-.22-.18-1.31-1.28-1.31-3.43Zm-1.97-1.53s0 .07-.04.11c-.04.04-.07.04-.11.04h-1.42s-.07 0-.11-.04c-.04-.04-.04-.07-.04-.11v-.04c0-.37-.15-.69-.4-.95-.26-.26-.62-.4-1.06-.4s-.8.15-1.06.4c-.26.26-.4.62-.4 1.06v2.85c0 .44.15.8.44 1.06.29.29.66.4 1.1.4.4 0 .77-.11 1.02-.33.26-.22.37-.55.37-.95v-.55s-.04-.07-.07-.07h-1.39s-.07 0-.11-.04c-.04-.04-.04-.07-.04-.11v-1.13s0-.07.04-.11c.04-.04.07-.04.11-.04h2.99s.07 0 .11.04.04.07.04.11v1.61c0 .62-.15 1.17-.4 1.61-.26.47-.62.8-1.1 1.06s-1.02.37-1.64.37-1.17-.11-1.68-.37c-.47-.26-.84-.62-1.13-1.06-.26-.44-.4-.99-.4-1.57v-2.74c0-.58.15-1.13.4-1.57.26-.47.62-.8 1.13-1.06.47-.26 1.02-.37 1.68-.37.62 0 1.17.11 1.64.37s.84.58 1.13.99c.26.44.4.88.4 1.39v.15Zm4.67 7.23c-.11 0-.22-.04-.29-.11a.543.543 0 0 1-.15-.77c.99-1.46 1.5-3.18 1.5-4.97s-.51-3.51-1.5-4.97c-.18-.26-.11-.58.15-.77s.58-.11.77.15c1.1 1.64 1.68 3.54 1.68 5.55s-.58 3.94-1.68 5.55c-.15.26-.29.33-.47.33Zm-15.7 0c-.18 0-.33-.07-.44-.22-1.1-1.61-1.68-3.54-1.68-5.55s.58-3.94 1.68-5.55c.18-.26.51-.29.77-.15.26.18.33.51.15.77-1.02 1.42-1.53 3.1-1.53 4.93s.51 3.51 1.5 4.97c.18.26.11.58-.15.77-.07 0-.18.04-.29.04ZM17.24 4.69c-.11 0-.22-.04-.29-.11-2.88-1.97-7.01-1.97-9.9 0-.26.18-.58.11-.77-.15s-.11-.58.15-.77c3.25-2.23 7.85-2.23 11.1 0 .26.18.33.51.15.77-.11.18-.26.26-.44.26ZM11.98 22c-2.01 0-3.94-.58-5.55-1.68a.543.543 0 0 1-.15-.77c.18-.26.51-.33.77-.15 2.88 1.97 7.01 1.97 9.9 0 .26-.18.58-.11.77.15s.11.58-.15.77c-1.64 1.1-3.58 1.68-5.59 1.68Z" style="fill:#000;stroke-width:0"/>
</svg>
