<?xml version="1.0" encoding="UTF-8"?>
<svg xmlns="http://www.w3.org/2000/svg" viewBox="0 0 24 24">
	<path d="M2 8.1h3.12l.45.47v2.84l-.45.46H2V9.24h.94v1.7h1.68V9.03H2V8.1m4.04.44.46-.44h.47v1.4h1.87v-.48H7.2v-.91h2.56v2.34H8.8l.96.76v.69h-.7l-1.87-1.46h-.25v1.44h-.92V8.54Zm4.24-.45h3.73v3.78h-.95V9.02h-2.78V8.1m4.65 0 .44.43v3.34h-.91V8.53l.47-.43Zm2.49 0h.66v.62l-1.16 1.15 1.29 1.33v.68h-.66l-1.35-1.43-.61.48V9.65l1.8-1.55m1.03 0h3.12l.46.44-.45.48h-3.12V8.1Z"/>
	<path d="M10.27 9.25h.93v.6h1.24l.48.46-.48.46H11.2v1.11h-.93V9.25Zm8.15-.01h.92v.26h1.71l.44.5-.44.44h-1.71v.53h2.2l.45.44-.45.47h-2.69l-.44-.49V9.25m-6.15 3.82h.25V14h-.25v-.93Zm-4.34 0h.25V14h-.25v-.93Zm1.48 0h.25V14H9.4v-.93Zm8.55 0h.25V14h-.25v-.93Z"/>
	<path d="M2 12.31v3.6h20v-3.6H2Zm.74 3.16h-.25V12.8h.25v2.67Zm1.49-.03h-.24c-.03-.28-.08-.56-.13-.84-.05-.28-.1-.57-.14-.87v1.71h-.25v-2.68h.23c.04.27.09.55.15.84.06.3.1.58.14.86V14l-.02-.24v-.99h.26v2.68Zm1.36-2.37h-.23v2.4h-.25v-2.4h-.25v-.27h.72v.27Zm1.41 0h-.5V14h.37v.27H6.5v.93H7v.28h-.5a.25.25 0 0 1-.18-.08.306.306 0 0 1-.07-.2v-2.12c0-.07.02-.14.07-.2.04-.05.11-.08.18-.08H7v.27Zm1.2 2.4s-.03-.06-.04-.09v-1.1h-.25v1.2h-.25v-2.67h.5c.07 0 .13.03.18.08.05.05.07.12.07.2v.84c0 .05 0 .1-.03.14-.02.03-.05.05-.08.07.03.01.06.04.08.07.02.06.03.12.03.18v.99c.01.03.03.06.04.1h-.26Zm1.7-1.48c0 .07-.02.14-.07.2-.04.05-.11.08-.18.08H9.4v1.2h-.25v-2.68h.5c.07 0 .13.03.18.08.05.05.07.12.07.2v.92Zm1.44 1.48h-.74v-2.68h.25v2.4h.25v-.56h.25v.84Zm1.42 0h-.25v-1.2h-.25v1.2h-.25v-2.28c0-.05.01-.11.03-.16.02-.05.05-.09.08-.13.03-.04.07-.07.12-.09a.3.3 0 0 1 .29 0c.04.02.08.05.12.09.03.04.06.08.08.13.02.05.03.11.03.16v2.28Zm1.51 0h-.24l-.15-.84c-.05-.28-.1-.57-.14-.87v1.71h-.25v-2.68h.24c.02.28.06.57.11.84.06.28.1.57.14.87v-1.71h.28v2.68Zm1.47-2.4h-.5v.92h.37v.27h-.37v.93h.5v.28h-.5a.25.25 0 0 1-.18-.08.306.306 0 0 1-.07-.2v-2.12c0-.07.02-.14.07-.2.04-.05.11-.08.18-.08h.5v.28Zm1.32 0h-.25v2.4h-.25v-2.4h-.25v-.28h.74v.28Zm1.39 2.4h-.25v-1.2h-.25v1.2h-.25v-2.28c0-.05.01-.11.03-.16.02-.05.05-.09.08-.13.03-.04.07-.07.12-.09a.3.3 0 0 1 .29 0c.04.02.08.05.12.09.03.04.06.08.08.13.02.05.03.11.03.16v2.28Zm1.27 0s-.03-.06-.04-.09v-1.1h-.25v1.2h-.25V12.8h.51c.07 0 .13.03.18.08.05.05.07.12.07.2v.84c0 .05 0 .1-.03.14-.02.03-.05.05-.08.07.03.01.06.04.08.07.03.05.04.12.03.18v.99c.01.03.03.06.04.1h-.27Zm1.72-1.6a.42.42 0 0 1-.25.39v1.2h-.26v-1.2a.376.376 0 0 1-.18-.15.513.513 0 0 1-.07-.24v-1.08h.25v1.2h.26v-1.2h.25v1.08Z"/>
	<path d="M19.45 13.07h.25V14h-.25v-.93Z"/>
</svg>
