<?xml version="1.0" encoding="UTF-8"?>
<svg xmlns="http://www.w3.org/2000/svg" viewBox="0 0 24 24">
	<path d="M18.24 7.34v-.72c0-.5-.41-.91-.88-.91h-.72l-.35.53H7.7l-.35-.5h-.72c-.5 0-.88.41-.88.91v.72l.47.35v8.59l-.47.35v.72c0 .5.41.88.88.88h.72l.35-.5h8.59l.35.5h.72c.5 0 .88-.41.88-.88v-.72l-.47-.35V7.69l.47-.35ZM15.97 16H8.01V8.01h7.96V16ZM3.01 11.37h2.14v1.26H3.01zM3 8.56h2.14v1.26H3zm.01 5.62h2.14v1.26H3.01zm15.85-2.8H21v1.26h-2.14zm-.01-2.81h2.14v1.26h-2.14zm.01 5.62H21v1.26h-2.14zM11.38 3h1.26v2.14h-1.26zm-2.8 0h1.26v2.14H8.58zm5.6 0h1.26v2.14h-1.26zm-2.8 15.86h1.26V21h-1.26zm-2.8 0h1.26V21H8.58zm5.6 0h1.26V21h-1.26z" style="fill:#000;stroke-width:0"/>
</svg>
