<?xml version="1.0" encoding="UTF-8"?>
<svg xmlns="http://www.w3.org/2000/svg" id="icon" viewBox="0 0 24 24">
	<defs>
		<style>
			.cls-1{fill:#000;stroke-width:0}
		</style>
	</defs>
	<path d="m14.5 16.95-.09.08m-.76-6.54c0-.3-.24-.54-.54-.54s-.54.24-.54.54.24.54.54.54.54-.25.54-.54Zm.22.85c0-.14-.11-.24-.24-.24-.14 0-.24.11-.24.24 0 .14.11.24.24.24s.24-.11.24-.24Zm-7.45-.64s2.94-2.59 6.08-3.43c3.65-.96 5.27 1.06 5.27 1.06s-2.02-1.28-4.97-.69c-3.47.69-6.38 3.06-6.38 3.06Z" class="cls-1"/>
	<path d="M14.03 6.54s-3.6-.87-7.25 2.02C3.12 11.45 2 16.61 2 16.61s1.25-4.09 5.37-7.2c3.08-2.32 6.66-2.87 6.66-2.87Z" class="cls-1"/>
	<path d="M8.09 9.81s-1.89 2.23-1.67 4.04c.27 2.29 3.85 2.29 3.85 2.29.03 0-4.39 0-4.59-2.08-.19-2.04 2.42-4.25 2.42-4.25Z" class="cls-1"/>
	<path d="M12.75 8.66c-1.25.06-3.9.88-4.56 3.28-.54 1.97 1.06 3.49 3.06 3.49 1.15 0 2.34-.39 3.25-1.06 1.29-1.15 1.75-1.97 1.75-2.86.11-2.12-1.93-2.95-3.5-2.86Zm2.76 2.76c0 .76-.74 1.74-.74 1.74-.84.98-2.24 1.63-3.63 1.63-1.74 0-3.13-1.33-2.65-3.05.58-2.08 2.89-2.79 3.98-2.86 1.37-.06 3.03.66 3.05 2.54Z" class="cls-1"/>
	<path d="M18.2 11.47s0 .02 0 0c-.16.41-.54 2.18-3.93 4.2-5.49 2.95-7.96.08-7.99.03.03.02 1.03.77 3.3.85 1.23.05 3.09-.33 4.75-1.29 1.74-1.18 2.68-2.42 3.14-3.73 1.22-3.61-3.69-3.69-3.69-3.69s3.03 0 4.1 1.2c.47.54.62 1.42.32 2.43Z" class="cls-1"/>
	<path d="M22 7.41c-.03.13-.51 2.08-1.53 4.1-.77 1.25-2.05 2.95-4.09 4.36-.68.47-1.34.84-1.96 1.14-.76.28-1.85.57-3.17.57-.79 0-1.28-.11-1.28-.11h-.02c.09-.02 1.99-.35 4.14-1.33.41-.17.82-.39 1.25-.63 2.15-1.23 3.61-2.84 4.58-4.18 1.53-2.08 2.05-3.79 2.08-3.91Z" class="cls-1"/>
</svg>
