<?xml version="1.0" encoding="UTF-8"?>
<svg xmlns="http://www.w3.org/2000/svg" id="icon" viewBox="0 0 24 24">
	<defs>
		<style>
			.cls-1{fill:#000;stroke-width:0}
		</style>
	</defs>
	<path d="M20.57 12.09c-.04 4.7-3.86 8.5-8.59 8.5s-8.53-3.8-8.58-8.5H2C2.04 17.56 6.51 22 12 22s9.95-4.44 10-9.91zM11.98 2C6.47 2 2 6.47 2 12v.09h1.41V12c0-4.74 3.85-8.59 8.59-8.59s8.59 3.85 8.59 8.59v.09H22V12c-.02-5.53-4.49-10-10.02-10" class="cls-1"/>
	<path d="M21.98 12v.09h-1.41V12c0-4.74-3.85-8.59-8.59-8.59S3.4 7.26 3.4 12v.09H2V12C2 6.47 6.47 2 12 2s9.98 4.47 9.98 10" class="cls-1"/>
	<path d="M6.88 12.09c0 1.02.3 2 .88 2.84l-.68 1.43a6.46 6.46 0 0 1-1.61-4.28h1.41Zm11.65 0c0 1.59-.57 3.11-1.61 4.29l-.68-1.43c.57-.84.88-1.82.88-2.86z" class="cls-1"/>
	<path d="M6.88 12.09H5.47c0-3.61 2.93-6.53 6.53-6.53 1.75 0 3.38.68 4.62 1.9a6.46 6.46 0 0 1 1.91 4.6h-1.41c0-2.81-2.29-5.08-5.12-5.08S6.88 9.27 6.88 12.1Z" class="cls-1"/>
	<path d="m5.43 19.82 3.27.02 3.27-7.57 3.27 7.57h3.27v-.02L13.38 9.09h-2.86l-5.1 10.73Z" class="cls-1"/>
</svg>
