<?xml version="1.0" encoding="UTF-8"?>
<svg xmlns="http://www.w3.org/2000/svg" viewBox="0 0 24 24">
	<path d="M15.34 11.56h.88l-.4-.4c.28-.2.56-.48.88-.72h-1.08l-.28 1.12Zm-1.08-.4-.64.4h.92l.32-1.16h-1.08c.16.24.32.48.48.76Z"/>
	<path d="M17.38 5.6h-4.12L16.3 2h-3.24L4.58 12l2 6.4h4.16L7.7 22h3.28l8.44-10-2.04-6.4Zm-6.6 8.6a4 4 0 0 1-1.4-1.64l-.52 1.96H8.1l.52-1.92a10.8 10.8 0 0 1-2.24 1.64c-.12-.24-.24-.48-.36-.68 1-.44 1.84-.96 2.52-1.6h-2l.2-.72h2.24l.16-.64H7.18l.2-.72H9.3l.2-.8h.76l-.2.8h2l-.2.72h-2l-.16.64h2.28l-.2.72h-2c.4.68.96 1.16 1.72 1.48-.2.24-.48.48-.72.76Zm6.44-3.4c-.32.32-.64.56-.88.76h1.32l-.2.72h-1.84c.36.52.88.92 1.56 1.2-.24.2-.44.44-.68.68-.68-.44-1.16-.92-1.44-1.52l-.48 1.84h-.8l.48-1.84c-.6.6-1.36 1.12-2.24 1.56-.12-.24-.2-.48-.32-.68.8-.32 1.52-.76 2.2-1.28h-1.76l.2-.72h1.24c-.08-.2-.24-.44-.4-.76l.64-.4h-.88l.2-.72h1.96l.16-.6h.8l-.16.6h2l-.24.76h-.88l.44.4Z"/>
</svg>
