<?xml version="1.0" encoding="utf-8"?>
<svg xmlns="http://www.w3.org/2000/svg" xml:space="preserve" style="enable-background:new 0 0 50 50" viewBox="0 0 50 50">
	<path d="M47.4 46.3H2.6c-1.4 0-2.6-1.2-2.6-2.6 0-1.4 1.2-2.6 2.6-2.6h44.7c1.4 0 2.6 1.2 2.6 2.6.1 1.4-1.1 2.6-2.5 2.6zm-.3-42.6H2.9C.4 3.7-.9 6.7.8 8.5l22.3 22.1c1.1 1.1 2.9 1.1 4 0L49.2 8.5c1.8-1.8.4-4.8-2.1-4.8zM27.2 22.1l-.1-.4-.3.1c-.3.1-.5.3-1 .3h-3.4c-.5 0-1.1-.3-1.5-.4-.5-.3-1.4-1.2-1.6-1.6-.3-.4-.4-1-.4-1.4v-7c0-.5.1-1 .4-1.5.3-.4 1.2-1.4 1.6-1.6.4-.3 1-.4 1.5-.4H26c1.4 0 2.5 1.2 3 1.9.4.5.5 1 .8 1.5l-2.6.7c-.3-.7-.5-1-1.2-1.5h-3.4c-.3.1-.7.5-1 1v7c0 .1.5.5.8.8h3.4c.4-.1.8-.7.8-.8v-2.1h-3V14h6v5.2c0 .3.1.8.1 1.4l.3 1.6h-2.9v-.1h.1z"/>
</svg>
