<svg xmlns="http://www.w3.org/2000/svg" viewBox="0 0 50 50">
	<path d="m15.17 36.75-.59-.07c-.41-.07-.83-.16-1.24-.22a7.81 7.81 0 0 1-1.08-.24l-1.47-.44a6.92 6.92 0 0 1-.78-.29 1.88 1.88 0 0 1-.88-.66c-.16-.26-.34-.5-.51-.75a1.49 1.49 0 0 1-.31-.91.35.35 0 0 0-.08-.17 1.74 1.74 0 0 1-.29-.94 3.53 3.53 0 0 1 .1-.91c.06-.22 0-.29-.17-.43l-1-.75a9.75 9.75 0 0 1-1.15-1.1c-.37-.38-.72-.77-1.06-1.17a7.25 7.25 0 0 1-.94-1.24c-.14-.27-.28-.54-.41-.82s-.21-.47-.31-.71c-.19-.49-.37-1-.56-1.47l-.61-1.59c-.07-.17-.11-.35-.17-.53-.15-.43-.32-.86-.47-1.29-.19-.63-.44-1.26-.66-1.87-.12-.33-.26-.64-.39-1 0-.1-.08-.19-.11-.29a.32.32 0 0 1 .09-.33.23.23 0 0 1 .29 0 2.94 2.94 0 0 1 .44.3 4.22 4.22 0 0 1 .89 1.06c.36.59.7 1.19 1 1.8L4 21.87a3.55 3.55 0 0 0 .29.4l2.61 3.32a2.42 2.42 0 0 0 .64.59l1.46.93h.1a1.89 1.89 0 0 1 .14-.58c.06-.18.15-.42.23-.63a.29.29 0 0 0 0-.3 3.22 3.22 0 0 1-.39-.89c-.12-.34-.25-.68-.36-1s-.18-.59-.26-.89a7.55 7.55 0 0 1-.25-1.12 4.3 4.3 0 0 0-.12-.7l-.42-.49-.12-.13a5.61 5.61 0 0 1-1.11-1.57 4.64 4.64 0 0 1-.29-1 6.47 6.47 0 0 1 0-1.56 3.3 3.3 0 0 1 .29-1.14 7.64 7.64 0 0 1 .94-1.55.71.71 0 0 0 .13-.37 5.28 5.28 0 0 1 .31-1.34 10.45 10.45 0 0 1 1-2C9.41 9 10 8.09 10.56 7.17a4.85 4.85 0 0 1 2.45-2 .91.91 0 0 0 .47-.35 5.56 5.56 0 0 1 .43-.54 3.36 3.36 0 0 1 .77-.69 1.37 1.37 0 0 0 .39-.4 2.18 2.18 0 0 1 1.34-1l2.12-.5 1.42-.31a2.13 2.13 0 0 0 .49-.15 2.59 2.59 0 0 1 .56-.04h8.06a2.25 2.25 0 0 1 .61.13 9.35 9.35 0 0 0 1.33.32c.93.2 1.86.36 2.77.64a2.11 2.11 0 0 1 1.1.66l.12.16a2.15 2.15 0 0 0 .67.65 3.67 3.67 0 0 1 .77.78 1.25 1.25 0 0 1 .16.21 1.14 1.14 0 0 0 .63.5 4.85 4.85 0 0 1 2.39 2.12c.6 1 1.24 1.92 1.85 2.89a8 8 0 0 1 1 2.07 3.34 3.34 0 0 1 .16.9.92.92 0 0 0 .21.51c.23.36.48.7.69 1.07a4 4 0 0 1 .47 1.44 6.76 6.76 0 0 1 0 1.14c0 .21-.08.42-.1.63a2.81 2.81 0 0 1-.19.66 4 4 0 0 1-.46.91A7.92 7.92 0 0 1 42 20.91a.47.47 0 0 0-.15.35 5.31 5.31 0 0 1-.1.61 2.9 2.9 0 0 1-.14.7c-.06.23-.15.53-.23.78-.17.53-.35 1-.53 1.57a2.31 2.31 0 0 1-.34.72.24.24 0 0 0 0 .25c.1.23.18.47.26.71a1.43 1.43 0 0 1 0 .17l.08.38.56-.33 1.3-.84a1 1 0 0 0 .22-.22c1-1.22 1.92-2.43 2.87-3.66a8 8 0 0 0 .58-.93c.46-.8.9-1.61 1.37-2.41a10.19 10.19 0 0 1 1-1.49 3.08 3.08 0 0 1 .7-.63.83.83 0 0 1 .31-.11.16.16 0 0 1 .2.16 1 1 0 0 1 0 .37c-.22.6-.45 1.19-.67 1.79s-.48 1.38-.73 2.07c-.15.43-.31.86-.47 1.29s-.44 1.16-.67 1.74-.39 1-.59 1.42c-.1.25-.22.49-.33.73a5.58 5.58 0 0 1-1.22 1.66 8.91 8.91 0 0 0-.64.74c-.34.36-.66.73-1 1.06a7.73 7.73 0 0 1-1.19.93 5 5 0 0 0-.44.33V31a4.93 4.93 0 0 1 .14.9 1.72 1.72 0 0 1-.34 1.1.3.3 0 0 0-.07.2 1.42 1.42 0 0 1-.3.87 5.41 5.41 0 0 1-.5.73 2.15 2.15 0 0 1-.84.64c-.49.19-1 .36-1.47.52s-.92.28-1.39.39-.73.13-1.09.19l-.86.11-.33.09a1.2 1.2 0 0 1-.62.71 2.47 2.47 0 0 0-.87 1.16c-.08.2-.17.39-.25.6-.24.62-.49 1.24-.69 1.87a4.83 4.83 0 0 1-.53 1.28 1.59 1.59 0 0 1-.19.22l-.53.52-.15.13a1.07 1.07 0 0 0-.49.89 1.23 1.23 0 0 1 0 .24c0 .24-.25.3-.45.34a1 1 0 0 0-.67.47 9 9 0 0 1-.61.74 7.58 7.58 0 0 1-.7.8 5.25 5.25 0 0 1-1 .82c-.42.22-.83.46-1.24.71a3.13 3.13 0 0 0-.35.31l-.28.22a.28.28 0 0 1-.33 0 1 1 0 0 1-.39-.31 1.14 1.14 0 0 0-.38-.33c-.39-.23-.8-.42-1.19-.66a3.94 3.94 0 0 1-.9-.69c-.27-.29-.54-.57-.8-.87s-.32-.42-.49-.63-.28-.46-.57-.54l-.34-.1a.39.39 0 0 1-.33-.39 3 3 0 0 0-.07-.48.58.58 0 0 0-.14-.25c-.22-.23-.45-.46-.68-.68s-.19-.13-.26-.21a3 3 0 0 1-.63-1.09c-.23-.7-.47-1.4-.73-2.09-.17-.44-.37-.86-.58-1.28a1.34 1.34 0 0 0-.51-.6 3 3 0 0 1-.54-.42.44.44 0 0 1-.31-.4Zm11.2 4.64.49-.62.35.22.29-.45h.33a1.32 1.32 0 0 1 .08-.56.48.48 0 0 1 .1-.24c.13-.13.28-.25.41-.37l.26.14v-.5l.18-.12.3.13c-.06-.17-.12-.3-.16-.43a.36.36 0 0 1 0-.19c0-.18.13-.35.19-.53a.17.17 0 0 1 .19-.11h.33a1.64 1.64 0 0 0-.28-.17.23.23 0 0 1-.11-.1 1.25 1.25 0 0 1-.08-.64.31.31 0 0 1 .07-.16.71.71 0 0 0 .18-.37 2.14 2.14 0 0 1 .15-.47 2.18 2.18 0 0 0 .09-.55c0-.31 0-.61-.08-.92v-.31a.3.3 0 0 1 .2-.34.56.56 0 0 1 .28 0 .79.79 0 0 1 .71.59 6 6 0 0 1 .16 1.53 2.9 2.9 0 0 0 .08.83 1.23 1.23 0 0 1-.07.79 3 3 0 0 1 .88 1.34 1.18 1.18 0 0 0 .51-.69q.36-1 .69-2a4.33 4.33 0 0 0 .2-1.84 1.94 1.94 0 0 0-.46-1.12 3.61 3.61 0 0 1-.84-1.9c-.13-.83-.22-1.66-.3-2.49a2.11 2.11 0 0 1 .07-1.11l.14-.34-.13.12-.78.71a.28.28 0 0 1-.4 0A1.12 1.12 0 0 0 30 28a.66.66 0 0 0-.63.18 3.14 3.14 0 0 0 .54 1.18 2 2 0 0 1 .43 1.23.4.4 0 0 1-.08.29c-.22-.26-.37-.57-.72-.72a3.58 3.58 0 0 1-.17 1 1.15 1.15 0 0 0-.92-.52 9.47 9.47 0 0 1-.45 1.88 7 7 0 0 0-1.09-2.15l-.11.51a.58.58 0 0 1-.14-.23.24.24 0 0 0-.22-.16 1 1 0 0 0-.82.5c-.07.16-.13.33-.19.49A1.73 1.73 0 0 1 25 30.4a1.72 1.72 0 0 1-.46 1.08l-.1-.3a.92.92 0 0 0-.82-.68.25.25 0 0 0-.3.17l-.11.25c-.08-.19-.06-.37-.15-.53A7.75 7.75 0 0 0 22 32.46a1.67 1.67 0 0 1-.14-.4c-.08-.43-.15-.85-.23-1.28a1.31 1.31 0 0 0 0-.14c-.43 0-.66.27-.94.54l-.15-1c-.34.15-.49.47-.73.74a1.1 1.1 0 0 1 0-.3 3.14 3.14 0 0 1 .15-.74 1.87 1.87 0 0 1 .41-.69 4 4 0 0 0 .42-1 .66.66 0 0 0-.57-.2 1 1 0 0 0-.6.23.21.21 0 0 1-.25 0 .83.83 0 0 1-.21-.12l-.85-.77.14.33a2.19 2.19 0 0 1 .07 1.09c-.07.73-.17 1.46-.26 2.18a4.59 4.59 0 0 1-.46 1.61 4.7 4.7 0 0 1-.46.66 2.11 2.11 0 0 0-.41.94 3.75 3.75 0 0 0 .07 1.74c.23.77.51 1.53.79 2.29a1 1 0 0 0 .48.61 3 3 0 0 1 .87-1.34 1.25 1.25 0 0 1-.07-.78 1.28 1.28 0 0 0 .06-.82c.08-.52.14-1 .24-1.55a.77.77 0 0 1 .27-.42 1 1 0 0 1 .57-.19.33.33 0 0 1 .34.31 1.69 1.69 0 0 1 0 .25 8.58 8.58 0 0 1-.1.87 1.63 1.63 0 0 0 .1.75c.07.18.11.37.18.55a.49.49 0 0 0 .1.19.56.56 0 0 1 .13.52 1.28 1.28 0 0 1-.07.28.21.21 0 0 1-.13.17l-.32.16H21a6.32 6.32 0 0 1 .22.61.38.38 0 0 1 0 .21A1.5 1.5 0 0 1 21 39l.31-.15.17.13-.06.5.27-.15c.12.11.24.22.36.31a.41.41 0 0 1 .16.3 1.49 1.49 0 0 0 .07.55h.15a.27.27 0 0 1 .28.17c0 .1.13.19.19.29l.35-.21c.13.17.24.32.37.47a.26.26 0 0 1 0 .34.54.54 0 0 0 0 .48l.37-.09.38-.08v-.27a.47.47 0 0 1 0-.17c.26-.47.26-.47.8-.46h.07c.06 0 .13 0 .16.09a1.11 1.11 0 0 1 .32.79l.73.17c.13-.2-.01-.4-.08-.62Zm-13.84-27a3.65 3.65 0 0 1-.13 1.93 1.34 1.34 0 0 0 0 .78c.16.64.33 1.27.52 1.9a2.6 2.6 0 0 0 .56 1.06 4.9 4.9 0 0 0 .82.65 1.67 1.67 0 0 0 1.21.28l1.11-.17a1.88 1.88 0 0 0 1.13-.55.75.75 0 0 1 .35-.19 5.38 5.38 0 0 1 .69-.1.23.23 0 0 1 .16 0 1.52 1.52 0 0 1 .5.71 7.09 7.09 0 0 1 .34 1.67.72.72 0 0 0 .15.4l.14-1.41a.94.94 0 0 0 0-.33.92.92 0 0 1 0-.74.25.25 0 0 0 0-.09 2.49 2.49 0 0 0-.07-.87 2.34 2.34 0 0 0-.14-.5 1 1 0 0 0-.42-.64 3.37 3.37 0 0 0-.66-.37 2.52 2.52 0 0 1-1.1-.82l-.18-.25a.59.59 0 0 0-.4-.27 1.62 1.62 0 0 0-1.5.37c-.21.18-.44.33-.66.5a.27.27 0 0 1-.37 0 3 3 0 0 1-.31-.29 12.58 12.58 0 0 1-1.61-2.37Zm25 .07-.12.21A12.58 12.58 0 0 1 35.8 17a3.06 3.06 0 0 1-.31.29.28.28 0 0 1-.37 0 5.5 5.5 0 0 1-.59-.44 1.77 1.77 0 0 0-.82-.44 1.48 1.48 0 0 0-.82 0 .63.63 0 0 0-.34.25c-.14.19-.3.38-.45.56a1.51 1.51 0 0 1-.58.44l-.63.3a1.22 1.22 0 0 0-.69.8c-.08.33-.12.68-.18 1a1 1 0 0 0 .06.57.63.63 0 0 1 0 .44 1.46 1.46 0 0 0-.08.48 12.54 12.54 0 0 0 .14 1.36l.06.09a2.45 2.45 0 0 0 .11-.41 9.24 9.24 0 0 1 .32-1.58 1.8 1.8 0 0 1 .47-.71.23.23 0 0 1 .24-.08 2.5 2.5 0 0 0 .4.06 1 1 0 0 1 .71.34 1.27 1.27 0 0 0 .7.37 10.59 10.59 0 0 0 1.73.26 1.16 1.16 0 0 0 .65-.14 7.67 7.67 0 0 0 .91-.62 2.1 2.1 0 0 0 .48-.59 4 4 0 0 0 .32-.81c.16-.55.31-1.11.45-1.67a1.53 1.53 0 0 0 0-.9 2.89 2.89 0 0 1-.16-1.34 2.4 2.4 0 0 1 0-.36Zm-15.27 9.47a3.3 3.3 0 0 0 .07.35 1.08 1.08 0 0 0 .14.32c.13.18.3.34.43.51a1.86 1.86 0 0 0 .83.59 3 3 0 0 1 1.12.6.2.2 0 0 0 .27 0l.15-.1a2.17 2.17 0 0 1 .73-.42l.48-.19a1.55 1.55 0 0 0 .56-.4c.19-.2.37-.41.57-.6a.67.67 0 0 0 .2-.39.59.59 0 0 1 0-.29.3.3 0 0 1 0-.07h.2v.65h.06l.18-.09a8.34 8.34 0 0 0 1.21-.93c.11-.09.24-.16.4-.27a9 9 0 0 0-.25-1.76l-.15.2a.38.38 0 0 0-.38 0l-.43.32-.65.52a2 2 0 0 1-.89.39c-.3 0-.61.08-.91.14a2.57 2.57 0 0 0-1.35.39 1.09 1.09 0 0 0-.68-.26l-1.1-.14a2.59 2.59 0 0 1-1.42-.61 9.58 9.58 0 0 0-.59-.49 1.49 1.49 0 0 0-.4-.24.69.69 0 0 1-.34-.18c-.09.55-.18 1.1-.26 1.65 0 .07 0 .15.09.15a.59.59 0 0 1 .32.19 7.51 7.51 0 0 0 1.31 1l.23.11V24ZM10 23.41l.26.16a7.08 7.08 0 0 1 .74.46 22.39 22.39 0 0 1 2 1.77 3.21 3.21 0 0 1 .7 1.2 1.67 1.67 0 0 1 .13.52v1.21a21.11 21.11 0 0 0 2.53-1l-.08-.16a9.91 9.91 0 0 0-1.45-2.23 4.4 4.4 0 0 0-1-.91 2 2 0 0 0-.33-.18 14.66 14.66 0 0 0-2.68-.74Zm23.62 4.34c.85.34 1.66.68 2.53 1v-.61a2.7 2.7 0 0 1 .29-1.37c0-.08.08-.18.12-.27a.78.78 0 0 1 .12-.19c.49-.51 1-1 1.53-1.48A9.88 9.88 0 0 1 40 23.5l.11-.09a7.55 7.55 0 0 0-1.1.13c-.58.12-1.17.26-1.74.42a3.45 3.45 0 0 0-1.53.75l-.26.25c-.32.39-.64.77-.94 1.17a9 9 0 0 0-1 1.62Zm-.48 1.43v.14A1.72 1.72 0 0 0 33 30c.09.45.17.91.25 1.36a.41.41 0 0 0 .38.37 1.15 1.15 0 0 0 .27 0 8.11 8.11 0 0 0 .82-.12 1.55 1.55 0 0 0 1-.55 1.14 1.14 0 0 0 .29-.56 16.74 16.74 0 0 1-2.91-1.31ZM17 29.16a16.92 16.92 0 0 1-3 1.36 1.27 1.27 0 0 0 .33.59 1.51 1.51 0 0 0 1 .55h.11a5.4 5.4 0 0 0 .75.1c.46 0 .55-.1.62-.45s.16-1 .26-1.43a1.93 1.93 0 0 0-.07-.72Z"/>
</svg>
