<?xml version="1.0" encoding="utf-8"?>
<svg xmlns="http://www.w3.org/2000/svg" xml:space="preserve" id="Layer_1" x="0" y="0" style="enable-background:new 0 0 50 50" version="1.1" viewBox="0 0 50 50">
	<path d="m21.9 29-1.1 6.4-1.8.6v-3.6c0-1.2-.5-2.4-1.4-3.3L14.5 26c-.9-.9-2-1.4-3.3-1.4H7.7l.6-1.8 6.4-1.1c1.1-.2 2.3.2 3.1 1L21 26c.8.8 1.1 1.9.9 3zM5.6 38 16 33.8l-.1 6.3-2-2.6-11.4 3.6L6 29.7l-2.5-2 6.3-.1L5.6 38zm7.5-9.8 2.3 2.3c.3.3.3.7 0 1l-.2.2-5.2 2 2-5.2c.2-.4.6-.5.9-.3 0-.1.1 0 .2 0zm16-2.3 3.2-3.2c.8-.8 2-1.2 3.1-1l6.4 1.1.6 1.8h-3.6c-1.2 0-2.4.5-3.3 1.4l-3.1 3.2c-.9.9-1.4 2-1.4 3.3V36l-1.8-.6-1-6.4c-.3-1.1.1-2.3.9-3.1zm11.1 1.7 6.3.1-2.5 2 3.6 11.4-11.3-3.5-2 2.6-.3-6.4L44.4 38l-4.2-10.4zm-2.2.8 2 5.2-5.1-2c-.4-.1-.5-.5-.4-.9 0-.1.1-.2.2-.2l2.3-2.3c.3-.3.7-.2 1 .1v.1zm-18-13c-5.9-3.8-14.4-3.6-14.4-3.6V8.9c-2 1.3-3.9 2.8-5.6 4.6 2 .9 3.9 2.1 5.6 3.6v-2.9c0-.1 5-.9 14.4 1.2zm24.4-1.3V17c1.7-1.4 3.6-2.6 5.6-3.5-1.7-1.7-3.6-3.2-5.6-4.6v2.9s-8.4-.2-14.5 3.6c9.5-2.1 14.5-1.3 14.5-1.3z"/>
</svg>
