<svg xmlns="http://www.w3.org/2000/svg" viewBox="0 0 50 50">
	<path d="M25 7.63a19.58 19.58 0 0 0 0 39.15 19.57 19.57 0 0 0 19.53-19.57A19.57 19.57 0 0 0 25 7.63Zm-1.47 2.12a16.63 16.63 0 0 1 16.64 16.62A16.63 16.63 0 0 1 23.53 43 16.63 16.63 0 0 1 6.9 26.38 16.63 16.63 0 0 1 23.53 9.75Z"/>
	<path d="M25 13.86a13.78 13.78 0 1 0 13.74 13.82A13.79 13.79 0 0 0 25 13.86Zm0 .52a11.53 11.53 0 1 1-.06 0H25Z"/>
	<path d="M24.91 10.61a15.75 15.75 0 1 0 15.75 15.75 15.75 15.75 0 0 0-15.75-15.75Zm0 .52A15.23 15.23 0 1 1 9.68 26.36a15.23 15.23 0 0 1 15.23-15.23Z"/>
	<path d="M25 0a25 25 0 1 0 25 25A25 25 0 0 0 25 0Zm0 .52A24.48 24.48 0 1 1 .52 25 24.48 24.48 0 0 1 25 .52Z"/>
	<path d="M24.91 5.5a21.73 21.73 0 1 0 21.73 21.73A21.73 21.73 0 0 0 24.91 5.5Zm0 .52A21.21 21.21 0 1 1 3.69 27.23 21.21 21.21 0 0 1 24.91 6Z"/>
</svg>
