<?xml version="1.0" encoding="UTF-8"?>
<svg xmlns="http://www.w3.org/2000/svg" viewBox="0 0 24 24">
	<path d="M7.69 16.36H4.23V7.44c0-1.07.32-2.1.94-2.94l.61-.9c.1-.13.26-.13.36 0l.65.9c.61.87.94 1.91.94 2.94l-.03 8.92Zm6.01 0h-3.46V7.44c0-1.07.32-2.1.94-2.94l.65-.9c.1-.13.26-.13.36 0l.65.9c.61.87.94 1.91.94 2.94l-.06 8.92Zm6.01 0h-3.46V7.44c0-1.07.32-2.1.94-2.94l.65-.9c.1-.13.26-.13.36 0l.65.9c.61.87.94 1.91.94 2.94l-.06 8.92Zm-15.48 2.1h3.49v2.04H4.23zm6.01 0h3.49v2.04h-3.49zm6.01 0h3.49v2.04h-3.49z" style="fill:#000;stroke-width:0"/>
</svg>
