<?xml version="1.0" encoding="UTF-8"?>
<svg xmlns="http://www.w3.org/2000/svg" viewBox="0 0 24 24">
	<path d="M16.3 14.67c-.15.23-.44.46-1.1.46-.29 0-.61-.06-1.02-.15-.2-.06-.44-.15-.67-.2-.29 1.34-.81 2.29-1.54 2.29-.67 0-1.22-.81-1.54-2.18l.52-.55c.29 1.45.73 2.12 1.02 2.12.32 0 .7-.7.96-1.89-.46-.2-.99-.46-1.51-.75l.46-.49c.38.2.75.41 1.13.55.09-.55.15-1.19.12-1.86l.64-.67c0 .2.03.41.03.64 0 .73-.06 1.48-.15 2.18.23.09.46.15.7.2.81.2 1.31.12 1.39-.06.15-.23-.15-.96-1.22-1.95l-.03-.84c1.57 1.31 2.24 2.44 1.8 3.14Zm-8.07-.32c-.12-.17.03-.64.58-1.31a6 6 0 0 1 .61-.64c.17.15.38.29.58.44l.44-.46a6.97 6.97 0 0 1-.49-.38c.41-.35.9-.7 1.42-1.02.29-.17.55-.32.84-.46l1.31-1.36c-.26-1.28-.78-2.18-1.51-2.18-.64 0-1.16.73-1.48 1.97-.09.35-.17.7-.23 1.13l.7-.44c.26-1.39.73-2.06 1.02-2.06.32 0 .7.7.96 1.89-.61.23-1.28.61-1.95 1.02-.58.38-1.13.75-1.63 1.16a6 6 0 0 1-.61-.64c-.55-.64-.7-1.1-.58-1.28.12-.2.7-.26 1.65.03.03-.17.06-.44.12-.61-1.19-.35-1.97-.26-2.29.23-.2.35-.23.96.64 2 .17.2.38.44.64.64l-.64.64c-.9 1.05-.87 1.68-.64 2 .09.12.17.2.29.29l.46-.49c-.09-.03-.17-.06-.2-.12Zm7.54-4.67c.12.2-.06.7-.7 1.42l.44.44c.84-.9 1.1-1.65.78-2.18-.06-.12-.15-.2-.29-.29l-.46.49c.12.03.2.06.23.12Zm2.76-3.92-.64-.61-12.83 13.5.64.61 12.83-13.5ZM21 12l-9-9-9 9 9 9 9-9Zm-9-7.78L19.78 12 12 19.78 4.22 12 12 4.22Z" style="fill:#000;stroke-width:0"/>
</svg>
