<?xml version="1.0" encoding="UTF-8"?>
<svg xmlns="http://www.w3.org/2000/svg" id="icon" viewBox="0 0 24 24">
	<defs>
		<style>
			.cls-1{fill:#000;stroke-width:0}
		</style>
	</defs>
	<path d="M20.96 7.28h-9.37l-1.41 4.15H8.2l1.41-4.15H5.2L2 16.73h4.41l1.41-4.15H9.8l-.02.06-1.38 4.09h9.37c.78 0 1.67-.64 1.93-1.45l2.22-6.54c.26-.81-.17-1.45-.96-1.45Zm-3.6 1.86-1.93 5.73c-.14.41-.57.72-.98.72h-1.26l.28-.83 2.16-6.34h1.27c.37 0 .58.34.46.72Z" class="cls-1"/>
	<path d="m8.4 16.72.83-.82 1.13-3.33h-.57L8.4 16.72zm12.56-9.44h-9.37l-1.41 4.15H8.19l-.17.58h2.51l1.41-4.15h9.16l.41-.44a.995.995 0 0 0-.55-.14Zm-11.98.58.59-.58H5.2L2 16.72l.83-.82 2.72-8.04h3.43z" class="cls-1"/>
	<path d="M15.43 14.87c-.14.41-.57.72-.98.72h-1.27l-.2.58h1.82c.41 0 .84-.31.98-.72L18 8.88l-.6.15-1.98 5.83Z" class="cls-1"/>
</svg>
