<svg xmlns="http://www.w3.org/2000/svg" xml:space="preserve" style="enable-background:new 0 0 50 50" viewBox="0 0 50 50">
	<path d="M33.4 23.9h2.2l-1-1c.7-.5 1.4-1.2 2.2-1.8h-2.7l-.7 2.8zm-2.7-1-1.6 1h2.3l.8-2.9h-2.7c.4.6.8 1.2 1.2 1.9z" class="st0"/>
	<path d="M38.5 9H28.2l7.6-9h-8.1L6.5 25l5 16h10.4l-7.6 9h8.2l21.1-25-5.1-16zM22 30.5c-1.5-1-2.7-2.4-3.5-4.1l-1.3 4.9h-1.9l1.3-4.8C15 28 13.2 29.4 11 30.6c-.3-.6-.6-1.2-.9-1.7 2.5-1.1 4.6-2.4 6.3-4h-5l.5-1.8h5.6l.4-1.6H13l.5-1.8h4.8l.5-2h1.9l-.5 2h5l-.5 1.8h-5l-.4 1.6H25l-.5 1.8h-5c1 1.7 2.4 2.9 4.3 3.7-.5.6-1.2 1.2-1.8 1.9zM38.1 22c-.8.8-1.6 1.4-2.2 1.9h3.3l-.5 1.8h-4.6c.9 1.3 2.2 2.3 3.9 3-.6.5-1.1 1.1-1.7 1.7-1.7-1.1-2.9-2.3-3.6-3.8l-1.2 4.6h-2l1.2-4.6c-1.5 1.5-3.4 2.8-5.6 3.9-.3-.6-.5-1.2-.8-1.7 2-.8 3.8-1.9 5.5-3.2h-4.4l.5-1.8H29c-.2-.5-.6-1.1-1-1.9l1.6-1h-2.2l.5-1.8h4.9l.4-1.5h2l-.4 1.5h5l-.6 1.9H37l1.1 1z"/>
</svg>
