<?xml version="1.0" encoding="UTF-8"?>
<svg xmlns="http://www.w3.org/2000/svg" viewBox="0 0 24 24">
	<path d="m12 2 2.07 4.77c2.5.87 4.18 3.23 4.18 5.9s-1.83 5.2-4.46 5.98L12 22.01l-1.79-3.38c-2.63-.78-4.46-3.23-4.46-5.98s1.68-5.01 4.18-5.9L12 2Zm5.04 12.92c-.19.42-.44.81-.73 1.16l-2.86-6.69h-.03v5.36l-.03 3.34-1.11 2.07v-16l4.77 10.76Zm-6.72 2.94v-1c-.79-.31-1.47-.84-1.99-1.5l-.4.97a5.42 5.42 0 0 0 2.39 1.53Zm4.26-9.11-.6-1.36c2.08.81 3.57 2.83 3.57 5.19 0 .73-.15 1.42-.39 2.05l-.6-1.37c.03-.23.06-.45.06-.68-.02-1.6-.82-3-2.05-3.83Zm-5.16 0a4.584 4.584 0 0 0-2.04 3.81c0 .23.02.45.06.68l-.6 1.37c-.26-.63-.4-1.32-.4-2.04 0-2.36 1.49-4.38 3.57-5.19l-.6 1.36Zm4.26 9.11v-1c.79-.31 1.47-.84 1.99-1.5l.4.97a5.25 5.25 0 0 1-2.39 1.53ZM10.55 9.4h.03v5.36l.03 3.34 1.13 2.08V4.16L7.01 14.92c.19.42.44.81.73 1.16l2.81-6.69Z" style="fill:#000;fill-rule:evenodd;stroke-width:0"/>
</svg>
