<?xml version="1.0" encoding="UTF-8"?>
<svg xmlns="http://www.w3.org/2000/svg" viewBox="0 0 24 24">
	<path d="M6.75 6.19H5.59l.32.56-.27.47-1.26-2.17H6.9l-.21.37h.93l.67-1.16H3l2.65 4.55 1.52-2.62h-.42Zm13.57-.77.67-1.16h-5.3l2.65 4.55 1.52-2.62h-.94l-.58 1.03-1.26-2.17h2.52l-.21.37h.93Zm-6.28 0h-.93l.21-.37h-.84V8.1l-.4.7h-.11l-.41-.7V5.05h-.83l.21.37h-.93l-.68-1.17h5.38l-.68 1.17ZM6.19 8.81h1l.61-1.07h1.78l-.47-.82h-.83l.54-.93 1.62 2.82h1L8.82 4.25 6.2 8.8Zm7.38 0h-1l2.62-4.55 2.62 4.55h-1l-.61-1.07h-1.78l.47-.82h.83l-.54-.93-1.62 2.82Zm-8.12.3h13.14l-.04.07H5.5l-.04-.07Zm1.41 2.45h10.31l-.04.07H6.91l-.04-.07Zm3-2.01h.25l.95 1.64h-.33L9.9 9.77h-.55l-.13-.22h.63Zm-1.29.27h.75l-.18.22h-.45l-.13-.22Zm.16.67-.19-.33-.09-.15-.14-.08-.14-.08h-.24l.09.15h.24l.29.5h.19Zm.52-.43h.21l.64 1.12h-.53l-.07-.11h.27l-.45-.79h-.26l.13.24h.11l.07.12h-.44l-.07-.12h.1l-.23-.41-.03-.05h.55Zm-.21.85-.07-.12h.44l.07.12h-.44Zm.63-.68.07.12h.44l-.07-.12h-.44Zm.18.31-.07-.12h.44l.07.12h-.44Zm1.04-1h.47v.22h-.47v-.22Zm.21.27h-.44l.13.22h.5v.48l.31.26v-.96h-.5Zm-.23.71v.15h.29v.5h.2v-.37l-.32-.28h-.17Zm1.32-.71h-.58l.25.22h.32v1.14h.33V9.81h-.33Zm2.02-.27h-.99l-.13.22h.78l.34-.22Zm.82.22.34-.22h-1.02l-.13.22h.81Zm-.24.31h.34l-.63 1.1h-.34l.53-.92h-.65l.1-.18h.65Zm.06-.09.07-.12h-.44l-.07.12h.44Zm-1.14.41h-.11v.2h.49v.57h-.33v-.32h-.49v-.82h-.06l-.25-.22h.65v.47h.1v-.1h.26v.1h.14l-.05.12h-.07v.11h-.26v-.11Zm.24-.1h-.24v.1h.24v-.1Zm-.82-.14-.2-.17v.49h.2v-.32Zm-.49-.17v-.15h.12l.17.15h-.29Zm5.32-.44h.37l-.16.28h-.26l-.3.52h-.33l.18-.31h-.66l.13-.22h.88l.16-.27Zm-1.2.88h-.2l-.13.22h.22l-.2.35h-.22l-.1.18h1l.17-.3h-.18l-.07.12h-.33l.2-.35h.52l.13-.22h-.8Zm-1.58.1-.09.15h.29l-.29.5h.2l.21-.36-.17-.29h-.15Zm1.59-.98h-.8l-.13.22h.59l.34-.22Zm-.6.27h.63l-.79 1.37h-.56l.07-.11h.24l.59-1.03h-.31l-.2.34h.05l-.07.12h-.44l.07-.12h.06l.33-.56h.33Zm-.24.82h-.3l-.07.11h.31l.07-.11Zm1.44-1.09h.29l-.13.22h-.29l.13-.22Zm-11.67 0h.94l-.16.22h-.66l-.13-.22Zm1.01 0h.81l-.16.22h-.53l-.13-.22Zm-.57.45-.07-.12h.44l.07.12h-.44Zm.98.24.07.12h.44l-.07-.12h-.44Zm.18.31-.07-.12h.44l.07.12H7.3Zm.19-.73h.25l.78 1.36h-.33l-.66-1.14h-.56l-.13-.22h.64Zm-.38 1.36h.33l-.62-1.07h-.8l.13.22h.47l.49.85Zm4.75.7H7.45l1.68 2.93 2.74-2.93Zm.11.03v7.84l-2.79-4.85 2.79-2.99Zm.11 0v7.84l2.79-4.85-2.79-2.99Zm4.53-.03h-4.42l2.74 2.92 1.68-2.92Z"/>
</svg>
