<?xml version="1.0" encoding="UTF-8"?>
<svg xmlns="http://www.w3.org/2000/svg" viewBox="0 0 24 24">
	<path d="m17.01 11.11.03 1.67c2.09 1.91 2.68 3.34 2.4 3.83-.21.35-1.15.49-2.78.1-.45-.14-.9-.24-1.39-.42.21-1.36.31-2.85.31-4.31s-.14-2.96-.31-4.28c.45-.14.94-.31 1.39-.42 1.67-.42 2.61-.24 2.78.1.21.38-.14 1.39-1.39 2.82l.87.83c1.67-1.81 2.19-3.27 1.57-4.31-.42-.66-1.46-1.32-4.14-.63-.42.14-.83.21-1.32.42-.52-2.64-1.57-4.52-3.03-4.52-1.25 0-2.3 1.43-2.92 3.9-.17.66-.35 1.39-.45 2.23l1.39-.83c.52-2.78 1.43-4.07 1.98-4.07.63 0 1.39 1.39 1.91 3.72-1.22.49-2.54 1.18-3.83 1.98-1.15.73-2.23 1.5-3.2 2.3-.45-.42-.87-.83-1.22-1.25-1.08-1.29-1.39-2.19-1.15-2.54.21-.42 1.36-.52 3.27.03.07-.35.14-.83.21-1.22-2.33-.7-3.9-.52-4.52.49-.42.66-.49 1.88 1.29 3.97.35.42.77.83 1.25 1.29-.45.45-.87.83-1.25 1.29-1.77 2.09-1.7 3.3-1.29 3.97.38.63 1.08.9 2.16.9.63 0 1.39-.14 2.19-.35-.07-.38-.14-.9-.21-1.18-1.81.49-2.85.35-3.1 0-.21-.35.07-1.25 1.15-2.57.35-.42.77-.83 1.22-1.25a30 30 0 0 0 3.2 2.3c1.29.77 2.61 1.46 3.83 1.98-.52 2.33-1.29 3.72-1.91 3.72-.56 0-1.46-1.32-2.02-4.21l-1.39-.87c.52 3.93 1.81 6.3 3.41 6.3 1.46 0 2.5-1.88 3.06-4.52.45.14.9.28 1.32.42.77.17 1.43.28 1.98.28 1.29 0 1.88-.45 2.16-.9.83-1.39-.49-3.65-3.51-6.16Zm-2.89 4.7c-1.08-.45-2.26-1.08-3.41-1.77-1.04-.66-2.02-1.36-2.89-2.05.83-.73 1.84-1.39 2.89-2.05 1.15-.7 2.33-1.32 3.41-1.74.14 1.11.24 2.4.24 3.83.03 1.36-.07 2.64-.24 3.79ZM12 10.94c.56 0 1.04.45 1.04 1.04s-.45 1.04-1.04 1.04-1.04-.45-1.04-1.04.49-1.04 1.04-1.04Z" style="fill:#000;stroke-width:0"/>
</svg>
