<?xml version="1.0" encoding="utf-8"?>
<svg xmlns="http://www.w3.org/2000/svg" xml:space="preserve" style="enable-background:new 0 0 50 50" viewBox="0 0 50 50">
	<path d="M45.4 0H35.3l6 8.2zm-6.1 16.7 7.1 11V2.5zM23.9 50l22.5-16.8V50zm-4.8-12c-3.2-1.6-4.9-5.3-4.6-8 .1-.9.6-1.9 1.1-2.8.5-.5 1-1 1.6-1.5-10 1-11.1 10.4-7.5 14.3 3.5 3.9 4.3 6.7 3.4 10h1.2c.7-3.4 0-6.5 1.4-7.7 3.1-2.8 7.1.9 5.3 4.5-.4.7 5.2-5.4-1.9-8.8"/>
	<path d="M11.4 45.7c.5 1.4.8 2.8.9 4.3H3.6V38.9c2.1 1.2 3.8 2.3 4.5 2.8 1.5 1 2.7 2.4 3.3 4m28-22.4c.3-.9.8-2.5.7-2.5-.1 0-.2-.1-.3-.1l-1.4-2-1.6-2.3c1.1-1.3 2.8-6.3.8-9.6C35.5 3 33 1.3 30.7 0h-4.4c2.3 2.1 3.5 4.3 4.3 6.6-1.9-1.9-4-3.7-6.2-5.4-.6-.4-1.2-.9-1.8-1.3h-19v13.5c6.2.7 12 5 13.6 7.7-3.9-3.3-8.9-4.6-13.6-3.8V37c1.4.7 2.6 1.3 3 1.7C3.5 23.8 17.1 24 17.1 24l2.1 2 1.4 1.3c-.8-.1-1.5-.2-2.3-.2-3.4 5.9.9 8 .9 8s-1.1-2.8.8-3.7c0 1.8 1.3 4.5 3.1 6.5.5.5 1 .8 1.6 1.1.4.6.7 1.1 1 1.6 2.7 4.3-1.8 5.6-1.8 5.6s3.1.2 6.7-3.8c2.2-2.5 4-4.2 4-4.2s-2.3-.3-3.7-.5l.7-1.5-1 .3s-1.9.7-2.3.4c-2.7-2.3-1.6-5.3-1.6-5.3 2.5-2.3 5.8-2.6 6.8.8 0 0-.2 2.5-.5 3.2-.2.4-.5.8-.8 1.2l3-1.4-.2 1.3c.8 0 1.7-.2 2.5-.4 1.4-.4 4.2-2.1 4.2-2.1l-1-2.1.3-1.9 1 .3v2.6l.4.3 1.4-1.5 1-1.7-5.4-6.9zm-11.8-7.2s-5.5-6.1-6.1-5.6c-.7.5-.2 7.4-.2 7.4s-2.7-8.6-1.1-9.5c1.6-.9 6.7 4.2 6.7 4.2l1.2-2.1-.5 5.6zm3.5 4.1c-.2-.3 5 1.6 5 1.6l-1 .9 1.8 3.2c.1-.1-5.6-5.4-5.8-5.7z"/>
</svg>
