<?xml version="1.0" encoding="UTF-8"?>
<svg xmlns="http://www.w3.org/2000/svg" id="icon" viewBox="0 0 24 24">
	<defs>
		<style>
			.cls-1{fill:#000;stroke-width:0}
		</style>
	</defs>
	<g id="d">
		<circle cx="12" cy="12" r="1.73" class="cls-1"/>
		<path d="m15.57 3.5 1.84 1.84-2.22 2.27c-.92-.7-2.06-1.03-3.19-1.03-1.46 0-2.87.6-3.9 1.62-1.89 1.95-2 4.98-.43 7.09L5.5 17.56l-2-2v4.93h4.93l-1.84-1.84 2.22-2.27c.92.65 2 1.03 3.19 1.03 1.46 0 2.87-.6 3.9-1.68 1.89-1.95 2-4.98.43-7.09l2.17-2.22 2 2V3.5h-4.93Zm-.81 11.21c-.76.76-1.79 1.19-2.76 1.19s-1.95-.38-2.71-1.08c-1.52-1.52-1.57-3.95-.05-5.47.76-.76 1.79-1.19 2.76-1.19s1.95.38 2.71 1.08c1.52 1.46 1.57 3.95.05 5.47Z" class="cls-1"/>
	</g>
</svg>
