<?xml version="1.0" encoding="UTF-8"?>
<svg xmlns="http://www.w3.org/2000/svg" viewBox="0 0 24 24">
	<path d="m11.99 3.13-2.94 8.76 2.94 4.32 2.94-4.32-2.94-8.76Zm0 6.59c1.21 0 2.19.96 2.22 2.16H9.78c.03-1.2 1.01-2.16 2.22-2.16Zm-4.98 7.54a2.38 2.38 0 0 0-2.38 2.38h.55c0-.92.67-1.67 1.55-1.81v1.25h-.89l-.33.55h1.77v-2.37c-.09-.01-.18-.02-.28-.02Zm.97 1.55c0-.59.51-1.06 1.11-.99.47.05.84.44.88.91.03.38-.15.72-.44.91h.76c.18-.28.27-.62.23-.99a1.555 1.555 0 0 0-3.1.16c0 .31.09.59.24.83h.76a.993.993 0 0 1-.45-.83Zm6.03 0c0-.59.51-1.06 1.11-.99.47.05.84.44.88.91.03.38-.15.72-.44.91h.76c.18-.28.27-.62.23-.99a1.555 1.555 0 0 0-3.1.16c0 .31.09.59.24.83h.76a.993.993 0 0 1-.45-.83Zm-3.06-1.55c-.09 0-.19 0-.28.02v3.06l.55.53v-3.03c.69.11 1.26.6 1.47 1.25h-.97l-.33.55h1.94a2.38 2.38 0 0 0-2.38-2.38Zm6.31 2.39v-1.81c.69.11 1.26.6 1.47 1.25h-.97l-.33.55h1.94a2.38 2.38 0 0 0-2.38-2.38c-.09 0-.19 0-.28.02v2.37h.55Z"/>
</svg>
