<?xml version="1.0" encoding="UTF-8"?>
<svg xmlns="http://www.w3.org/2000/svg" viewBox="0 0 24 24">
	<path d="M14.06 10.99v2.89c.36.3.66.67.86 1.1h2.68a5.682 5.682 0 0 0-3.54-4V11Zm-3.95 0a5.68 5.68 0 0 0-3.35 7.3 5.68 5.68 0 0 0 7.3 3.35c1.77-.66 3.1-2.15 3.55-3.98h-2.68a3.14 3.14 0 0 1-4.17 1.52 3.14 3.14 0 0 1-.63-5.3V11Z"/>
	<path d="M12.08 10.63c-.43 0-.86.06-1.28.17v7.88c.82.37 1.76.37 2.58 0V10.8c-.43-.11-.86-.16-1.3-.17ZM12.14 2c-.66 0-1.2.53-1.2 1.2 0 .36.16.71.44.94v4.4H7.6l1.84 1.23h1.36v.51c.85-.2 1.73-.2 2.58 0v-.51h1.38l1.95-1.23h-3.8V4.13c.51-.42.59-1.17.18-1.69a1.19 1.19 0 0 0-.94-.44Z"/>
</svg>
