<?xml version="1.0" encoding="utf-8"?>
<svg xmlns="http://www.w3.org/2000/svg" xml:space="preserve" id="Layer_1" x="0" y="0" style="enable-background:new 0 0 50 50" version="1.1" viewBox="0 0 50 50">
	<path d="M24.8 16.2c-1.2.4-2.3 1-3.2 1.9-.8.8-1.4 1.7-1.8 2.7s-.5 2-.5 3.1c.1 1.2-.3 2.3-1.1 3.1L1 44.3c-.6.6-1 1.4-1 2.4 0 .9.3 1.7 1 2.3.6.6 1.4 1 2.4 1 .9 0 1.7-.3 2.3-1l16.6-16.6c1.2-1.2 2.3-1.6 3.4-1.5 1.2.2 2.4.1 3.5-.2 1.2-.4 2.2-1 3.1-1.9 1-1 1.6-2.1 2-3.5.3-1.3.3-2.6 0-3.9 0-.2-.1-.3-.2-.3-.1-.1-.3 0-.5.1L30.8 24c-.5.5-1.1.7-1.8.7s-1.3-.2-1.8-.7L26 23c-.5-.5-.7-1.1-.7-1.8s.2-1.3.7-1.8l2.7-2.7c.4-.4.3-.6-.3-.7-1.3-.2-2.5-.2-3.6.2m-4.5 12.3c.2-.2.5-.3.8-.3s.6.1.8.3c.2.2.3.5.3.8s-.1.6-.3.8L4.7 47.2c-.2.2-.5.3-.8.3s-.6-.1-.8-.3-.3-.5-.3-.8.1-.6.3-.8l17.2-17.1M45.4 9.2c0-.2-.1-.4-.2-.6l-3.8-3.8c-.1-.1-.3-.2-.5-.2s-.4.1-.6.2l-3 3c-2.1-1.4-4.4-2.3-6.9-2.8V.8c0-.2-.1-.4-.2-.5-.2-.2-.3-.2-.6-.2h-5.4c-.2 0-.4.1-.5.2-.2.1-.2.3-.2.5v4.3c-2.5.6-4.7 1.5-6.8 2.9l-3.1-3.1c-.1-.1-.3-.2-.5-.2s-.4.1-.6.2L8.7 8.7c-.1.1-.2.3-.2.5s.1.4.2.6l3.1 3.1C10.4 15 9.5 17.2 9 19.6H4.6c-.2 0-.4.1-.5.2-.1.2-.2.4-.2.6v5.4c0 .2.1.4.2.6.1.1.3.2.5.2h4.5c.3 1.5.8 3 1.4 4.3l3.9-3.9c-.7-2.3-.8-4.6-.2-7s1.7-4.5 3.5-6.2c2.6-2.6 5.7-3.8 9.3-3.8s6.7 1.3 9.3 3.8c2.6 2.6 3.9 5.7 3.9 9.3s-1.3 6.7-3.9 9.3c-1.8 1.8-3.9 2.9-6.3 3.5s-4.7.5-7-.3l-3.9 3.9c1.4.7 2.9 1.2 4.4 1.5v4.4c0 .2.1.4.2.6.2.1.3.2.5.2h5.4c.2 0 .4-.1.6-.2.1-.2.2-.3.2-.6V41c2.5-.5 4.8-1.4 6.8-2.8l3.1 3c.2.2.3.2.6.2s.4-.1.5-.2l3.8-3.8c.2-.2.2-.3.2-.6s-.1-.4-.2-.6l-3-3c1.4-2.1 2.4-4.3 2.9-6.9h4.2c.2 0 .4-.1.6-.2.2-.2.2-.3.2-.6v-5.4c0-.2-.1-.4-.2-.5-.2-.2-.3-.2-.6-.2H45c-.5-2.4-1.4-4.7-2.9-6.9l3-3c.2.1.3 0 .3-.3z"/>
</svg>
