<?xml version="1.0" encoding="utf-8"?>
<svg xmlns="http://www.w3.org/2000/svg" xml:space="preserve" id="Layer_1" x="0" y="0" style="enable-background:new 0 0 50 50" version="1.1" viewBox="0 0 50 50">
	<path d="m12.5 29.6 13.9 13.9 13.9-13.9-14-13.9-13.8 13.9zm17.6-3.8v2.9h5.6v1.9h-5.6v2.9h-2.9V39h-1.9v-5.6h-2.9v-2.9h-5.5v-1.9h5.6v-2.9h2.9v-5.6h1.9v5.6l2.8.1zM42.5 0H20.6l-6.5 6.5h-1.4l-.6-.5v-.8l-2-2h-.7L3.6 9v.8l2 2h.8l.5.5v1.4l-1 1v31.4L9.7 50h32.8l3.9-3.9V3.8L42.5 0zM21.9 2.6h18.8l2 2v2.1H17.9l4-4.1zm4.4 44.9-18-17.9 18-18 18 18-18 17.9z"/>
</svg>
