<?xml version="1.0" encoding="utf-8"?>
<svg xmlns="http://www.w3.org/2000/svg" xml:space="preserve" id="Layer_1" x="0" y="0" style="enable-background:new 0 0 50 50" version="1.1" viewBox="0 0 50 50">
	<path d="m35.8 3.1 7.8 11.2-1.9 3.5-5.3-5.1c-1.8-1.8-4.3-2.8-6.9-2.8h-9.2c-2.6 0-5.1 1-6.9 2.8L8.1 18l-1.8-3.7 7.8-11.2c1.4-2 3.7-3.1 6.1-3.1h9.6c2.4 0 4.6 1.2 6 3.1zM25 41.5l9.2-22.4 9.2 9.6-6.9-.8L25 50 13.4 27.8l-6.8.8 9.2-9.6L25 41.5zM21.6 15h6.9c.8 0 1.5.7 1.4 1.5 0 .2 0 .3-.1.5L25 27.8l-4.7-10.7c-.3-.8.1-1.6.9-1.9.1-.1.3-.1.5-.1V15z"/>
</svg>
