<?xml version="1.0" encoding="utf-8"?>
<svg xmlns="http://www.w3.org/2000/svg" xml:space="preserve" id="Layer_1" x="0" y="0" style="enable-background:new 0 0 50 50" version="1.1" viewBox="0 0 50 50">
	<path d="M25.6.1c-5.3 0-10.5 1.8-14.7 5C-.3 12.5-3.4 27.7 4 38.9s22.6 14.4 33.8 6.9c.9-.6 1.7-1.2 2.4-1.9 10.8-8 13-23.4 4.9-34.1C40.5 3.7 33.3.1 25.6.1zm13 36.2c-3.3-.2-6.5-2-8.3-4.8l-.9-1.3-3.6 1.2.3 2.2c.7 4.4 3.9 8 8.3 9l2.6.7c-3.4 2.2-7.4 3.2-11.4 3.2-.5 0-.9 0-1.4-.1l-2.3-4.8c-1.5-3-1.5-6.5 0-9.6l.7-1.4-2.9-2.5-1.7 1.3c-3.5 2.7-5 7.4-3.7 11.7l.8 2.6c-3.9-2.2-7.1-5.5-9.2-9.5l2.9-4.4c1.9-2.8 5-4.6 8.3-4.8l1.6-.1.8-3.8-2.1-.8c-4.1-1.7-8.9-.6-11.9 2.6l-2 2.1v-.6c0-4.3 1.3-8.5 3.7-12l5.4.4c3.3.2 6.5 2 8.3 4.8l.9 1.3 3.6-1.2-.3-2.2c-.7-4.4-3.9-8-8.3-9L14.2 6c3.4-2.2 7.4-3.2 11.4-3.2.5 0 .9 0 1.4.1l2.3 4.8c1.5 3 1.5 6.5 0 9.6l-.8 1.3 2.9 2.5 1.8-1.4c3.5-2.7 5-7.4 3.7-11.7l-.8-2.6c3.9 2.2 7.1 5.5 9.2 9.5l-3.1 4.4c-1.9 2.8-5 4.6-8.3 4.8l-1.6.1-.8 3.8 2.1.8c4.1 1.7 8.9.6 11.9-2.6l2-2.1v.6c0 4.3-1.3 8.5-3.6 12.1 0-.1-5.3-.5-5.3-.5z"/>
</svg>
