<?xml version="1.0" encoding="utf-8"?>
<svg xmlns="http://www.w3.org/2000/svg" xml:space="preserve" id="Layer_1" x="0" y="0" style="enable-background:new 0 0 50 50" version="1.1" viewBox="0 0 50 50">
	<path d="m43 32.1-8.3 5.4-6.1-2.6.1-5.4 12.5-2.9 2.1-.7-1.1-6.8-1.3-.1 1.6-10-.1-1.4c-2.6-2.8-5.5-5.1-8.4-6C30.1.3 25 0 25 0s-5.1.3-8.9 1.6c-2.9.9-5.7 3.2-8.4 6L7.6 9l1.6 10-1.5.1-1 6.8 2 .8 12.5 2.9.1 5.4-6.1 2.6L7 32.2l-1.4 4.9 6.1 6.8 4 1.1 3 4.9h12.6l3-4.9 4-1.1 6.1-6.8-1.4-5zM28.4 43h-6.9l-.8-1.8 2.3-3.9h4l2.3 3.9-.9 1.8z"/>
</svg>
