<?xml version="1.0" encoding="UTF-8"?>
<svg xmlns="http://www.w3.org/2000/svg" id="icon" viewBox="0 0 24 24">
	<defs>
		<style>
			.cls-1{fill:#000;stroke-width:0}
		</style>
	</defs>
	<path d="M6.92 15.84c-.17 0-.3-.07-.43-.17a4.798 4.798 0 0 1 0-6.78c.23-.23.6-.23.87 0 .23.23.23.6 0 .87-1.4 1.4-1.4 3.68 0 5.08.23.23.23.6 0 .87-.13.07-.3.13-.43.13Z" class="cls-1"/>
	<path d="M4.51 17.45c-.17 0-.3-.07-.43-.17-2.77-2.77-2.77-7.25 0-9.99.23-.23.6-.23.87 0 .23.23.23.6 0 .87-2.27 2.27-2.27 6.02 0 8.29.23.23.23.6 0 .87-.13.07-.27.13-.43.13Zm12.57-1.61c-.17 0-.3-.07-.43-.17-.23-.23-.23-.6 0-.87.67-.67 1.04-1.57 1.04-2.54s-.37-1.87-1.04-2.54c-.23-.23-.23-.6 0-.87.23-.23.6-.23.87 0 .9.9 1.4 2.11 1.4 3.38s-.5 2.47-1.4 3.38c-.1.17-.27.23-.43.23Z" class="cls-1"/>
	<path d="M19.49 17.45c-.17 0-.3-.07-.43-.17-.23-.23-.23-.6 0-.87 2.27-2.27 2.27-6.02 0-8.29-.23-.23-.23-.6 0-.87.23-.23.6-.23.87 0 2.77 2.77 2.77 7.25 0 9.99-.13.13-.3.2-.43.2Zm-4.48-6.62-4.38 7.22h-.4l1.37-5.58H9.26l1.14-6.52h4.01l-1.98 4.88h2.58z" class="cls-1"/>
</svg>
