<?xml version="1.0" encoding="UTF-8"?>
<svg xmlns="http://www.w3.org/2000/svg" viewBox="0 0 24 24">
	<path d="m13.876 14.926.974-1.043-.138-.433q.253-.312.493-.625a170 170 0 0 0 5.794-8.143l-7.165 4.996.044.229c.01.052.219 1.285-1.902 2.555l-.023.014-.023-.014c-2.12-1.27-1.911-2.504-1.903-2.55l.053-.235L3 4.667c.015.023 2.624 4.123 5.701 8.16q.236.311.488.619l-.133.439.974 1.043c-.152.381-.599 1.18-1.635 2.562l-.016.022c-.199.266-1.467 1.82-1.468 1.822l1.615-.835c.062-.031 1.522-.779 3.428-2.501 1.907 1.722 3.367 2.469 3.429 2.501l1.482.835s-.789-1.065-1.352-1.844-1.484-2.182-1.636-2.563Zm-2.082.754c-1.912 1.743-3.416 2.512-3.431 2.519l-.128.065.087-.111s.139-.176.34-.444l.006-.007.005-.002.006-.013c1.259-1.68 1.894-2.813 1.745-3.108q-.035-.069-.139-.073a.5.5 0 0 0-.167.031l-.021.007-.048-.053a24 24 0 0 1-.44-.498l-.164-.188.005-.016.006-.017.005-.015.011-.036.005-.016.017-.005q.127-.037.282-.089c-.274-.324-.54-.655-.792-.985-3.067-4.023-4.539-6.391-4.553-6.414l-.08-.13 5.34 3.738-.005.02s-.08.375.133.916c.197.5.691 1.252 1.927 1.992l.015.009.044 2.913-.01.009Zm3.878 2.583-.128-.065c-.015-.007-1.52-.777-3.432-2.519l-.01-.009v-.014l.044-2.899.015-.009c1.238-.741 1.732-1.495 1.928-1.996.211-.54.132-.907.131-.911l-.005-.02.017-.012 5.324-3.727-.08.13c-.015.023-1.486 2.391-4.554 6.414q-.38.497-.792.985.15.051.282.089l.016.005.005.016.007.022.005.015.005.016.005.016.005.016-.164.188c-.155.18-.299.343-.439.497l-.048.053-.021-.007a.5.5 0 0 0-.168-.031q-.104.003-.138.073c-.149.295.487 1.428 1.746 3.108l.006.013.005.002.006.007c.201.268.338.442.34.444l.087.111Zm-5.429-3.818-.024.003zm.016-.001h.029z"/>
	<path d="M9.666 10.807c-.171-.437-.166-.768-.151-.916L4.912 6.668c.607.927 1.984 2.959 4.201 5.866.258.339.533.68.816 1.013l.029.034.087.103-.173.059-.211.069.072.082c.146.17.282.324.416.472a.6.6 0 0 1 .125-.015h.018c.165.006.242.091.277.161.072.142.097.448-.515 1.459a24 24 0 0 1-1.223 1.778 20 20 0 0 0 2.812-2.143l-.042-2.76c-1.233-.753-1.733-1.522-1.935-2.038h-.001Z"/>
	<path d="m10.203 14.45-.027.006zm-.042.008q-.021.005-.045.013zm3.177.053c.036-.07.112-.154.277-.16h.019a.6.6 0 0 1 .125.015q.196-.218.415-.471l.072-.083-.211-.069-.043-.015-.129-.045.087-.102.029-.034c.283-.333.558-.674.816-1.013 2.217-2.907 3.593-4.939 4.201-5.866L14.392 9.89c.015.148.02.48-.151.916-.202.515-.701 1.284-1.935 2.038l-.042 2.76a19.6 19.6 0 0 0 2.812 2.143 24 24 0 0 1-1.223-1.778c-.612-1.011-.587-1.317-.515-1.459h-.001Zm.281-.067h.029z"/>
	<path d="m13.79 14.472-.045-.013q.021.005.045.013m-.102-.024-.024-.003z"/>
</svg>
