<?xml version="1.0" encoding="UTF-8"?>
<svg xmlns="http://www.w3.org/2000/svg" viewBox="0 0 24 24">
	<path d="m20.4 6.69.6-.26a4.277 4.277 0 0 0-3.9-2.54c-1.54 0-2.96.84-3.72 2.15-.4-.26-.87-.4-1.36-.4-.52 0-.99.16-1.39.42-.76-1.33-2.17-2.19-3.72-2.19-1.68 0-3.22.99-3.9 2.54l.6.26A3.614 3.614 0 0 1 6.6 4.53v.42c-1.62.16-2.88 1.54-2.88 3.19s1.26 3.03 2.88 3.19v.42a3.596 3.596 0 0 1-2.93-2.02l-.58.29c.6 1.21 1.7 2.06 2.98 2.31-.63.44-1.15 1.04-1.47 1.76l.6.26a3.622 3.622 0 0 1 5.62-1.32l-.29.29c-.55-.44-1.25-.7-1.99-.7a3.22 3.22 0 0 0-3.21 3.21c0 1.33.79 2.51 2.04 2.99l.24-.6a2.502 2.502 0 0 1-1.6-2.06h1.13v-.32c0-.78.63-1.41 1.41-1.41s1.41.63 1.41 1.41-.63 1.41-1.41 1.41h-.32v2.2a3.596 3.596 0 0 1-2.93-2.02l-.58.29c.73 1.47 2.2 2.4 3.84 2.4 1.44 0 2.77-.71 3.54-1.89.79 1.18 2.1 1.89 3.54 1.89 1.65 0 3.12-.92 3.84-2.4l-.58-.29c-.16.32-.36.6-.58.86l-.31-.31c.52-.57.84-1.33.84-2.15 0-1.33-.79-2.51-2.04-2.99l-.24.6c.89.34 1.49 1.13 1.6 2.06h-1.13v.32c0 .78-.63 1.41-1.41 1.41s-1.41-.63-1.41-1.41c0-.58.34-1.08.87-1.31l.29-.11-.63-1.68-.31.11a3.173 3.173 0 0 0-2.04 2.99 3.22 3.22 0 0 0 3.21 3.21c.71 0 1.36-.23 1.89-.62l.31.31c-.62.47-1.38.74-2.2.74a3.59 3.59 0 0 1-3.25-2.04l-.32-.55-.29.6c-.15.31-.34.6-.57.84l-.29-.31c.52-.58.81-1.34.81-2.14s-.28-1.49-.74-2.06l.31-.31c.23.26.4.55.55.87l.6-.26a4.277 4.277 0 0 0-3.9-2.54c-.44 0-.86.06-1.25.19v-.42c1.18-.11 2.17-.87 2.62-1.93.44.74 1.25 1.25 2.17 1.25h.32V8.97h-.32c-.45 0-.83-.37-.83-.83s.37-.83.83-.83.83.37.83.83c0 .08-.02.16-.03.23-.02.03-.02.06-.03.1h.68c.02-.11.03-.21.03-.32 0-.81-.66-1.47-1.47-1.47s-1.47.66-1.47 1.47c0 .7.49 1.28 1.15 1.42v.4a1.88 1.88 0 0 1-1.54-1.85c0-1.04.84-1.86 1.86-1.86.47 0 .91.18 1.26.49l.32.31.15-.4c.15-.32.32-.6.55-.86l.29.29c-.47.55-.74 1.28-.74 2.06 0 1.33.79 2.51 2.04 2.99l.24-.6a2.502 2.502 0 0 1-1.6-2.06h1.13v-.32c0-.78.63-1.41 1.41-1.41s1.41.63 1.41 1.41-.63 1.41-1.41 1.41h-.32v2.2a3.596 3.596 0 0 1-2.93-2.02l-.58.29c.73 1.47 2.2 2.4 3.84 2.4h.32v-2.27c.97-.16 1.73-1 1.73-2.02 0-1.13-.92-2.06-2.06-2.06-1.02 0-1.88.74-2.02 1.73h-.5a2.552 2.552 0 0 1 2.54-2.23c1.41 0 2.56 1.15 2.56 2.56 0 1.07-.63 1.99-1.63 2.38l.24.6a3.173 3.173 0 0 0 2.04-2.99 3.22 3.22 0 0 0-3.21-3.21c-.76 0-1.46.26-1.99.7l-.29-.29a3.62 3.62 0 0 1 2.3-.83c1.39.02 2.7.86 3.29 2.17ZM6.56 10.71c-1.26-.16-2.23-1.23-2.23-2.54s.97-2.38 2.23-2.54v5.08Zm9 7.72c-1.41 0-2.56-1.15-2.56-2.56 0-.96.52-1.8 1.33-2.25l.18.49c-.62.37-1 1.04-1 1.76 0 1.13.92 2.06 2.06 2.06 1.02 0 1.88-.74 2.02-1.73h.52a2.552 2.552 0 0 1-2.54 2.23Zm-4.53-2.56c0 .71-.31 1.41-.83 1.88l-.24.23.71.78c-.53.42-1.18.66-1.89.73V17.9c.97-.16 1.73-1 1.73-2.02 0-1.13-.92-2.06-2.06-2.06-1.02 0-1.88.74-2.02 1.73h-.5a2.55 2.55 0 0 1 2.53-2.23c1.42 0 2.57 1.15 2.57 2.56Zm-1.2-8.99c-.32-.78-.96-1.39-1.78-1.72l-.24.6c.99.39 1.63 1.33 1.63 2.38 0 1.29-.97 2.38-2.23 2.54V4.53c1.23.11 2.33.84 2.9 1.96-.1.13-.19.26-.28.39Z" style="fill:#000;stroke-width:0"/>
</svg>
