<svg xmlns="http://www.w3.org/2000/svg" viewBox="0 0 50 50">
	<path d="M25 0a25 25 0 1 0 25 25A25 25 0 0 0 25 0Zm0 49a24 24 0 1 1 24-24 24 24 0 0 1-24 24Z"/>
	<path d="M25 1.82A23.18 23.18 0 1 0 48.18 25 23.18 23.18 0 0 0 25 1.82Zm0 41.78A18.6 18.6 0 1 1 43.6 25 18.6 18.6 0 0 1 25 43.6Z"/>
	<path d="M42 27.13v-4.37h-4.5v-9.54a17.15 17.15 0 0 0-11.42-5.38v14.92h-2.31V7.85a17.17 17.17 0 0 0-11.44 5.53v9.38H8v4.37h4.35v9.49a17.22 17.22 0 0 0 4.38 3.44V27.13h2.68v14.13a17.21 17.21 0 0 0 4.38.89v-15h2.31v15a17.62 17.62 0 0 0 4.38-.85V27.13h2.68v13a17.18 17.18 0 0 0 4.38-3.37v-9.63Zm-22.61-4.37h-2.68v-8.33l2.68-1.55Zm13.75 0h-2.68v-9.87l2.68 1.55Z"/>
</svg>
