<?xml version="1.0" encoding="utf-8"?>
<svg xmlns="http://www.w3.org/2000/svg" xml:space="preserve" id="Layer_1" x="0" y="0" style="enable-background:new 0 0 50 50" version="1.1" viewBox="0 0 50 50">
	<path d="M25 0c-5.4 0-10.7 1.8-15 5.1-11.5 7.6-14.7 23.1-7.1 34.6S26 54.4 37.5 46.8c.9-.6 1.7-1.2 2.5-1.9 11-8.3 13.2-24 4.9-35C40.2 3.7 32.8 0 25 0zm13.3 37c-3.4-.2-6.6-2-8.5-4.9l-.9-1.3-3.7 1.2.3 2.2c.7 4.5 4 8.2 8.5 9.2l2.7.7c-3.5 2.2-7.6 3.3-11.7 3.3-.5 0-.9 0-1.4-.1l-2.4-4.9c-1.5-3.1-1.5-6.7 0-9.8l.7-1.4-3-2.6-1.7 1.4c-3.6 2.8-5.1 7.6-3.8 12l.8 2.7c-4-2.2-7.3-5.6-9.4-9.7l3-4.5c1.9-2.9 5.1-4.7 8.5-4.9l1.6-.1.8-3.9-2.1-.8c-4.2-1.7-9.1-.6-12.2 2.7l-2 2.1V25c0-4.4 1.3-8.7 3.8-12.3l5.5.4c3.4.2 6.6 2 8.5 4.9l.9 1.3 3.7-1.2-.3-2.2c-.7-4.5-4-8.2-8.5-9.2L13.3 6c3.5-2.2 7.6-3.3 11.7-3.3.5 0 .9 0 1.4.1l2.4 4.9c1.5 3.1 1.5 6.7 0 9.8l-.8 1.3 3 2.6 1.8-1.4c3.6-2.8 5.1-7.6 3.8-12l-.8-2.7c4 2.2 7.3 5.6 9.4 9.7L42 19.5c-1.9 2.9-5.1 4.7-8.5 4.9l-1.6.1-.8 3.9 2.1.8c4.2 1.7 9.1.6 12.2-2.7l2-2.1v.6c0 4.4-1.3 8.7-3.7 12.4l-5.4-.4z"/>
</svg>
