<?xml version="1.0" encoding="UTF-8"?>
<svg xmlns="http://www.w3.org/2000/svg" viewBox="0 0 24 24">
	<path d="m14.25 5.33.52-.89H9.23l.51.89h1.74v3.01l.52.9.52-.9V5.33h1.73zm-3.89 3.91h1.04l-2.77-4.8-2.76 4.8H6.9l1.73-3 1.73 3zm-2.32-4.8H2.5l2.77 4.79v.01l1.04-1.8.69-1.2H5.62l.17.3-.52.9-1.21-2.1h3.46l.52-.9zm9.05 4.8h1.04l-2.77-4.8-2.76 4.8h1.04l1.72-3 1.73 3zm3.89-3.9.52-.9h-5.54l2.77 4.8.52-.9-1.73-3h3.46zm-9.59 6.23.25.07c.08.02.14.1.14.18v7.48c0 .09-.06.16-.14.18l-.25.07a.182.182 0 0 1-.21-.09l-2.14-3.72s-.03-.06-.03-.1v-.18s0-.07.03-.1l2.14-3.72c.04-.07.13-.11.21-.09m1.25.02-.25.07c-.08.02-.14.1-.14.18v7.48c0 .09.06.16.14.18l.25.07c.08.02.17-.01.21-.09l2.14-3.72s.03-.06.03-.1v-.18s0-.07-.03-.1l-2.14-3.72a.195.195 0 0 0-.21-.09M5.81 9.96l.14-.24c.03-.06.1-.1.17-.1h5.06c.07 0 .13.04.17.1l.14.24c.03.06.03.13 0 .19l-2.53 4.38c-.03.06-.1.1-.17.1h-.28c-.07 0-.13-.04-.17-.1l-2.53-4.38a.212.212 0 0 1 0-.19m6.75 0 .14-.24c.03-.06.1-.1.17-.1h5.06c.07 0 .13.04.17.1l.14.24c.03.06.03.13 0 .19l-2.53 4.38c-.03.06-.1.1-.17.1h-.28c-.07 0-.13-.04-.17-.1l-2.53-4.38a.212.212 0 0 1 0-.19"/>
</svg>
