<?xml version="1.0" encoding="UTF-8"?>
<svg xmlns="http://www.w3.org/2000/svg" viewBox="0 0 24 24">
	<path d="M12.03 5.04c-4.31.1-7.72 3.67-7.63 7.98.09 4.17 3.45 7.53 7.63 7.63 4.3 0 7.79-3.5 7.79-7.8s-3.48-7.8-7.79-7.81Zm-.59.85c3.66 0 6.63 2.96 6.63 6.63 0 3.66-2.97 6.63-6.63 6.63-3.66 0-6.63-2.97-6.63-6.63 0-3.66 2.97-6.63 6.63-6.63Z"/>
	<path d="M12.03 7.53c-3.03 0-5.5 2.44-5.51 5.48 0 3.03 2.44 5.5 5.48 5.51 3.03 0 5.5-2.44 5.51-5.48 0-3.03-2.44-5.5-5.48-5.51Zm0 .21c2.54 0 4.59 2.07 4.58 4.61 0 2.54-2.07 4.59-4.61 4.58-2.54 0-4.59-2.07-4.58-4.61 0-2.53 2.06-4.58 4.58-4.58h.02Z"/>
	<path d="M12 6.23c-3.47 0-6.28 2.81-6.28 6.28s2.81 6.28 6.28 6.28 6.28-2.81 6.28-6.28S15.47 6.23 12 6.23Zm0 .21c3.35 0 6.07 2.72 6.07 6.07s-2.72 6.07-6.07 6.07-6.07-2.72-6.07-6.07S8.65 6.44 12 6.44Z"/>
	<path d="M12.03 2c-5.5 0-9.96 4.46-9.96 9.97s4.46 9.97 9.97 9.97 9.97-4.46 9.97-9.97S17.54 2 12.03 2Zm0 .21c5.39 0 9.76 4.37 9.76 9.76s-4.37 9.76-9.76 9.76-9.76-4.37-9.76-9.76 4.37-9.76 9.76-9.76Z"/>
	<path d="M12 4.19c-4.78 0-8.66 3.88-8.66 8.66s3.88 8.66 8.66 8.66 8.66-3.88 8.66-8.66S16.78 4.19 12 4.19Zm0 .21c4.67 0 8.45 3.79 8.45 8.46 0 4.67-3.79 8.45-8.46 8.45-4.67 0-8.45-3.79-8.45-8.46 0-4.67 3.78-8.46 8.45-8.46H12Z"/>
</svg>
