<?xml version="1.0" encoding="UTF-8"?>
<svg xmlns="http://www.w3.org/2000/svg" id="icon" viewBox="0 0 24 24">
	<defs>
		<style>
			.cls-1{fill:#000;stroke-width:0}
		</style>
	</defs>
	<path d="M12 8.47c.92 0 1.68.75 1.68 1.68 0 .62-.34 1.17-.85 1.46v10.4h-1.65v-10.4a1.67 1.67 0 0 1-.85-1.46c0-.93.75-1.68 1.67-1.68Z" class="cls-1"/>
	<path d="M12.68 4.83c.97.12 1.86.51 2.59 1.08l2.01-2.01.96.96-2.01 2.01c.57.73.96 1.62 1.08 2.59h2.87v1.36H16v-.68c0-2.2-1.8-4-4-4s-3.99 1.8-3.99 4v.68H3.82V9.46h2.87c.12-.97.51-1.86 1.08-2.59L5.76 4.86l.96-.96 2.01 2.01c.73-.57 1.62-.96 2.59-1.08V2h1.36v2.83Zm2.138 9.102.961-.961 2.454 2.453-.962.962zm-9.057 1.496 2.454-2.454.962.962-2.454 2.453z" class="cls-1"/>
</svg>
