<?xml version="1.0" encoding="utf-8"?>
<svg xmlns="http://www.w3.org/2000/svg" xml:space="preserve" id="Layer_1" x="0" y="0" style="enable-background:new 0 0 50 50" version="1.1" viewBox="0 0 50 50">
	<path d="M29.6 19.3c-.5-1.5-1.1-2.6-1.7-3.4-.7-.8-1.2-1.2-1.8-1.2-.5 0-1.2.4-1.8 1.2-.7.8-1.2 2-1.7 3.4l3.5 1.4 3.5-1.4zm-7.9 17.8.8-.3-.9-.5zm8.7-15-.7.3.9.5zm-7.8.3-.8-.3-.2.8.5-.2zm-7.2 9.3c-1 1.2-1.7 2.2-2.1 3.3-.4.9-.5 1.7-.2 2.1.3.5.9.8 2 1 1.1.1 2.4.1 3.8-.2-.4-1.5-.5-2.8-.6-3.7-1.2-1-2.1-1.8-2.9-2.5zm-2.3-9.5c-.3.5-.2 1.2.2 2.2.4 1 1.1 2.1 2.1 3.2.9-.8 2-1.6 3-2.4.1-1 .3-2.2.6-3.8-1-.2-2-.3-2.7-.3-1.8 0-2.8.4-3.2 1.1zm4.3 7.4.7.6-.1-.6.1-.5zm12.3 7.2.7.3.2-.8-.5.3zm4.5-6.6.6-.6-.6-.5zm3-9c-1.1-.2-2.4-.1-3.8.2.2 1.2.4 2.4.6 3.8 1.1.8 2.1 1.6 2.9 2.4 1-1.1 1.7-2.2 2.1-3.2.4-.9.5-1.7.2-2.2-.3-.6-1-.9-2-1zM22.6 40c.5 1.5 1.1 2.6 1.7 3.5.7.8 1.2 1.2 1.8 1.2.6 0 1.2-.4 1.8-1.2.7-.8 1.2-2 1.7-3.5l-3.5-1.4-3.5 1.4zm14.2-8.3c-.7.7-1.7 1.5-2.9 2.4-.1 1.3-.4 2.5-.6 3.7 1.5.3 2.8.4 3.8.2s1.7-.5 2-1c.3-.5.2-1.2-.2-2.1-.4-1-1.1-2-2.1-3.2zm-10.7-7.8c-1.4.8-2.2 1.2-2.5 1.4l-2.4 1.5c-.1.9-.2 2-.2 2.9 0 1 .1 2 .2 2.8 1.1.8 2 1.2 2.4 1.5l2.5 1.4 5-2.8v-5.8l-2.4-1.5c-.2-.2-1.1-.6-2.6-1.4z"/>
	<path d="M42.5 0H20.6l-6.5 6.5h-1.4l-.6-.5v-.8l-2-2h-.7L3.6 9v.8l2 2h.8l.5.5v1.4l-1 1v31.4L9.7 50h32.8l3.9-3.9V3.8L42.5 0zm-.6 34.4c.5 1.6.5 3-.2 4.2-1 1.7-2.8 2.5-5.6 2.5-1 0-2.2-.1-3.5-.4-1.5 4.6-3.7 6.9-6.4 6.9-1.4 0-2.7-.7-3.8-2-1.1-1.2-2-2.8-2.6-5-1.3.2-2.5.4-3.5.4-2.8 0-4.7-.8-5.6-2.5-.7-1.2-.8-2.6-.2-4.2.5-1.5 1.5-3.1 3-4.7-3.3-3.6-4.2-6.6-2.8-8.9s4.4-3.1 9.2-2.1c.7-2.1 1.5-3.7 2.6-4.9 1.1-1.3 2.4-2 3.8-2 2.8 0 4.9 2.3 6.4 6.9 4.7-.9 7.8-.2 9.2 2.1 1.4 2.4.4 5.4-2.8 9 1.3 1.6 2.3 3.2 2.8 4.7zm.8-27.7H17.9l4-4.1h18.8l2 2v2.1z"/>
</svg>
