<svg xmlns="http://www.w3.org/2000/svg" viewBox="0 0 50 50">
	<path d="M41 22.41h.79a.07.07 0 0 1 .06 0c.21.9.41 1.8.62 2.7l.3 1.27.09 1.32a.07.07 0 0 1 0 .05h-.87l.01-.84h-1.1l-.06.81a.13.13 0 0 1 0 .06H40a.07.07 0 0 1 0-.05l.09-1.32c.31-1.32.61-2.65.92-4a.1.1 0 0 1-.01-.01m0 3.6h.81c-.14-.57-.27-1.15-.41-1.73-.13.58-.27 1.16-.4 1.73Zm-5.6-3.6h.81v.06l-.09 1.26a.19.19 0 0 1 0 .08l-.87 2.49-.06.16v1.31h-.83v-1.31l-.2-.45c-.24-.7-.48-1.4-.73-2.1a.59.59 0 0 1 0-.19l-.08-1.17a.45.45 0 0 0 0-.11h.84a.28.28 0 0 1 0 .09c0 .39.06.79.08 1.19a.29.29 0 0 0 0 .09v.1c.15.41.29.83.44 1.24l.36-1 .12-.32v-.24l.08-1.07Zm2.05 0h1.23a.84.84 0 0 1 .35.07 1.07 1.07 0 0 1 .22.15.74.74 0 0 1 .17.25.64.64 0 0 1 .07.31v.87h-.82a.09.09 0 0 1 0-.05v-.54a.34.34 0 0 0 0-.1.22.22 0 0 0-.12-.11.33.33 0 0 0-.14 0h-.48a.27.27 0 0 0-.13 0 .2.2 0 0 0-.1.16.75.75 0 0 0 0 .15v3.1a.18.18 0 0 0 .16.19h.7a.2.2 0 0 0 .11-.11.61.61 0 0 0 0-.14v-.49a.07.07 0 0 1 0-.05h.85V27a1.09 1.09 0 0 1 0 .18.71.71 0 0 1-.13.31.78.78 0 0 1-.46.31 1.22 1.22 0 0 1-.33 0h-1.1a.74.74 0 0 1-.28-.08.76.76 0 0 1-.25-.19.81.81 0 0 1-.18-.4 1.09 1.09 0 0 1 0-.18v-3.82a.66.66 0 0 1 .11-.36.76.76 0 0 1 .53-.36Zm-10.54.03h2a.9.9 0 0 1 .32.09.84.84 0 0 1 .39.51 1.62 1.62 0 0 1 0 .31v2.15a.9.9 0 0 1-.08.36.86.86 0 0 1-.28.29c.11.55.23 1.09.34 1.64h-.82a.06.06 0 0 1-.06-.05c-.1-.5-.21-1-.31-1.51h-.66v1.55H27a.28.28 0 0 1 0-.09V22.5a.15.15 0 0 1 0-.07m.88.86v2.07h.85a.22.22 0 0 0 .13-.22V23.5a.18.18 0 0 0 0-.1.19.19 0 0 0-.14-.11h-.82Zm14.91-.88h2.72v.82h-.91v4.5h-.86v-4.44h-.93a.11.11 0 0 1 0-.05v-.77a.11.11 0 0 1 0-.05ZM24 22.44a.92.92 0 0 1 .29 0h1.28a.82.82 0 0 1 .49.3.75.75 0 0 1 .15.37 1.93 1.93 0 0 1 0 .24V24h-.87v-.56a.17.17 0 0 0-.07-.15.17.17 0 0 0-.12 0h-.59a.17.17 0 0 0-.15.07.21.21 0 0 0-.05.13v3.2a.25.25 0 0 0 0 .12.19.19 0 0 0 .13.1h.65a.19.19 0 0 0 .18-.14V26h-.48v-.77a.11.11 0 0 1 0-.05h1.32a.05.05 0 0 1 0 .05v1.67a1.3 1.3 0 0 1 0 .34.8.8 0 0 1-.15.29.74.74 0 0 1-.23.2.75.75 0 0 1-.32.1h-1.17a.63.63 0 0 1-.3-.05.72.72 0 0 1-.29-.2.73.73 0 0 1-.21-.42v-3.95a.84.84 0 0 1 0-.27.66.66 0 0 1 .17-.29.85.85 0 0 1 .32-.21Zm6.29-.03h2.43a.07.07 0 0 1 0 .06v.76h-1.56v1.37h1.22v.78h-1.22v1.37h1.51a.06.06 0 0 1 0 .05v.76a.07.07 0 0 1 0 .05h-2.38a.07.07 0 0 1 0-.05v-5.1a.07.07 0 0 1 0-.05Z" class="a"/>
	<path d="M24.87 5a20.11 20.11 0 1 0 0 40.21 20.11 20.11 0 0 0 17.72-10.68h-5.74a15.28 15.28 0 1 1 0-18.93h5.75A20.09 20.09 0 0 0 24.87 5Z" class="a"/>
	<path d="M25 0a25 25 0 1 0 17.69 7.32A25 25 0 0 0 25 0Zm0 2.51a22.48 22.48 0 0 1 21.31 15.4H35.74a12.94 12.94 0 1 0 0 14.37A11.82 11.82 0 0 0 37 29.89H21.11v-9.61H47A22.47 22.47 0 1 1 25 2.51Zm0 12a10.56 10.56 0 0 1 7.72 3.36h-14v14.38h14A10.54 10.54 0 1 1 25 14.55Z" class="a"/>
</svg>
