<?xml version="1.0" encoding="UTF-8"?>
<svg xmlns="http://www.w3.org/2000/svg" viewBox="0 0 24 24">
	<path d="m7.68 5.98-.81-.88-4.37.78.41.51 4.77-.4m-.44.67-.31.26H2.64l.42 1.11 3.87-.29-.02 11.17.64-.21.23-10.63.27-.57-.81-.84"/>
	<path d="m3.24 9.52.55.42 2.19-.96-.88-.54-1.85 1.08m1.1 2.37 1.29-1.08v-.62l-2.3 1.03 1.01.66m17.15-6.3-.3-.52-4.77.4.84.88 4.23-.76m-1.63 2.97h-2.51v-.5l2.16-.98-.16-.54-4.35 1.5 1 .63.6-.27-.16 10.52.84-.64.03-2.56h2.57v3.2l.71-.43.16-8.78.36-.6-.86-.86-.39.28Zm0 .8v2.39h-2.51V9.35h2.51Zm-2.56 5.57v-2.39h2.53v2.39h-2.53Z"/>
</svg>
