<?xml version="1.0" encoding="UTF-8"?>
<svg id="logo" xmlns="http://www.w3.org/2000/svg" viewBox="0 0 192 192">
  <defs>
    <style>
      .cls-1 {
        fill: #0071bb;
        stroke-width: 0px;
      }
    </style>
  </defs>
  <g>
    <path class="cls-1" d="M122.91,46.62H58.74v74.52h74.54V46.62h-10.37ZM126.81,104.18l-8.06-8.06,4.04-4.04h-18.48v18.48l4.04-4.04,8.15,8.15h-40.86l8.19-8.15,4.04,4.04v-18.48h-18.48l4.04,4.04-8.23,8.19v-40.92l8.23,8.07-4.04,4.04h18.48v-18.48l-4.04,4.04-8.13-7.98h40.69l-8.04,7.98-4.04-4.04v18.48h18.48l-4.04-4.04,8.06-8v40.71Z"/>
    <g>
      <path class="cls-1" d="M21.9,145.36h-12.66c-.76,0-1.23-.51-1.23-1.33v-11.43c0-.8.45-1.33,1.23-1.33h12.66c.76,0,1.27.51,1.27,1.33v3.84h-3.33v-2.55h-8.51v8.8h8.49v-2.69h3.33v4c0,.84-.49,1.35-1.25,1.35Z"/>
      <path class="cls-1" d="M48.12,145.36h-12.6c-.8,0-1.29-.51-1.29-1.33v-12.74h3.33v11.37h8.49v-11.37h3.33v12.74c0,.82-.49,1.33-1.25,1.33Z"/>
      <path class="cls-1" d="M71.78,145.36l-6.41-5.66v-1.69h6.19v-4.1h-7.78v11.45h-3.33v-14.07h13.17c.76,0,1.25.51,1.25,1.33v6.47c0,.78-.49,1.29-1.25,1.29h-3.53l5.74,4.86v.14h-4.06v-.02Z"/>
      <path class="cls-1" d="M85.73,145.36v-14.07h13.66v2.72h-10.33v2.96h8.21v2.53h-8.21v3.18h10.49v2.7h-13.82v-.02Z"/>
      <path class="cls-1" d="M109.92,145.36v-14.07h3.33v11.37h9.45v2.7h-12.78Z"/>
      <path class="cls-1" d="M132.57,145.36v-14.07h3.33v14.07h-3.33Z"/>
      <path class="cls-1" d="M150.29,134.01v3.02h8.02v2.53h-8.02v5.82h-3.33v-14.07h13.33v2.7h-10Z"/>
      <path class="cls-1" d="M170.18,145.36v-14.07h13.66v2.72h-10.33v2.96h8.21v2.53h-8.21v3.18h10.49v2.7h-13.82v-.02Z"/>
    </g>
  </g>
</svg>