<?xml version="1.0" encoding="UTF-8"?>
<svg id="logo" xmlns="http://www.w3.org/2000/svg" viewBox="0 0 192 192">
  <defs>
    <style>
      .cls-1 {
        fill: #000;
        stroke-width: 0px;
      }
    </style>
  </defs>
  <g>
    <path class="cls-1" d="M36.22,99.1h6c-2.89,4.95-5.74,9.83-8.59,14.71h-17.07c-2.83-4.86-5.67-9.74-8.56-14.67h6c1.84,3.15,3.68,6.32,5.53,9.49h11.09c1.86-3.13,3.71-6.32,5.59-9.53"/>
    <path class="cls-1" d="M33.63,78.19c2.85,4.88,5.68,9.76,8.56,14.71h-5.95c-1.88-3.17-3.77-6.38-5.63-9.53h-10.99c-1.86,3.13-3.73,6.32-5.63,9.53h-5.97c2.87-4.93,5.72-9.81,8.56-14.71h17.05Z"/>
    <path class="cls-1" d="M31.41,88.97c.21,0,.34.09.34.3v3.11c0,.21-.13.3-.34.3h-4.07v12.08c0,.23-.11.32-.32.32h-3.79c-.21,0-.32-.09-.32-.32v-12.08h-4.03c-.23,0-.34-.09-.34-.3v-3.11c0-.21.11-.3.34-.3h12.53Z"/>
    <path class="cls-1" d="M63.8,88.97c.21,0,.32.09.32.3v7.77c0,6.53-1.41,8.16-7.04,8.16s-7.04-1.63-7.04-8.16v-7.77c0-.21.11-.3.32-.3h3.79c.21,0,.32.09.32.3v7.77c0,3.55.53,4.43,2.61,4.43s2.61-.88,2.61-4.43v-7.77c0-.21.11-.3.32-.3h3.79Z"/>
    <path class="cls-1" d="M92.84,88.96c.21,0,.23.17.24.34l1.67,15.46c.02.24-.11.34-.32.34h-3.79c-.21,0-.3-.09-.32-.34l-.88-8.1-3.06,7.6c-.11.24-.28.34-.49.34h-2.46c-.21,0-.38-.09-.49-.34l-3.04-7.6-.9,8.1c-.02.24-.11.34-.32.34h-3.79c-.21,0-.34-.09-.32-.34l1.67-15.44c.02-.19.04-.34.24-.34h3.41c.83,0,1.22.15,1.5.84l3.26,8.37,3.26-8.39c.28-.69.68-.84,1.5-.84h3.4Z"/>
    <path class="cls-1" d="M110.34,98.49v3h2.08c1.58,0,2.12-.39,2.12-1.46s-.54-1.54-2.12-1.54h-2.08ZM110.34,92.59v2.98h1.74c1.58,0,2.12-.43,2.12-1.48s-.54-1.48-2.12-1.48h-1.74v-.02ZM118.71,93.33c0,2.48-.73,3.41-2.85,3.71v.06c2.36.17,3.17,1.11,3.17,3.66,0,3.25-1.58,4.47-6.13,4.47-2.23,0-4.45-.08-6.68-.28-.24-.02-.32-.08-.32-.26v-15.25c0-.19.06-.24.32-.26,2.23-.21,4.11-.28,6.34-.28,4.58-.02,6.15,1.22,6.15,4.45"/>
    <path class="cls-1" d="M135.09,92.59v3.71h2.08c1.58,0,2.04-.47,2.04-1.82s-.47-1.89-2.04-1.89h-2.08ZM143.7,94.34c0,2.91-.79,4.28-3,4.84l3.58,5.53c.17.23.06.41-.24.41h-3.86c-.49,0-.64-.15-.84-.45l-3.41-5.22h-.81v5.35c0,.26-.06.32-.32.32h-3.79c-.24,0-.32-.06-.32-.32v-15.38c0-.19.06-.24.32-.26,2.23-.21,4.45-.28,6.68-.28,4.48-.02,6.02,1.48,6.02,5.46"/>
    <path class="cls-1" d="M159.67,88.97c.21,0,.32.13.32.34v15.44c0,.24-.11.34-.32.34h-3.79c-.21,0-.32-.09-.32-.34v-15.44c0-.23.11-.34.32-.34h3.79Z"/>
    <path class="cls-1" d="M177.13,88.97c.21,0,.32.13.32.32v12.08h6.21c.21,0,.34.09.34.3v3.11c0,.21-.13.3-.34.3h-10.32c-.21,0-.32-.09-.32-.32v-15.48c0-.21.11-.32.32-.32h3.79Z"/>
  </g>
</svg>