<?xml version="1.0" encoding="UTF-8"?>
<svg xmlns="http://www.w3.org/2000/svg" xml:space="preserve" style="fill-rule:evenodd;clip-rule:evenodd;stroke-linejoin:round;stroke-miterlimit:2" viewBox="0 0 800 800">
	<path d="M0 0h192v192H0z" style="fill:none" transform="scale(4.16667)"/>
	<path d="M77.808 453.026V336.67l24.296-9.84v146.34zm29.205 20.145V326.83l24.296 9.84v116.356zm90.07-41.375.032-47.608h17.748v47.608zm65.874-47.608v40.9l-6.413 6.708-35.98.135-.038-47.743H238.3v36.511h6.56v-36.511zm349.09 42.042v-36.195l-.056-.033 5.655-4.989h51.465l5.656 4.898v36.32l-5.656 5.565h-51.408zm46.296-5.644v-23.413H629.32v23.413zm44.735 11.21v-28.459h47.732v-6.164h-47.72v-12.16h57.923l5.655 4.796v19.172l-5.655 5.543h-39.215v17.272z"/>
	<path d="M285.12 172.52H300v42.09h-14.9zm40.47 0H343V204h42.2v10.64h-53.66l-5.91-5.73z" style="fill-rule:nonzero" transform="translate(-32.847 189.051)scale(1.1311)"/>
	<path d="M499.31 172.52h52.08v10.76h-57.05v-4.86z" style="fill-rule:nonzero" transform="translate(-40.765 189.051)scale(1.1311)"/>
	<path d="M169.59 173.43h9.87l-35.72 26.65v-8.56zm9.87 4.75v23.75l-35.72 29.95v-26.27z" style="fill-rule:nonzero" transform="translate(-27.191 187.92)scale(1.1311)"/>
	<path d="M494.34 187.42h52.09l5 5v17.18l-5 5h-52.12v-9.8h41.37V199h-36.37l-5-4.4z" style="fill-rule:nonzero" transform="translate(-40.765 189.051)scale(1.1311)"/>
	<path d="M408.92 172.52h17.38V204h42.2v10.64h-53.63l-5.87-5.76z" style="fill-rule:nonzero" transform="translate(-35.11 189.051)scale(1.1311)"/>
	<path d="M63.37 173.43h-9.86l35.72 26.65v-8.56zm-9.86 4.75v23.75l35.72 30v-26.32z" style="fill-rule:nonzero" transform="translate(-27.191 187.92)scale(1.1311)"/>
	<path d="M213.45 234.72h-4.27a2.3 2.3 0 0 0-.26-.66 1.88 1.88 0 0 0-1.56-.58 2.2 2.2 0 0 0-1.05.23.77.77 0 0 0-.45.7c0 .26.16.46.49.61s.78.25 1.77.51q1.586.378 3.12.93a4.01 4.01 0 0 1 2.81 3.85 4.23 4.23 0 0 1-1 2.83q-1.72 2.06-5.35 2.06a7.9 7.9 0 0 1-4.6-1.23 4.31 4.31 0 0 1-1.95-3.75h4.36c.039.294.131.578.27.84.46.626 1.232.947 2 .83.485.017.968-.079 1.41-.28a.9.9 0 0 0 .54-.83.76.76 0 0 0-.46-.73 12 12 0 0 0-1.2-.41c-1.94-.56-3.25-1-3.92-1.27a4.14 4.14 0 0 1-2.57-3.824c0-1.227.547-2.392 1.49-3.176a4.7 4.7 0 0 1 1.69-.89 11.3 11.3 0 0 1 2.88-.34q3.45 0 4.92 1.81a5 5 0 0 1 1 2.73z" style="fill-rule:nonzero" transform="translate(-30.434 185.553)scale(1.1311)"/>
	<path d="M293.4 239.67v5.2h-4.32v-5.2l-5.21-9.17h4.77l2.61 5.53 2.58-5.53h4.85z" style="fill-rule:nonzero" transform="translate(-31.564 185.54)scale(1.1311)"/>
	<path d="M380.94 234.72h-4.27a2 2 0 0 0-.27-.66 1.85 1.85 0 0 0-1.55-.58 2.25 2.25 0 0 0-1.06.23.78.78 0 0 0-.44.7c0 .26.16.46.49.61s.77.25 1.76.51q1.591.376 3.13.93a4.01 4.01 0 0 1 2.81 3.85 4.3 4.3 0 0 1-1 2.83q-1.72 2.06-5.35 2.06a7.9 7.9 0 0 1-4.6-1.23 4.34 4.34 0 0 1-2-3.75H373c.039.294.131.578.27.84a2.07 2.07 0 0 0 1.95.83c.485.019.969-.077 1.41-.28a.9.9 0 0 0 .55-.83.76.76 0 0 0-.46-.73 12 12 0 0 0-1.2-.41c-2-.56-3.25-1-3.92-1.27a4.12 4.12 0 0 1-1.08-7 4.6 4.6 0 0 1 1.69-.89 11.2 11.2 0 0 1 2.88-.34q3.45 0 4.92 1.81a5 5 0 0 1 1 2.73z" style="fill-rule:nonzero" transform="translate(-34.958 185.54)scale(1.1311)"/>
	<path d="M460.67 234.24v10.63h-4.31v-10.63h-4.15v-3.74h12.56v3.74z" style="fill-rule:nonzero" transform="translate(-38.351 185.54)scale(1.1311)"/>
	<path d="M540.28 239.21v1.92h8v3.74H536V230.5h12.14v3.74h-7.83v1.81H547v3.16z" style="fill-rule:nonzero" transform="translate(-40.613 185.54)scale(1.1311)"/>
	<path d="M635.08 230.5v14.37h-4v-8.38l-2.16 8.38h-3.22l-2.13-8.38v8.38h-4V230.5h5.81l1.94 7.72 2-7.72z" style="fill-rule:nonzero" transform="translate(-44.006 185.54)scale(1.1311)"/>
	<path d="M718.57 234.72h-4.27a2 2 0 0 0-.27-.66 1.86 1.86 0 0 0-1.56-.58 2.2 2.2 0 0 0-1.05.23.78.78 0 0 0-.44.7c0 .26.16.46.48.61s.78.25 1.77.51q1.591.378 3.13.93a4.01 4.01 0 0 1 2.81 3.85 4.3 4.3 0 0 1-1 2.83c-1.15 1.37-2.94 2.06-5.35 2.06a7.9 7.9 0 0 1-4.6-1.23 4.34 4.34 0 0 1-2-3.75h4.37c.042.292.129.576.26.84a2.1 2.1 0 0 0 2 .83c.485.019.969-.077 1.41-.28a.9.9 0 0 0 .55-.83.78.78 0 0 0-.46-.73 12 12 0 0 0-1.2-.41c-2-.56-3.25-1-3.92-1.27a4.12 4.12 0 0 1-1.08-7 4.6 4.6 0 0 1 1.69-.89 11 11 0 0 1 2.87-.34q3.47 0 4.93 1.81a5 5 0 0 1 1 2.73z" style="fill-rule:nonzero" transform="translate(-46.783 185.553)scale(1.1311)"/>
	<path d="M135.368 375.67h631.247v4.526H135.368zm-102.036 0h40.4v4.526h-40.4z"/>
</svg>
