<?xml version="1.0" encoding="UTF-8"?>
<svg id="logo" xmlns="http://www.w3.org/2000/svg" viewBox="0 0 192 192">
  <defs>
    <style>
      .cls-1 {
        fill: #000;
        stroke-width: 0px;
      }
    </style>
  </defs>
  <g>
    <path class="cls-1" d="M25.04,128.92h-11.35c-3.78,0-5.67,1.13-5.67,3.38v9.04c0,2.27,1.89,3.38,5.67,3.38h11.35c3.78,0,5.67-1.13,5.67-3.38v-9.04c0-2.25-1.89-3.38-5.67-3.38ZM24.42,140.22c0,.76-.7,1.13-2.07,1.13h-5.93c-1.41,0-2.11-.38-2.11-1.13v-6.77c0-.76.7-1.13,2.11-1.13h5.93c1.37,0,2.07.38,2.07,1.13v6.77Z"/>
    <path class="cls-1" d="M50.52,140.22c0,.76-.8,1.13-2.37,1.13h-5.75c-1.61,0-2.41-.38-2.41-1.13v-11.29h-6.27v12.42c0,2.27,1.93,3.38,5.77,3.38h11.53c3.84,0,5.77-1.13,5.77-3.38v-12.42h-6.27v11.29Z"/>
    <polygon class="cls-1" points="59.8 132.3 66.55 132.3 66.55 144.74 72.74 144.74 72.74 132.3 79.47 132.3 79.47 128.92 59.8 128.92 59.8 132.3"/>
    <path class="cls-1" d="M88.5,140.22v-11.29h-6.03v12.42c0,2.29,1.89,3.42,5.67,3.42h14.77v-3.42h-12.06c-1.57-.02-2.35-.4-2.35-1.13Z"/>
    <path class="cls-1" d="M122.96,129.47c-.84-.38-1.93-.56-3.32-.56-1.25,0-2.33.18-3.22.56-.9.38-1.55.94-1.99,1.69l-8.48,13.56h6.85l2.29-3.38h9.14l2.29,3.38h6.85l-8.52-13.56c-.42-.74-1.04-1.31-1.87-1.69ZM117.05,137.95l2.59-4.72,2.75,4.72h-5.34Z"/>
    <path class="cls-1" d="M152.05,140.78l-5.47-8.48c-1.25-2.25-3.09-3.38-5.47-3.38-3.66,0-5.47,1.13-5.47,3.38v12.42h5.47v-11.86l5.47,8.48c1.37,2.27,3.21,3.38,5.47,3.38,3.66,0,5.47-1.13,5.47-3.38v-12.42h-5.47v11.86Z"/>
    <path class="cls-1" d="M178.33,128.92h-17.04v15.81h17.04c3.78,0,5.67-1.13,5.67-3.38v-9.04c0-2.25-1.89-3.38-5.67-3.38ZM177.21,140.22c0,.76-.62,1.13-1.87,1.13h-7.23v-9.04h7.23c1.23,0,1.87.38,1.87,1.13v6.77Z"/>
    <path class="cls-1" d="M11.36,124.28h10.07v-2.07h-8.66c-.94,0-1.39-.22-1.39-.68v-4.1c0-.46.46-.68,1.39-.68h8.68v-2.05h-10.09c-2.25,0-3.36.68-3.36,2.05v5.47c.02,1.37,1.13,2.05,3.36,2.05Z"/>
    <path class="cls-1" d="M27.05,124.26h6.91c2.31,0,3.46-.68,3.46-2.05v-5.47c0-1.37-1.15-2.05-3.46-2.05h-6.91c-2.31,0-3.46.68-3.46,2.05v5.47c0,1.37,1.15,2.05,3.46,2.05ZM27.05,117.43c0-.46.48-.68,1.45-.68h4.06c.94,0,1.41.22,1.41.68v4.1c0,.46-.48.68-1.41.68h-4.06c-.96,0-1.45-.22-1.45-.68v-4.1Z"/>
    <path class="cls-1" d="M43.02,117.09l3.46,5.12c.86,1.37,2.01,2.05,3.46,2.05,2.31,0,3.46-.68,3.46-2.05v-7.51h-3.46v7.17l-3.46-5.12c-.8-1.37-1.95-2.05-3.46-2.05-2.31,0-3.46.68-3.46,2.05v7.51h3.46v-7.17h0Z"/>
    <path class="cls-1" d="M59.94,116.75h9.04v-2.05h-10.07c-2.25,0-3.36.68-3.36,2.05v1.71c0,1.37,1.11,2.05,3.36,2.05h5.3c.96,0,1.43.14,1.43.44v.72c0,.38-.38.56-1.11.56h-8.96v2.03h10.07c2.25,0,3.36-.68,3.36-2.05v-1.71c0-1.37-1.11-2.05-3.36-2.05h-5.59c-.76,0-1.13-.18-1.13-.54v-.7c0-.3.34-.46,1.04-.46Z"/>
    <path class="cls-1" d="M84.56,122.21v-5.47c0-1.37-1.11-2.05-3.36-2.05h-6.73c-2.25,0-3.36.68-3.36,2.05v5.47c0,1.37,1.11,2.05,3.36,2.05h6.73c2.23,0,3.36-.68,3.36-2.05ZM81.2,121.53c0,.46-.46.68-1.37.68h-3.94c-.94,0-1.39-.22-1.39-.68v-4.1c0-.46.46-.68,1.39-.68h3.94c.92,0,1.37.22,1.37.68v4.1Z"/>
    <path class="cls-1" d="M86.69,114.7v7.52c0,1.37,1.11,2.07,3.36,2.07h10.07v-2.07h-8.68c-.94,0-1.39-.22-1.39-.68v-6.85h-3.36Z"/>
    <rect class="cls-1" x="102.28" y="114.7" width="3.36" height="9.56"/>
    <path class="cls-1" d="M140.12,124.26l-4.96-8.2c-.24-.46-.6-.8-1.09-1.02-.48-.22-1.13-.34-1.93-.34-.74,0-1.35.12-1.87.34-.52.22-.92.58-1.15,1.02l-4.94,8.2h3.98l1.33-2.05h5.32l1.33,2.05h3.98ZM130.65,120.18l1.51-2.85,1.59,2.85h-3.11Z"/>
    <polygon class="cls-1" points="143.53 124.26 147.41 124.26 147.41 116.75 151.53 116.75 151.53 114.7 139.41 114.7 139.41 116.75 143.53 116.75 143.53 124.26"/>
    <path class="cls-1" d="M156.77,124.28h10.07v-2.07h-8.68c-.94,0-1.39-.22-1.39-.68v-1.02h10.07v-2.05h-10.07v-1.04c0-.46.46-.68,1.39-.68h8.68v-2.05h-10.07c-2.25,0-3.36.68-3.36,2.05v5.47c.02,1.37,1.13,2.05,3.36,2.05Z"/>
    <path class="cls-1" d="M180.28,114.84h-11.21v9.58h11.19c2.49,0,3.72-.68,3.72-2.05v-5.47c.02-1.35-1.21-2.05-3.7-2.05ZM179.54,121.69c0,.46-.42.68-1.23.68h-4.76v-5.47h4.76c.82,0,1.23.22,1.23.68v4.12Z"/>
    <path class="cls-1" d="M118.98,114.84h-11.19v9.58h11.19c2.49,0,3.72-.68,3.72-2.05v-5.47c0-1.35-1.25-2.05-3.72-2.05ZM118.23,121.69c0,.46-.42.68-1.23.68h-4.76v-5.47h4.76c.82,0,1.23.22,1.23.68v4.12Z"/>
    <path class="cls-1" d="M54.74,89.46c.76.66,1.57,1.27,2.45,1.75,3.07,1.73,6.39,2.93,9.69,4.06,9.16,3.09,18.35,6.05,27.55,9.06.28.1.58.12,1.07.24,0-.88-.02-1.57,0-2.27.02-.54-.2-.84-.66-1.09-.8-.44-1.59-.9-2.39-1.37-4.72-2.83-9.46-5.61-14.13-8.5-1.29-.8-2.43-1.83-3.62-2.77-.66-.52-.76-1.23-.56-1.99.1-.38.2-.78.38-1.11.44-.88.86-1.75,1.37-2.59,3.36-5.39,6.71-10.77,10.13-16.14,2.95-4.64,5.97-9.22,8.98-13.84.3-.46.48-.92.46-1.45-.02-1.13,0-2.27-.02-3.38,0-.22-.06-.46-.1-.84-.38.32-.66.54-.94.78-2.65,2.31-5.32,4.6-7.96,6.91-7.94,6.87-15.89,13.76-23.59,20.9-2.69,2.49-5.36,5-7.62,7.9-.92,1.17-1.43,2.45-1.31,3.96.08.72.32,1.35.82,1.79Z"/>
    <path class="cls-1" d="M97.7,104.33c8.26-2.69,16.54-5.36,24.78-8.1,4.14-1.37,8.28-2.79,12.12-4.86.94-.5,1.81-1.13,2.63-1.81.4-.36.74-.96.82-1.49.2-1.45-.1-2.81-1.02-4.04-1.33-1.77-2.81-3.38-4.4-4.9-4.1-3.84-8.2-7.68-12.4-11.41-7.39-6.55-14.85-13-22.28-19.49-.34-.3-.7-.58-1.19-1.02-.04.46-.1.74-.1,1v3.21c0,.58.16,1.06.48,1.53,3.94,6.07,7.88,12.12,11.79,18.24,2.45,3.82,4.84,7.7,7.19,11.59.66,1.09,1.21,2.25,1.69,3.44.38.94.3,1.87-.58,2.57-.94.74-1.81,1.55-2.83,2.17-3.88,2.41-7.8,4.78-11.75,7.13-1.77,1.07-3.58,2.09-5.39,3.13-.34.2-.72.4-.74.86-.04.82-.04,1.63.28,2.47.32-.06.62-.12.9-.2Z"/>
  </g>
</svg>