<?xml version="1.0" encoding="UTF-8"?>
<svg xmlns="http://www.w3.org/2000/svg" id="logo" viewBox="0 0 192 192">
	<defs>
		<style>
			.cls-2{stroke-width:0;fill:#808285}
		</style>
	</defs>
	<path d="M66.44 109.91c-1.26 0-2.41-.94-2.71-2.08l-3.14-13.25 14.3-7.09c3.44-1.66 6.37-5.1 7.42-9.29l4.91-18.79c1.24-4.7-1.78-8.57-6.67-8.57H27.61L8 127.84h18.58l4.8-18.68 12.52-6.27 4.49 18.58c.84 3.44 4.38 6.37 8.03 6.37h14.81l4.59-17.95h-9.39v.02ZM37.11 86.74l.14-.56L41.7 68.7h21.51c1.66 0 2.81.63 2.41 1.99-.3 1.05-1.05 2.29-3.14 3.35L37.11 86.75Zm102.23 7.94L109.5 74.95c-1.66-1.05-2.29-2.29-1.87-3.96s1.66-2.29 3.35-2.29l27.92.07h.02l.02-.07 4.59-17.83v-.05h-.02l-43.09.05c-3.65 0-7.3 2.93-8.14 6.37L88 74.14c-.84 3.44.84 8.03 3.86 10.02l30.05 20.03c1.66 1.15 1.99 2.2 1.57 3.56-.3 1.05-1.57 2.2-3.23 2.2H97.59L93 127.9h37.56c3.74 0 7.51-2.93 8.36-6.37l4.28-16.8c.82-3.46-.84-8.05-3.86-10.04Zm26.08-43.86v.02h-.07l-19.85 77.02h18.77L184 50.84z" class="cls-2"/>
	<path d="M88.04 109.91h-3.06l-4.61 17.95h3.09l4.63-17.95zm-6.22 0h-3l-.02.03-4.68 17.92h3.2l4.64-17.95zm9.48 0h-.21l-4.59 17.95h3.23l4.58-17.95zm66.25-41.21 4.57-17.86h-3.02l-4.59 17.86zm-6.13 0 4.57-17.86h-3l-4.61 17.86zm-1.59-17.86h-.07v-.02h-3.21l-.02.02-4.56 17.86-.03.07h3.23l.03-.07z" style="fill:#fbb815;stroke-width:0"/>
	<path d="m12.07 141.16-1.92-2.39h-.87v2.39H7.99v-6.34h4.17c.44 0 .75.09.91.3s.26.51.26.94v1.47c0 .42-.09.75-.26.94-.16.21-.49.3-.91.3h-.51l2.2 2.39zm0-4.73c0-.19-.02-.3-.09-.37s-.16-.09-.3-.09H9.29v1.73h2.39c.14 0 .23-.05.3-.09.07-.07.09-.19.09-.37v-.8Zm9.06 4.42c-.16.21-.51.33-1.03.33h-3.51c-.51 0-.87-.12-1.03-.33s-.26-.61-.26-1.19v-3.35c0-.56.09-.96.26-1.19.16-.21.51-.33 1.03-.33h3.51c.51 0 .87.12 1.03.33s.26.61.26 1.19v3.35c-.02.59-.09.96-.26 1.19m-1.05-4.86h-3.46v3.98h3.46zm8.47 4.86c-.23.21-.61.3-1.15.3h-3.89v-6.34h4.19c.44 0 .75.09.91.3s.26.51.26.94v.77c0 .61-.26.96-.8 1.05.56.12.84.51.84 1.22v.82c-.02.42-.14.73-.37.94Zm-.91-4.54c0-.16-.05-.28-.12-.35s-.16-.09-.3-.09h-2.43v1.47h2.43c.14 0 .23-.02.3-.09s.09-.19.09-.35v-.59h.02Zm.02 2.65c0-.21-.05-.35-.12-.44a.47.47 0 0 0-.33-.12h-2.43v1.59h2.43c.14 0 .26-.05.33-.12s.09-.23.09-.44v-.47h.02Zm3.18 2.2v-6.34h5.08v1.1h-3.77v1.38h2.2v1.1h-2.2v1.54h3.81v1.22h-5.13Zm11.05 0-1.92-2.39h-.87v2.39h-1.29v-6.34h4.17c.44 0 .75.09.91.3s.26.51.26.94v1.47c0 .42-.09.75-.26.94-.16.21-.49.3-.91.3h-.51l2.2 2.39zm0-4.73c0-.19-.02-.3-.09-.37s-.16-.09-.3-.09h-2.39v1.73h2.39c.14 0 .23-.05.3-.09.07-.07.09-.19.09-.37v-.8Zm5.52-.44v5.17H46.1v-5.2h-2.18v-1.17h5.69v1.17h-2.2v.02Zm8.5 4.86c-.16.21-.51.33-1.03.33h-2.95c-.51 0-.87-.12-1.03-.33s-.26-.61-.26-1.19v-.19l1.19-.33v.8h3.16v-1.4h-2.86c-.51 0-.87-.12-1.03-.33s-.26-.61-.26-1.19v-.7c0-.56.09-.96.26-1.19.16-.21.51-.33 1.03-.33h2.67c.51 0 .84.09 1.03.3.16.21.26.56.26 1.08v.14l-1.17.37v-.77h-2.93v1.33h2.88c.51 0 .87.12 1.03.33s.26.61.26 1.19v.87c0 .59-.09.98-.26 1.22Zm11.05 0c-.16.21-.51.33-1.03.33h-2.95c-.51 0-.87-.12-1.03-.33s-.26-.61-.26-1.19v-.19l1.19-.33v.8h3.16v-1.4h-2.86c-.51 0-.87-.12-1.03-.33s-.26-.61-.26-1.19v-.7c0-.56.09-.96.26-1.19.16-.21.51-.33 1.03-.33h2.71c.51 0 .84.09 1.03.3.16.21.26.56.26 1.08v.14l-1.17.37v-.77h-2.93v1.33h2.88c.51 0 .87.12 1.03.33s.26.61.26 1.19v.87c-.05.59-.14.98-.3 1.22Zm7.44-2.45c-.16.21-.47.3-.91.3h-2.88v2.46h-1.29v-6.34h4.17c.44 0 .75.09.91.3s.26.51.26.94v1.4c0 .44-.09.75-.26.94m-1.03-1.97c0-.19-.02-.3-.09-.37s-.16-.09-.3-.09h-2.39v1.64h2.39c.14 0 .23-.02.3-.09s.09-.19.09-.37v-.7Zm6.46 4.73-.56-1.38h-2.83l-.56 1.38h-1.31l2.71-6.34h1.26l2.74 6.34zm-1.97-4.85-.96 2.32h1.87zm9.57 4.54c-.16.21-.51.33-1.03.33h-2.83c-.51 0-.87-.12-1.03-.33s-.26-.61-.26-1.19v-3.35c0-.56.09-.96.26-1.19.16-.21.51-.33 1.03-.33h2.83c.51 0 .87.12 1.03.33s.26.61.26 1.19v.61l-1.31.28v-1.22h-2.79v3.98h2.79v-1.4l1.31.35v.75c0 .59-.09.96-.26 1.19m2.34.31v-6.34h5.08v1.1h-3.77v1.38h2.2v1.1h-2.2v1.54h3.81v1.22h-5.13Zm10.56 0v-6.34h1.31v6.34zm4.7-4.12c.02.26.02.49.02.7v3.42h-1.19v-6.34h.96l3.37 3.74c.14.16.23.28.3.35l.02.02c-.02-.4-.02-.66-.02-.77v-3.35h1.19v6.34h-.96l-3.51-3.91c-.07-.05-.12-.12-.19-.21Zm11.8 3.63c-.4.33-1.1.51-2.06.51h-2.88v-6.34h3.16c.94 0 1.64.28 2.11.82s.7 1.31.7 2.32c.02 1.22-.33 2.11-1.03 2.69m-.68-4.19c-.26-.33-.61-.49-1.08-.49h-1.87v3.98h1.33c.7 0 1.22-.16 1.52-.47s.47-.82.47-1.54c0-.68-.12-1.15-.37-1.47Zm8.89 4.37c-.16.21-.51.33-1.03.33h-3.02c-.51 0-.87-.12-1.03-.33s-.26-.61-.26-1.19v-4.84h1.31v5.13h2.95v-5.13h1.31v4.84c0 .59-.07.96-.23 1.19m7.61 0c-.16.21-.51.33-1.03.33h-2.95c-.51 0-.87-.12-1.03-.33s-.26-.61-.26-1.19v-.19l1.19-.33v.8h3.16v-1.4h-2.86c-.51 0-.87-.12-1.03-.33s-.26-.61-.26-1.19v-.7c0-.56.09-.96.26-1.19.16-.21.51-.33 1.03-.33h2.71c.51 0 .84.09 1.03.3.16.21.26.56.26 1.08v.14l-1.17.37v-.77h-2.93v1.33h2.88c.51 0 .87.12 1.03.33s.26.61.26 1.19v.87c-.05.59-.14.98-.3 1.22Zm4.78-4.86v5.17h-1.31v-5.2h-2.2v-1.17h5.69v1.17h-2.18v.02Zm7.41 5.17-1.92-2.39h-.87v2.39h-1.29v-6.34h4.17c.44 0 .75.09.91.3s.26.51.26.94v1.47c0 .42-.09.75-.26.94-.16.21-.47.3-.91.3h-.51l2.2 2.39zm0-4.73c0-.19-.02-.3-.09-.37s-.16-.09-.3-.09h-2.39v1.73h2.39c.14 0 .23-.05.3-.09.07-.07.09-.19.09-.37v-.8Zm3.33 4.73v-6.34h1.31v6.34zm3.56 0v-6.34h5.08v1.1h-3.77v1.38h2.2v1.1h-2.2v1.54h3.81v1.22h-5.13Zm12.1-.31c-.16.21-.51.33-1.03.33h-2.95c-.51 0-.87-.12-1.03-.33s-.26-.61-.26-1.19v-.19l1.19-.33v.8h3.16v-1.4h-2.86c-.51 0-.87-.12-1.03-.33s-.26-.61-.26-1.19v-.7c0-.56.09-.96.26-1.19.16-.21.51-.33 1.03-.33h2.71c.51 0 .84.09 1.03.3.16.21.26.56.26 1.08v.14l-1.17.37v-.77h-3v1.33h2.88c.51 0 .87.12 1.03.33s.26.61.26 1.19v.87c0 .59-.07.98-.23 1.22Z" class="cls-2"/>
</svg>
