<?xml version="1.0" encoding="UTF-8"?>
<svg id="logo" xmlns="http://www.w3.org/2000/svg" viewBox="0 0 192 192">
  <defs>
    <style>
      .cls-1 {
        fill: #ea4e00;
      }

      .cls-1, .cls-2, .cls-3, .cls-4 {
        stroke-width: 0px;
      }

      .cls-2 {
        fill: #edbf00;
      }

      .cls-3 {
        fill: #f79521;
      }

      .cls-4 {
        fill: #172799;
      }
    </style>
  </defs>
  <g>
    <path class="cls-2" d="M25.61,118.47l4.04-9.9h154.35v9.9H25.61Z"/>
    <g>
      <path class="cls-4" d="M124.41,74.81h-5.41l-11.53,27.14h5.17l3.01-7.4h12.02l3.09,7.4h5.41l-11.76-27.14ZM117.44,90.19l4.15-10.19,4.27,10.19h-8.42Z"/>
      <polygon class="cls-4" points="110.24 74.81 89.63 74.81 89.63 79.18 97.43 79.18 97.43 101.95 102.46 101.95 102.46 79.18 110.24 79.18 110.24 74.81"/>
      <polygon class="cls-4" points="82.22 94.59 67.88 74.81 62.86 74.81 62.86 101.95 67.7 101.95 67.7 81.75 82.04 101.95 87.06 101.95 87.06 74.81 82.22 74.81 82.22 94.59"/>
      <polygon class="cls-4" points="22.52 96.4 13.3 74.81 8 74.81 18.98 101.95 25.23 101.95 37.14 74.81 31.49 74.81 22.52 96.4"/>
      <path class="cls-4" d="M149.84,102.16c4.79,0,8.17-1.83,11.14-4.9v-10.39h-11.95v4.37h6.96v3.96c-2.14,1.72-4,2.17-6.14,2.17-6.76,0-9.37-4.62-9.37-9.1,0-5.61,3.54-10.03,9.37-10.03,2.37,0,5.1.97,6.92,2.72l3.2-3.27c-2.79-2.76-6.45-4.16-10.1-4.16-9.61,0-14.39,7.07-14.39,14.74-.04,7.14,4.13,13.88,14.36,13.88Z"/>
      <path class="cls-4" d="M141.38,111.58c0-1.21-.71-1.81-2.14-1.81h-3.2v7.51h.97v-6.7h2.14c.8,0,1.21.35,1.21,1.04,0,.88-.71,1.42-2.16,1.66v.64l2.39,3.38h1.28l-2.58-3.54c1.39-.47,2.08-1.19,2.08-2.17Z"/>
      <path class="cls-4" d="M165.72,109.79l-3.2,7.51h1l.97-2.36h3.45l.97,2.36h1.08l-3.2-7.51h-1.08ZM164.82,114.14l1.39-3.4,1.41,3.4h-2.79Z"/>
      <polygon class="cls-4" points="172.14 109.79 171.18 109.79 171.18 117.3 176.09 117.3 176.09 116.51 172.14 116.51 172.14 109.79"/>
      <path class="cls-4" d="M180.35,113.1h-.97c-.93,0-1.39-.4-1.39-1.21,0-.91.68-1.37,2.05-1.37.88,0,1.68.15,2.45.42v-.9c-.75-.22-1.57-.31-2.45-.31-2.01,0-3.01.71-3.01,2.16s.79,2.05,2.36,2.05h.97c.95,0,1.42.4,1.42,1.21,0,.95-.64,1.42-1.94,1.42-.91,0-1.77-.15-2.56-.42v.9c.79.22,1.64.31,2.56.31,1.94,0,2.9-.73,2.9-2.21,0-1.37-.8-2.05-2.39-2.05Z"/>
      <polygon class="cls-4" points="170.06 97.59 170.06 90.47 183.07 90.47 183.07 85.97 170.14 85.97 170.14 79.14 183.73 79.14 183.73 74.81 165.13 74.81 165.13 101.95 183.98 101.95 183.98 97.59 170.06 97.59"/>
      <polygon class="cls-4" points="144.03 113.88 147.78 113.88 147.78 113.1 144.03 113.1 144.03 110.58 147.96 110.58 147.96 109.79 143.05 109.79 143.05 117.3 148.05 117.3 148.05 116.51 144.03 116.51 144.03 113.88"/>
      <polygon class="cls-4" points="162.92 109.79 157.22 109.79 157.22 110.58 159.6 110.58 159.6 117.3 160.56 117.3 160.56 110.58 162.92 110.58 162.92 109.79"/>
      <polygon class="cls-4" points="155.05 115.84 150.46 109.79 149.49 109.79 149.49 117.3 150.41 117.3 150.41 111.2 154.99 117.3 155.98 117.3 155.98 109.79 155.05 109.79 155.05 115.84"/>
    </g>
    <path class="cls-1" d="M31.73,101.95l11.53-27.14h5.41l11.76,27.14h-5.41l-9.19-21.97-8.95,21.97h-5.15ZM19.95,108.57h-3.73l-4.13,9.9h3.71l4.15-9.9Z"/>
    <path class="cls-3" d="M49.39,94.56l-3.56,7.4-3.58-7.4h7.14ZM22.89,108.57l-4.04,9.9h3.62l4.13-9.9h-3.71Z"/>
  </g>
</svg>