<?xml version="1.0" encoding="UTF-8"?>
<svg xmlns="http://www.w3.org/2000/svg" xml:space="preserve" style="fill-rule:evenodd;clip-rule:evenodd;stroke-linejoin:round;stroke-miterlimit:2" viewBox="0 0 800 800">
	<path d="M0 0h192v192H0z" style="fill:none" transform="scale(4.16667)"/>
	<path d="m379.919 158.998 20.746-82.549h-20.203l-12.708 55.612-11.948-55.612h-21.289l19.985 82.549zm45.19 0v-32.151h23.678v-18.248h-23.678v-11.73h31.608v-20.42h-50.508v82.549zm94.752 0v-50.29h-28.784v17.161h10.536v12.383h-16.51q-3.259 0-3.259-3.259v-34.54q0-3.258 3.259-3.259h34.106V76.449h-41.275c-9.884 0-14.88 4.996-14.88 15.097v53.006c0 9.667 4.996 14.446 14.88 14.446zm39.922-82.548h18.791v82.549h-18.791zm85.343 82.549v-48.661c0-10.101-4.888-15.098-14.772-15.098h-27.48c-9.884 0-14.881 4.997-14.881 14.99v48.769h18.791v-41.601q0-3.258 3.258-3.258h13.252q3.258 0 3.258 3.258v41.601zm66.835 0V76.45H693.17v18.79h-24.113c-9.884 0-14.88 4.997-14.88 14.99v34.323c0 9.667 5.105 14.446 15.206 14.446zm-18.791-18.791h-16.944c-2.172 0-3.258-1.195-3.258-3.476v-19.334q0-3.258 3.258-3.258h16.944zm70.084 18.791c9.667 0 14.555-4.997 14.555-14.881V95.24h-18.574v41.71q0 3.258-3.258 3.258h-12.709c-2.172 0-3.258-1.195-3.258-3.476V95.24h-18.791v49.313c0 9.667 5.105 14.446 15.207 14.446zm67.502 0c9.016 0 13.469-4.997 13.469-14.989v-9.885c0-9.123-4.453-13.685-13.469-13.685h-23.895c-1.195 0-1.847-.543-1.847-1.738V114.9c0-1.303.652-1.955 1.847-1.955h35.626V95.24H801.43c-9.885 0-14.772 4.997-14.772 14.881v9.667c0 9.558 3.041 13.903 12.925 13.903h23.787c1.195 0 1.847.543 1.847 1.738v3.802c0 1.303-.652 1.955-1.847 1.955h-35.952v17.813zm55.875 0v-18.791h-11.839c-1.846 0-2.824-1.195-2.824-3.693v-23.461h14.772V95.892h-14.772V77.536h-18.791v67.451c0 9.341 5.214 14.012 15.533 14.012zm25.965 0V117.29q0-3.26 3.259-3.259h13.903V95.24h-21.072c-10.319 0-14.989 5.105-14.989 14.99v48.769zm37.66-68.972c2.715 0 4.127-1.412 4.127-4.236v-7.278c0-2.824-1.412-4.236-4.127-4.236h-10.21c-2.933 0-4.345 1.412-4.345 4.236v7.278q0 4.236 3.91 4.236zm4.236 68.972V95.24h-18.791v63.759zm47.435-19.66c0 1.412-.76 2.172-2.172 2.172h-15.858c-1.412 0-2.173-.76-2.173-2.172v-4.453c0-1.412.761-2.173 2.173-2.173h15.858c1.412 0 2.172.761 2.172 2.173zm4.128 19.66q14.663 0 14.663-14.989v-33.78c0-9.993-5.105-14.99-15.206-14.99H965.54v17.814h33.129q3.258 0 3.258 3.258v4.779a8.75 8.75 0 0 0-3.584-.76h-21.398c-9.232 0-13.903 4.888-13.903 14.772v9.45c0 9.667 4.671 14.446 13.903 14.446zm23.838-82.549h18.791v82.549h-18.791zM366.41 195.185v-19.401c0-2.754-1.454-4.116-4.332-4.116h-9.128c-2.878 0-4.332 1.362-4.332 4.116v19.401h5.322v-9.654h7.117v9.654zm-5.353-14.605h-7.117v-2.228q0-.928.928-.928h5.261q.928 0 .928.928zm26.028 14.605v-23.517h-5.354v12.285l-7.488-12.285h-5.136v23.517h5.353v-12.439l8.138 12.439zm29.849 0v-19.401c0-2.754-1.455-4.116-4.332-4.116h-9.129c-2.877 0-4.331 1.362-4.331 4.116v19.401h5.322v-9.654h7.116v9.654zm-5.354-14.605h-7.116v-2.228q0-.928.928-.928h5.26q.928 0 .928.928zm19.716-.588q0 .928-.929.928h-5.384v-3.496h5.384q.929 0 .929.928zm5.477 15.193c-.093-.31-.155-.588-.155-1.424v-6.962c0-1.856-.805-2.97-2.661-3.372 1.733-.31 2.599-1.517 2.599-3.652v-3.713c0-2.939-1.423-4.394-4.27-4.394H419.63v23.517h5.353v-9.283h5.384q.929 0 .929.928v7.117c0 .588.062.959.154 1.238zm16.95 0v-5.91h-8.354q-.928 0-.928-.928v-9.84q0-.929.928-.929h8.292v-5.91h-10.334c-2.816 0-4.24 1.424-4.24 4.301v15.1c0 2.754 1.424 4.116 4.24 4.116zm16.439 0v-5.91h-8.355q-.928 0-.928-.928v-9.84q0-.929.928-.929h8.293v-5.91h-10.335c-2.816 0-4.239 1.424-4.239 4.301v15.1c0 2.754 1.423 4.116 4.239 4.116zm13.467-6.838q0 .928-.928.928h-4.456q-.928 0-.928-.928v-9.84q0-.929.928-.929h4.456q.928 0 .928.929zm1.083 6.838c2.847 0 4.24-1.362 4.24-4.116v-15.1c0-2.877-1.393-4.301-4.24-4.301h-8.509c-2.816 0-4.239 1.424-4.239 4.301v15.1c0 2.754 1.423 4.116 4.239 4.116zm18.501-15.193q0 .928-.928.928h-5.384v-3.496h5.384q.928 0 .928.928zm5.477 15.193c-.093-.31-.155-.588-.155-1.424v-6.962c0-1.856-.804-2.97-2.661-3.372 1.733-.31 2.599-1.517 2.599-3.652v-3.713c0-2.939-1.423-4.394-4.27-4.394h-12.655v23.517h5.353v-9.283h5.384q.928 0 .928.928v7.117c0 .588.062.959.155 1.238zm14.104-15.038q0 .928-.928.928h-5.384v-3.497h5.384q.928 0 .928.929zm-6.312 15.038v-8.881h7.395c2.816 0 4.239-1.361 4.239-4.053v-6.189c0-2.939-1.423-4.394-4.239-4.394h-12.748v23.517zm35.86 0c2.816 0 4.239-1.362 4.239-4.116v-15.1c0-2.877-1.423-4.301-4.239-4.301h-12.749v23.517zm-1.114-6.838q0 .928-.928.928h-5.353v-11.697h5.353q.928 0 .928.929zm7.946-16.679h5.353v23.516h-5.353zm19.888 23.517 5.91-23.517h-5.756l-3.62 15.843-3.403-15.843h-6.065l5.693 23.517zm7.489-23.517h5.353v23.516h-5.353zm20.29 23.517c3.001 0 4.487-1.516 4.487-4.58v-5.507c0-2.754-1.362-4.147-4.116-4.147h-6.436q-.928 0-.928-.928v-1.516q0-.929.928-.929h10.026v-5.91h-12.13c-2.785 0-4.177 1.486-4.177 4.487v5.601c0 2.754 1.454 4.115 4.332 4.115h6.25q.929 0 .929.928v1.548q0 .928-.929.928h-10.551v5.91zm7.087-23.517h5.353v23.516h-5.353zm19.64 16.679q0 .928-.928.928h-4.456q-.928 0-.928-.928v-9.84q0-.929.928-.929h4.456q.928 0 .928.929zm1.083 6.838c2.847 0 4.239-1.362 4.239-4.116v-15.1c0-2.877-1.392-4.301-4.239-4.301h-8.509c-2.816 0-4.239 1.424-4.239 4.301v15.1c0 2.754 1.423 4.116 4.239 4.116zm24.813 0v-23.517h-5.353v12.285l-7.488-12.285h-5.136v23.517h5.353v-12.439l8.138 12.439z" style="fill-rule:nonzero" transform="matrix(.7041 0 0 .71912 28.29 319.937)"/>
	<path d="m126.571 7.087 28.652.016L297.981 217.48l-28.423.15L133.837 14.787 65.183 89.484l-12.366.038z" style="fill:#c4996c;fill-rule:nonzero" transform="translate(28.29 319.937)scale(.71157)"/>
	<path d="m105.154 53.182 27.62.015L244.562 217.49l-27.934.456L109.967 60.207l-67.925 76.718-12.459-.293z" style="fill:#c4996c;fill-rule:nonzero" transform="translate(28.29 319.937)scale(.71157)"/>
	<path d="m81.354 100.696 27.619.014 79.5 116.78-27.934.13-73.72-110.226-66.621 76.718-13.111.034z" style="fill:#c4996c;fill-rule:nonzero" transform="translate(28.29 319.937)scale(.71157)"/>
</svg>
