<?xml version="1.0" encoding="UTF-8"?>
<svg xmlns="http://www.w3.org/2000/svg" id="logo" viewBox="0 0 192 192">
	<defs>
		<style>
			.cls-1{fill:#000;stroke-width:0}
		</style>
	</defs>
	<path d="M69.32 97.08h-.65v-.05c-.59 0-1.03-.48-1.03-1.03 0-.59.45-1.03 1.03-1.03h.64c.1 0 .26-.03.43-.22-.14-3.33-.79-6.5-1.88-9.48-.14-.05-.26-.09-.34-.09-.07 0-.12.02-.17.03l-.6.24c-.53.22-1.14-.02-1.34-.57-.22-.52.03-1.14.57-1.34l.6-.24c.09-.05.22-.14.31-.4-.67-1.45-1.46-2.83-2.34-4.12-.88-1.31-1.86-2.53-2.91-3.69-.26 0-.43.09-.5.14l-.45.45c-.4.4-1.07.4-1.48 0s-.41-1.07 0-1.48l.45-.45c.07-.07.16-.21.16-.5a32.1 32.1 0 0 0-8.03-5.36c-.24.1-.34.24-.38.33l-.24.6c-.21.53-.83.79-1.36.57-.53-.21-.79-.83-.57-1.34l.24-.6c.03-.1.05-.26-.05-.52-1.45-.53-2.95-.95-4.5-1.24-1.55-.31-3.14-.48-4.74-.57-.19.19-.22.34-.22.43v.65c0 .59-.47 1.03-1.03 1.03s-1.03-.48-1.03-1.03v-.65c0-.1-.05-.26-.24-.43-3.33.14-6.5.79-9.48 1.88-.05.14-.09.26-.09.34 0 .07.02.12.03.17l.24.6c.22.53-.03 1.14-.57 1.36-.53.22-1.14-.02-1.34-.57l-.24-.6c-.03-.09-.14-.22-.4-.31-1.45.67-2.83 1.46-4.12 2.34-1.31.88-2.55 1.86-3.69 2.91 0 .26.09.4.14.48l.47.47c.4.4.4 1.05 0 1.48-.4.4-1.07.4-1.48 0l-.47-.47c-.07-.07-.21-.16-.5-.14a32.1 32.1 0 0 0-5.36 8.03c.1.24.22.34.33.38l.6.24a1.042 1.042 0 1 1-.79 1.93l-.6-.24c-.09-.03-.26-.05-.52.05-.53 1.45-.95 2.95-1.24 4.5-.31 1.55-.5 3.14-.57 4.74.19.19.34.22.43.22h.69c.59 0 1.03.47 1.03 1.03s-.48 1.03-1.03 1.03H8.5c-.1 0-.26.03-.43.22.14 3.33.79 6.5 1.88 9.48.14.05.26.09.34.09.07 0 .12-.02.16-.03l.59-.19c.53-.22 1.14.03 1.36.57s-.03 1.14-.57 1.34l-.6.24c-.09.05-.22.14-.31.4 1.34 2.88 3.12 5.51 5.26 7.82.26 0 .4-.09.5-.14l.47-.47c.4-.4 1.07-.4 1.48 0 .4.4.4 1.05 0 1.48l-.47.47c-.07.07-.16.21-.14.48 2.38 2.17 5.08 3.98 8.03 5.36.24-.1.34-.24.38-.33l.24-.6c.21-.53.83-.79 1.36-.57.53.21.79.83.57 1.34l-.24.6c-.03.09-.05.26.05.52 1.45.53 2.95.95 4.5 1.24 1.55.31 3.14.48 4.74.57.19-.19.22-.34.24-.43v-.64c0-.59.45-1.03 1.03-1.03s1.03.47 1.03 1.03v.64c0 .1.05.26.22.43 3.33-.14 6.5-.79 9.48-1.88.05-.14.09-.26.09-.34 0-.07-.02-.12-.03-.16l-.24-.6c-.22-.53.03-1.14.57-1.36.53-.22 1.14.03 1.34.57l.24.6c.05.09.14.22.41.31a30.9 30.9 0 0 0 7.82-5.26c0-.26-.09-.4-.14-.5l-.47-.45c-.4-.41-.4-1.07 0-1.48.4-.4 1.05-.4 1.48 0l.47.47c.07.07.21.16.48.14 2.17-2.38 3.98-5.08 5.36-8.03-.1-.24-.24-.34-.33-.38l-.6-.24c-.53-.21-.79-.83-.57-1.34.21-.53.83-.79 1.36-.57l.6.24c.09.03.26.05.52-.05h.02a31 31 0 0 0 1.81-9.24c-.24-.22-.41-.26-.5-.26Zm-30.43 26.96c-15.49 0-28.05-12.56-28.05-28.05S23.4 67.94 38.89 67.94 66.94 80.5 66.94 95.99s-12.56 28.05-28.05 28.05" class="cls-1"/>
	<path d="m59.41 86.17.31-.03zm-4.11-5.93.07.07 1.9-1.02-1.96.95Zm-6.26-4.61s.07.03.1.05l2.14-2.72zm-10.15-4.5-.05 2.12h.12zm-12.35 1.84 2.12 2.71s.07-.03.1-.05l-2.22-2.65Zm-6.43 6.1 2.31 1.24.07-.07zm-2.07 7.07.33.03v-.02l-.33-.02Z" class="cls-1"/>
	<path d="M38.89 69.49c-14.63 0-26.5 11.85-26.5 26.5s11.85 26.5 26.5 26.5 26.5-11.85 26.5-26.5-11.87-26.5-26.5-26.5M18.04 86.14l.33.03c1.03-2.17 2.41-4.14 4.05-5.86l-2.31-1.24 2.38 1.15a23.2 23.2 0 0 1 6.17-4.57l-2.12-2.71 2.22 2.65c3.03-1.52 6.46-2.36 10.06-2.38l.05-2.12.05 2.12c3.62.02 7.05.86 10.1 2.38l2.26-2.67-2.14 2.72a22.9 22.9 0 0 1 6.15 4.55l1.95-.95-1.9 1.02c1.64 1.72 3.02 3.69 4.05 5.86l.31-.03-.31.03c1.31 2.72 2.08 5.74 2.21 8.94A38.2 38.2 0 0 0 44.13 88l15.27-1.86v-.02l-17.8 1.52 13.75-7.37-.07-.07L40 87.66h-.29l9.44-12.01s-.07-.03-.1-.05l-9.73 11.53-.36-13.89h-.12l-.36 13.94-9.7-11.56s-.07.03-.1.05l9.37 12.03h-.26l-15.28-7.46-.07.07 13.77 7.37-17.82-1.52v.02l15.25 1.86c-6.31.86-12.25 3.27-17.45 7.1.12-3.2.9-6.24 2.21-8.96l-.33-.05Zm20.85 32.59c-12.44 0-22.55-9.99-22.74-22.38 1.02-.78 2.05-1.48 3.12-2.15l.31 3.41.36-3.81q.825-.495 1.65-.93l.59 7.86.62-8.46c.43-.21.88-.41 1.33-.6l.67 11.54.72-12.11c.41-.16.83-.31 1.24-.45l.76 14.25.78-14.73c.33-.1.67-.19 1-.28l.83 16.28.86-16.68c.31-.07.6-.12.91-.19l1.02 17.68 1.03-17.99c.21-.03.41-.05.62-.09l1.1 18.73 1.12-18.92c.17-.02.34-.02.52-.02l1.53 19.26 1.67-19.26c.14 0 .28.02.41.02l1.12 18.92 1.1-18.73c.21.02.41.05.62.07l1.03 18 1.03-17.68c.31.05.6.12.91.19l.86 16.68.83-16.28c.34.09.67.19 1 .28l.78 14.75.76-14.27c.41.14.83.28 1.22.43l.72 12.13.67-11.58c.45.19.9.38 1.33.59l.64 8.49.59-7.89q.825.435 1.65.9l.36 3.88.31-3.46c1.1.67 2.15 1.4 3.19 2.19-.19 12.41-10.3 22.42-22.76 22.42Z" class="cls-1"/>
	<path d="m22.49 80.24-.07.07-2.31-1.24zm-4.12 5.93-.33-.03zm41.35-.03-.31.03v-.02l.31-.02Zm-2.48-6.84-1.9 1.02-.07-.07 1.96-.95Zm-18.3-6.05h-.1l.05-2.12zm-10.18 2.38s-.07.03-.1.05l-2.12-2.71 2.22 2.65Zm22.52-2.66-2.14 2.72s-.07-.03-.1-.05zm-1.88 7.55c.62 0 .62-.95 0-.95s-.6.95 0 .95m-4.53 3.55c.62 0 .62-.95 0-.95-.6-.02-.6.95 0 .95m-2.46-6.17c.62 0 .62-.95 0-.95-.62-.02-.62.95 0 .95m12.16 10.99c.62 0 .62-.95 0-.95s-.62.95 0 .95m-.91-4.68c.62 0 .62-.95 0-.95-.62-.02-.62.95 0 .95m6.7 8.84c.62 0 .62-.95 0-.95-.6-.02-.6.95 0 .95M28.19 80.52c.62 0 .62-.95 0-.95s-.62.95 0 .95m4.53 3.55c.62 0 .62-.95 0-.95-.62-.02-.62.95 0 .95m2.49-6.17c.62 0 .62-.95 0-.95-.62-.02-.62.95 0 .95M23.04 88.89c.62 0 .62-.95 0-.95s-.6.95 0 .95m.9-4.68c.62 0 .62-.95 0-.95-.59-.02-.6.95 0 .95m-6.7 8.84c.62 0 .62-.95 0-.95-.62-.02-.62.95 0 .95m48.31-24.44h-6.57v.76h6.57v6.57h.74v-7.33zm.74 53.78v-6.57h-.74v6.57h-6.57v.74h7.31zm-54.05.74h6.58v-.74h-6.58v-6.57h-.74v7.31zm-.74-53.76v6.57h.74v-6.57h6.58v-.76H11.5zm72.91 9.27h-5.32v4.46c0 1.21.88 1.83 2.65 1.83q3.495 0 5.79 1.86c1.65 1.31 2.48 3.05 2.48 5.22v5.82c0 1.07-.4 1.98-1.22 2.74-.81.76-1.77 1.12-2.91 1.12h-8.25c-1.12 0-2.08-.36-2.91-1.12s-1.22-1.67-1.22-2.74v-5.7h5.62v4.32h5.31v-4.46c0-1.21-.88-1.83-2.65-1.83q-3.495 0-5.79-1.86c-1.65-1.31-2.48-3.05-2.48-5.22v-5.82c0-1.07.4-1.98 1.22-2.74.81-.74 1.77-1.12 2.91-1.12h8.25c1.12 0 2.08.36 2.91 1.12s1.22 1.67 1.22 2.74v5.69h-5.6v-4.31ZM99.3 90.17v11.53h-5.62V73.41h5.62v11.53h5.32V73.41h5.63v28.27h-5.62V90.15h-5.34v.02Zm20.81 6.29h5.32V73.41h5.62v24.41c0 1.07-.4 1.98-1.22 2.74-.81.76-1.77 1.12-2.91 1.12h-8.25c-1.12 0-2.08-.36-2.91-1.12s-1.22-1.67-1.22-2.74V73.41h5.62v23.04l-.03.02Zm29.36-9.19c1.22-1.09 1.84-2.48 1.84-4.19v-5.82c0-1.07-.4-1.98-1.22-2.74-.81-.76-1.79-1.12-2.93-1.12h-11.68l-.02 28.27h8.27c2.33 0 4.26-.64 5.79-1.86 1.65-1.31 2.48-3.05 2.48-5.22v-2.62c0-2.02-.84-3.58-2.53-4.7m-8.39-8.61h4.62v4.46c0 .48-.21.93-.62 1.29-.4.33-.88.52-1.43.52h-2.58v-6.27h.02Zm5.29 15.95c0 1.22-.88 1.84-2.65 1.84h-2.65v-6.27h3.31c.55 0 1 .16 1.41.52.4.34.6.79.6 1.29v2.62zm9.48 7.07V73.41h5.62v28.27zm15.69-18.21v18.21h-5.62V73.41h7.79l4.6 18.3v-18.3h5.62v28.27h-7.77zm-97.76 35.45v-14.9h2.96v14.9zm8.29-9.61v9.61h-2.96v-14.9h4.12l2.43 9.67v-9.67h2.96v14.9h-4.1zm10.85-2.55h-2.89V104h8.74v2.76h-2.88v12.15h-2.95v-12.15zm9.77 9.39h4.93v2.76h-7.91v-14.9h7.91v2.76h-4.93v3.33h4.12v2.77h-4.12v3.29Zm15.18-6.25v-3.84c0-.57-.21-1.03-.65-1.45-.41-.4-.93-.6-1.53-.6h-6.55v14.9h2.96v-5.32h1.74c.28 0 .53.1.74.28.21.19.31.43.31.71v4.34h2.96v-4.34c0-.98-.38-1.77-1.14-2.36.78-.55 1.15-1.31 1.15-2.31Zm-2.94-.02c0 .28-.1.52-.31.69-.21.19-.45.28-.74.28l-1.76-.02v-4.08h2.81v3.14Zm10.59-3.12h-2.81v2.36c0 .64.48.96 1.41.96 1.22 0 2.24.33 3.05.98.88.69 1.29 1.62 1.29 2.76v3.07c0 .57-.21 1.05-.65 1.45-.41.38-.95.6-1.53.6h-4.36c-.6 0-1.1-.19-1.53-.6-.43-.4-.65-.88-.65-1.45v-3h2.95v2.29h2.81v-2.36c0-.64-.48-.96-1.41-.96-1.22 0-2.24-.33-3.05-.98-.88-.69-1.29-1.62-1.29-2.76v-3.07c0-.57.21-1.05.65-1.45.41-.38.95-.6 1.53-.6h4.36c.6 0 1.1.19 1.53.6.43.4.65.88.65 1.45v3h-2.95zm6.86 0h-2.89V104h8.74v2.76h-2.88v12.15h-2.95v-12.15zm9.77 9.39h4.93v2.76h-7.91v-14.9h7.91v2.76h-4.93v3.33h4.12v2.77h-4.12v3.29Zm6.46 2.77v-14.9h2.96v12.15h4.12v2.76h-7.08Zm8.29 0v-14.9h2.96v12.15h4.12v2.76h-7.08ZM171.18 104h-3.93l-2.89 14.9h3l.6-3.02h2.53l.59 3.02h3l-2.89-14.9Zm-2.69 9.13.72-6.36.72 6.36h-1.45ZM184 109.9v-3.84c0-.57-.21-1.03-.65-1.45-.41-.4-.93-.6-1.53-.6h-6.53v14.9h2.96v-5.32h1.72c.28 0 .53.1.74.28.21.19.31.43.31.71v4.34h2.96v-4.34c0-.98-.38-1.77-1.14-2.36.78-.55 1.15-1.31 1.15-2.31Zm-2.95-.02c0 .28-.1.52-.31.69-.21.19-.45.28-.74.28l-1.76-.02v-4.08h2.81v3.14Z" class="cls-1"/>
</svg>
