<?xml version="1.0" encoding="UTF-8"?>
<svg xmlns="http://www.w3.org/2000/svg" id="logo" viewBox="0 0 192 192">
	<defs>
		<style>
			.cls-1{fill:#000;stroke-width:0}
		</style>
	</defs>
	<path d="M126.49 113.41h8.79v28.8h-8.79zm-34.11 0h27.72l2.66 2.66v4.61H98.51v14.23h15.46v-3.49l-11.88-.04v-7.23h20.66v15.39l-2.64 2.66H92.39l-2.64-2.64v-23.49c.87-.89 1.75-1.78 2.64-2.66Zm-39.7 0h33.04v7.27H61.47v3.49h24.25v7.28H61.47v3.48h24.25v7.28H52.68z" class="cls-1"/>
	<path d="M12 155.65v-6.45h6.89c.38 0 .7.06.95.17s.51.3.74.57c.17.19.3.4.38.61s.13.44.13.7v2.39c0 .27-.04.53-.13.74-.08.21-.23.42-.44.63-.23.25-.47.42-.72.53s-.55.15-.91.15zm7.4-1.58v-3.21h-5.75v3.21zm19.92-.32-3.68-4.54h2.07l2.37 2.93 2.39-2.93h2.03l-3.58 4.54v1.9h-1.6zm19.83-3.13c0-.32.08-.59.25-.82s.4-.42.72-.57c.11-.04.21-.08.32-.11s.21-.04.32-.04c.23 0 .47.06.7.17s.44.25.66.47l4.4 4.33v-4.8h1.65v4.71c0 .38-.06.7-.19.97-.13.25-.36.49-.66.66q-.165.09-.36.15c-.195.06-.25.04-.38.04-.23 0-.47-.06-.7-.17s-.44-.25-.66-.47l-4.4-4.29v4.84l-1.63-.02v-5.05zm25.26 5.03-1.84.02 2.52-4.86c.34-.66.66-1.1.95-1.31.25-.19.55-.27.91-.27.32 0 .61.11.89.3.25.21.57.66.93 1.33l2.52 4.82-1.78-.02-.97-1.69h-3.19l-.93 1.69Zm1.74-3.34h1.52l-.76-1.35zm21.22 3.39-1.56-.04v-4.84c0-.42.13-.78.4-1.08s.59-.47 1.01-.51h.17c.38 0 .74.13 1.06.4.27.25.51.57.68.99l1.46 3.59 1.61-3.78c.15-.38.36-.66.63-.89.27-.21.59-.32.97-.32.49 0 .87.17 1.16.53s.44.78.44 1.27v4.65h-1.56v-4.74l-1.54 3.38c-.27.59-.51.97-.74 1.16-.21.19-.47.3-.76.34h-.17c-.38 0-.72-.15-1.01-.47-.25-.25-.49-.61-.68-1.06l-1.52-3.32v4.71h-.04Zm24.42-6.49v6.51H130v-6.51zm23.77 0v1.61h-7.51v3.21h7.51v1.61h-7.06c-.32 0-.61-.04-.85-.13-.23-.08-.47-.23-.68-.47-.21-.21-.36-.4-.44-.59-.11-.21-.15-.44-.15-.72v-2.14c0-.44.04-.8.15-1.08.13-.34.32-.61.61-.85.23-.19.51-.32.78-.38.19-.04.49-.06.91-.06h6.72v-.02Zm22.24 2.43c.59 0 1.1.19 1.54.59s.66.89.66 1.46-.21 1.04-.63 1.42-.93.57-1.54.57l-7.32.02v-1.65h7.82v-.76h-6.03c-.59 0-1.1-.19-1.54-.57s-.66-.87-.66-1.44.25-1.08.76-1.46c.47-.36 1.01-.55 1.67-.55l7.04-.04v1.63h-7.7v.78h5.92Z" style="fill:#c22323;stroke-width:0"/>
	<path d="M141.54 113.41h31.97l-5.9 7.27h-19.85v3.49h24.27v15.67l-2.6 2.37-30.49.06.02-7.34h24.27v-3.48h-24.16v-15.76z" class="cls-1"/>
	<path d="M100.36 52.48c0 17.49.11 34.99.08 52.37h26.11l-20.93-21.42V62.08l29.68 42.77 5.52-5.81-39.35-62.86H88.11L48.78 99.54l5.52 5.29 29.68-42.77v21.35l-20.93 21.42h26.11c-.02-17.36.08-34.86.08-52.37 2.35-6.49 8.9-6.7 11.1.02Zm-8.33 52.35v-24.1c1.52-1.29 4.19-1.25 5.54 0v24.1z" style="fill-rule:evenodd;stroke-width:0;fill:#000"/>
	<path d="M19.89 113.41h25.75l3.64 3.64s.02 22.92.02 25.18h-8.82c0-5.52 0-10.02.02-15.46l-4.59 5.69H25.04v9.83l-8.82-.04v-25.16l3.66-3.68Zm20.61 11.76v-3.72l-.95-.76-13.74.04-.76.76v3.68h15.46Z" class="cls-1"/>
</svg>
