<?xml version="1.0" encoding="UTF-8"?>
<svg id="logo" xmlns="http://www.w3.org/2000/svg" viewBox="0 0 192 192">
  <defs>
    <style>
      .cls-1 {
        fill: #000;
        stroke-width: 0px;
      }
    </style>
  </defs>
    <g>
      <g>
        <path class="cls-1" d="M69.32,97.08h-.65v-.05c-.59,0-1.03-.48-1.03-1.03,0-.59.45-1.03,1.03-1.03h.64c.1,0,.26-.03.43-.22-.14-3.33-.79-6.5-1.88-9.48-.14-.05-.26-.09-.34-.09-.07,0-.12.02-.17.03l-.6.24c-.53.22-1.14-.02-1.34-.57-.22-.52.03-1.14.57-1.34l.6-.24c.09-.05.22-.14.31-.4-.67-1.45-1.46-2.83-2.34-4.12-.88-1.31-1.86-2.53-2.91-3.69-.26,0-.43.09-.5.14l-.45.45c-.4.4-1.07.4-1.48,0s-.41-1.07,0-1.48l.45-.45c.07-.07.16-.21.16-.5-2.38-2.17-5.08-3.98-8.03-5.36-.24.1-.34.24-.38.33l-.24.6c-.21.53-.83.79-1.36.57-.53-.21-.79-.83-.57-1.34l.24-.6c.03-.1.05-.26-.05-.52-1.45-.53-2.95-.95-4.5-1.24-1.55-.31-3.14-.48-4.74-.57-.19.19-.22.34-.22.43v.65c0,.59-.47,1.03-1.03,1.03s-1.03-.48-1.03-1.03v-.65c0-.1-.05-.26-.24-.43-3.33.14-6.5.79-9.48,1.88-.05.14-.09.26-.09.34,0,.07.02.12.03.17l.24.6c.22.53-.03,1.14-.57,1.36-.53.22-1.14-.02-1.34-.57l-.24-.6c-.03-.09-.14-.22-.4-.31-1.45.67-2.83,1.46-4.12,2.34-1.31.88-2.55,1.86-3.69,2.91,0,.26.09.4.14.48l.47.47c.4.4.4,1.05,0,1.48-.4.4-1.07.4-1.48,0l-.47-.47c-.07-.07-.21-.16-.5-.14-2.17,2.38-3.98,5.08-5.36,8.03.1.24.22.34.33.38l.6.24c.52.21.79.83.57,1.36-.21.53-.83.79-1.36.57l-.6-.24c-.09-.03-.26-.05-.52.05-.53,1.45-.95,2.95-1.24,4.5-.31,1.55-.5,3.14-.57,4.74.19.19.34.22.43.22h.69c.59,0,1.03.47,1.03,1.03s-.48,1.03-1.03,1.03h-.64c-.1,0-.26.03-.43.22.14,3.33.79,6.5,1.88,9.48.14.05.26.09.34.09.07,0,.12-.02.16-.03l.59-.19c.53-.22,1.14.03,1.36.57s-.03,1.14-.57,1.34l-.6.24c-.09.05-.22.14-.31.4,1.34,2.88,3.12,5.51,5.26,7.82.26,0,.4-.09.5-.14l.47-.47c.4-.4,1.07-.4,1.48,0,.4.4.4,1.05,0,1.48l-.47.47c-.07.07-.16.21-.14.48,2.38,2.17,5.08,3.98,8.03,5.36.24-.1.34-.24.38-.33l.24-.6c.21-.53.83-.79,1.36-.57.53.21.79.83.57,1.34l-.24.6c-.03.09-.05.26.05.52,1.45.53,2.95.95,4.5,1.24,1.55.31,3.14.48,4.74.57.19-.19.22-.34.24-.43v-.64c0-.59.45-1.03,1.03-1.03s1.03.47,1.03,1.03v.64c0,.1.05.26.22.43,3.33-.14,6.5-.79,9.48-1.88.05-.14.09-.26.09-.34,0-.07-.02-.12-.03-.16l-.24-.6c-.22-.53.03-1.14.57-1.36.53-.22,1.14.03,1.34.57l.24.6c.05.09.14.22.41.31,2.88-1.36,5.51-3.12,7.82-5.26,0-.26-.09-.4-.14-.5l-.47-.45c-.4-.41-.4-1.07,0-1.48.4-.4,1.05-.4,1.48,0l.47.47c.07.07.21.16.48.14,2.17-2.38,3.98-5.08,5.36-8.03-.1-.24-.24-.34-.33-.38l-.6-.24c-.53-.21-.79-.83-.57-1.34.21-.53.83-.79,1.36-.57l.6.24c.09.03.26.05.52-.05h.02c1.05-2.89,1.67-6.01,1.81-9.24-.24-.22-.41-.26-.5-.26ZM38.89,124.04c-15.49,0-28.05-12.56-28.05-28.05s12.56-28.05,28.05-28.05,28.05,12.56,28.05,28.05-12.56,28.05-28.05,28.05Z"/>
        <path class="cls-1" d="M59.41,86.17h0l.31-.03-.31.03ZM55.3,80.24l.07.07,1.9-1.02-1.96.95ZM49.04,75.63s.07.03.1.05l2.14-2.72-2.24,2.67ZM38.89,71.13l-.05,2.12h.12l-.07-2.12ZM26.54,72.97l2.12,2.71s.07-.03.1-.05l-2.22-2.65ZM20.11,79.07l2.31,1.24s.05-.05.07-.07l-2.38-1.17ZM18.04,86.14l.33.03v-.02l-.33-.02Z"/>
        <path class="cls-1" d="M38.89,69.49c-14.63,0-26.5,11.85-26.5,26.5s11.85,26.5,26.5,26.5,26.5-11.85,26.5-26.5-11.87-26.5-26.5-26.5ZM18.04,86.14l.33.03c1.03-2.17,2.41-4.14,4.05-5.86l-2.31-1.24,2.38,1.15c1.77-1.84,3.86-3.39,6.17-4.57l-2.12-2.71,2.22,2.65c3.03-1.52,6.46-2.36,10.06-2.38l.05-2.12.05,2.12c3.62.02,7.05.86,10.1,2.38l2.26-2.67-2.14,2.72c2.31,1.17,4.38,2.71,6.15,4.55l1.95-.95-1.9,1.02c1.64,1.72,3.02,3.69,4.05,5.86l.31-.03-.31.03c1.31,2.72,2.08,5.74,2.21,8.94-5.12-3.77-11.16-6.2-17.47-7.06l15.27-1.86v-.02l-17.8,1.52,13.75-7.37-.07-.07-15.28,7.46h-.29l9.44-12.01s-.07-.03-.1-.05l-9.73,11.53-.36-13.89h-.12l-.36,13.94-9.7-11.56s-.07.03-.1.05l9.37,12.03h-.26l-15.28-7.46s-.05.05-.07.07l13.77,7.37-17.82-1.52v.02l15.25,1.86c-6.31.86-12.25,3.27-17.45,7.1.12-3.2.9-6.24,2.21-8.96l-.33-.05ZM38.89,118.73c-12.44,0-22.55-9.99-22.74-22.38,1.02-.78,2.05-1.48,3.12-2.15l.31,3.41.36-3.81c.55-.33,1.1-.64,1.65-.93l.59,7.86.62-8.46c.43-.21.88-.41,1.33-.6l.67,11.54.72-12.11c.41-.16.83-.31,1.24-.45l.76,14.25.78-14.73c.33-.1.67-.19,1-.28l.83,16.28.86-16.68c.31-.07.6-.12.91-.19l1.02,17.68,1.03-17.99c.21-.03.41-.05.62-.09l1.1,18.73,1.12-18.92c.17-.02.34-.02.52-.02l1.53,19.26,1.67-19.26c.14,0,.28.02.41.02l1.12,18.92,1.1-18.73c.21.02.41.05.62.07l1.03,18,1.03-17.68c.31.05.6.12.91.19l.86,16.68.83-16.28c.34.09.67.19,1,.28l.78,14.75.76-14.27c.41.14.83.28,1.22.43l.72,12.13.67-11.58c.45.19.9.38,1.33.59l.64,8.49.59-7.89c.55.29,1.1.59,1.65.9l.36,3.88.31-3.46c1.1.67,2.15,1.4,3.19,2.19-.19,12.41-10.3,22.42-22.76,22.42Z"/>
        <path class="cls-1" d="M22.49,80.24s-.05.05-.07.07l-2.31-1.24,2.38,1.17Z"/>
        <path class="cls-1" d="M18.37,86.17h0l-.33-.03.33.03Z"/>
        <path class="cls-1" d="M59.72,86.14l-.31.03v-.02l.31-.02Z"/>
        <path class="cls-1" d="M57.24,79.3l-1.9,1.02-.07-.07,1.96-.95Z"/>
        <polygon class="cls-1" points="38.94 73.25 38.84 73.25 38.89 71.13 38.94 73.25"/>
        <path class="cls-1" d="M28.76,75.63s-.07.03-.1.05l-2.12-2.71,2.22,2.65Z"/>
        <path class="cls-1" d="M51.28,72.97l-2.14,2.72s-.07-.03-.1-.05l2.24-2.67Z"/>
        <path class="cls-1" d="M49.4,80.52c.62,0,.62-.95,0-.95s-.6.95,0,.95h0Z"/>
        <path class="cls-1" d="M44.87,84.07c.62,0,.62-.95,0-.95-.6-.02-.6.95,0,.95h0Z"/>
        <path class="cls-1" d="M42.41,77.9c.62,0,.62-.95,0-.95-.62-.02-.62.95,0,.95h0Z"/>
        <path class="cls-1" d="M54.57,88.89c.62,0,.62-.95,0-.95s-.62.95,0,.95h0Z"/>
        <path class="cls-1" d="M53.66,84.21c.62,0,.62-.95,0-.95-.62-.02-.62.95,0,.95h0Z"/>
        <path class="cls-1" d="M60.36,93.05c.62,0,.62-.95,0-.95-.6-.02-.6.95,0,.95h0Z"/>
        <path class="cls-1" d="M28.19,80.52c.62,0,.62-.95,0-.95s-.62.95,0,.95h0Z"/>
        <path class="cls-1" d="M32.72,84.07c.62,0,.62-.95,0-.95-.62-.02-.62.95,0,.95h0Z"/>
        <path class="cls-1" d="M35.21,77.9c.62,0,.62-.95,0-.95-.62-.02-.62.95,0,.95h0Z"/>
        <path class="cls-1" d="M23.04,88.89c.62,0,.62-.95,0-.95s-.6.95,0,.95h0Z"/>
        <path class="cls-1" d="M23.94,84.21c.62,0,.62-.95,0-.95-.59-.02-.6.95,0,.95h0Z"/>
        <path class="cls-1" d="M17.24,93.05c.62,0,.62-.95,0-.95-.62-.02-.62.95,0,.95h0Z"/>
        <polygon class="cls-1" points="65.55 68.61 58.98 68.61 58.98 69.37 65.55 69.37 65.55 75.94 66.29 75.94 66.29 69.37 66.29 68.61 65.55 68.61"/>
        <polygon class="cls-1" points="66.29 122.39 66.29 115.82 65.55 115.82 65.55 122.39 58.98 122.39 58.98 123.13 65.55 123.13 66.29 123.13 66.29 122.39"/>
        <polygon class="cls-1" points="12.24 123.13 18.82 123.13 18.82 122.39 12.24 122.39 12.24 115.82 11.5 115.82 11.5 122.39 11.5 123.13 12.24 123.13"/>
        <polygon class="cls-1" points="11.5 69.37 11.5 75.94 12.24 75.94 12.24 69.37 18.82 69.37 18.82 68.61 12.24 68.61 11.5 68.61 11.5 69.37"/>
      </g>
      <g>
        <path class="cls-1" d="M84.41,78.64h-5.32v4.46c0,1.21.88,1.83,2.65,1.83,2.33,0,4.26.62,5.79,1.86,1.65,1.31,2.48,3.05,2.48,5.22v5.82c0,1.07-.4,1.98-1.22,2.74-.81.76-1.77,1.12-2.91,1.12h-8.25c-1.12,0-2.08-.36-2.91-1.12s-1.22-1.67-1.22-2.74v-5.7h5.62v4.32h5.31v-4.46c0-1.21-.88-1.83-2.65-1.83-2.33,0-4.26-.62-5.79-1.86-1.65-1.31-2.48-3.05-2.48-5.22v-5.82c0-1.07.4-1.98,1.22-2.74.81-.74,1.77-1.12,2.91-1.12h8.25c1.12,0,2.08.36,2.91,1.12s1.22,1.67,1.22,2.74v5.69h-5.6v-4.31Z"/>
        <path class="cls-1" d="M99.3,90.17v11.53h-5.62v-28.29h5.62v11.53h5.32v-11.53h5.63v28.27h-5.62v-11.53h-5.34v.02Z"/>
        <path class="cls-1" d="M120.11,96.46h5.32v-23.05h5.62v24.41c0,1.07-.4,1.98-1.22,2.74-.81.76-1.77,1.12-2.91,1.12h-8.25c-1.12,0-2.08-.36-2.91-1.12-.83-.76-1.22-1.67-1.22-2.74v-24.41h5.62v23.04l-.03.02h0Z"/>
        <path class="cls-1" d="M149.47,87.27c1.22-1.09,1.84-2.48,1.84-4.19v-5.82c0-1.07-.4-1.98-1.22-2.74-.81-.76-1.79-1.12-2.93-1.12h-11.68l-.02,28.27h8.27c2.33,0,4.26-.64,5.79-1.86,1.65-1.31,2.48-3.05,2.48-5.22v-2.62c0-2.02-.84-3.58-2.53-4.7ZM141.08,78.66h4.62v4.46c0,.48-.21.93-.62,1.29-.4.33-.88.52-1.43.52h-2.58v-6.27h.02ZM146.37,94.61c0,1.22-.88,1.84-2.65,1.84h-2.65v-6.27h3.31c.55,0,1,.16,1.41.52.4.34.6.79.6,1.29v2.62h-.02Z"/>
        <path class="cls-1" d="M155.85,101.68v-28.27h5.62v28.27h-5.62Z"/>
        <path class="cls-1" d="M171.54,83.47v18.21h-5.62v-28.27h7.79l4.6,18.3v-18.3h5.62v28.27h-7.77l-4.62-18.21Z"/>
      </g>
      <g>
        <path class="cls-1" d="M73.78,118.92v-14.9h2.96v14.9h-2.96Z"/>
        <path class="cls-1" d="M82.07,109.31v9.61h-2.96v-14.9h4.12l2.43,9.67v-9.67h2.96v14.9h-4.1l-2.45-9.61Z"/>
        <path class="cls-1" d="M92.92,106.76h-2.89v-2.76h8.74v2.76h-2.88v12.15h-2.95v-12.15h-.02Z"/>
        <path class="cls-1" d="M102.69,116.15h4.93v2.76h-7.91v-14.9h7.91v2.76h-4.93v3.33h4.12v2.77h-4.12v3.29Z"/>
        <path class="cls-1" d="M117.87,109.9v-3.84c0-.57-.21-1.03-.65-1.45-.41-.4-.93-.6-1.53-.6h-6.55v14.9h2.96v-5.32h1.74c.28,0,.53.1.74.28.21.19.31.43.31.71v4.34h2.96v-4.34c0-.98-.38-1.77-1.14-2.36.78-.55,1.15-1.31,1.15-2.31ZM114.93,109.88c0,.28-.1.52-.31.69-.21.19-.45.28-.74.28l-1.76-.02v-4.08h2.81v3.14Z"/>
        <path class="cls-1" d="M125.52,106.76h-2.81v2.36c0,.64.48.96,1.41.96,1.22,0,2.24.33,3.05.98.88.69,1.29,1.62,1.29,2.76v3.07c0,.57-.21,1.05-.65,1.45-.41.38-.95.6-1.53.6h-4.36c-.6,0-1.1-.19-1.53-.6-.43-.4-.65-.88-.65-1.45v-3h2.95v2.29h2.81v-2.36c0-.64-.48-.96-1.41-.96-1.22,0-2.24-.33-3.05-.98-.88-.69-1.29-1.62-1.29-2.76v-3.07c0-.57.21-1.05.65-1.45.41-.38.95-.6,1.53-.6h4.36c.6,0,1.1.19,1.53.6.43.4.65.88.65,1.45v3h-2.95v-2.29Z"/>
        <path class="cls-1" d="M132.38,106.76h-2.89v-2.76h8.74v2.76h-2.88v12.15h-2.95v-12.15h-.02Z"/>
        <path class="cls-1" d="M142.15,116.15h4.93v2.76h-7.91v-14.9h7.91v2.76h-4.93v3.33h4.12v2.77h-4.12v3.29Z"/>
        <path class="cls-1" d="M148.61,118.92v-14.9h2.96v12.15h4.12v2.76h-7.08Z"/>
        <path class="cls-1" d="M156.9,118.92v-14.9h2.96v12.15h4.12v2.76h-7.08Z"/>
        <path class="cls-1" d="M171.18,104h-3.93l-2.89,14.9h3l.6-3.02h2.53l.59,3.02h3l-2.89-14.9ZM168.49,113.13l.72-6.36.72,6.36h-1.45Z"/>
        <path class="cls-1" d="M184,109.9v-3.84c0-.57-.21-1.03-.65-1.45-.41-.4-.93-.6-1.53-.6h-6.53v14.9h2.96v-5.32h1.72c.28,0,.53.1.74.28.21.19.31.43.31.71v4.34h2.96v-4.34c0-.98-.38-1.77-1.14-2.36.78-.55,1.15-1.31,1.15-2.31ZM181.05,109.88c0,.28-.1.52-.31.69-.21.19-.45.28-.74.28l-1.76-.02v-4.08h2.81v3.14Z"/>
      </g>
    </g>
</svg>