<?xml version="1.0" encoding="UTF-8"?>
<svg xmlns="http://www.w3.org/2000/svg" xml:space="preserve" style="fill-rule:evenodd;clip-rule:evenodd;stroke-linejoin:round;stroke-miterlimit:2" viewBox="0 0 800 800">
	<path d="M0 0h192v192H0z" style="fill:none" transform="scale(4.16667)"/>
	<path d="M259.615 230.106h-32.088a.837.837 0 0 1-.816-1l.842-4.131a.84.84 0 0 1 .821-.665h32.305a.837.837 0 0 1 .808 1.036l-1.063 4.129a.84.84 0 0 1-.811.626m-3.29 14.005h-32.088a.836.836 0 0 1-.815-1l.841-4.132a.84.84 0 0 1 .822-.665h32.305a.838.838 0 0 1 .809 1.036l-1.064 4.129a.84.84 0 0 1-.811.627m-3.353 14.134h-32.088a.837.837 0 0 1-.816-1l.841-4.132a.84.84 0 0 1 .822-.665h32.304a.837.837 0 0 1 .809 1.037l-1.063 4.128a.84.84 0 0 1-.811.627m-20.478 86.741h-32.088a.836.836 0 0 1-.815-1l.841-4.131a.84.84 0 0 1 .822-.665h32.305a.838.838 0 0 1 .809 1.036l-1.064 4.129a.84.84 0 0 1-.811.626m-3.288 14.005h-32.09a.837.837 0 0 1-.816-1l.842-4.132a.84.84 0 0 1 .821-.665h32.305a.838.838 0 0 1 .809 1.036l-1.064 4.129a.84.84 0 0 1-.811.627m-3.353 14.134h-32.088a.836.836 0 0 1-.815-1l.841-4.129a.84.84 0 0 1 .822-.668h32.305a.838.838 0 0 1 .809 1.036l-1.064 4.132a.84.84 0 0 1-.811.624M349.008 334.9h-16.314a.556.556 0 0 0-.541.412l-.96 3.587a.558.558 0 0 0 .536.7h3.007a.838.838 0 0 1 .81 1.031l-7.859 31.685a.56.56 0 0 0 .541.688h7.18a.56.56 0 0 0 .542-.424l7.842-32.252a.84.84 0 0 1 .814-.635h3.716a.554.554 0 0 0 .547-.453l.69-3.681a.552.552 0 0 0-.546-.654h-.004" style="fill:#700000;fill-rule:nonzero" transform="translate(-123.803 7.143)scale(1.30952)"/>
	<path d="m365.858 345.282.001-.005c.605 1.867-.203 3.8-.646 5.6l-3.329 13.5-2.02 8.2a.554.554 0 0 1-.539.42c-1.648.009-3.299.014-4.948.028a3.6 3.6 0 0 1-1.388-.4c-.506-.176-.833.022-1.355.171a15.5 15.5 0 0 1-3.409.566 5.3 5.3 0 0 1-3.994-1.091 4.22 4.22 0 0 1-1.116-3.172c.091-1.15.322-2.285.687-3.379a17.1 17.1 0 0 1 1.958-5.1 12 12 0 0 1 4.31-3.614c1.498-.83 3.067-1.523 4.554-2.375.614-.352 1.265-.638 1.9-.946.096-.047.795-.283.819-.393l1.215-4.915q.034-.155.034-.314c0-.802-.66-1.462-1.462-1.462-.684 0-1.281.481-1.428 1.149l-1.289 6.026a.56.56 0 0 1-.547.44h-6.025a.557.557 0 0 1-.534-.7q.641-2.249 1.276-4.5a9.05 9.05 0 0 1 1.4-3.5 9.2 9.2 0 0 1 4.11-2.914 15.4 15.4 0 0 1 4.624-.519c1.891-.031 3.925-.055 5.483 1.008a4.28 4.28 0 0 1 1.658 2.191M355 362.063l-.003-.01a10 10 0 0 0 .561-2.131c.006-.613-.343-.706-.8-.552a5.44 5.44 0 0 0-2.031 1.545c-.172.311-.29.649-.349 1q-.66 2.928-1.325 5.852c-.091.406-.102.945.426 1 .458-.047 1.545.162 1.858-.277a.8.8 0 0 0 .105-.267 675 675 0 0 1 1.558-6.16m95.164-16.781.001-.005c.605 1.867-.204 3.8-.646 5.6l-3.329 13.5-2.02 8.2a.554.554 0 0 1-.539.42c-1.648.009-3.299.014-4.948.028a3.6 3.6 0 0 1-1.388-.4c-.506-.176-.833.022-1.355.171a15.5 15.5 0 0 1-3.409.566 5.3 5.3 0 0 1-3.994-1.091 4.22 4.22 0 0 1-1.116-3.172c.091-1.15.322-2.285.687-3.379a17.2 17.2 0 0 1 1.957-5.1 12.04 12.04 0 0 1 4.311-3.614c1.498-.83 3.067-1.523 4.554-2.375.614-.352 1.265-.638 1.9-.946.096-.047.794-.283.819-.393l1.215-4.915q.034-.155.034-.314c0-.802-.66-1.462-1.462-1.462-.684 0-1.281.481-1.428 1.149l-1.289 6.026a.56.56 0 0 1-.547.44h-6.026a.556.556 0 0 1-.533-.7q.64-2.249 1.276-4.5a9.05 9.05 0 0 1 1.4-3.5 9.2 9.2 0 0 1 4.11-2.914 15.4 15.4 0 0 1 4.623-.519c1.892-.031 3.926-.055 5.484 1.008a4.28 4.28 0 0 1 1.658 2.191m-10.858 16.781-.003-.01a10 10 0 0 0 .561-2.131c.006-.613-.343-.706-.8-.552a5.44 5.44 0 0 0-2.031 1.545 3.1 3.1 0 0 0-.349 1l-1.325 5.852c-.091.406-.102.945.426 1 .458-.047 1.545.162 1.858-.277a.8.8 0 0 0 .105-.267q.5-2.013 1.011-4.022.27-1.07.547-2.138" style="fill:#700000" transform="translate(-123.803 7.143)scale(1.30952)"/>
	<path d="M376.932 355.521h6.4a.56.56 0 0 0 .544-.431c.613-2.711 1.377-5.429 1.844-8.167a4.35 4.35 0 0 0-1.49-3.7c-1.794-1.462-4.637-1.108-6.8-1.155-3.1-.068-6.132.608-8.034 3.233a13.8 13.8 0 0 0-1.666 3.958c-1.144 3.464-1.9 7.037-2.738 10.583l-.074.314a399 399 0 0 0-.913 3.933 18 18 0 0 0-.869 4.77 4.02 4.02 0 0 0 1.3 2.99 5.6 5.6 0 0 0 2.05.962c2.869.757 5.886.747 8.75-.027 1.973-.564 4.612-2.073 5.162-4.236l2.037-8.046a.557.557 0 0 0-.538-.687h-6.389a.56.56 0 0 0-.542.423l-1.916 7.576c-.134.553-.373.926-.945.888h-.278a1.17 1.17 0 0 1-1.058-1.435l5.107-19.635a1.12 1.12 0 0 1 1.086-.862 1.12 1.12 0 0 1 1.089 1.354l-1.674 6.727a.554.554 0 0 0 .543.67h.004m45.121 0h6.4a.56.56 0 0 0 .544-.431c.613-2.711 1.377-5.429 1.844-8.167a4.35 4.35 0 0 0-1.49-3.7c-1.794-1.462-4.637-1.108-6.8-1.155-3.1-.068-6.132.608-8.034 3.233a13.8 13.8 0 0 0-1.666 3.958c-1.144 3.464-1.9 7.037-2.738 10.583l-.074.314a399 399 0 0 0-.913 3.933 18 18 0 0 0-.869 4.77 4.02 4.02 0 0 0 1.3 2.99 5.6 5.6 0 0 0 2.05.962c2.869.757 5.886.747 8.75-.027 1.973-.564 4.612-2.073 5.162-4.236l2.037-8.046a.557.557 0 0 0-.538-.687h-6.389a.556.556 0 0 0-.542.423l-1.918 7.576c-.132.553-.371.926-.943.888h-.278a1.17 1.17 0 0 1-1.058-1.435L421 347.632a1.12 1.12 0 0 1 1.086-.862 1.12 1.12 0 0 1 1.089 1.354l-1.674 6.727a.554.554 0 0 0 .543.67h.004M394.042 336h6.468a.558.558 0 0 1 .536.7l-1.3 4.849a.556.556 0 0 0 .536.695h2.62a.56.56 0 0 1 .543.682l-.759 3.175a.56.56 0 0 1-.544.426h-3.346a.56.56 0 0 0-.547.432l-4.659 19.255a1.116 1.116 0 0 0 .935 1.342l2.147.258a.554.554 0 0 1 .464.676l-.943 3.945a.56.56 0 0 1-.544.426h-7.812c-1.586 0-2.5-1.715-2.186-3.257l5.124-22.4a.557.557 0 0 0-.525-.663l-1.982-.082a.558.558 0 0 1-.511-.712l.932-3.112a.56.56 0 0 1 .536-.4h2.446a.554.554 0 0 0 .542-.426l1.286-5.387a.56.56 0 0 1 .545-.427m145.321.005h6.47a.557.557 0 0 1 .534.7l-1.3 4.849a.554.554 0 0 0 .537.695h2.623a.558.558 0 0 1 .54.682l-.758 3.175a.56.56 0 0 1-.545.426h-3.345a.56.56 0 0 0-.547.432l-4.659 19.255q-.027.119-.027.241c0 .553.413 1.026.961 1.101l2.147.258a.555.555 0 0 1 .465.676l-.943 3.945a.56.56 0 0 1-.544.426h-7.813c-1.586 0-2.5-1.715-2.185-3.257l5.124-22.4a.557.557 0 0 0-.525-.663l-1.982-.082a.557.557 0 0 1-.511-.712l.931-3.112a.56.56 0 0 1 .536-.4h2.447a.555.555 0 0 0 .542-.426l1.286-5.387a.56.56 0 0 1 .544-.427m-133.579 6.244h6.243a.558.558 0 0 1 .539.687l-7.381 29.506a.56.56 0 0 1-.542.424h-6.064a.56.56 0 0 1-.541-.685l7.2-29.508a.564.564 0 0 1 .544-.424m1.836-7.302h6.156a.555.555 0 0 1 .542.665l-.9 4.3a.56.56 0 0 1-.547.442h-6.368a.56.56 0 0 1-.539-.693l1.11-4.3a.56.56 0 0 1 .542-.415m48.591.001h5.905a.558.558 0 0 1 .54.684l-9.014 36.98a.56.56 0 0 1-.541.424h-6.385a.56.56 0 0 1-.54-.69l9.489-36.98a.56.56 0 0 1 .542-.418" style="fill:#700000;fill-rule:nonzero" transform="translate(-123.803 7.143)scale(1.30952)"/>
	<path d="M220.2 269.264h-65.67c-13 1.424-25.24 10.333-31 21.873-3.252 6.515-4.624 14.181-2.551 21.155 2.548 8.324 9.974 14.27 18.654 14.934h56.068a.56.56 0 0 0 .412-.178l8.17-8.8a.55.55 0 0 1 .409-.178h31.821a.56.56 0 0 1 .536.4l2.41 8.133c.07.236.289.4.536.4l64.183.225a.84.84 0 0 0 .808-.607l3.752-13.338a.837.837 0 0 0-.803-1.055h-33.66a.558.558 0 0 1-.536-.7l11.429-41.315a.837.837 0 0 0-.805-1.053h-13.895a.84.84 0 0 0-.811.621l-13.157 49.74a.281.281 0 0 1-.536.02l-6.174-18.107a1.12 1.12 0 0 0-1.058-.753h-47.62c-.318 0-.623.135-.836.371l-18.843 21.067a.278.278 0 0 1-.478-.253l7.795-29.99a.28.28 0 0 0-.267-.346l-33.142-.267a2.25 2.25 0 0 0-1.727.789l-10.349 12.194a.554.554 0 0 0 .424.91h26.726l-2.4 7.2-24.127-.119c-2.24-.011-5.344-2.191-6.762-3.8a8.65 8.65 0 0 1-2.122-5.8c.008-5.629 4.263-11.292 8.433-14.766 5.009-4.181 10.537-3.783 16.606-3.783h49.078c.169 0 .33-.077.437-.208l11.075-13.723a.557.557 0 0 0-.433-.9h-.004" style="fill:#4d4d4d;fill-rule:nonzero" transform="translate(-123.803 7.143)scale(1.30952)"/>
	<path d="M207.049 294h40.087a.277.277 0 0 0 .263-.36q-1.476-4.639-2.955-9.275l-2-6.262c-.759-2.385-1.251-4.859-3.131-6.679a8.1 8.1 0 0 0-4.907-2.249 11.66 11.66 0 0 0-7.078 2.177 29 29 0 0 0-6 5.7 3100 3100 0 0 0-4.367 4.973l-8.56 9.741-1.564 1.779a.278.278 0 0 0 .209.459h.002M422.2 282.929l3.626-12.612a.838.838 0 0 0-.803-1.058h-50.906a1.12 1.12 0 0 0-1.08.819l-11.38 41.942a.28.28 0 0 1-.27.206h-34.182a.558.558 0 0 1-.536-.7l11.43-41.318a.837.837 0 0 0-.806-1.05H323.4a.84.84 0 0 0-.811.621l-15.1 56.585a.557.557 0 0 0 .534.7h.004l49.086.165 52.349-.05a1.13 1.13 0 0 0 1.075-.813l3.64-13.082a.84.84 0 0 0-.807-1.053h-36.23a.555.555 0 0 1-.536-.69l1.523-5.946a.84.84 0 0 1 .814-.624h36.988a.84.84 0 0 0 .811-.618l3.466-12.986a.838.838 0 0 0-.807-1.044h-36.156a.558.558 0 0 1-.536-.7l1.547-5.476a.56.56 0 0 1 .539-.4h36.334a1.12 1.12 0 0 0 1.075-.805m-8.688 44.282h13.4a.84.84 0 0 0 .808-.615l8.458-31.122 21.782 29.462a8.13 8.13 0 0 0 6.013 2.659 8.14 8.14 0 0 0 7.638-5.348l14.266-52.3a.557.557 0 0 0-.534-.7H471.3a.56.56 0 0 0-.542.409l-8.2 30.5a.563.563 0 0 1-.989.184l-20.935-28.315a8.14 8.14 0 0 0-6.116-2.773 8.145 8.145 0 0 0-7.579 5.186l-14.231 51.728a.837.837 0 0 0 .805 1.049h.004" style="fill:#4d4d4d;fill-rule:nonzero" transform="translate(-123.803 7.143)scale(1.30952)"/>
	<path d="M665.4 269.259h14.045a.557.557 0 0 1 .534.7l-14.266 52.3a8.14 8.14 0 0 1-7.638 5.351 8.13 8.13 0 0 1-6.013-2.66l-21.1-28.533a.562.562 0 0 0-.989.182l-8.156 30.012a.84.84 0 0 1-.808.613h-13.405a.837.837 0 0 1-.804-1.05l4.572-16.482a.28.28 0 0 0-.269-.354.28.28 0 0 0-.231.123 42 42 0 0 1-15.391 13.827c-3.477 1.693-6.908 3.464-10.63 3.664-4.909.258-9.841.035-14.753-.036-7.694-.11-17.133.696-23.469-6.24a19.9 19.9 0 0 1-4.866-10.267.28.28 0 0 0-.539-.044c-2.689 7.551-9.832 14.734-23.389 16.793l-43.374-.033h-.003a.557.557 0 0 1-.415-.921l12.048-13.6a.56.56 0 0 1 .421-.189h34.242c10.302-1.355 7.831-8.678 3.488-8.434l-28.357-.192c-22.65-1.407-16.691-31.07 8.75-34.534l47.164.006h.005a.555.555 0 0 1 .413.921l-11.955 13.469a1.13 1.13 0 0 1-.838.374h-37.4c-2.384.113-3.976 3.925-1.776 4.83l29.869.467c1.225.062 2.433.315 3.581.748a14 14 0 0 1 3.736 2.127 15 15 0 0 1 2.837 2.939q.557.765 1 1.6c.14.264.272.541.385.805s.17.648.478.748a.47.47 0 0 0 .462-.082.6.6 0 0 0 .105-.336c.024-.143.057-.288.088-.431q.09-.442.192-.88.205-.879.459-1.743c.422-1.43.96-2.824 1.608-4.167a30 30 0 0 1 2.185-3.758 44 44 0 0 1 2.752-3.592 36.98 36.98 0 0 1 29.894-14.038h9.288c5.616 0 12.056-.567 17.425 2.212.879.453 1.711.99 2.485 1.606q1.354 1.066 2.578 2.279a20.9 20.9 0 0 1 3.706 4.835c.483.895.869 1.838 1.151 2.815q.225.774.338 1.572c.053.393-.008 1.33.416 1.586a.31.31 0 0 0 .307-.019 1.95 1.95 0 0 0 .539-.99c.113-.371.186-.75.286-1.121l1.056-3.846a2259 2259 0 0 1 1.585-5.745 8.14 8.14 0 0 1 7.576-5.186 8.13 8.13 0 0 1 6.116 2.775l20.938 28.313a.56.56 0 0 0 .987-.184l8.205-30.493a.556.556 0 0 1 .539-.412m-75.708 41.76h-.004c7.218-2.848 13.351-10.418 11.957-18.442a9.85 9.85 0 0 0-3.911-6.685 10 10 0 0 0-1.5-.786c-3.241-1.361-7.133-1.083-10.525-1.083h-5.613c-3.068 0-6.16-.278-9.135.577a18.94 18.94 0 0 0-9.445 5.883 20.05 20.05 0 0 0-4.046 8.089 12.6 12.6 0 0 0 1.866 10.625c3.283 4.288 10.207 3.001 14.855 3.057 2.966.032 5.943.142 8.912.016a20.2 20.2 0 0 0 6.589-1.251" style="fill:#4d4d4d" transform="translate(-123.803 7.143)scale(1.30952)"/>
	<path d="M483.068 347.644h6.4a.56.56 0 0 0 .545-.434c.514-2.306.973-4.637 1.547-6.93.707-2.831-1.479-4.973-4.106-5.544a16.6 16.6 0 0 0-7.832.462 8.7 8.7 0 0 0-3.293 1.525 11.26 11.26 0 0 0-3.194 4.687 20 20 0 0 0-.94 3.466 13 13 0 0 0-.443 3.414 8.4 8.4 0 0 0 1.633 3.532c1.108 1.663 2.416 3.186 3.538 4.838a17 17 0 0 1 1.465 2.551c.202.41.348.846.434 1.295a3.9 3.9 0 0 1-.135 1.4 236 236 0 0 1-.643 3.12q-.18.929-.467 1.831a1.52 1.52 0 0 1-1.207 1.089 2.2 2.2 0 0 1-1.228.027 1.16 1.16 0 0 1-.817-.852c-.021-.228 0-.459.063-.679q.887-3.933 1.757-7.873a.557.557 0 0 0-.541-.673h-5.952a.56.56 0 0 0-.539.412 175 175 0 0 0-1.008 3.587c-.275 1.015-.589 2.035-.8 3.065-.4 1.985-1.234 4.187.107 6.029a6.73 6.73 0 0 0 3.692 2.119c1.749.445 3.569.531 5.352.253a17.4 17.4 0 0 0 3.508-.844 19 19 0 0 0 1.775-.737 5.4 5.4 0 0 0 1.532-1.163q.725-.68 1.335-1.465a15.2 15.2 0 0 0 2.024-4.92q.475-1.744.75-3.532a7.2 7.2 0 0 0-.036-3.618 15.7 15.7 0 0 0-2.267-3.681c-1.174-1.638-2.483-3.2-3.566-4.9a6.7 6.7 0 0 1-1.105-2.829 11.9 11.9 0 0 1 .638-3.95 2.94 2.94 0 0 1 .613-1.487 1.7 1.7 0 0 1 1.339-.577c.627.005 1.14.522 1.14 1.149v.019q-.088.52-.244 1.025-.425 1.773-.847 3.543l-.39 1.641c-.022.319.085.616.407.616m39.921 6.37h5.91a.835.835 0 0 0 .816-.648l1.482-6.515q.079-.307.1-.624a2.4 2.4 0 0 0-.132-.855 4.5 4.5 0 0 0-2.432-2.521c-3.085-1.448-6.949-1.083-10.083.02l-.052.016a7.3 7.3 0 0 0-2.911 1.8 10.8 10.8 0 0 0-2.01 4.1 21 21 0 0 0-1.069 4.329 6.3 6.3 0 0 0 .129 2.571c.316 1.008 1.6 1.775 2.408 2.355 1.347.968 2.749 1.853 4.022 2.917.536.475.76 1.215.577 1.908a16 16 0 0 1-.226 1.66 14 14 0 0 1-.959 3.312c-.7 1.523-2.479 1.144-2.4-.022l1.369-6.418a.554.554 0 0 0-.541-.668h-6.111a.56.56 0 0 0-.544.426q-.764 3.188-1.532 6.372a9 9 0 0 0-.2.984 3.72 3.72 0 0 0 .525 2.694 6 6 0 0 0 2.529 1.577c1.134.382 2.317.6 3.513.646a16.2 16.2 0 0 0 3.807-.253 9.9 9.9 0 0 0 5.289-2.5 10.54 10.54 0 0 0 2.424-4.657c.734-2.323 1.795-5.778.094-7.96a7.5 7.5 0 0 0-2.092-1.68c-.929-.563-1.858-1.113-2.79-1.668a2.94 2.94 0 0 1-1.364-1.477 5 5 0 0 1-.154-2.265 9.1 9.1 0 0 1 .858-3.452 1.6 1.6 0 0 1 .8-.811c.232-.071.479-.078.715-.022.296.037.564.194.742.434.115.229.158.488.124.742a17.6 17.6 0 0 1-.861 4.808c-.093.291-.395 1.344.226 1.344m85.247.001h5.91a.84.84 0 0 0 .817-.648q.743-3.258 1.481-6.515.081-.307.105-.624a2.4 2.4 0 0 0-.132-.855 4.5 4.5 0 0 0-2.433-2.521c-3.084-1.448-6.949-1.083-10.083.02l-.052.016a7.3 7.3 0 0 0-2.911 1.8 10.8 10.8 0 0 0-2.009 4.1 21 21 0 0 0-1.069 4.329 6.25 6.25 0 0 0 .129 2.571c.316 1.008 1.6 1.775 2.408 2.355 1.344.968 2.748 1.853 4.021 2.917.537.475.761 1.216.575 1.908a15 15 0 0 1-.223 1.66 14 14 0 0 1-.959 3.312c-.7 1.523-2.48 1.144-2.4-.022l1.369-6.418a.557.557 0 0 0-.542-.668h-6.108a.56.56 0 0 0-.544.426 2686 2686 0 0 1-1.531 6.372 9 9 0 0 0-.2.984 3.72 3.72 0 0 0 .526 2.694 6 6 0 0 0 2.528 1.577c1.133.382 2.316.6 3.511.646a16.2 16.2 0 0 0 3.81-.253 9.9 9.9 0 0 0 5.288-2.5 10.5 10.5 0 0 0 2.425-4.657c.734-2.323 1.795-5.778.093-7.96a7.5 7.5 0 0 0-2.092-1.68c-.929-.563-1.858-1.113-2.79-1.668a2.94 2.94 0 0 1-1.363-1.477 5 5 0 0 1-.154-2.265 9 9 0 0 1 .858-3.452c.156-.36.442-.65.8-.811.232-.071.478-.078.714-.022.296.037.565.194.743.434.112.23.155.488.123.742a17.5 17.5 0 0 1-.86 4.808c-.093.291-.4 1.344.225 1.344M494.189 342.2h5.681c.457 0 .834.376.834.834l-.001.04-.728 13.873v.007c0 .153.126.28.28.28a.28.28 0 0 0 .259-.174l5.712-14.321c.129-.317.715-.523 1.055-.523h5.792c.6 0 .344.44.105.99l-1.125 2.567a3871 3871 0 0 0-2.792 6.383l-3.6 8.219c-1.9 4.4-3.977 8.722-5.772 13.164-.954 2.364-1.955 4.506-4.492 5.5-2.094.816-4.412.451-6.605.346l-.921-.044c-.41-.022-.918-.192-.789-.7l.638-2.471a.84.84 0 0 1 .756-.624l2.622-.173a2.23 2.23 0 0 0 1.784-2.117l.467-30.234a.84.84 0 0 1 .839-.819" style="fill:#700000;fill-rule:nonzero" transform="translate(-123.803 7.143)scale(1.30952)"/>
	<path d="m566.743 344.484.005.004a4 4 0 0 1 .594 2.183 13.2 13.2 0 0 1-.643 2.927l-.407 1.642-.907 3.672-1.105 4.464a.56.56 0 0 1-.544.423h-9.237a.56.56 0 0 0-.541.424l-1.067 4.422q-.24.986-.475 1.969c-.14.572-.47 1.372-.014 1.872.249.253.603.373.954.324a1.5 1.5 0 0 0 .9-.492c.404-.593.669-1.27.775-1.979.201-.693.427-1.38.627-2.073.264-.907.569-1.811.8-2.727a.56.56 0 0 1 .536-.42l6.056-.077h.011a.557.557 0 0 1 .541.679 61 61 0 0 1-1.085 5.049 8.8 8.8 0 0 1-2.076 4.1 7.2 7.2 0 0 1-3.856 2.1c-.127.025-.253.035-.377.063-1.27.286-2.565.445-3.867.473a14.4 14.4 0 0 1-3.53-.341 6.3 6.3 0 0 1-3.128-1.6 4.3 4.3 0 0 1-.9-1.5 3.75 3.75 0 0 1 .016-2.318q1.063-4.362 2.122-8.724.806-3.3 1.606-6.6c.272-1.113.544-2.221.794-3.337a9.6 9.6 0 0 1 1.185-3.15 9.42 9.42 0 0 1 6.317-3.7 17.6 17.6 0 0 1 3.455-.281c.321.009.646.022.968.047a9.6 9.6 0 0 1 4.016 1.091c.601.334 1.11.812 1.481 1.391m-8.858 10.502.004-.002q.024-.073.044-.148.489-1.839.97-3.673l.487-1.836q.266-.748.4-1.531c.076-.943-1.165-1.335-1.924-1.135a1.18 1.18 0 0 0-.646.406 1.7 1.7 0 0 0-.236.594q-.876 3.436-1.754 6.867a.82.82 0 0 0 .016.646c.19.196.464.288.734.247h1.185a.83.83 0 0 0 .528-.121.6.6 0 0 0 .192-.314" style="fill:#700000" transform="translate(-123.803 7.143)scale(1.30952)"/>
	<path d="M563.579 373.036h6.353a.554.554 0 0 0 .541-.424l6.229-25.2c.245-1 2.944-1 2.5.663l-5.869 24.148a.56.56 0 0 0 .541.685h6.21a.56.56 0 0 0 .542-.418l6.226-24.657a1.39 1.39 0 0 1 1.349-1.057 1.397 1.397 0 0 1 1.378 1.576l-6.111 23.9a.558.558 0 0 0 .546.657h6.398c.256 0 .48-.176.541-.424q.705-2.886 1.4-5.772 1.138-4.692 2.265-9.385 1.072-4.466 2.125-8.933l.3-1.279c.262-.74.377-1.525.338-2.309a2.86 2.86 0 0 0-1.113-1.731 5 5 0 0 0-1.924-.842 7.84 7.84 0 0 0-5.652.877q-.452.3-.951.517c-.338.143-.72.143-1.058 0a2.5 2.5 0 0 1-.564-.451 5.37 5.37 0 0 0-3.7-1.185c-.692.01-1.381.091-2.056.242q-.471.103-.935.242c-.308.093-.618.344-.934.294a1.3 1.3 0 0 1-.338-.126 2.5 2.5 0 0 0-1-.4h-5.571a1.114 1.114 0 0 0-1.081.836l-7.457 29.264a.56.56 0 0 0 .54.69h.001" style="fill:#700000;fill-rule:nonzero" transform="translate(-123.803 7.143)scale(1.30952)"/>
	<path d="M305.059 334.289a.56.56 0 0 0-.5.317C282.123 381.968 195 412.717 144.181 353.49c-.228-.267-.432-.049-.217.231 55.334 72.25 150.644 35.487 177.206-18.637a.558.558 0 0 0-.498-.8h-.008zm6.764-71.501c-9.982-26-43.061-65.76-108.349-51.4l-.028.003a.136.136 0 0 1-.046-.264c28.269-9.266 94.585-12.6 122.557 51.244a.557.557 0 0 1-.508.775h-13.106a.555.555 0 0 1-.519-.355" style="fill:#212121;fill-rule:nonzero" transform="translate(-123.803 7.143)scale(1.30952)"/>
</svg>
