<?xml version="1.0" encoding="UTF-8"?>
<svg xmlns="http://www.w3.org/2000/svg" id="logo" viewBox="0 0 192 192">
	<defs>
		<style>
			.cls-1{fill:#000;stroke-width:0}
		</style>
	</defs>
	<path d="M93.92 77.5h-2.17l-1.32 3.17 2.79-1.58h.28l-1.58 8.04V135l4.13 6.1 4.07-6.1V75.48h-5.68l-.52 2.03Zm1.37.77-.92-.96h2.95zm6.94 8.64h1.06v26.52l5.28 8.03V86.89h1.56v33.3l5.3-7.94V86.89h1.56v23.01l5.3-7.92V86.89h1.56v12.74l5.18-7.74v-4.94h3.37l3.47-5.23h-32.22zm-45.78-5.19 3.45 5.23h3.37v4.94l5.18 7.74V86.89h1.56v15.09l5.3 7.92V86.89h1.56v25.36l5.3 7.94v-33.3h1.58v34.57l5.26-8.03V86.91h1.06l-1.42-5.19z" class="cls-1"/>
	<path d="m14 34.41 82.41 123.18L178 34.41zm82.37 118.02L18.96 36.72h154.07L96.38 152.43Z" class="cls-1"/>
	<path d="m30.45 42.8 14.2 21.35h102.67l14.2-21.35zm91.2 8.86h6.4v3.91h-6.4zm-70.74-2.08v11.47h-5.2V46.24h5.2v3.33Zm.4 9.25v-7.26l4.39-5.32h6l-5 6.06-3.51 4.25-1.89 2.27Zm4.56 2.24-2.51-4.21 3.51-4.25 5.04 8.47h-6.04Zm12.7-11.03v10.99h-5.2V46.2h5.2v3.83Zm5.25 10.99-1.87-4.81h-2.99v-3.81h4.81v-2.37h-4.81v-3.81h7.68l2.23 2.47v4.23l-2.11 2.31 2.59 5.82h-5.54v-.02Zm14.35 0h-5.12l-2.37-2.59V46.2h5.2v10.59h2.29v4.23Zm7.82-2.58-2.37 2.59h-5.06v-4.23h2.23V46.22h5.2v12.24Zm9.77 2.58h-5.42l-2.35-2.59v-9.67l2.35-2.57h5.44v3.91h-2.59v7h2.59v3.91h-.02Zm8.18-2.56-2.35 2.57h-5.46v-3.91h2.61v-1.26h-4.17v-3.73h9.37v6.34Zm0-7.15h-5.2v-1.2h-2.61v-3.91h5.44l2.37 2.59v2.53Zm7.31 9.71h-5.2V46.2h5.2zm7.66 0h-7.26v-3.91h7.26zm0-10.91h-7.26v-3.91h7.26zm7.02-.08v10.99h-5.2V46.2h5.2v3.83Zm5.26 10.99-1.87-4.81h-2.99v-3.81h4.81v-2.37h-4.81v-3.81h7.68l2.23 2.47v4.23l-2.11 2.31 2.59 5.82h-5.54v-.02Zm-91.26 6.16h.56v5.56h-.56zm14.93 5.56v-4.98h2.24v-.58h-5.05v.58h2.22v4.98zm9.68-4.98v-.58h-4.43v5.56h4.43v-.58h-3.85v-1.91h3.45v-.58h-3.45v-1.91zM58.5 72.75h.56v-5.56h-.56v4.66h-.27l-3.45-4.66h-.84v5.56h.56v-4.66h.22l3.49 4.66zm19.39-5.56h-.18v5.56h.56V70.4h2.99l.96 2.35h.62l-1-2.47.82-.82v-1.28l-.96-.96h-3.81v-.02Zm4.2 1.21v.82l-.62.62h-3.19v-2.07h3.19l.62.62Zm12.84 2.74h3.17l.68 1.6h.62l-2.37-5.56h-1.04l-2.37 5.56h.62l.68-1.6Zm1.42-3.39h.3l1.2 2.81h-2.69l1.18-2.81Zm16.95 3.39.68 1.6h.62l-2.37-5.56h-1.04l-2.37 5.56h.62l.68-1.6h3.17Zm-1.72-3.39h.3l1.2 2.81h-2.69l1.18-2.81Zm-9.25-.56v5.56h4.13v-.56h-3.57v-5zm31.21 0h.56v5.56h-.56zm-5.23 5.56v-4.98h2.23v-.58h-5.06v.58h2.25v4.98zm-42.37-.76v.02h.02l.74.74h3.37l.74-.74h.02v-2.13h-2.64v.58h2.06v1.31l-.4.4h-2.93l-.4-.4v-3.59l.4-.43h2.93l.4.43v.62h.58v-.85h-.02l.02-.02-.76-.74H86.7l-.76.74zm55.47-4.8h-3.39l-.74.74v4.08l.74.74h3.39l.74-.74v-.85h-.56v.61l-.42.42h-2.91l-.42-.42v-3.59l.42-.43h2.91l.42.43v.62h.56v-.87zm-23.79 4.82h.02l.74.74h3.37l.74-.74h.02v-.85h-.58v.61l-.4.42h-2.93l-.4-.42v-3.59l.4-.43h2.93l.4.43v.62h.58v-.87l-.76-.74h-3.37l-.76.74.02.02h-.02z" class="cls-1"/>
</svg>
