<?xml version="1.0" encoding="UTF-8"?>
<svg xmlns="http://www.w3.org/2000/svg" viewBox="0 0 192 192">
	<path d="m114.97 39.81 4.33-7.48H72.67L77 39.81h14.62v25.32L96 72.72l4.38-7.59V39.81zM82.22 72.72h8.74L67.65 32.33l-23.3 40.39h8.73l14.57-25.24zM62.63 32.33H16l23.33 40.39 8.74-15.15 5.8-10.09H42.26l1.43 2.5-4.36 7.59-10.21-17.65h29.13zm76.26 40.39h8.76l-23.33-40.39-23.3 40.39h8.76l14.54-25.24zm32.73-32.8 4.38-7.57-46.63-.02 23.33 40.39 4.38-7.59-14.6-25.21z" style="fill:#000;stroke-width:0"/>
	<path d="m90.83 92.38 2.11.56c.71.18 1.2.82 1.2 1.55v63.01c0 .74-.48 1.38-1.2 1.55l-2.11.56c-.71.18-1.45-.13-1.81-.74l-18.01-31.3c-.15-.25-.2-.51-.2-.79v-1.55c0-.28.08-.56.2-.79l18.01-31.3c.38-.66 1.12-.97 1.81-.76m10.57 0-2.11.56c-.71.18-1.2.82-1.2 1.55v63.01c0 .74.48 1.38 1.2 1.55l2.11.56c.71.18 1.45-.13 1.81-.74l18.01-31.3c.15-.25.2-.51.2-.79v-1.55c0-.28-.08-.56-.2-.79l-18.01-31.3c-.36-.66-1.1-.97-1.81-.76M43.91 78.81l1.17-2.01c.28-.51.82-.82 1.4-.82h42.59c.59 0 1.1.31 1.4.82l1.17 2.01c.28.51.28 1.12 0 1.6l-21.29 36.88c-.28.51-.82.82-1.4.82h-2.32c-.59 0-1.1-.31-1.4-.82L43.94 80.41c-.33-.51-.33-1.12-.03-1.6m56.8 0 1.17-2.01c.28-.51.82-.82 1.4-.82h42.59c.59 0 1.1.31 1.4.82l1.17 2.01c.28.51.28 1.12 0 1.6l-21.29 36.88c-.28.51-.82.82-1.4.82h-2.32c-.59 0-1.1-.31-1.4-.82l-21.29-36.88c-.31-.51-.31-1.12-.03-1.6" style="fill:#5e2368;stroke-width:0"/>
</svg>
