<?xml version="1.0" encoding="UTF-8"?>
<svg id="logo" xmlns="http://www.w3.org/2000/svg" viewBox="0 0 192 192">
  <defs>
    <style>
      .cls-1 {
        fill: #000;
        stroke-width: 0px;
      }
    </style>
  </defs>
  <g>
    <g>
      <path class="cls-1" d="M72.86,83.83c0-1.65-1.34-2.99-2.99-2.99s-2.99,1.34-2.99,2.99,1.34,2.99,2.99,2.99,2.99-1.34,2.99-2.99Z"/>
      <path class="cls-1" d="M72.79,87.23c-.74,0-1.34.6-1.34,1.34s.6,1.34,1.34,1.34,1.34-.6,1.34-1.34c.02-.74-.58-1.34-1.34-1.34Z"/>
      <path class="cls-1" d="M32.62,84.98s16.12-13.2,35.59-17.06c16.37-3.24,27.67,3.91,27.67,3.91,0,0-9.06-11.3-29.39-5.91-17.51,4.66-33.87,19.06-33.87,19.06Z"/>
      <path class="cls-1" d="M74.99,61.9s-20.03-4.82-40.38,11.28c-20.37,16.11-26.61,44.87-26.61,44.87,0,0,6.92-22.74,29.87-40.11,17.14-12.99,37.12-16.04,37.12-16.04Z"/>
      <path class="cls-1" d="M58.96,107.77c-9.66,0-17.39-7.39-14.77-16.93,3.19-11.62,16.04-15.6,22.11-15.91,7.66-.4,17.62,3.7,16.93,14.13-.07,1.02-.25,2.02-.51,2.99h4.38c.14-.7.23-1.41.28-2.13.77-12-10.67-16.72-19.45-16.25-6.97.37-21.74,4.95-25.4,18.29-3.01,10.97,5.86,19.45,16.97,19.45,5.97,0,12.02-1.9,16.95-5.07l1.06-5.95c-4.73,4.51-11.71,7.38-18.55,7.38Z"/>
      <path class="cls-1" d="M50.1,117.61c-12.81-.44-18.34-4.73-18.34-4.73,0,0,13.36,16.04,43.46.39l.42-2.39c-8.94,5.03-18.89,6.97-25.54,6.74Z"/>
      <path class="cls-1" d="M96.34,75.7c-6-6.64-22.9-6.65-22.9-6.65,0,0,27.39.42,20.58,20.59-.28.83-.58,1.62-.92,2.41h4.1c2.87-6.72,2.31-12.85-.86-16.35Z"/>
      <path class="cls-1" d="M54.1,115.34s-19.93-.04-21.47-12.74c-1.21-10.07,9.31-22.5,9.31-22.5,0,0-14.52,12.29-13.41,23.66,1.14,11.6,25.79,11.6,25.58,11.58Z"/>
      <path class="cls-1" d="M119.42,66.72s-3.38,11.67-14.22,25.31h4.38c6.78-12.39,9.84-25.31,9.84-25.31Z"/>
      <path class="cls-1" d="M52.43,122.78s8.99,2.18,21.37-1.43l1-5.63c-12.66,5.58-23.57,7.23-22.37,7.06Z"/>
    </g>
    <g>
      <g>
        <path class="cls-1" d="M85.5,95.41h13.76c.6,0,1.16.25,1.67.76l.77.76c.51.51.7,1.13.56,1.88l-3.45,19.54c-.14.76-.55,1.37-1.23,1.88l-1.04.76c-.69.51-1.34.76-1.94.76h-13.76c-.6,0-1.16-.25-1.67-.76l-.77-.76c-.51-.49-.7-1.13-.56-1.88l3.45-19.56c.14-.76.55-1.37,1.23-1.88l1.04-.76c.69-.49,1.34-.74,1.94-.74ZM95.82,117.56l3.17-17.97c.07-.37.09-.62.07-.74-.02-.11-.12-.26-.32-.44s-.35-.28-.48-.32-.4-.05-.86-.05h-10.98c-.46,0-.74.02-.88.05s-.33.14-.58.32c-.26.18-.4.32-.48.44-.05.11-.12.35-.19.74l-3.17,17.97c-.07.37-.09.62-.07.74.02.11.12.26.32.44.19.18.35.28.48.32s.4.05.86.05h10.98c.46,0,.74-.02.88-.05.12-.04.33-.14.58-.32.26-.18.4-.32.48-.44.05-.11.12-.35.19-.74Z"/>
        <path class="cls-1" d="M106.64,95.41h13.91c.6,0,1.16.25,1.67.76l.77.76c.51.51.7,1.13.56,1.88l-1.55,8.8c-.14.77-.56,1.43-1.28,1.95l-1.07.79c-.63.46-1.25.67-1.85.67h-2.11l2.82,6.02c.19.42.35.7.44.81s.32.28.69.51l.37.23c.4.25.63.46.69.6.05.16.02.51-.09,1.09l-.26,1.46h-.93c-.46,0-.76-.02-.92-.07-.16-.05-.4-.21-.76-.49l-.63-.49c-.49-.37-.84-.86-1.09-1.46l-3.59-8.01h-5.42l-1.85,10.53h-3.15l4.65-26.33ZM109.33,98.05l-1.85,10.53h9.36c.46,0,.74-.02.88-.05.12-.04.33-.14.58-.32.26-.18.4-.32.48-.44.05-.11.12-.35.19-.74l1.32-7.45c.07-.37.09-.62.07-.74-.02-.11-.12-.26-.32-.44s-.35-.28-.48-.32-.4-.05-.86-.05h-9.38v.02Z"/>
        <path class="cls-1" d="M128.18,95.41h3.15l-4.65,26.31h-3.15l4.65-26.31Z"/>
        <path class="cls-1" d="M153.5,100.31h-3.15l.12-.72c.07-.37.09-.62.07-.74-.02-.11-.12-.26-.32-.44s-.35-.28-.48-.32-.4-.05-.86-.05h-9.26c-.46,0-.74.02-.88.05s-.33.14-.58.32c-.26.18-.4.32-.48.44-.05.11-.12.35-.19.74l-3.17,17.97c-.07.37-.09.62-.07.74.02.11.12.26.32.44s.35.28.48.32.4.05.86.05h9.26c.46,0,.74-.02.88-.05.12-.04.33-.14.58-.32.26-.18.4-.32.48-.44.05-.11.12-.35.19-.74l1.18-6.72h-5.72l.46-2.64h8.87l-1.78,10.16c-.14.76-.55,1.37-1.23,1.88l-1.04.76c-.69.51-1.34.76-1.94.76h-12.04c-.6,0-1.16-.25-1.67-.76l-.77-.76c-.51-.49-.7-1.13-.56-1.88l3.45-19.56c.14-.76.55-1.37,1.23-1.88l1.04-.76c.69-.49,1.34-.76,1.94-.76h12.04c.6,0,1.16.25,1.67.76l.77.76c.51.51.7,1.13.56,1.88l-.26,1.51Z"/>
        <path class="cls-1" d="M157.17,95.41h3.15l-4.65,26.33h-3.15l4.65-26.33Z"/>
        <path class="cls-1" d="M177.22,116.85l.12-.04c-.07-.6-.05-1.2.05-1.81l3.45-19.59h3.15l-4.65,26.31h-3.15l-10.03-21.14-.12.04c.07.6.05,1.2-.05,1.81l-3.4,19.29h-3.15l4.65-26.31h3.15l9.98,21.44Z"/>
      </g>
      <g>
        <path class="cls-1" d="M82.03,124.79h-1.07c-.19,0-.35.12-.39.32l-.92,4.29c-.05.02-.09.04-.09.04h-1.76l.04-.18c.02-.12,0-.25-.09-.33-.07-.09-.19-.14-.32-.14h-1.07c-.19,0-.35.12-.39.32l-.11.51c-.04.16-.05.55.44.81l.28.14c.25.12.49.19.77.19h2.34c.26,0,.53-.05.81-.18l.33-.14c.35-.16.56-.37.62-.65l.95-4.51c.02-.12,0-.25-.09-.33-.07-.11-.19-.16-.3-.16Z"/>
        <path class="cls-1" d="M134.8,124.79h-1.14c-.14,0-.26.07-.33.19l-2.45,3.93-.83-3.8c-.04-.18-.19-.32-.39-.32h-1.43c-.14,0-.26.07-.33.19l-2.46,3.93-.81-3.8c-.04-.18-.19-.32-.39-.32h-1.14c-.12,0-.25.05-.32.16-.07.11-.11.23-.07.33l1.32,5.17c.05.18.21.3.39.3h1.51c.14,0,.26-.07.33-.19l2.38-3.82.77,3.7c.04.18.19.32.39.32h1.48c.12,0,.26-.07.33-.18l3.5-5.17c.09-.12.09-.28.02-.4-.05-.12-.19-.21-.33-.21Z"/>
        <path class="cls-1" d="M145.68,125.14l-.28-.14c-.25-.12-.49-.19-.77-.19h-4.7c-.26,0-.53.05-.81.18l-.33.14c-.35.16-.56.37-.62.65l-.79,3.84c-.04.16-.05.55.44.81l.28.14c.25.12.49.19.77.19h4.66c.26,0,.53-.05.81-.18l.33-.14c.35-.16.56-.37.62-.65l.81-3.84c.04-.18.05-.56-.42-.81ZM143.48,129.42c-.05.02-.09.04-.09.04h-4.12l.7-3.31c.05-.02.09-.04.09-.04h4.12l-.7,3.31Z"/>
        <path class="cls-1" d="M156.79,125.14l-.28-.14c-.25-.12-.49-.19-.77-.19h-4.73c-.19,0-.35.12-.39.32l-1.09,5.17c-.02.12,0,.25.09.33.07.09.19.14.32.14h1.07c.19,0,.35-.12.39-.32l.37-1.76h1.34l1.25,1.43c.14.16.32.3.55.4l.23.09c.16.07.26.11.35.12.09.02.19.02.39.02h.32c.19,0,.35-.12.39-.32l.05-.28c.04-.16.05-.35-.05-.51-.09-.12-.23-.19-.44-.28l-.14-.05c-.09-.04-.12-.05-.16-.05l-.09-.09-.48-.53c.19-.02.4-.07.6-.16l.35-.16c.35-.16.56-.39.63-.67l.37-1.72c.04-.16.05-.55-.42-.79ZM155.03,127.34c-.05.02-.09.04-.09.04h-2.94l.26-1.27h3.03l-.26,1.23Z"/>
        <path class="cls-1" d="M93.97,124.79h-1.07c-.19,0-.35.12-.39.32l-.92,4.29c-.05.02-.09.04-.09.04h-3.78l.88-4.17c.02-.12,0-.25-.09-.33-.07-.09-.19-.14-.32-.14h-1.07c-.19,0-.35.12-.39.32l-.95,4.51c-.04.16-.05.55.44.81l.28.14c.25.12.49.19.77.19h4.37c.26,0,.53-.05.81-.18l.33-.14c.35-.16.56-.37.62-.65l.95-4.51c.02-.12,0-.25-.09-.33-.05-.11-.18-.16-.3-.16Z"/>
        <path class="cls-1" d="M108.28,124.79h-1.72c-.11,0-.23.05-.3.14l-3.36,3.82-1.69-3.71c-.07-.14-.21-.23-.37-.23h-1.74c-.19,0-.35.12-.39.32l-1.09,5.17c-.02.12,0,.25.09.33.07.09.19.14.32.14h1.07c.19,0,.35-.12.39-.32l.72-3.41c.07.18.16.37.25.56.16.35.35.79.6,1.32s.51,1.07.79,1.62c.07.14.21.23.35.23h.83c.11,0,.23-.05.3-.14l3.08-3.5-.67,3.17c-.02.12,0,.25.09.33.07.09.19.14.32.14h1.07c.19,0,.35-.12.39-.32l1.09-5.17c.02-.12,0-.25-.09-.33-.07-.11-.19-.16-.32-.16Z"/>
        <path class="cls-1" d="M119.21,125.14l-.28-.14c-.25-.12-.49-.19-.77-.19h-4.73c-.19,0-.35.12-.39.32l-1.09,5.17c-.02.12,0,.25.09.33.07.09.19.14.32.14h1.07c.19,0,.35-.12.39-.32l.37-1.76h3.34c.26,0,.53-.05.81-.18l.33-.14c.35-.16.56-.37.62-.65l.37-1.78c.02-.18.04-.56-.44-.81ZM117.45,127.34c-.05.02-.09.04-.09.04h-2.94l.26-1.27h3.01l-.25,1.23Z"/>
        <path class="cls-1" d="M168.16,124.79h-.28c-.18,0-.3,0-.39.02s-.19.05-.37.11l-.26.09c-.25.09-.46.21-.63.35l-2.2,1.71h-.76l.39-1.81c.02-.12,0-.25-.09-.33-.07-.09-.19-.14-.32-.14h-1.07c-.19,0-.35.12-.39.32l-1.09,5.17c-.02.12,0,.25.09.33.07.09.19.14.32.14h1.07c.19,0,.35-.12.39-.32l.44-2.04h.83l1.5,1.72c.11.12.18.19.23.23.05.05.16.09.3.16h.02l.23.09c.19.09.3.11.35.12.09.02.19.02.39.02h.35c.19,0,.35-.12.39-.32l.05-.28c.04-.16.05-.35-.05-.51-.09-.14-.23-.19-.44-.28l-.14-.05c-.11-.04-.16-.05-.18-.07l-.07-.07s0-.02-.02-.02l-1.2-1.36,1.76-1.37c.12-.11.18-.12.18-.12,0,0,.05-.02.23-.07l.14-.04c.25-.07.37-.12.46-.21.11-.09.16-.21.19-.42l.05-.28c.02-.12,0-.25-.09-.33-.05-.07-.18-.12-.3-.12Z"/>
        <path class="cls-1" d="M178.17,125.14l-.28-.14c-.25-.12-.49-.19-.77-.19h-3.41c-.26,0-.53.05-.81.18l-.33.14c-.35.16-.56.37-.62.65l-.32,1.53c-.04.14-.05.49.4.74l.3.16c.25.12.51.19.77.19h3.2l-.21,1.02c-.05.02-.09.04-.09.04h-3.08c.02-.11-.02-.21-.09-.3s-.19-.14-.32-.14h-1.07c-.19,0-.35.12-.39.32l-.07.3c-.04.16-.05.55.44.81l.28.14c.25.12.49.19.77.19h3.66c.26,0,.53-.05.81-.18l.33-.14c.35-.16.56-.37.62-.65l.33-1.55c.04-.16.05-.55-.42-.81l-.28-.14c-.25-.12-.49-.19-.77-.19h-3.2l.19-.93c.05-.02.09-.04.09-.04h2.83c-.02.11.02.21.09.3s.19.14.32.14h1.07c.19,0,.35-.12.39-.32l.07-.3c.04-.19.05-.58-.44-.83Z"/>
      </g>
    </g>
  </g>
</svg>