<?xml version="1.0" encoding="UTF-8"?>
<svg xmlns="http://www.w3.org/2000/svg" xml:space="preserve" style="fill-rule:evenodd;clip-rule:evenodd;stroke-linejoin:round;stroke-miterlimit:2" viewBox="0 0 800 800">
	<path d="M0 0h192v192H0z" style="fill:none" transform="scale(4.16667)"/>
	<path d="M42.52 42.52h130.345v130.345H42.52zm427.035 0H599.9v130.345H469.555zm142.345 0h130.346v130.345H611.9z" style="fill:#bc0000;fill-rule:nonzero" transform="translate(20.793 284.28)scale(.29492)"/>
	<path d="M42.52 184.865h130.345V315.21H42.52zm569.38 0h130.346V315.21H611.9z" style="fill:#007bed;fill-rule:nonzero" transform="translate(20.793 284.28)scale(.29492)"/>
	<path d="M327.21 327.21h130.345v130.345H327.21z" style="fill:#bc0000;fill-rule:nonzero" transform="translate(20.793 284.28)scale(.29492)"/>
	<path d="M611.9 469.555h130.346v130.346H611.9zM327.21 611.9h130.345v130.346H327.21zm142.345 0H599.9v130.346H469.555zm142.345 0h130.346v130.346H611.9zm-569.38 0h130.345v130.346H42.52zM611.9 327.21h130.346v130.345H611.9zm-569.38 0h130.345v130.345H42.52zm284.69 142.345h130.345v130.346H327.21z" style="fill:#007bed;fill-rule:nonzero" transform="translate(20.793 284.28)scale(.29492)"/>
	<path d="M327.21 42.52h130.345v130.345H327.21zm-142.345 0H315.21v130.345H184.865zM327.21 184.865h130.345V315.21H327.21z" style="fill:#bc0000;fill-rule:nonzero" transform="translate(20.793 284.28)scale(.29492)"/>
	<path d="M42.52 469.555h130.345v130.346H42.52zM184.865 611.9H315.21v130.346H184.865z" style="fill:#007bed;fill-rule:nonzero" transform="translate(20.793 284.28)scale(.29492)"/>
	<path d="M1146.818 464.913q17.916 0 30.287-12.37t12.37-30.287V255.041h67.825v167.215q0 22.608-8.958 42.657-8.532 20.05-23.462 34.979-14.93 14.93-34.978 23.888-20.05 8.53-43.084 8.53-21.328 0-41.377-7.677-19.622-8.105-34.979-23.035-15.356 14.93-34.978 23.035-19.623 7.678-41.378 7.678-22.608 0-42.656-8.532-20.05-8.958-34.98-23.887t-23.887-34.98q-8.53-20.048-8.531-42.656V255.041h67.824v167.215q0 17.916 11.944 30.286 12.37 12.37 30.286 12.37t30.287-12.37q12.37-12.37 12.37-30.286V255.041h67.825v167.215q0 8.958 3.412 16.636t8.958 13.65q5.971 5.546 13.65 8.958t16.21 3.413m373.135-209.446v67.825h-111.761q-17.062 0-31.14 9.385-13.65 9.384-21.328 23.887h113.467v67.825h-113.467q7.678 14.93 21.328 24.314 14.078 8.958 31.14 8.958h111.76v67.825h-111.76q-27.727 0-51.188-11.091t-40.525-29.433q-17.062-18.77-26.873-43.084t-9.812-51.188 9.812-51.188q9.81-24.74 26.873-43.084 17.063-18.77 40.525-29.86 23.46-11.09 51.188-11.09zm99.511 0v270.019h-67.825V255.467zm184.644 101.097v67.825h-153.565v-67.825zm209.512-101.097v66.972h-60.573v203.047h-66.971V322.439h-60.573v-66.972zm246.164 0v67.825h-111.761q-17.062 0-31.14 9.385-13.65 9.384-21.328 23.887h113.467v67.825h-113.467q7.678 14.93 21.328 24.314 14.078 8.958 31.14 8.958h111.76v67.825h-111.76q-27.727 0-51.189-11.091-23.46-11.09-40.524-29.433-17.062-18.77-26.873-43.084t-9.812-51.188 9.812-51.188q9.81-24.74 26.873-43.084 17.063-18.77 40.524-29.86t51.189-11.09h111.76zm17.183.853h67.824v269.592h-67.824zm162.522 126.692a2581 2581 0 0 1 8.532 25.167 864 864 0 0 0 8.958 24.741q4.265 11.518 10.237 18.77 5.972 6.824 18.77 6.824h43.083v67.398h-43.084q-15.356 0-29.86-5.545a108.1 108.1 0 0 1-26.873-14.93 117.2 117.2 0 0 1-21.755-22.608q-8.958-12.796-14.077-26.874l-31.566-90.433 82.754-109.201h84.46z" style="fill:gray;fill-rule:nonzero" transform="translate(20.793 284.28)scale(.29492)"/>
</svg>
