<?xml version="1.0" encoding="UTF-8"?>
<svg id="logo" xmlns="http://www.w3.org/2000/svg" viewBox="0 0 192 192">
  <defs>
    <style>
      .cls-1 {
        fill: #36404f;
      }

      .cls-1, .cls-2 {
        stroke-width: 0px;
      }

      .cls-2 {
        fill: #1772d5;
      }
    </style>
  </defs>
  <g>
    <g>
      <g>
        <path class="cls-1" d="M46.44,160.42c0,2.37-.65,4.28-1.96,5.74-1.16,1.33-2.49,2-4,2s-2.84-.62-4.04-1.85c-1.35-1.4-2.04-3.31-2.04-5.74v-24.9c0-2.47.6-4.45,1.76-5.96,1.18-1.51,2.62-2.26,4.32-2.26s3.01.71,4.15,2.15c1.2,1.53,1.81,3.46,1.81,5.81v5.85h-3.89v-5.35c0-.9-.17-1.68-.54-2.34-.37-.67-.86-.99-1.51-.99-.52,0-1.01.3-1.48.9s-.71,1.25-.71,1.96v24.8c0,.9.24,1.59.73,2.11.49.49.97.75,1.46.75.56,0,1.03-.26,1.44-.8.41-.54.6-1.25.6-2.15v-6.19h3.89v6.47h0Z"/>
        <path class="cls-1" d="M63.49,167.45h-4.13l-3.42-16.99h-2.24v16.99h-3.89v-39.55h7.2c3.63,0,5.44,3.83,5.44,11.44,0,2.6-.11,4.47-.3,5.59-.41,2-1.23,3.38-2.49,4.15l3.83,18.37ZM58.55,139.34c0-4.22-.77-6.32-2.32-6.32h-2.52v12.26h2.82c1.33.02,2.02-1.96,2.02-5.94Z"/>
        <path class="cls-1" d="M78.78,160.2c0,2.32-.6,4.24-1.81,5.72-1.2,1.48-2.65,2.22-4.34,2.22s-3.25-.75-4.43-2.26-1.76-3.57-1.76-6.19v-31.78h3.89v31.4c0,.9.19,1.72.58,2.45.43.86.99,1.29,1.72,1.29.56,0,1.08-.34,1.55-1.03s.71-1.4.71-2.13v-31.98h3.89v32.3Z"/>
        <path class="cls-1" d="M94.35,158.12c0,3.08-.49,5.46-1.51,7.2-1.1,1.89-2.69,2.86-4.8,2.86-1.63,0-3.05-.73-4.24-2.19-1.29-1.57-1.96-3.59-1.96-6.04v-4.95h3.89c.04,1.57.06,3.14.11,4.69.26,2.26,1.01,3.4,2.26,3.4,1.57,0,2.34-1.57,2.34-4.71,0-2.19-.73-4.43-2.19-6.71-1.35-2-2.71-4-4.06-6-1.46-2.56-2.19-5.33-2.19-8.3s.45-5.12,1.35-6.84c1.1-2.04,2.69-3.05,4.75-3.05,1.87,0,3.35.86,4.45,2.6.99,1.59,1.51,3.59,1.51,6v3.96h-3.85c-.04-1.46-.04-2.92-.04-4.34-.13-2.06-.82-3.1-2.04-3.1-1.46,0-2.19,1.57-2.19,4.71,0,1.89.75,3.91,2.24,6.04,1.33,2,2.67,3.98,4.02,5.96,1.42,2.67,2.15,5.61,2.15,8.82Z"/>
        <path class="cls-1" d="M111.11,167.45h-3.83c-.19-2-.6-4.97-1.2-8.9h-4.92c-.3,1.94-.65,4.9-1.05,8.9h-3.72l4.65-39.55h5.14l4.95,39.55ZM105.49,153.22l-1.85-17.25-1.87,17.25h3.72Z"/>
        <path class="cls-1" d="M126.4,159.11c0,2.32-.6,4.32-1.83,5.96-1.23,1.63-2.67,2.45-4.37,2.45h-6.15v-39.61h6.45c1.53-.02,2.9.82,4.11,2.56,1.2,1.74,1.81,3.68,1.81,5.81v22.84h-.02ZM122.48,158.23v-21.31c0-.56-.19-1.29-.6-2.15-.43-1.03-.9-1.55-1.44-1.55h-2.49v29.1h1.78c.75.04,1.4-.37,1.96-1.18.54-.82.8-1.78.8-2.9Z"/>
        <path class="cls-1" d="M140.98,167.45h-10.84v-39.55h10.69v5.05h-6.8v11.44h5.74v5.2h-5.74v12.65h6.95v5.2Z"/>
        <path class="cls-1" d="M157.6,167.45h-4.13l-3.42-16.99h-2.24v16.99h-3.89v-39.55h7.18c3.63,0,5.44,3.83,5.44,11.44,0,2.6-.11,4.47-.3,5.59-.41,2-1.23,3.38-2.49,4.15l3.85,18.37ZM152.66,139.34c0-4.22-.77-6.32-2.32-6.32h-2.52v12.26h2.82c1.35.02,2.02-1.96,2.02-5.94Z"/>
      </g>
      <g>
        <path class="cls-1" d="M34.4,171.97h.92v6.86h-.92v-6.86Z"/>
        <path class="cls-1" d="M44.81,171.97h1.23l3.76,5.63h.02v-5.63h.92v6.86h-1.18l-3.81-5.63h-.02v5.63h-.92v-6.86Z"/>
        <path class="cls-1" d="M60.05,171.97h2.39c.47,0,.9.06,1.27.17.37.11.69.26.95.45.26.19.49.39.67.65.17.24.32.47.43.73s.17.49.22.75.06.49.06.69c0,.43-.09.86-.24,1.27s-.41.77-.71,1.1c-.32.32-.71.58-1.16.77-.47.19-1.01.3-1.61.3h-2.24v-6.88h-.02ZM60.98,177.95h1.16c.39,0,.77-.06,1.12-.15.34-.11.67-.26.92-.47.26-.22.47-.47.62-.8.15-.32.24-.69.24-1.12,0-.22-.04-.47-.11-.77-.06-.3-.22-.58-.41-.84s-.47-.49-.82-.67c-.34-.17-.8-.28-1.35-.28h-1.4v5.1h.02Z"/>
        <path class="cls-1" d="M75.88,171.97v4.19c0,.22.02.43.09.67s.15.43.28.62c.13.19.32.34.54.47.22.13.49.19.82.19s.58-.06.82-.19c.22-.13.39-.28.54-.47.13-.19.24-.41.28-.62.06-.24.09-.45.09-.67v-4.19h.92v4.34c0,.41-.06.75-.19,1.1-.13.32-.32.6-.56.84-.24.24-.52.43-.84.56s-.67.19-1.05.19c-.37,0-.71-.06-1.03-.19-.32-.13-.6-.32-.84-.56s-.43-.52-.56-.84-.19-.69-.19-1.1v-4.34h.9Z"/>
        <path class="cls-1" d="M89.82,177.39c.17.26.39.43.65.56s.54.17.82.17c.15,0,.3-.02.47-.06.15-.04.3-.13.43-.22s.24-.22.32-.37.13-.3.13-.49c0-.26-.09-.47-.26-.6-.17-.13-.37-.26-.62-.34-.26-.09-.52-.17-.82-.28-.3-.09-.56-.22-.82-.37-.24-.15-.45-.37-.62-.62s-.26-.62-.26-1.05c0-.19.04-.41.13-.65s.22-.43.41-.62.43-.34.71-.47c.3-.13.65-.19,1.05-.19.37,0,.73.04,1.08.15s.65.32.9.62l-.75.69c-.11-.17-.28-.32-.49-.43s-.45-.17-.73-.17c-.26,0-.47.04-.65.11s-.3.15-.41.26-.17.22-.22.34-.06.24-.06.34c0,.28.09.52.26.67.17.15.37.28.62.39.26.09.52.19.82.26.3.09.56.19.82.32.24.13.45.32.62.56s.26.56.26.97c0,.32-.06.62-.19.88-.13.26-.3.49-.52.67s-.47.32-.75.41c-.3.09-.6.15-.92.15-.43,0-.86-.09-1.25-.24-.39-.15-.71-.39-.95-.71l.8-.62Z"/>
        <path class="cls-1" d="M104.14,172.85h-2.19v-.88h5.33v.88h-2.19v5.98h-.92v-5.98h-.02Z"/>
        <path class="cls-1" d="M115.97,171.97h2.41c.43,0,.8.06,1.08.17s.52.28.67.45c.17.19.28.39.34.62.06.24.11.45.11.67s-.04.43-.11.62c-.09.19-.19.39-.32.56-.15.17-.32.3-.54.41s-.45.17-.69.22l1.94,3.14h-1.18l-1.74-3.03h-1.03v3.03h-.92v-6.86h0ZM116.89,175h1.23c.17,0,.37-.02.54-.04.17-.02.34-.09.47-.17.13-.09.26-.19.32-.32.09-.15.13-.34.13-.56,0-.24-.04-.43-.13-.56-.09-.15-.19-.26-.32-.34-.13-.09-.3-.13-.47-.15-.17-.02-.37-.04-.54-.04h-1.23v2.19Z"/>
        <path class="cls-1" d="M129.6,171.97h.92v6.86h-.92v-6.86Z"/>
        <path class="cls-1" d="M140.01,171.97h4.41v.88h-3.48v2.04h3.25v.88h-3.25v2.19h3.66v.88h-4.58v-6.88h0Z"/>
        <path class="cls-1" d="M153.84,177.39c.17.26.39.43.65.56s.54.17.8.17c.15,0,.3-.02.47-.06s.3-.13.43-.22.24-.22.32-.37.13-.3.13-.49c0-.26-.09-.47-.26-.6s-.37-.26-.62-.34c-.24-.09-.52-.17-.82-.28-.3-.09-.56-.22-.82-.37-.24-.15-.45-.37-.62-.62-.17-.26-.26-.62-.26-1.05,0-.19.04-.41.13-.65.09-.24.22-.43.41-.62s.43-.34.71-.47c.3-.13.65-.19,1.05-.19.37,0,.73.04,1.08.15s.65.32.9.62l-.75.69c-.11-.17-.28-.32-.49-.43s-.45-.17-.73-.17c-.26,0-.47.04-.65.11s-.3.15-.41.26-.17.22-.22.34-.06.24-.06.34c0,.28.09.52.26.67.17.15.37.28.62.39.26.09.52.19.82.26.3.09.56.19.82.32.24.13.45.32.62.56.17.24.26.56.26.97,0,.32-.06.62-.19.88-.13.26-.3.49-.52.67s-.47.32-.75.41-.6.15-.92.15c-.43,0-.86-.09-1.25-.24-.39-.15-.71-.39-.95-.71l.82-.62Z"/>
      </g>
    </g>
    <g>
      <path class="cls-1" d="M96.96,56.59c-2.54,0-4.99.3-7.35.84v43.29c2.13,1.33,4.65,2.13,7.35,2.13,2.28,0,4.45-.56,6.41-1.59v-43.98c-2.06-.43-4.22-.69-6.41-.69Z"/>
      <path class="cls-1" d="M120.25,44.46h-20v-21.63c1.16-1.03,1.87-2.54,1.87-4.19,0-3.12-2.52-5.63-5.63-5.63s-5.63,2.54-5.63,5.63c0,1.68.73,3.16,1.87,4.19v21.66h-20l9.51,5.94h7.38v2.65c2.37-.49,4.84-.73,7.35-.73,2.17,0,4.32.19,6.41.56v-2.47h7.38l9.51-5.96Z"/>
    </g>
    <g>
      <path class="cls-2" d="M96.94,107.22c-10.02,0-18.15-8.15-18.15-18.15,0-5.59,2.54-10.58,6.52-13.91v-16.19c-12.06,4.67-20.65,16.39-20.65,30.11,0,17.83,14.45,32.28,32.28,32.28,15.25,0,28.02-10.56,31.4-24.77h-14.86c-2.86,6.28-9.2,10.65-16.54,10.65Z"/>
      <path class="cls-2" d="M107.58,58.59v15.78c2.52,1.83,4.56,4.3,5.87,7.16h14.88c-2.56-10.71-10.47-19.35-20.75-22.95Z"/>
    </g>
  </g>
</svg>