<?xml version="1.0" encoding="UTF-8"?>
<svg id="logo" xmlns="http://www.w3.org/2000/svg" viewBox="0 0 192 192">
  <defs>
    <style>
      .cls-1 {
        fill: #000;
      }

      .cls-1, .cls-2 {
        stroke-width: 0px;
      }

      .cls-2 {
        fill: #8eb82c;
      }
    </style>
  </defs>
  <g>
    <path class="cls-2" d="M96.28,10l-28.2,84.93h0l27.64,41.78,28.2-41.78h0L96.28,10ZM95.96,73.73c11.61,0,21.05,9.42,21.05,21.05h-42.1c0-11.63,9.44-21.05,21.05-21.05Z"/>
    <g>
      <path class="cls-1" d="M48.25,147.68c-.88,0-1.75.06-2.59.15-11.16,1.29-19.87,10.79-19.87,22.3h5.08c0-8.7,6.42-15.92,14.78-17.19v12.02h-8.36l-3.45,5.17h16.98v-22.3c-.84-.09-1.7-.15-2.59-.15Z"/>
      <path class="cls-1" d="M89,147.83h0c-.84-.11-1.7-.15-2.59-.15s-1.75.06-2.59.15v29.47l5.17,4.7v-29.04c6.64.99,12.04,5.75,14,12h-8.86l-3.45,5.17h18.16c0-11.48-8.7-21.01-19.87-22.3Z"/>
      <path class="cls-1" d="M119.08,170.15c-2.37-1.72-3.9-4.5-3.9-7.65,0-5.21,4.24-9.46,9.46-9.46s9.46,4.24,9.46,9.46c0,3.15-1.53,5.93-3.9,7.65h7.13c1.34-2.24,2.11-4.85,2.11-7.65,0-8.19-6.64-14.8-14.8-14.8s-14.8,6.64-14.8,14.8c0,2.8.78,5.41,2.11,7.65h7.13Z"/>
      <path class="cls-1" d="M62.73,170.17c-2.89-1.62-4.85-4.72-4.85-8.25,0-5.21,4.24-9.46,9.46-9.46s9.46,4.24,9.46,9.46c0,3.56-1.96,6.64-4.85,8.25h7.67c1.59-2.35,2.52-5.19,2.52-8.25,0-8.19-6.64-14.8-14.8-14.8s-14.8,6.64-14.8,14.8c0,3.06.93,5.9,2.52,8.25h7.67Z"/>
      <path class="cls-1" d="M146.33,147.83h0c-.84-.11-1.7-.15-2.59-.15s-1.75.06-2.59.15v22.3h5.17v-17.19h0c6.64.99,12.04,5.75,14,12h-9.11l-3.45,5.17h18.42c0-11.46-8.7-20.99-19.87-22.28Z"/>
    </g>
  </g>
</svg>