<?xml version="1.0" encoding="UTF-8"?>
<svg xmlns="http://www.w3.org/2000/svg" xml:space="preserve" style="fill-rule:evenodd;clip-rule:evenodd;stroke-linejoin:round;stroke-miterlimit:2" viewBox="0 0 800 800">
	<path d="M0 0h192v192H0z" style="fill:none" transform="scale(4.16667)"/>
	<path d="m1060.065 28.346-26.441 71.332-71.008 191.559c-268.53 36.253-495.11 218.284-588.404 472.57H28.346l300.63 251.881c.416 188.845 74.052 369.856 204.777 505.526l-164.926 469.658 460.32-283.334c74.37 25.065 152.277 38.158 230.817 38.441h.19c78.579-.247 156.528-13.318 230.943-38.373l460.209 283.266-164.826-469.377c130.754-135.755 204.358-316.876 204.676-505.803l300.63-251.885H1745.69c-93.126-254.491-319.727-436.765-588.38-473.123z" style="fill:#ffd65b;fill-rule:nonzero" transform="translate(74.633 90.12)scale(.30693)"/>
	<path d="m1060.065 109.48-76.931 207.538C711.35 347.106 481.68 532.08 394.364 791.208H105.509l252.263 211.303a698 698 0 0 0-.619 12.357c.211 187.656 75.45 367.437 208.961 499.306l-144.322 410.983 403.79-248.54a703 703 0 0 0 234.483 41.163 702.9 702.9 0 0 0 234.602-41.09l403.673 248.467-144.22-410.697c133.543-131.957 208.75-311.852 208.857-499.592a704 704 0 0 0-.441-12.494l252.088-211.166H1725.52c-87.135-259.332-316.822-444.557-588.73-474.75z" style="fill-rule:nonzero" transform="translate(74.633 90.12)scale(.30693)"/>
	<circle cx="1060.066" cy="1014.867" r="672.16" style="fill:#ffd65b" transform="translate(74.633 90.12)scale(.30693)"/>
	<circle cx="1060.066" cy="1014.867" r="452.5" style="fill:#d82e00" transform="translate(74.633 90.12)scale(.30693)"/>
	<path d="m1207.951 563.746-108.735 387.401h190.918L927.349 1468.18l91.963-362.149H829.998z" style="fill:#ffd65b;fill-rule:nonzero" transform="translate(74.633 90.12)scale(.30693)"/>
	<path d="M1060.065 358.817c-359.898.001-656.049 296.152-656.05 656.05v.001c0 359.899 296.151 656.05 656.05 656.051h.002c359.899 0 656.051-296.152 656.051-656.051-.001-359.899-296.152-656.05-656.051-656.05zm0 188.457c256.514 0 467.593 211.079 467.593 467.593v.001c-.001 256.514-211.079 467.592-467.593 467.592h-.001c-256.513-.001-467.591-211.079-467.592-467.592v-.001c0-256.514 211.078-467.592 467.592-467.593" style="fill:#d8a200;fill-rule:nonzero" transform="translate(74.633 90.12)scale(.30693)"/>
	<path d="m1615.69 884.595 20.944 53.722h55.934l-42.83 34.85 16.222 54.873-50.27-32.845-50.268 32.845 16.222-54.873-42.83-34.85h55.934zm-1112.63 0 20.943 53.722h55.934l-42.83 34.85 16.222 54.873-50.27-32.845-50.268 32.845 16.222-54.873-42.83-34.85h55.934z" style="fill:#d82e00;fill-rule:nonzero" transform="translate(74.633 90.12)scale(.30693)"/>
	<path d="m549.265 434.126 3.298-12.565 18.283 19.744 13.942 3.631-3.006 11.521-13.941-3.631-25.672 8.515 3.465-13.232 13.733-3.757.042-.209zm-2.504-136.562c-1.67-2.379-3.548-3.714-5.635-4.048s-4.3.292-6.637 1.92l-2.922 2.045c-2.296 1.628-3.673 3.465-4.09 5.552-.418 2.087.208 4.34 1.878 6.678 1.127 1.628 2.505 2.755 4.09 3.381 1.587.626 2.964.501 4.175-.334l-4.968-7.096 6.387-4.466 11.687 16.697-17.49 12.23-3.63-5.176 2.379-3.173c-4.425-1.168-8.223-4.048-11.48-8.64-3.631-5.176-5.008-10.018-4.09-14.526q1.314-6.762 9.392-12.397c5.301-3.715 10.352-5.051 15.194-4.007 4.8 1.043 9.141 4.3 12.94 9.767 2.087 3.006 3.548 6.01 4.299 9.058s.751 5.886-.042 8.515q-1.189 4.008-5.009 6.637l-6.72-9.6c1.294-.919 1.962-2.212 1.962-3.924.041-1.795-.543-3.465-1.67-5.093m-39.612-3.339-8.39-6.637-1.044-24.502-11.52 14.526-8.85-7.012 23.75-29.929 8.39 6.637.877 24.71 11.688-14.734 8.85 7.013zm-53.305-35.188-10.393-2.546-11.145-21.831-4.425 17.99-10.936-2.67 9.1-37.109 10.394 2.546 11.103 22.123 4.508-18.283 10.936 2.672zm16.989 9.058-11.02-5.426 16.823-34.27 11.02 5.426zm29.512 295.555-9.977 6.51-20.286-31.055 17.406-11.395c1.92-1.252 3.924-1.92 6.01-2.045 2.088-.084 4.05.375 5.928 1.335 1.837 1.002 3.423 2.463 4.675 4.383l.376.584c1.252 1.92 1.962 3.966 2.17 6.053.168 2.129-.208 4.09-1.126 5.97-.919 1.877-2.338 3.422-4.258 4.674l-7.43 4.884zm-6.22-25.421c-.626-.96-1.377-1.545-2.254-1.711q-1.314-.25-2.88.75l-4.09 2.672 4.173 6.428 4.09-2.671c1.044-.668 1.67-1.461 1.838-2.38.167-.876-.042-1.794-.668-2.713zm66.787-35.146-5.427 9.517-32.224-18.367 5.134-9.058 23.584-4.508-15.862-9.058 5.426-9.517 32.225 18.367-5.134 9.058-23.376 4.633zm-99.721 79.267-8.89 2.838-14.151-21.79-.209.084c.125.292.46.96.96 2.046q.75 1.627 1.753 4.007a61 61 0 0 1 1.753 4.8l4.05 12.731-10.436 3.298-11.229-35.355 16.03-5.093 11.812 18.7.209-.083-1.169-22.081 15.444-4.926 11.229 35.355-11.27 3.59-4.05-12.73c-.5-1.587-.96-3.215-1.377-4.927s-.71-3.13-.96-4.299c-.208-1.169-.375-1.92-.417-2.254l-.209.084zm-176.65-326.026c1.127-4.8 4.425-9.058 9.935-12.815 3.047-2.045 6.052-3.464 9.1-4.174 3.046-.71 5.885-.668 8.514.167 2.63.835 4.843 2.546 6.596 5.093l-9.684 6.595c-.877-1.336-2.213-2.004-3.924-2.004-1.711-.041-3.381.543-5.05 1.628-2.38 1.628-3.758 3.465-4.133 5.594-.376 2.086.25 4.299 1.836 6.636l2.004 2.922q2.38 3.507 5.51 4.133c2.087.459 4.341-.167 6.72-1.754 1.67-1.127 2.797-2.462 3.423-4.048.626-1.587.543-2.964-.292-4.175l-7.18 4.843-4.34-6.429 16.863-11.437 11.98 17.657-5.218 3.548-3.13-2.421c-1.211 4.424-4.175 8.18-8.808 11.353-5.26 3.549-10.102 4.842-14.61 3.882s-8.598-4.132-12.272-9.558c-3.673-5.343-4.925-10.436-3.84-15.236m-19.159 58.146 10.686-16.405 8.181 5.343-17.406 26.715-32.016-20.87 6.679-10.27zm3.005 164.82q4.822 8.265 3.256 15.277c-1.085 4.675-4.3 8.557-9.684 11.73s-10.394 4.048-14.985 2.713c-4.592-1.378-8.474-4.8-11.73-10.31-3.213-5.51-4.299-10.603-3.255-15.236 1.043-4.633 4.299-8.557 9.725-11.73 5.427-3.172 10.436-4.09 14.986-2.713 4.55 1.294 8.473 4.76 11.687 10.269m-12.606.626c-2.003-.376-4.132.125-6.386 1.42l-2.964 1.752q-3.381 2.004-4.383 4.884c-.668 1.92-.334 4.007.919 6.178 1.294 2.212 2.922 3.506 4.967 3.882 2.003.375 4.132-.084 6.428-1.42l2.964-1.753q3.381-2.002 4.383-4.884c.668-1.961.334-4.007-.96-6.219-1.336-2.17-2.964-3.464-4.968-3.84m81.605-257.403 4.174 13.316 12.856-4.007-4.174-13.316 11.73-3.673 11.395 36.44-11.73 3.674-4.34-13.817-12.857 4.007 4.341 13.817-11.73 3.673-11.394-36.44zM535.574 527.71l-9.1 9.267 2.63 4.8-8.557 8.682-16.947-35.647 9.726-9.851 35.898 16.362-8.85 8.975zm-19.952-10.394 6.637 12.063 5.635-5.718-12.105-6.512zm-284.468-48.963c-1.879.501-3.673.501-5.343-.041a10 10 0 0 1-4.383-2.838c-1.252-1.378-2.129-3.006-2.63-4.926l-6.595-24.127 35.773-9.767 6.511 23.834q.752 2.692.25 5.26c-.333 1.711-1.043 3.214-2.17 4.466s-2.504 2.087-4.174 2.546c-4.383 1.21-7.722-.042-9.934-3.715l-.209.042c.209 4.842-2.17 7.93-7.096 9.266m9.517-16.78c.668.376 1.419.418 2.212.209l.501-.125c.751-.209 1.336-.626 1.753-1.294.376-.668.501-1.377.292-2.087l-2.17-7.89-6.094 1.67 2.17 7.89c.209.709.668 1.252 1.336 1.627m-10.853-7.597-6.136 1.67 2.38 8.766c.208.751.667 1.336 1.335 1.67.668.375 1.42.417 2.212.208l.501-.125a3.03 3.03 0 0 0 1.795-1.294c.418-.668.501-1.336.293-2.129zM412.52 211.535l.293 9.768-12.481.376.877 28.425-12.272.376-.877-28.426-12.523.376-.292-9.768zM268.429 265.59l27.633 26.381-8.474 8.891-27.633-26.38zm114.789 308.703c-.125-6.302 1.503-11.103 4.926-14.4 3.38-3.34 8.306-5.051 14.693-5.176 6.386-.126 11.353 1.419 14.901 4.591 3.548 3.214 5.385 7.931 5.51 14.192s-1.502 11.062-4.925 14.401-8.307 5.092-14.735 5.218c-6.386.125-11.354-1.378-14.902-4.592-3.506-3.214-5.343-7.93-5.468-14.234m27.883 1.17-.083-3.465c-.042-2.63-.751-4.675-2.129-6.22-1.378-1.503-3.34-2.254-5.885-2.212-2.547.042-4.467.876-5.76 2.42-1.295 1.587-1.92 3.674-1.88 6.304l.084 3.464c.042 2.63.752 4.675 2.13 6.22 1.376 1.503 3.297 2.254 5.885 2.212 2.546-.041 4.466-.876 5.802-2.42 1.252-1.587 1.92-3.674 1.836-6.304m-44.913-13.274c-.793-1.503-2.213-2.504-4.258-2.963-2.338-.585-4.258-.25-5.677.918-1.46 1.21-2.505 3.089-3.13 5.719l-.836 3.339c-.626 2.588-.584 4.759.167 6.512.752 1.753 2.255 2.921 4.509 3.464s4.048.376 5.51-.5c1.419-.877 2.42-2.338 2.922-4.467l10.685 2.63c-1.21 4.925-3.631 8.306-7.305 10.184s-8.264 2.13-13.774.794c-6.136-1.503-10.394-4.216-12.815-8.14-2.38-3.924-2.838-8.933-1.335-15.069q2.253-9.204 8.14-12.772c3.923-2.38 8.974-2.797 15.11-1.294 5.342 1.294 9.224 3.673 11.687 7.096s3.089 7.638 1.878 12.564l-11.06-2.713c.541-2.046.375-3.84-.418-5.302m-72.004-35.021 5.3-7.889 30.054 20.245-5.3 7.889-10.06-6.762-15.403 22.874-9.893-6.637 15.403-22.874zm-13.692-28.092 8.307 8.557-19.786 19.243 13.274 13.65-6.804 6.595-21.538-22.207z"/>
</svg>
