<?xml version="1.0" encoding="UTF-8"?>
<svg xmlns="http://www.w3.org/2000/svg" xml:space="preserve" style="fill-rule:evenodd;clip-rule:evenodd;stroke-linejoin:round;stroke-miterlimit:2" viewBox="0 0 800 800">
	<path d="M0 0h192v192H0z" style="fill:none" transform="scale(4.16667)"/>
	<path d="M346.365 82.564c-113.449.001-206.804 93.355-206.805 206.805 0 113.45 93.355 206.805 206.805 206.806h.001c113.45 0 206.806-93.355 206.806-206.806-.001-113.451-93.357-206.805-206.807-206.805m0 28.68c97.717 0 178.125 80.408 178.125 178.125 0 97.716-80.408 178.125-178.125 178.125-97.716 0-178.125-80.409-178.125-178.125 0-97.717 80.409-178.125 178.125-178.125" style="fill:#4d4d4d;fill-rule:nonzero" transform="translate(74.296 84.231)scale(.94082)"/>
	<ellipse cx="504.191" cy="32.399" rx="278.288" ry="67.389" style="fill:#999" transform="rotate(-45 830.769 283.033)scale(.94082)"/>
	<path d="M657.715-333.607c0 36.968-125.624 67.389-278.288 67.389s-278.288-30.421-278.288-67.389 125.623-67.389 278.288-67.389c152.664 0 278.288 30.421 278.288 67.389" style="fill:#999;fill-rule:nonzero" transform="translate(43.192 670.34)scale(.94082)"/>
	<ellipse cx="333.607" cy="379.427" rx="278.288" ry="67.389" style="fill:#999" transform="rotate(-90 356.766 313.574)scale(.94082)"/>
	<ellipse cx="32.399" cy="-504.191" rx="278.288" ry="67.389" style="fill:#999" transform="rotate(45 -787.577 387.308)scale(.94082)"/>
	<g transform="translate(43.192 670.34)scale(.94082)">
		<ellipse cx="379.427" cy="-333.607" rx="247.398" ry="42.644" style="fill:#4d4d4d"/>
		<ellipse cx="504.191" cy="32.399" rx="247.398" ry="42.644" style="fill:#4d4d4d" transform="rotate(-45)"/>
		<ellipse cx="-333.607" cy="-379.427" rx="247.398" ry="42.644" style="fill:#4d4d4d" transform="rotate(90)"/>
		<ellipse cx="32.399" cy="-504.191" rx="247.398" ry="42.644" style="fill:#4d4d4d" transform="rotate(45)"/>
	</g>
	<path d="M348.216 123.209c-90.776.001-165.473 74.699-165.473 165.475.001 90.775 74.698 165.472 165.473 165.473 72.705-.022 137.274-47.957 158.332-117.545 65.445-9.972 108.969-27.648 108.969-47.805 0-20.159-43.536-37.837-108.994-47.808-20.968-69.675-85.545-117.725-158.307-117.79" style="fill:#999;fill-rule:nonzero" transform="translate(74.296 84.231)scale(.94082)"/>
	<path d="M345.485 209.742c-43.683 0-79.627 35.945-79.627 79.627v.001c0 43.682 35.945 79.627 79.627 79.627 27.885-.039 53.791-14.724 68.148-38.628 103.783-5.095 179.793-21.515 179.793-41s-76.002-35.903-179.775-40.999c-14.361-23.91-40.275-38.595-68.166-38.628" style="fill:#4d4d4d;fill-rule:nonzero" transform="translate(74.296 84.231)scale(.94082)"/>
	<circle cx="345.486" cy="289.37" r="47.173" style="fill:#999" transform="translate(74.296 84.231)scale(.94082)"/>
	<path d="M143.118 26.849v6.206h-24.045v5.395h25.382v7.161h-34.399V14.58h34.399v7.161h-25.382v5.108zm35.988 18.762V14.58h14.322l19.158 25.063V14.58h8.354v31.031h-14.465L187.46 20.643v24.968zm154.25 0h-8.354V14.58h28.832q3.438 0 5.872 2.339 2.483 2.292 2.483 5.538v5.252q0 1.861-1.098 3.246-1.098 1.337-2.96 2.721 2.721.334 3.389 3.151.669 2.77.669 8.879h-8.355q0-4.058-.716-5.967-.716-1.91-1.91-1.91h-17.852zm0-23.154v7.495h16.754q1.528 0 2.626-1.193t1.098-2.865q0-1.431-1.098-2.434t-2.626-1.003zm94.81 11.553h-12.303v-6.206h20.657V38.45q0 2.96-2.673 5.06-2.674 2.101-6.541 2.101h-21.584q-3.39 0-5.872-2.101t-2.482-5.06V21.741q0-2.96 2.434-5.06 2.435-2.101 5.92-2.101h21.584q3.772 0 6.493 2.101t2.721 5.06v2.864h-8.354q0-1.145-.86-2.005-.858-.858-2.005-.859h-14.805q-2.053 0-3.437 1.098-1.337 1.098-1.337 2.817v8.354q0 1.815 1.384 3.151 1.433 1.289 3.39 1.289h14.662q1.242 0 2.101-1.289.906-1.336.907-3.151m56.788 11.601V35.586l-17.091-20.91h10.789l10.455 12.794 10.503-12.794h10.789l-17.091 20.862v10.073zM288.858 26.849v6.206h-24.046v5.395h25.382v7.161h-34.399V14.58h34.399v7.161h-25.382v5.108zM66.587-28.114h8.355v4.44q0 2.96-2.435 5.06-2.434 2.101-5.92 2.101H43.672q-3.389 0-5.872-2.101t-2.482-5.06v-16.709q0-2.96 2.434-5.06 2.436-2.101 5.92-2.101h22.915q3.39 0 5.872 2.101 2.483 2.1 2.483 5.06v3.915h-8.355q0-1.623-1.384-2.769-1.385-1.146-3.39-1.146H48.446q-2.052 0-3.437 1.098-1.337 1.098-1.337 2.817v8.354q0 1.815 1.385 3.151 1.431 1.289 3.389 1.289h13.367q1.957 0 3.342-1.289 1.432-1.336 1.432-3.151m43.554 11.601v-31.031h8.355v23.87h21.721v7.161zm60.4 0 15.181-31.031h13.128l15.086 31.031h-9.261l-2.865-5.872h-19.096l-2.864 5.872zm28.262-12.078-6.493-13.367-6.54 13.367zm129.495 12.078h-8.355v-31.031h8.355v11.219h5.156l12.078-11.219h12.269L341.474-32.41l18.571 15.897h-12.89l-13.367-11.458h-5.49zm63.917-9.93 8.355.239q0 1.432.668 2.482.715 1.003 1.719 1.003h14.846c4.408.069 5.312-5.326 1.194-5.777l-18.427-.525q-4.297 0-6.35-2.053-2.005-2.1-2.005-5.442v-4.822q0-2.577 2.435-4.392 2.434-1.814 5.92-1.814h22.246q2.721 0 4.631 1.814t1.909 4.392v2.96h-8.354q0-1.337-.812-2.148-.811-.812-2.53-.812h-14.294c-1.902.003-2.944 4.875-.477 5.204l19.068.573q3.819 0 6.063 1.957 2.29 1.91 2.291 6.922 0 5.968-2.578 8.068-2.577 2.101-7.781 2.101H400.57q-3.438 0-5.92-1.814-2.435-1.862-2.435-4.392zm72.402 2.053v-15.277q0-3.294 2.435-5.585t5.92-2.292h25.125q3.438 0 5.872 2.339 2.483 2.292 2.483 5.538v15.134q0 3.294-2.483 5.681-2.434 2.339-5.872 2.339h-25.125q-3.39 0-5.872-2.339-2.483-2.34-2.483-5.538m11.935 0h17.869q1.48 0 2.578-1.05t1.098-2.531v-8.354q0-1.432-1.05-2.387t-2.626-.955h-17.869q-1.527 0-2.578 1.003a3.1 3.1 0 0 0-1.002 2.339v8.354q0 1.433 1.002 2.531 1.05 1.05 2.578 1.05m-220.659 7.877h-8.354v-31.031h28.833q3.436 0 5.872 2.339 2.482 2.292 2.482 5.538v5.252q0 1.861-1.098 3.246-1.098 1.336-2.96 2.721 2.721.334 3.39 3.151.668 2.769.668 8.88h-8.354q0-4.059-.716-5.968-.716-1.91-1.91-1.91h-17.853zm0-23.154v7.495h16.755q1.528 0 2.626-1.193t1.098-2.864q0-1.433-1.098-2.435t-2.626-1.003zm285.516 23.154v-31.031h14.322l19.158 25.063v-25.063h8.355v31.031h-14.465l-19.015-24.968v24.968z" style="fill:#999;fill-rule:nonzero" transform="matrix(1.15587 0 0 .76578 42.51 670.34)"/>
</svg>
