<?xml version="1.0" encoding="UTF-8"?>
<svg xmlns="http://www.w3.org/2000/svg" xml:space="preserve" style="fill-rule:evenodd;clip-rule:evenodd;stroke-linejoin:round;stroke-miterlimit:2" viewBox="0 0 800 800">
	<path d="M0 0h192v192H0z" style="fill:none" transform="scale(4.16667)"/>
	<path d="M211.258 24.076 33.809 128.343v208.535l177.449 104.267 177.45-104.267V128.343z" style="fill:#fc0;fill-rule:nonzero" transform="translate(16.342 253.918)scale(.62768)"/>
	<path d="M212.564 18.545 27.07 125.641v214.191l185.494 107.096 185.497-107.096V125.641zm-6.539 56.603v146.131L79.473 148.215zm13.256 0 126.553 73.067-126.553 73.064zm-146.504 84.51 126.555 73.067-126.555 73.064zm133.252 84.533v146.131L79.477 317.258z" style="fill:#232323;fill-rule:nonzero" transform="translate(16.342 253.918)scale(.62768)"/>
	<path d="M242.009 339.832v-111.95h106.419c14.665.666 28.341 9.527 28.813 26.906-.242 17.784-6.057 20.409-17.146 26.175 11.023 4.55 20.682 5.115 20.682 27.269 0 13.899-4.864 19.497-13.081 25.592-5.421 3.898-14.024 6.008-25.809 6.008zm33.233-47.337v19.434h61.872q3.712 0 6.541-2.924 2.828-2.923 2.828-7.051 0-3.956-2.652-6.707-2.651-2.752-6.717-2.752zm0-40.76v18.402h57.629q4.243 0 7.425-2.751t3.182-6.708q0-3.783-3.005-6.363t-7.602-2.58z" style="fill:#fc0;fill-rule:nonzero" transform="translate(16.342 253.918)scale(.62768)"/>
	<path d="M509.22 272.082v23.241h-83.615v18.197h89.979v26.312H396.505v-111.95H514.17v26.682h-88.565v17.518zm20.822-44.2h35.002v111.95h-35.002zm50.434 64.494h32.88v6.019c.17 11.151 4.304 15.355 11.667 15.479h23.335c8.665-.477 11.566-6.118 11.667-13.711v-72.281h32.703v85.992c.156 16.491-14.208 25.759-30.935 25.958h-50.381c-15.659.11-30.649-8.622-30.936-25.958zm195.591 47.456v-111.95h50.735l67.174 82.867v-82.867h33.941v111.95h-50.381l-67.705-82.153v82.153zm279.814-41.953h-39.775v-22.358h74.6v38.353q0 10.662-9.9 18.23c-6.599 5.045-17.147 7.728-26.693 7.728h-72.832c-8.367 0-15.615-2.683-21.743-7.728s-11.667-18.016-11.667-25.125v-48.173c0-7.108 5.48-18.312 11.49-23.357q9.016-7.567 21.92-7.567h72.832c24.735 0 36.014 11.211 35.709 25.798v13.854h-34.118c.39-5.671-2.735-13.712-12.905-13.854h-42.956q-7.601 0-12.728 3.955-4.95 3.956-4.95 10.147v30.097q0 6.536 5.127 11.351 5.303 4.644 12.551 4.644s25.668.117 41.365 0c11.104-.278 15.081-5.977 14.673-15.995M717.36 227.882h35.002v111.95H717.36z" style="fill:#232323;fill-rule:nonzero" transform="translate(16.342 253.918)scale(.62768)"/>
	<path d="M335.151 454.784h11.989q4.827 0 6.477-1.408 1.77-1.529 1.77-5.552 0-2.535-.362-4.104-.322-1.609-.925-2.373-1.248-1.61-5.552-1.61h-13.397zm-4.024 18.144v-36.49h17.38q5.834 0 8.288 2.334 2.374 2.373 2.374 8.046 0 2.535-.322 4.305t-1.006 2.695q-.483.805-1.368 1.328-.844.524-2.293.966l.04.724q4.426 1.086 4.426 6.839v9.253h-3.983v-8.368q0-6.477-5.633-6.477h-13.88v14.845zm36.45-33.191v12.714h18.627v3.299h-18.627v13.879h19.432v3.299h-23.375v-36.49h23.375v3.299zm46.226 22.49a390 390 0 0 0-2.414-6.558 764 764 0 0 0-2.373-6.477q-.363-1.046-.805-2.253t-.885-2.454a72 72 0 0 0-.925-2.535 186 186 0 0 0-.845-2.333l-8.127 22.61zm1.086 2.937h-18.587l-2.534 7.764h-4.506a29517 29517 0 0 0 13.357-36.49h5.672a4102 4102 0 0 0 6.8 18.266 2716 2716 0 0 1 6.839 18.224h-4.144zm34.921-4.265h3.943v1.247q0 7.403-2.575 9.254-1.287.925-4.465 1.448-3.138.483-8.248.483-9.293 0-11.627-3.259-2.534-3.38-2.534-15.449 0-4.666.12-7.644.161-2.977.443-4.345.322-1.126 1.126-2.213a10.2 10.2 0 0 1 2.092-2.051q3.018-2.294 13.398-2.294 6.96 0 9.333 2.133 2.414 2.172 2.414 8.368v.885h-3.862v-1.006q-.04-4.465-1.489-5.713-1.569-1.327-6.598-1.327-8.85 0-10.862 1.528-1.971 1.49-1.971 8.248 0 15.248 1.287 18.144 1.368 2.656 9.092 2.656 7.282 0 9.173-1.167v.04q1.851-1.126 1.851-5.874zm21.243-20.719v32.748h-3.983V440.18h-11.909v-3.742h27.72v3.742zm28.846-.764q-4.264 0-6.88.563-2.614.522-3.42 1.448-.683 1.006-1.086 4.265-.362 3.258-.362 9.012 0 11.385 1.448 13.316 1.49 1.971 10.3 1.972 4.265 0 6.839-.523 2.615-.523 3.42-1.449 1.488-2.213 1.488-13.316v-5.834q0-6.236-2.172-7.805h.04q-1.89-1.65-9.615-1.649m0-3.34q10.219 0 12.874 3.018t2.655 15.127q0 6.638-.644 10.581-.603 3.942-1.85 5.511-2.494 3.018-13.035 3.018-10.46 0-12.995-2.977-2.535-3.058-2.535-15.65v-6.035q0-3.781.805-6.156.804-2.413 2.494-3.741 3.42-2.696 12.231-2.696m24.34 18.708h11.989q4.828 0 6.477-1.408 1.77-1.529 1.77-5.552 0-2.535-.362-4.104-.322-1.609-.925-2.373-1.247-1.61-5.552-1.61h-13.397zm-4.023 18.144v-36.49h17.38q5.833 0 8.287 2.334 2.374 2.373 2.374 8.046 0 2.535-.322 4.305t-1.006 2.695q-.482.805-1.367 1.328-.845.524-2.294.966l.041.724q4.425 1.086 4.425 6.839v9.253h-3.983v-8.368q0-6.477-5.632-6.477h-13.88v14.845zm69.898-10.701a394 394 0 0 0-2.414-6.557 752 752 0 0 0-2.373-6.478q-.363-1.046-.805-2.253-.442-1.206-.885-2.454a72 72 0 0 0-.925-2.534q-.443-1.248-.845-2.334l-8.127 22.61zm1.086 2.937h-18.587l-2.534 7.765h-4.506a27296 27296 0 0 0 13.357-36.49h5.672q3.42 9.253 6.8 18.265a2737 2737 0 0 1 6.839 18.225h-4.144zm41.46-28.725v36.49h-6.679l-20.477-33.352v33.352h-3.983v-36.49h6.638l20.518 33.553v-33.553zm8.633 33.191h12.029q6.68 0 8.53-2.696.924-1.367 1.408-4.264.523-2.897.523-7.523 0-9.978-1.69-12.714-.805-1.287-2.816-1.971-1.972-.724-5.11-.724h-12.874zm-3.983 3.299v-36.49h16.898q7.724 0 10.58 3.46 2.776 3.38 2.776 13.236 0 11.828-2.534 15.851-2.374 3.943-9.776 3.943zm54.515-33.191v12.713h18.627v3.299h-18.627v13.88h19.432v3.299h-23.374v-36.49h23.374v3.299zm54.376-3.299v36.49h-6.679l-20.478-33.352v33.352h-3.983v-36.49h6.639l20.518 33.553v-33.553zm8.673 18.346h11.989q4.828 0 6.478-1.408 1.77-1.529 1.77-5.552 0-2.535-.362-4.104-.322-1.61-.926-2.373-1.247-1.61-5.552-1.61h-13.397zm-4.023 18.144v-36.49h17.38q5.834 0 8.288 2.334 2.373 2.373 2.373 8.046 0 2.535-.321 4.305-.322 1.77-1.006 2.695-.483.805-1.368 1.328-.845.523-2.293.965l.04.725q4.425 1.086 4.425 6.839v9.253h-3.982v-8.368q0-6.477-5.633-6.477h-13.88v14.845zm32.911-36.49h3.983v36.49h-3.983zm34.399 24.461h3.943v1.247q0 7.403-2.575 9.253-1.287.926-4.466 1.449-3.138.483-8.247.483-9.293 0-11.627-3.259-2.535-3.38-2.535-15.449 0-4.666.121-7.644.16-2.977.443-4.345.322-1.127 1.126-2.213a10.2 10.2 0 0 1 2.092-2.052q3.018-2.293 13.397-2.293 6.96 0 9.334 2.132 2.414 2.173 2.414 8.369v.885h-3.862v-1.006q-.04-4.466-1.489-5.713-1.569-1.328-6.598-1.328-8.85 0-10.862 1.529-1.972 1.49-1.972 8.248 0 15.248 1.288 18.144 1.368 2.655 9.092 2.655 7.282 0 9.173-1.166v.04q1.851-1.126 1.851-5.874zm37.598-24.461v36.49h-3.983v-16.977h-21.564v16.977h-3.983v-36.49h3.983v16.214h21.564v-16.214zm43.596 0v36.49h-3.943v-32.064l-.764-.121-13.317 32.185h-3.943l-13.357-31.984-.764.161v31.823h-3.943v-36.49h7.001l12.994 31.381 12.915-31.381zm9.093 3.299v12.713h18.627v3.299h-18.627v13.88h19.432v3.299h-23.375v-36.49h23.375v3.299zm54.194-3.299v36.49h-6.678l-20.478-33.352v33.352h-3.983v-36.49h6.638l20.518 33.553v-33.553zm18.73 3.742v32.748h-3.983v-32.748H965.48v-3.742h27.72v3.742z" style="fill:#fc0;fill-rule:nonzero" transform="matrix(.75546 0 0 .5215 16.342 253.918)"/>
</svg>
