<?xml version="1.0" encoding="UTF-8"?>
<svg id="logo" xmlns="http://www.w3.org/2000/svg" viewBox="0 0 192 192">
  <defs>
    <style>
      .cls-1, .cls-2 {
        fill: #000;
      }

      .cls-1, .cls-2, .cls-3 {
        stroke-width: 0px;
      }

      .cls-2 {
        fill-rule: evenodd;
      }

      .cls-3 {
        fill: #c22323;
      }
    </style>
  </defs>
  <g>
    <polygon class="cls-1" points="126.49 113.41 135.28 113.41 135.28 142.21 126.49 142.21 126.49 113.41"/>
    <path class="cls-1" d="M92.38,113.41h27.72l2.66,2.66v4.61h-24.25v14.23h15.46v-3.49l-11.88-.04v-7.23h20.66v15.39l-2.64,2.66h-27.72l-2.64-2.64v-23.49c.87-.89,1.75-1.78,2.64-2.66h0Z"/>
    <polygon class="cls-1" points="52.68 113.41 85.72 113.41 85.72 120.68 61.47 120.68 61.47 124.17 85.72 124.17 85.72 131.45 61.47 131.45 61.47 134.93 85.72 134.93 85.72 142.21 52.68 142.21 52.68 113.41"/>
    <path class="cls-3" d="M12,155.65v-6.45h6.89c.38,0,.7.06.95.17s.51.3.74.57c.17.19.3.4.38.61.08.21.13.44.13.7v2.39c0,.27-.04.53-.13.74-.08.21-.23.42-.44.63-.23.25-.47.42-.72.53s-.55.15-.91.15l-6.89-.04h0ZM19.4,154.07v-3.21h-5.75v3.21h5.75Z"/>
    <polygon class="cls-3" points="39.32 153.75 35.64 149.21 37.71 149.21 40.08 152.14 42.47 149.21 44.5 149.21 40.92 153.75 40.92 155.65 39.32 155.65 39.32 153.75"/>
    <path class="cls-3" d="M59.15,150.62c0-.32.08-.59.25-.82.17-.23.4-.42.72-.57.11-.04.21-.08.32-.11s.21-.04.32-.04c.23,0,.47.06.7.17.23.11.44.25.66.47l4.4,4.33v-4.8h1.65v4.71c0,.38-.06.7-.19.97-.13.25-.36.49-.66.66-.11.06-.23.11-.36.15s-.25.04-.38.04c-.23,0-.47-.06-.7-.17-.23-.11-.44-.25-.66-.47l-4.4-4.29v4.84l-1.63-.02v-5.05h-.04Z"/>
    <path class="cls-3" d="M84.41,155.65l-1.84.02,2.52-4.86c.34-.66.66-1.1.95-1.31.25-.19.55-.27.91-.27.32,0,.61.11.89.3.25.21.57.66.93,1.33l2.52,4.82-1.78-.02-.97-1.69h-3.19l-.93,1.69h0ZM86.15,152.31h1.52l-.76-1.35-.76,1.35h0Z"/>
    <path class="cls-3" d="M107.37,155.7l-1.56-.04v-4.84c0-.42.13-.78.4-1.08.27-.3.59-.47,1.01-.51h.17c.38,0,.74.13,1.06.4.27.25.51.57.68.99l1.46,3.59,1.61-3.78c.15-.38.36-.66.63-.89.27-.21.59-.32.97-.32.49,0,.87.17,1.16.53s.44.78.44,1.27v4.65h-1.56v-4.74l-1.54,3.38c-.27.59-.51.97-.74,1.16-.21.19-.47.3-.76.34h-.17c-.38,0-.72-.15-1.01-.47-.25-.25-.49-.61-.68-1.06l-1.52-3.32v4.71h-.04Z"/>
    <polygon class="cls-3" points="131.79 149.21 131.79 155.72 130 155.72 130 149.21 131.79 149.21"/>
    <path class="cls-3" d="M155.56,149.21v1.61h-7.51v3.21h7.51v1.61h-7.06c-.32,0-.61-.04-.85-.13-.23-.08-.47-.23-.68-.47-.21-.21-.36-.4-.44-.59-.11-.21-.15-.44-.15-.72v-2.14c0-.44.04-.8.15-1.08.13-.34.32-.61.61-.85.23-.19.51-.32.78-.38.19-.04.49-.06.91-.06h6.72v-.02Z"/>
    <path class="cls-3" d="M177.8,151.64c.59,0,1.1.19,1.54.59.44.4.66.89.66,1.46s-.21,1.04-.63,1.42-.93.57-1.54.57l-7.32.02v-1.65h7.82v-.76h-6.03c-.59,0-1.1-.19-1.54-.57s-.66-.87-.66-1.44.25-1.08.76-1.46c.47-.36,1.01-.55,1.67-.55l7.04-.04v1.63h-7.7v.78h5.92Z"/>
    <polygon class="cls-1" points="141.54 113.41 173.51 113.41 167.61 120.68 147.76 120.68 147.76 124.17 172.03 124.17 172.03 139.84 169.43 142.21 138.94 142.27 138.96 134.93 163.23 134.93 163.23 131.45 139.07 131.45 139.07 115.69 141.54 113.41"/>
    <path class="cls-2" d="M100.36,52.48c0,17.49.11,34.99.08,52.37h26.11l-20.93-21.42v-21.35l29.68,42.77,5.52-5.81-39.35-62.86h-13.36l-39.33,63.36,5.52,5.29,29.68-42.77v21.35l-20.93,21.42h26.11c-.02-17.36.08-34.86.08-52.37,2.35-6.49,8.9-6.7,11.1.02h0ZM92.03,104.83v-24.1c1.52-1.29,4.19-1.25,5.54,0v24.1h-5.54Z"/>
    <path class="cls-1" d="M19.89,113.41h25.75l3.64,3.64s.02,22.92.02,25.18h-8.82c0-5.52,0-10.02.02-15.46l-4.59,5.69h-10.87v9.83l-8.82-.04v-25.16l3.66-3.68h0ZM40.5,125.17v-3.72l-.95-.76-13.74.04-.76.76v3.68h15.46Z"/>
  </g>
</svg>