<?xml version="1.0" encoding="UTF-8"?>
<svg xmlns="http://www.w3.org/2000/svg" xml:space="preserve" style="fill-rule:evenodd;clip-rule:evenodd;stroke-linejoin:round;stroke-miterlimit:2" viewBox="0 0 800 800">
	<path d="M0 0h192v192H0z" style="fill:none" transform="scale(4.16667)"/>
	<path d="m664.534 503.565 2.3 13.438-12.073-6.36-12.073 6.36 2.3-13.438-9.773-9.522 13.51-1.976 6.036-12.253 6.037 12.253 13.51 1.976zm-286.731 0 2.3 13.438-12.073-6.324-12.073 6.36 2.3-13.438-9.774-9.522 13.51-1.976 6.037-12.253 6.036 12.253 13.51 1.976z" style="fill:#c8412c" transform="translate(-208.869 -222.967)scale(1.19056)"/>
	<path d="M617.336 398.417v1.2c0 29.301-5.732 57.707-17.068 84.486-10.439 24.64-25.154 46.885-43.762 66.178l37.517 128.507-117.214-75.975c-24.384 9.197-50.093 13.86-76.487 13.86-26.395 0-52.061-4.663-76.488-13.86l-117.213 75.975 37.517-128.507c-18.652-19.293-33.367-41.538-43.806-66.178-11.335-26.779-17.068-55.185-17.068-84.487l-79.311-67.205h89.877a201 201 0 0 1 6.46-17.283c10.951-25.838 26.566-49.067 46.5-69.001s43.12-35.592 69.002-46.5c19.806-8.385 40.554-13.69 61.9-15.913l22.587-62.543 22.587 62.543c21.346 2.18 42.05 7.528 61.9 15.913 25.839 10.95 49.067 26.565 69.001 46.5s35.592 43.12 46.501 69.001a234 234 0 0 1 6.46 17.283h89.278zM400.28 193.295c-113.962 0-206.363 92.402-206.363 206.363 0 113.962 92.401 206.364 206.363 206.364s206.36-92.402 206.36-206.364c0-114.004-92.4-206.363-206.362-206.363"/>
	<path d="m262.319 312.005 10.95-16.812 8.386 5.477-17.84 27.378-32.81-21.39 6.844-10.523zm120.763 262.189c-.128-6.46 1.54-11.379 5.048-14.758 3.465-3.423 8.513-5.176 15.057-5.305 6.546-.129 11.637 1.455 15.273 4.706 3.636 3.293 5.518 8.128 5.647 14.544.128 6.417-1.54 11.337-5.048 14.76-3.509 3.421-8.513 5.218-15.101 5.347-6.545.128-11.636-1.413-15.272-4.706-3.594-3.294-5.476-8.128-5.604-14.588m28.576 1.198-.086-3.55c-.042-2.696-.77-4.792-2.182-6.374-1.41-1.541-3.421-2.31-6.031-2.267s-4.578.897-5.903 2.48c-1.326 1.626-1.968 3.765-1.925 6.46l.086 3.551c.041 2.694.769 4.791 2.18 6.373 1.413 1.54 3.38 2.311 6.032 2.268 2.61-.043 4.578-.899 5.947-2.48 1.283-1.627 1.968-3.765 1.882-6.46m-75.547-357.628 4.278 13.646 13.176-4.106-4.278-13.647 12.021-3.765 11.678 37.346-12.02 3.764-4.45-14.16-13.175 4.108 4.448 14.16-12.02 3.764-11.679-37.345zm-54.157 34.65c1.154-4.92 4.534-9.283 10.181-13.133 3.123-2.095 6.203-3.55 9.326-4.278s6.031-.684 8.727.172c2.694.855 4.962 2.61 6.759 5.218l-9.925 6.76c-.899-1.37-2.267-2.054-4.022-2.054-1.753-.043-3.464.556-5.175 1.668-2.438 1.67-3.85 3.552-4.236 5.733-.385 2.14.257 4.406 1.882 6.802l2.054 2.994q2.44 3.593 5.647 4.235c2.14.471 4.449-.17 6.887-1.797 1.711-1.155 2.866-2.524 3.508-4.149s.556-3.037-.3-4.278l-7.357 4.963-4.45-6.588 17.283-11.722 12.277 18.095-5.347 3.636-3.208-2.48c-1.24 4.534-4.278 8.384-9.026 11.636-5.39 3.636-10.353 4.962-14.972 3.977-4.62-.983-8.813-4.235-12.577-9.796-3.765-5.475-5.048-10.694-3.936-15.614m131.158-45.901.3 10.01-12.791.385.898 29.132-12.577.386-.897-29.132-12.835.384-.299-10.01zm-147.67 55.398 28.318 27.036-8.684 9.112-28.318-27.036zm273.781 264.542-9.325 9.496 2.694 4.92-8.77 8.898-17.368-36.533 9.968-10.096 36.79 16.77-9.07 9.196zm-20.447-10.652 6.801 12.363 5.774-5.861-12.405-6.673zm-63.313-260.606-10.652-2.61-11.421-22.372-4.535 18.437-11.208-2.738 9.325-38.03 10.652 2.61 11.38 22.672 4.62-18.737 11.207 2.738zm17.41 9.284-11.293-5.562 17.24-35.122 11.294 5.562zm37.219 26.778-8.6-6.801-1.069-25.112-11.807 14.887-9.068-7.186 24.34-30.673 8.599 6.802.898 25.325 11.978-15.1 9.068 7.186zm55.098 209.956-5.562 9.754-33.025-18.822 5.263-9.283 24.17-4.62-16.257-9.284 5.562-9.753 33.025 18.823-5.263 9.283-23.955 4.748zm-11.936-70.669 3.38-12.876 18.737 20.233 14.288 3.722-3.08 11.807-14.288-3.722-26.309 8.727 3.55-13.56 14.075-3.85.042-.215zm-2.567-135.865c-1.71-2.438-3.636-3.807-5.774-4.149-2.14-.343-4.406.299-6.803 1.968l-2.994 2.095c-2.353 1.67-3.765 3.552-4.192 5.69-.427 2.14.214 4.45 1.925 6.845 1.155 1.669 2.567 2.824 4.192 3.465 1.626.642 3.037.513 4.278-.343l-5.09-7.271 6.545-4.578 11.978 17.112-17.924 12.534-3.722-5.305 2.439-3.252c-4.535-1.197-8.428-4.149-11.764-8.854-3.722-5.305-5.134-10.267-4.194-14.888q1.35-6.93 9.626-12.704c5.433-3.808 10.61-5.177 15.572-4.107 4.919 1.07 9.368 4.406 13.26 10.01 2.14 3.08 3.637 6.16 4.406 9.284.77 3.121.77 6.03-.043 8.725q-1.219 4.106-5.132 6.803l-6.887-9.84c1.326-.94 2.01-2.267 2.01-4.02.042-1.84-.557-3.55-1.712-5.22m-47.569 268.607-10.224 6.673-20.79-31.828 17.838-11.678c1.968-1.283 4.021-1.968 6.16-2.097 2.14-.085 4.15.385 6.075 1.37 1.882 1.026 3.508 2.524 4.792 4.492l.384.598c1.284 1.968 2.011 4.064 2.224 6.203.172 2.181-.213 4.192-1.155 6.117-.94 1.926-2.395 3.508-4.363 4.791l-7.615 5.005zm-6.374-26.054c-.642-.983-1.412-1.582-2.31-1.753q-1.347-.258-2.952.77l-4.192 2.738 4.278 6.588 4.193-2.739c1.069-.684 1.71-1.496 1.882-2.438.17-.898-.043-1.84-.685-2.78zm-204.909-11.335 5.434-8.085 30.8 20.747-5.433 8.085-10.31-6.93-15.784 23.443-10.14-6.802 15.786-23.443zm171.157 56.553-9.112 2.909-14.502-22.33-.213.085c.127.299.47.983.983 2.095a137 137 0 0 1 1.797 4.108 63 63 0 0 1 1.796 4.92l4.15 13.047-10.694 3.38-11.508-36.234 16.427-5.22 12.106 19.165.214-.086-1.197-22.629 15.827-5.048 11.508 36.234-11.55 3.679-4.15-13.048a79 79 0 0 1-1.412-5.048c-.427-1.753-.726-3.208-.983-4.406-.215-1.197-.385-1.968-.428-2.31l-.214.086zm-185.188-85.343 8.513 8.77-20.276 19.72 13.603 13.99-6.973 6.758-22.073-22.759zm-50.564-31.486c-1.925.515-3.764.515-5.475-.041a10.23 10.23 0 0 1-4.492-2.91c-1.284-1.412-2.181-3.08-2.696-5.048l-6.759-24.726 36.661-10.01 6.675 24.427q.77 2.76.256 5.39c-.342 1.753-1.07 3.294-2.224 4.577-1.155 1.284-2.567 2.138-4.278 2.61-4.492 1.24-7.915-.043-10.182-3.808l-.214.043c.214 4.963-2.224 8.128-7.272 9.496m-1.37-24.981-6.288 1.71 2.44 8.983c.213.77.683 1.37 1.368 1.712.684.385 1.455.428 2.268.213l.513-.127a3.1 3.1 0 0 0 1.84-1.326c.427-.685.512-1.37.298-2.183zm11.123 7.785c.685.384 1.455.427 2.268.214l.513-.128c.77-.215 1.37-.642 1.797-1.327.384-.684.513-1.412.3-2.138l-2.225-8.085-6.246 1.71 2.225 8.086c.213.727.685 1.283 1.368 1.668m28.406 28.404q4.941 8.47 3.336 15.657c-1.112 4.792-4.405 8.77-9.925 12.021-5.518 3.252-10.65 4.15-15.357 2.782-4.705-1.412-8.684-4.921-12.021-10.568-3.293-5.646-4.406-10.865-3.336-15.613 1.07-4.749 4.406-8.77 9.967-12.021s10.695-4.192 15.358-2.781c4.663 1.326 8.684 4.878 11.978 10.523m-12.919.642c-2.054-.385-4.236.129-6.546 1.455l-3.037 1.796q-3.465 2.054-4.492 5.005c-.684 1.968-.342 4.108.942 6.332 1.326 2.267 2.994 3.593 5.09 3.979 2.053.384 4.236-.086 6.588-1.455l3.037-1.797q3.466-2.053 4.492-5.005c.685-2.01.342-4.107-.984-6.374-1.368-2.224-3.037-3.55-5.09-3.936m113.149 84.317c-.813-1.54-2.268-2.567-4.364-3.037-2.395-.6-4.363-.258-5.818.94-1.498 1.24-2.567 3.166-3.209 5.861l-.854 3.422c-.642 2.653-.6 4.878.17 6.674s2.31 2.995 4.62 3.55c2.31.557 4.15.385 5.647-.513 1.454-.898 2.481-2.395 2.995-4.577l10.95 2.695c-1.24 5.048-3.721 8.513-7.486 10.438s-8.47 2.182-14.116.813c-6.289-1.54-10.652-4.32-13.134-8.342-2.438-4.02-2.908-9.155-1.369-15.443q2.31-9.433 8.343-13.09c4.021-2.439 9.197-2.866 15.485-1.327 5.476 1.327 9.454 3.765 11.978 7.272 2.524 3.509 3.166 7.83 1.926 12.877l-11.337-2.78c.556-2.096.385-3.935-.427-5.433"/>
	<path d="M80.07 31.68c-26.64 0-48.24 21.6-48.24 48.24s21.6 48.24 48.24 48.24 48.24-21.6 48.24-48.24c0-26.65-21.6-48.24-48.24-48.24M47.82 59.43l2.56-3.93 1.96 1.28-4.17 6.4-7.67-5 1.6-2.46zm28.23 61.29c-.03-1.51.36-2.66 1.18-3.45.81-.8 1.99-1.21 3.52-1.24s2.72.34 3.57 1.1c.85.77 1.29 1.9 1.32 3.4s-.36 2.65-1.18 3.45-1.99 1.22-3.53 1.25c-1.53.03-2.72-.33-3.57-1.1-.84-.77-1.28-1.9-1.31-3.41M65.07 37.4l1 3.19 3.08-.96-1-3.19 2.81-.88 2.73 8.73-2.81.88-1.04-3.31-3.08.96 1.04 3.31-2.81.88-2.73-8.73zm-12.66 8.1c.27-1.15 1.06-2.17 2.38-3.07.73-.49 1.45-.83 2.18-1s1.41-.16 2.04.04 1.16.61 1.58 1.22l-2.32 1.58c-.21-.32-.53-.48-.94-.48-.41-.01-.81.13-1.21.39-.57.39-.9.83-.99 1.34-.09.5.06 1.03.44 1.59l.48.7q.57.84 1.32.99c.5.11 1.04-.04 1.61-.42.4-.27.67-.59.82-.97s.13-.71-.07-1l-1.72 1.16-1.04-1.54 4.04-2.74 2.87 4.23-1.25.85-.75-.58c-.29 1.06-1 1.96-2.11 2.72-1.26.85-2.42 1.16-3.5.93s-2.06-.99-2.94-2.29c-.88-1.28-1.18-2.5-.92-3.65m30.66-10.73.07 2.34-2.99.09.21 6.81-2.94.09-.21-6.81-3 .09-.07-2.34zM48.55 47.72l6.62 6.32-2.03 2.13-6.62-6.32zm74.07 26.8.64 3.74-3.36-1.77-3.36 1.77.64-3.74-2.72-2.65 3.76-.55 1.68-3.41 1.68 3.41 3.76.55zm-10.07 35.04-2.18 2.22.63 1.15-2.05 2.08-4.06-8.54 2.33-2.36 8.6 3.92-2.12 2.15zM92.97 46.15l-2.49-.61-2.67-5.23-1.06 4.31-2.62-.64 2.18-8.89 2.49.61 2.66 5.3 1.08-4.38 2.62.64zm4.07 2.17-2.64-1.3 4.03-8.21 2.64 1.3zm8.7 6.26-2.01-1.59-.25-5.87-2.76 3.48-2.12-1.68 5.69-7.17 2.01 1.59.21 5.92 2.8-3.53 2.12 1.68zm12.88 49.08-1.3 2.28-7.72-4.4 1.23-2.17 5.65-1.08-3.8-2.17 1.3-2.28 7.72 4.4-1.23 2.17-5.6 1.11zm-2.79-16.52.79-3.01 4.38 4.73 3.34.87-.72 2.76-3.34-.87-6.15 2.04.83-3.17 3.29-.9.01-.05zm-.6-31.76c-.4-.57-.85-.89-1.35-.97s-1.03.07-1.59.46l-.7.49c-.55.39-.88.83-.98 1.33s.05 1.04.45 1.6c.27.39.6.66.98.81s.71.12 1-.08l-1.19-1.7 1.53-1.07 2.8 4-4.19 2.93-.87-1.24.57-.76c-1.06-.28-1.97-.97-2.75-2.07-.87-1.24-1.2-2.4-.98-3.48q.315-1.62 2.25-2.97c1.27-.89 2.48-1.21 3.64-.96 1.15.25 2.19 1.03 3.1 2.34.5.72.85 1.44 1.03 2.17s.18 1.41-.01 2.04q-.285.96-1.2 1.59l-1.61-2.3c.31-.22.47-.53.47-.94.01-.43-.13-.83-.4-1.22m-11.12 62.79-2.39 1.56-4.86-7.44 4.17-2.73c.46-.3.94-.46 1.44-.49.5-.02.97.09 1.42.32.44.24.82.59 1.12 1.05l.09.14c.3.46.47.95.52 1.45.04.51-.05.98-.27 1.43s-.56.82-1.02 1.12l-1.78 1.17zm-49.39-8.74 1.27-1.89 7.2 4.85-1.27 1.89-2.41-1.62-3.69 5.48-2.37-1.59 3.69-5.48zm40.01 13.22-2.13.68-3.39-5.22-.05.02c.03.07.11.23.23.49q.18.39.42.96c.16.39.3.77.42 1.15l.97 3.05-2.5.79-2.69-8.47 3.84-1.22 2.83 4.48.05-.02-.28-5.29 3.7-1.18 2.69 8.47-2.7.86-.97-3.05c-.12-.38-.23-.77-.33-1.18s-.17-.75-.23-1.03c-.05-.28-.09-.46-.1-.54l-.05.02zM42.82 74.52l.64 3.74-3.36-1.76-3.36 1.77.64-3.74-2.72-2.65 3.76-.55 1.68-3.41 1.68 3.41 3.76.55zm70.13 5.39c0 18.11-14.68 32.79-32.79 32.79S47.37 98.02 47.37 79.91s14.68-32.79 32.79-32.79 32.79 14.68 32.79 32.79M51.44 102.7l1.99 2.05-4.74 4.61 3.18 3.27-1.63 1.58-5.16-5.32zm-11.82-7.36c-.45.12-.88.12-1.28-.01s-.75-.35-1.05-.68-.51-.72-.63-1.18l-1.58-5.78 8.57-2.34 1.56 5.71q.18.645.06 1.26c-.08.41-.25.77-.52 1.07s-.6.5-1 .61c-1.05.29-1.85-.01-2.38-.89l-.05.01c.05 1.16-.52 1.9-1.7 2.22m8.92 2.62q1.155 1.98.78 3.66c-.26 1.12-1.03 2.05-2.32 2.81s-2.49.97-3.59.65c-1.1-.33-2.03-1.15-2.81-2.47-.77-1.32-1.03-2.54-.78-3.65s1.03-2.05 2.33-2.81 2.5-.98 3.59-.65c1.09.31 2.03 1.14 2.8 2.46m23.43 19.86c-.19-.36-.53-.6-1.02-.71-.56-.14-1.02-.06-1.36.22-.35.29-.6.74-.75 1.37l-.2.8c-.15.62-.14 1.14.04 1.56s.54.7 1.08.83.97.09 1.32-.12c.34-.21.58-.56.7-1.07l2.56.63c-.29 1.18-.87 1.99-1.75 2.44s-1.98.51-3.3.19c-1.47-.36-2.49-1.01-3.07-1.95-.57-.94-.68-2.14-.32-3.61q.54-2.205 1.95-3.06c.94-.57 2.15-.67 3.62-.31 1.28.31 2.21.88 2.8 1.7s.74 1.83.45 3.01l-2.65-.65c.13-.49.09-.92-.1-1.27" style="fill:#c9a942" transform="translate(57.752 57.774)scale(4.27784)"/>
	<path d="M80.07 31.68c26.64 0 48.24 21.59 48.24 48.24 0 26.64-21.6 48.24-48.24 48.24s-48.24-21.6-48.24-48.24 21.6-48.24 48.24-48.24m.09 1.206c-25.959 0-47.034 21.076-47.034 47.034 0 25.959 21.075 47.035 47.034 47.035s47.034-21.076 47.034-47.035-21.075-47.034-47.034-47.034" style="fill:#f0d997" transform="translate(57.752 57.774)scale(4.27784)"/>
	<path d="M561.624 407.921c61.257 0 110.989 49.733 110.989 110.99s-49.732 110.99-110.989 110.99-110.99-49.733-110.99-110.99 49.733-110.99 110.99-110.99m107.758 111.414c0 59.688-48.384 108.071-108.072 108.071s-108.071-48.383-108.071-108.071 48.383-108.072 108.071-108.072 108.072 48.384 108.072 108.072" style="fill:#f0d997" transform="translate(-327.883 -274.45)scale(1.29794)"/>
	<path d="m591.843 415.941-82.061 125.334h41.046l-18.206 82.046 79.195-117.874h-43.516z" style="fill:#f0d997" transform="translate(-327.883 -274.45)scale(1.29794)"/>
	<path d="M629.789 522.932c0 65.071-52.747 117.818-117.819 117.818-65.071 0-117.818-52.747-117.818-117.818 0-65.072 52.747-117.819 117.818-117.819 65.072 0 117.819 52.747 117.819 117.819m-84.532-112.719L455.794 546.85h44.748l-19.847 89.447 86.337-128.506h-47.44z" style="fill:#c8412c" transform="translate(-208.869 -222.967)scale(1.19056)"/>
	<path d="M149.18 63.01h-19.6a52.3 52.3 0 0 0-12.4-19.66c-4.82-4.82-10.43-8.61-16.69-11.25-4.44-1.88-9.1-3.13-13.87-3.72l-4.91-13.59-1.66-4.59-1.66 4.59-4.91 13.59c-4.77.59-9.43 1.84-13.87 3.72a52.3 52.3 0 0 0-16.69 11.25c-4.82 4.82-8.61 10.43-11.25 16.69-.41.96-.79 1.95-1.15 2.97H5.98l3.67 3.11L27.56 81.3c.1 6.8 1.49 13.39 4.12 19.62a52.4 52.4 0 0 0 9.88 15.26l-8.48 29.07-1.33 4.55 3.98-2.58 26.67-17.29a52.4 52.4 0 0 0 17.66 3.05c6.06 0 12-1.02 17.66-3.05l26.67 17.29 3.98 2.58-1.33-4.55-8.48-29.07c4.18-4.49 7.5-9.62 9.88-15.26 2.67-6.31 4.06-13 4.12-19.89l17.76-14.9 3.71-3.11h-4.85zm-18.37 16.62v.28c0 6.85-1.34 13.49-3.99 19.75a50.7 50.7 0 0 1-10.23 15.47l8.77 30.04-27.4-17.76a50.5 50.5 0 0 1-17.88 3.24c-6.17 0-12.17-1.09-17.88-3.24l-27.4 17.76 8.77-30.04c-4.36-4.51-7.8-9.71-10.24-15.47-2.65-6.26-3.99-12.9-3.99-19.75L10.8 64.2h21.01a47 47 0 0 1 1.51-4.04 50.7 50.7 0 0 1 10.87-16.13 50.4 50.4 0 0 1 16.13-10.87c4.63-1.96 9.48-3.2 14.47-3.72l5.28-14.62 5.28 14.62c4.99.51 9.83 1.76 14.47 3.72a50.7 50.7 0 0 1 16.13 10.87 50.4 50.4 0 0 1 10.87 16.13c.56 1.33 1.06 2.68 1.51 4.04h20.87z" style="fill:#f0d997" transform="translate(57.752 57.774)scale(4.27784)"/>
	<path d="m107.77 107.07 1.59 2.89 1.35-1.37-2.9-1.56zM39.3 89.5l-1.47.4.57 2.1c.05.18.16.32.32.4.16.09.34.1.53.05l.12-.03c.19-.05.33-.16.43-.31.1-.16.12-.32.07-.51zM82.73 121l-.02-.83c-.01-.63-.18-1.12-.51-1.49-.33-.36-.8-.54-1.41-.53s-1.07.21-1.38.58c-.31.38-.46.88-.45 1.51l.02.83c.01.63.18 1.12.51 1.49.33.36.79.54 1.41.53.61-.01 1.07-.21 1.39-.58.3-.38.46-.88.44-1.51M45.52 98.11c-.48-.09-.99.03-1.53.34l-.71.42q-.81.48-1.05 1.17c-.16.46-.08.96.22 1.48.31.53.7.84 1.19.93.48.09.99-.02 1.54-.34l.71-.42q.81-.48 1.05-1.17c.16-.47.08-.96-.23-1.49-.32-.52-.71-.83-1.19-.92m57.1 13.97c-.15-.23-.33-.37-.54-.41q-.315-.06-.69.18l-.98.64 1 1.54.98-.64c.25-.16.4-.35.44-.57.04-.21-.01-.43-.16-.65zM41.9 91.32c.16.09.34.1.53.05l.12-.03c.18-.05.32-.15.42-.31.09-.16.12-.33.07-.5l-.52-1.89-1.46.4.52 1.89c.05.17.16.3.32.39" style="fill:#c9a942" transform="translate(57.752 57.774)scale(4.27784)"/>
</svg>
