<?xml version="1.0" encoding="UTF-8"?>
<svg xmlns="http://www.w3.org/2000/svg" viewBox="0 0 192 192">
	<path d="M31.38 149.23v1.07h-5.43v-9.83h1.13v8.77h4.3v-.02Zm11.27-2.98v-5.77h-1.13v5.77c0 1.92-1.13 3.02-3 3.02s-3.02-1.09-3.02-3.02v-5.77h-1.13v5.77c0 2.53 1.56 4.09 4.15 4.09s4.13-1.52 4.13-4.09m7.98-1.07 3.34-4.7h-1.3l-2.76 3.79-2.72-3.79h-1.3l3.36 4.76-3.61 5.07h1.34l2.96-4.13 3 4.13h1.34l-3.67-5.13Zm14.98 1.07v-5.77h-1.13v5.77c0 1.92-1.13 3.02-3 3.02s-3.02-1.09-3.02-3.02v-5.77h-1.13v5.77c0 2.53 1.56 4.09 4.15 4.09s4.13-1.52 4.13-4.09m10.55 4.03h1.3l-2.29-3.34c1.42-.47 2.21-1.56 2.21-3.18 0-2.09-1.44-3.3-3.89-3.3h-3.73v9.85h1.13v-3.08h2.59c.24 0 .47-.04.67-.04l2.01 3.1Zm-2.67-4.21H70.9v-4.56h2.59c1.76 0 2.78.77 2.78 2.27s-1.01 2.33-2.78 2.33zm11.16 4.21v-3.38l3.75-6.46h-1.18l-3.14 5.15-3.18-5.15h-1.18l3.81 6.5v3.34h1.11Zm18.38 0h1.3l-2.29-3.34c1.42-.47 2.21-1.56 2.21-3.18 0-2.09-1.44-3.3-3.89-3.3h-3.73v9.85h1.09v-3.08h2.63c.24 0 .47-.04.67-.04l2.01 3.1Zm-2.67-4.19v-.04h-2.63v-4.56h2.61c1.76 0 2.78.77 2.78 2.27 0 1.54-1.01 2.33-2.76 2.33m8.93-4.58h5.55v-1.07h-6.67v9.83h6.85v-1.07h-5.73v-3.36h4.94v-1.07h-4.94v-3.24Zm17.57 8.77v-9.83h-1.09v7.9l-5.9-7.9h-1.18v9.83h1.13v-7.88l5.9 7.88h1.13Zm10.64-8.73v-1.07h-7.54v1.07h3.22v8.73h1.13v-8.73h3.18Zm8.35 6.26 1.09 2.47h1.22l-4.4-9.83h-1.18l-4.4 9.83h1.2l1.09-2.47h5.37Zm-.51-1.09h-4.4l2.21-4.98zm6.89 2.51v-8.77h-1.13v9.83h5.43v-1.07h-4.3v.02Zm10.41-8.86c-2.01 0-3.38.97-3.38 2.55 0 1.82 1.48 2.33 2.9 2.76 1.34.41 2.63.73 2.63 1.99 0 .95-.87 1.52-2.29 1.52-1.09 0-2.35-.51-3.26-1.42l-.51 1.01c.93.87 2.33 1.5 3.77 1.5 2.09 0 3.55-1.03 3.55-2.67 0-1.82-1.46-2.35-2.88-2.8-1.34-.41-2.65-.73-2.65-1.97 0-.83.85-1.3 2.11-1.3.79 0 1.82.24 2.72.83l.49-1.03c-.83-.57-1.99-.91-3.18-.97ZM93.35 71.3 79.9 57.85l-27.74 27.8h26.85L93.36 71.3Zm19.67 14.35h26.85L96 41.66 82.53 55.18l30.5 30.47Z" data-name="opacity:100 colorstyle:Selected" style="fill:#a68859;stroke-width:0"/>
	<path d="M45.59 101h15.44v2.63H48.28v8.43H60.9v2.63H48.28v10.58H60.9v2.63H45.58v-26.91Zm55.05.53c-2.01-.83-4.15-1.22-6.44-1.22-2.82 0-5.35.63-7.58 1.86-2.23 1.24-3.97 2.96-5.27 5.15-1.3 2.21-1.92 4.58-1.92 7.11 0 3.42 1.13 6.44 3.36 9.04 2.9 3.38 6.85 5.07 11.83 5.07 4.11 0 7.38-1.22 9.81-3.67 2.43-2.43 3.67-5.73 3.69-9.91H96.53v2.59h8.59c-.32 2.51-1.46 4.52-3.38 6.08s-4.26 2.35-7.03 2.35c-2.29 0-4.36-.53-6.28-1.56-1.88-1.05-3.38-2.47-4.48-4.32-1.07-1.84-1.62-3.77-1.62-5.77s.53-3.85 1.56-5.61c1.05-1.76 2.55-3.16 4.44-4.21s3.91-1.56 6.02-1.56c1.72 0 3.44.36 5.23 1.13 1.76.77 3.42 1.9 4.92 3.36l2.09-1.99c-1.9-1.76-3.89-3.08-5.94-3.93Zm38.62-.5h-.63l-12.72 26.91h3l4.17-8.87h11.59l4.26 8.87h2.9l-12.56-26.91Zm4.26 15.41h-9.2l4.6-9.71zM170.95 101v26.89H184v-2.59h-10.35v-24.29h-2.69ZM8 127.93h2.69v-24.48h4.66c2.27 0 3.69.18 5.27 1.01 1.76.87 2.94 3.04 2.94 5.15 0 2.41-1.5 4.88-4.44 5.71-1.2.36-2.35.41-5.77.41l9.14 12.2h3.38l-7.62-10.07c5.19-.32 8-4.3 8-8.19 0-3.3-1.76-6.26-4.8-7.66-1.26-.59-3.02-1.01-6.63-1.01H7.99v26.93Zm99.67-42.28L96 73.98 84.33 85.65z" data-name="opacity:100 colorstyle:Bright" style="stroke-width:0;fill:#2e2f66"/>
</svg>
