<?xml version="1.0" encoding="UTF-8"?>
<svg xmlns="http://www.w3.org/2000/svg" xml:space="preserve" style="fill-rule:evenodd;clip-rule:evenodd;stroke-linejoin:round;stroke-miterlimit:2" viewBox="0 0 800 800">
	<path d="M0 0h192v192H0z" style="fill:none" transform="scale(4.16667)"/>
	<path d="M632.418 211.658q-3.47 0-6.107 1.059-2.616 1.059-4.397 3.043-1.78 1.984-2.682 4.824-.902 2.817-.902 6.355 0 3.855.834 6.672.856 2.819 2.547 4.645t4.217 2.726q2.546.879 5.949.879 3.449 0 6.064-1.037 2.638-1.059 4.418-3.043 1.781-2.005 2.682-4.867.902-2.863.902-6.492 0-3.787-.879-6.559-.857-2.795-2.57-4.621-1.69-1.826-4.238-2.705-2.524-.879-5.838-.879m56.014 0q-2.006 0-3.809.518-1.781.518-3.111 1.578-1.308 1.037-2.096 2.637-.767 1.578-.768 3.675 0 1.827.541 3.133a8 8 0 0 0 1.399 2.276 10 10 0 0 0 1.982 1.646q1.105.676 2.278 1.217 1.172.541 2.277 1.037 1.104.473 1.961 1.037.879.541 1.42 1.262.541.7.541 1.691 0 .856-.317 1.555-.315.699-.923 1.172-.587.473-1.444.744-.856.248-1.937.248-1.646 0-2.908-.361a14 14 0 0 1-2.141-.834 20 20 0 0 1-1.488-.811q-.564-.384-.879-.385a.66.66 0 0 0-.406.137q-.158.112-.27.404-.091.294-.137.768-.045.474-.045 1.172 0 1.036.114 1.599.135.541.427.834.294.295.948.678.675.383 1.668.742.991.339 2.277.586 1.307.248 2.816.248 2.232 0 4.194-.586 1.96-.585 3.425-1.734a8.5 8.5 0 0 0 2.323-2.908q.856-1.736.855-4.035 0-1.759-.541-3.043a7.5 7.5 0 0 0-1.42-2.254 8.8 8.8 0 0 0-2.006-1.645 21 21 0 0 0-2.298-1.24 73 73 0 0 0-2.299-1.014 18 18 0 0 1-2.03-1.037q-.879-.564-1.419-1.263-.519-.721-.518-1.69 0-.654.225-1.24.247-.587.72-.992a3.4 3.4 0 0 1 1.217-.653q.722-.248 1.691-.248 1.241 0 2.278.315 1.036.292 1.824.676.789.361 1.33.677.542.316.789.315.248 0 .383-.135.159-.135.227-.428.09-.293.113-.744.045-.451.045-1.105 0-.587-.024-.969a3 3 0 0 0-.09-.652 1.3 1.3 0 0 0-.134-.43q-.068-.158-.293-.383-.226-.225-.924-.562a11 11 0 0 0-1.602-.61 14.3 14.3 0 0 0-4.011-.586m161.322.045q-2.998 0-5.5 1.014a11.6 11.6 0 0 0-4.26 2.976q-1.781 1.962-2.773 4.846t-.992 6.604q0 3.652.902 6.402t2.592 4.598q1.69 1.825 4.103 2.75 2.411.923 5.408.923a15 15 0 0 0 2.84-.248q1.331-.247 2.346-.607a11.4 11.4 0 0 0 1.734-.789q.722-.407.971-.654.247-.271.359-.473.113-.203.18-.475.069-.292.092-.675.045-.406.045-.969 0-.812-.045-1.285a3.5 3.5 0 0 0-.137-.766q-.09-.27-.224-.361a.65.65 0 0 0-.362-.09q-.292 0-.834.361-.517.36-1.351.811-.812.45-1.961.834-1.15.36-2.729.361-1.735 0-3.133-.586a6.34 6.34 0 0 1-2.365-1.826q-.97-1.218-1.512-3.088-.517-1.893-.517-4.463 0-2.344.496-4.215.495-1.872 1.441-3.179.97-1.33 2.323-2.028 1.375-.722 3.111-.722 1.578 0 2.705.406 1.15.382 1.961.879.833.473 1.352.879.519.383.857.384a.54.54 0 0 0 .359-.136q.16-.135.272-.428.112-.292.156-.766.046-.473.047-1.15-.001-.63-.047-1.059a5 5 0 0 0-.09-.744 1.9 1.9 0 0 0-.179-.519q-.114-.204-.428-.496-.294-.315-1.061-.743a10 10 0 0 0-1.734-.744 13 13 0 0 0-2.074-.541 13 13 0 0 0-2.344-.203m-382.512.338q-1.15 0-1.847.045-.7.023-1.106.158-.382.113-.562.361a2 2 0 0 0-.317.608l-8.994 25.877q-.27.788-.338 1.262-.067.472.158.744.226.248.811.316.587.067 1.623.067.97 0 1.557-.045.608-.045.923-.159.338-.135.473-.337.158-.226.248-.542l1.848-5.703h10.955l1.961 5.862q.09.292.226.472.135.181.473.293.338.09.969.114.654.045 1.804.045 1.105 0 1.735-.067.63-.046.879-.271.248-.249.181-.721-.068-.474-.34-1.285l-9.015-25.854a2 2 0 0 0-.338-.676q-.18-.248-.631-.361-.428-.135-1.217-.158a39 39 0 0 0-2.119-.045m324.537 0q-1.15 0-1.847.045-.7.023-1.106.158-.382.113-.562.361a2 2 0 0 0-.317.608l-8.994 25.877q-.27.788-.338 1.262-.067.472.158.744.226.248.813.316.585.067 1.621.067.97 0 1.557-.045.607-.045.924-.159.337-.135.472-.337.158-.226.248-.542l1.85-5.703h10.953l1.961 5.862q.09.292.226.472.136.181.473.293.337.09.969.114.654.045 1.805.045 1.103 0 1.734-.067.632-.046.879-.271.249-.249.181-.721-.067-.474-.337-1.285l-9.018-25.854a2 2 0 0 0-.338-.676q-.18-.248-.631-.361-.428-.135-1.217-.158a39 39 0 0 0-2.119-.045m-276.39.135q-.744 0-1.262.451-.496.428-.496 1.42v25.426q0 .991.496 1.443.518.428 1.262.428h14.65a.6.6 0 0 0 .361-.114.94.94 0 0 0 .293-.406q.113-.27.159-.697.067-.452.066-1.106 0-.653-.066-1.082-.046-.45-.159-.72-.112-.271-.293-.383a.54.54 0 0 0-.361-.135h-10.504v-8.228h8.815a.6.6 0 0 0 .359-.114.8.8 0 0 0 .293-.359q.113-.27.158-.699.068-.428.069-1.082 0-.63-.069-1.059-.045-.45-.158-.699-.113-.27-.293-.383a.54.54 0 0 0-.359-.135h-8.815v-7.123h10.414a.6.6 0 0 0 .362-.113q.157-.135.269-.406.113-.272.158-.699.068-.45.069-1.081 0-.675-.069-1.105a2.6 2.6 0 0 0-.158-.721q-.112-.293-.269-.406a.6.6 0 0 0-.362-.113zm51.55 0q-.744 0-1.263.451-.496.428-.496 1.42v26.484q0 .226.136.407t.473.292q.339.114.902.182.586.067 1.442.067.88 0 1.443-.067.563-.068.901-.182.338-.112.474-.292a.6.6 0 0 0 .158-.407V229.42h1.848q.946 0 1.668.293a3.5 3.5 0 0 1 1.262.879q.564.563 1.015 1.42.452.856.924 1.961l2.613 6.513q.092.272.227.475.135.18.451.314.338.114.901.159t1.509.045q1.128 0 1.782-.045.653-.045.992-.159.337-.112.428-.269a.95.95 0 0 0 .089-.428q0-.226-.111-.609a14 14 0 0 0-.451-1.262l-2.457-5.748a18 18 0 0 0-.879-1.85 9 9 0 0 0-.969-1.464 5.8 5.8 0 0 0-1.082-1.104 6.4 6.4 0 0 0-1.219-.768 9.6 9.6 0 0 0 2.412-1.127 7.2 7.2 0 0 0 1.782-1.644 6.7 6.7 0 0 0 1.082-2.141q.383-1.218.383-2.683 0-1.735-.518-3.065a6.4 6.4 0 0 0-1.51-2.322q-.97-.991-2.39-1.6-1.397-.609-3.155-.857a27 27 0 0 0-1.353-.113 32 32 0 0 0-1.893-.045zm165.807 0q-.901 0-1.465.541-.54.518-.541 1.578v26.236q0 .226.135.407t.473.292q.338.114.902.182.586.067 1.443.067.879 0 1.442-.067a4.7 4.7 0 0 0 .902-.182q.339-.112.473-.292a.6.6 0 0 0 .158-.407v-9.308h2.434q2.885 0 5.003-.676 2.142-.677 3.608-1.961a8.5 8.5 0 0 0 2.23-3.201q.767-1.893.768-4.35 0-1.78-.496-3.201a7.2 7.2 0 0 0-1.444-2.502 7.8 7.8 0 0 0-2.298-1.781 9.5 9.5 0 0 0-2.637-.946q-1.308-.27-2.254-.339-.924-.09-1.961-.09zm160.082 0q-.744 0-1.262.451-.495.428-.496 1.42v25.426q0 .991.496 1.443.518.428 1.262.428h14.652a.6.6 0 0 0 .36-.114.94.94 0 0 0 .293-.406q.113-.27.158-.697.068-.452.068-1.106 0-.653-.068-1.082-.045-.45-.158-.72-.113-.271-.293-.383a.54.54 0 0 0-.36-.135h-10.503v-8.228h8.812a.6.6 0 0 0 .361-.114.8.8 0 0 0 .293-.359q.112-.27.157-.699.068-.428.068-1.082 0-.63-.068-1.059-.045-.45-.157-.699-.112-.27-.293-.383a.54.54 0 0 0-.361-.135h-8.812v-7.123h10.412a.6.6 0 0 0 .361-.113q.157-.135.27-.406.113-.272.158-.699.068-.45.068-1.081 0-.675-.068-1.105a2.6 2.6 0 0 0-.158-.721q-.113-.293-.27-.406a.6.6 0 0 0-.361-.113zm-260.613 4.351q2.164 0 3.607.743a5.66 5.66 0 0 1 2.299 2.074q.88 1.33 1.24 3.224.36 1.872.36 4.17 0 2.097-.383 3.967-.361 1.849-1.262 3.246a6.54 6.54 0 0 1-2.367 2.209q-1.465.811-3.65.811-2.187 0-3.629-.7a5.66 5.66 0 0 1-2.301-2.072q-.856-1.352-1.217-3.246-.36-1.917-.359-4.307 0-2.05.359-3.876.384-1.849 1.285-3.223a6.6 6.6 0 0 1 2.367-2.186q1.465-.834 3.651-.834m-61.106.18h2.659q1.014 0 1.578.068.585.067 1.037.18 1.488.405 2.14 1.397.655.992.655 2.435 0 .946-.315 1.713-.315.766-.947 1.33-.632.54-1.578.856-.947.293-2.209.293h-3.02zm165.559.045h2.525q.924 0 1.78.135a4.3 4.3 0 0 1 1.668.586q.789.472 1.33 1.465.54.992.541 2.525a6.7 6.7 0 0 1-.315 2.096q-.316.947-.926 1.646-.607.676-1.576 1.059-.947.382-2.367.382h-2.66zm-269.516.992h.022l4.125 12.397h-8.272zm324.537 0h.022l4.125 12.397h-8.272z" style="fill:url(#a);fill-rule:nonzero" transform="translate(21.536 263.936)scale(.73471)"/>
	<path d="M670.518 90.033c-9.962 0-27.113 5.732-31.561 24.082s8.467 24.08 19.574 24.08h27.25c8.34 0 10.785 2.745 9.416 8.244-1.368 5.5-6.452 8.241-13.519 8.241h-52.09l-3.943 15.841h54.724c9.962 0 27.115-5.732 31.563-24.082s-8.468-24.08-19.575-24.08h-27.25c-8.339 0-10.786-2.741-9.418-8.24s6.455-8.244 13.522-8.244h52.09l3.943-15.842zm144.707 0c-9.962 0-27.115 5.732-31.563 24.082s8.469 24.08 19.576 24.08h27.248c8.34 0 10.787 2.745 9.418 8.244-1.368 5.5-6.452 8.241-13.519 8.241h-52.092l-3.941 15.841h54.724c9.962 0 27.115-5.732 31.563-24.082s-8.47-24.08-19.577-24.08h-27.248c-8.339 0-10.786-2.741-9.418-8.24s6.453-8.244 13.52-8.244h52.092l3.941-15.842zm-426.52.055c-18.056 0-28.69 9.845-32.564 25.41l-7.137 28.682c-3.874 15.565 1.858 25.41 19.914 25.41h53.961l3.941-15.836h-52.156c-6.369 0-11.252-3.834-9.41-11.236l6.31-25.358c1.843-7.402 8.634-11.236 15.002-11.236h52.159l3.941-15.836zm146.033 0L481.17 169.59h17.277l10.397-15.231h38.158l2.816 15.231h17.278l-13.994-79.502zm399.27.1-19.762 79.402h80.174l3.941-15.836h-64.332l3.991-16.035h64.332l3.943-15.84h-64.334l3.955-15.885h64.328l3.936-15.806zm-395.135 20.179 5.092 27.549h-23.899z" style="fill:url(#b);fill-rule:nonzero" transform="translate(21.536 263.936)scale(.73471)"/>
	<path d="M162.102 16.057c-80.575 0-146.045 65.47-146.045 146.045 0 30.331 9.284 58.517 25.152 81.88a474 474 0 0 1 5.875-17.377c-10.701-19.064-16.826-41.054-16.826-64.503 0-72.9 58.944-131.844 131.844-131.844s131.843 58.944 131.843 131.844c0 23.449-6.127 45.439-16.828 64.503a474 474 0 0 1 5.877 17.377c15.868-23.363 25.152-51.549 25.152-81.88 0-80.575-65.47-146.045-146.044-146.045m0 78.664c-.742-.01-1.503.524-2.688 1.633-17.998 16.832-48.366 46.685-61.396 57.847-1.785 1.529-1.962 1.877-3.122 4.299-17.03 35.59-33.584 75.56-41.662 106.475-1.025 3.924-.453 6.841 1.442 10.033l47.094 79.322-11.721-46.994c-1.021-4.095-.382-6.95 1.609-10.568 13.524-24.577 33.573-46.016 54.449-67.782 1.836-1.914 2.655-2.001 3.516.1l12.479 31.045 12.478-31.045c.861-2.101 1.68-2.014 3.516-.1 20.876 21.766 40.924 43.205 54.447 67.782 1.991 3.618 2.633 6.473 1.611 10.568l-11.722 46.994 47.095-79.322c1.896-3.192 2.467-6.109 1.442-10.033-8.077-30.915-24.632-70.885-41.662-106.475-1.16-2.422-1.338-2.77-3.123-4.299-13.03-11.162-43.396-41.015-61.395-57.847-1.185-1.109-1.946-1.643-2.687-1.633m0 12.017c.924 0 1.336.366 2.187 1.205l19.172 18.905c.715.705.693 1.386.693 1.814h-44.107c0-.428-.02-1.109.695-1.814l19.172-18.905c.852-.839 1.264-1.205 2.188-1.205m-43.247 179.934c-2.926 4.012-5.662 8.05-8.173 12.129 16 6.033 33.326 9.345 51.42 9.345s35.419-3.312 51.419-9.345c-2.511-4.079-5.247-8.117-8.173-12.129a131.9 131.9 0 0 1-43.246 7.273c-15.159 0-29.699-2.58-43.247-7.273" style="fill:url(#c);fill-rule:nonzero" transform="translate(21.536 263.936)scale(.73471)"/>
	<defs>
		<linearGradient id="a" x1="0" x2="1" y1="0" y2="0" gradientTransform="matrix(0 88.5 -88.5 0 722 85.387)" gradientUnits="userSpaceOnUse">
			<stop offset="0" style="stop-color:#49e1f6;stop-opacity:1"/>
			<stop offset="1" style="stop-color:#0bcae4;stop-opacity:1"/>
		</linearGradient>
		<linearGradient id="b" x1="0" x2="1" y1="0" y2="0" gradientTransform="matrix(0 88.5 -88.5 0 722 85.387)" gradientUnits="userSpaceOnUse">
			<stop offset="0" style="stop-color:#49e1f6;stop-opacity:1"/>
			<stop offset="1" style="stop-color:#0bcae4;stop-opacity:1"/>
		</linearGradient>
		<radialGradient id="c" cx="0" cy="0" r="1" gradientTransform="matrix(146.98402 0 0 172.59809 162.102 187.716)" gradientUnits="userSpaceOnUse">
			<stop offset="0" style="stop-color:#49e1f6;stop-opacity:1"/>
			<stop offset=".18" style="stop-color:#49e1f6;stop-opacity:1"/>
			<stop offset="1" style="stop-color:#0bcae4;stop-opacity:1"/>
		</radialGradient>
	</defs>
</svg>
