<?xml version="1.0" encoding="UTF-8"?>
<svg id="logo" xmlns="http://www.w3.org/2000/svg" viewBox="0 0 192 192">
  <defs>
    <style>
      .cls-1 {
        fill: #000;
      }

      .cls-1, .cls-2, .cls-3 {
        stroke-width: 0px;
      }

      .cls-2 {
        fill: #fff;
      }

      .cls-3 {
        fill: #ea1d25;
      }
    </style>
  </defs>
  <g>
    <g>
      <polygon class="cls-1" points="110.34 84.23 109.25 84.23 104.64 84.23 103.77 84.23 103.48 85.1 97.31 106.72 97.03 107.77 98.06 107.77 102.66 107.77 103.61 107.77 103.83 106.9 110.02 85.28 110.34 84.23"/>
      <polygon class="cls-1" points="177.24 84.23 170.32 107.77 176.98 107.77 184 84.23 177.24 84.23"/>
      <path class="cls-1" d="M88.92,84.23h-28.85l-5.93,22.15-.45,1.36h7.4l.32-1.17,4.53-17.13h9.31l-4.47,16.93-.38,1.36h7.22l.28-1.17,4.53-17.13h5.24c.99,0,1.8.38,2.31,1.07.51.71.65,1.66.36,2.69l-3.42,13.19-.42,1.36h6.9l.38-1.17,3.42-13.19c.69-2.47.38-4.79-.91-6.53-1.27-1.7-4.94-2.65-7.36-2.65Z"/>
      <path class="cls-1" d="M169.9,98.57h-4.79l-2.57-14.34h-7.57l-15.07,19.2c-1.09,0-6.7-.02-8.5-.02-2.59,0-3.97-1.13-3.7-2.85h2.12c.87-.06,2.02-.18,3.44-.44,2.93-.55,6.51-2.12,7.57-6.92,1.23-5.48-1.38-8.98-8.94-8.98h-17.28l-2.71,8.98-4.35,14.55h6.64l2.14-7.2h4.77c-.51,5.79,4.83,7.2,9.04,7.2h13.78l3.56-4.75h12.04l.77,4.75h6.49l-.87-4.75h2.77l1.23-4.45ZM117.85,95.41l.67-2.21h.02l1.15-3.8h9.53c3.42,0,5.7.59,5.24,2.83-.57,2.87-3.97,3.18-7.02,3.18h-9.59ZM150.84,98.57l6.59-8.68,1.38,8.68h-7.97Z"/>
    </g>
    <g>
      <path class="cls-3" d="M44.35,77.75h-11.73l8.6-10.22h-9.24l-23.99,28.48,5.64,18.25h11.75l-8.62,10.22h9.25l23.97-28.48-5.64-18.25Z"/>
      <g>
        <path class="cls-2" d="M27.52,100.11c-1.92-.87-3.38-2.16-4.41-3.82-.1-.14.08-.38.28-.38h5.04c.12,0,.26-.1.3-.24l.45-1.62c.04-.12-.04-.24-.16-.24h-6.09c-.12,0-.2-.1-.16-.24l.4-1.42c.04-.12.16-.24.3-.24h5.28c.12,0,.26-.1.3-.24l.45-1.62c.04-.12-.04-.24-.16-.24h-5.28c-.12,0-.2-.1-.16-.24l.51-1.84c.04-.12-.04-.24-.16-.24h-1.78c-.12,0-.26.1-.3.24l-.51,1.84c-.04.12-.16.24-.3.24h-5.12c-.12,0-.26.1-.3.24l-.45,1.62c-.04.12.04.24.16.24h5.12c.12,0,.2.1.16.24l-.4,1.42c-.04.12-.16.24-.3.24h-5.99c-.12,0-.26.1-.3.24l-.45,1.62c-.04.12.04.24.16.24h4.98c.2,0,.24.24.06.38-1.88,1.58-4.05,2.93-6.59,4.05-.16.06-.24.24-.18.36.28.49.55,1.03.79,1.58.04.1.18.12.3.06,2.2-1.23,4.11-2.57,5.75-4.05.18-.16.42-.08.36.14l-1.31,4.61c-.04.12.04.24.16.24h1.78c.12,0,.26-.1.3-.24l1.32-4.75c.06-.22.36-.32.44-.14.85,1.64,2.02,3.01,3.52,4.07.08.06.22.04.32-.06.61-.59,1.21-1.17,1.78-1.7.2-.12.2-.3.08-.36Z"/>
        <path class="cls-2" d="M43.73,100.21c-1.6-.73-2.89-1.72-3.88-2.99-.12-.14.06-.4.26-.4h4.47c.12,0,.26-.1.3-.24l.45-1.6c.04-.12-.04-.24-.16-.24h-3.52l.45-.4c.57-.45,1.19-.97,1.86-1.58.12-.1.14-.26.06-.34l-.67-.63-.4-.42h2.33c.12,0,.26-.1.3-.24l.45-1.62c.04-.12-.04-.24-.16-.24h-5.28c-.12,0-.2-.1-.16-.24l.38-1.31c.04-.12-.04-.24-.16-.24h-1.86c-.12,0-.26.1-.3.24l-.38,1.31c-.04.12-.16.24-.3.24h-5.2c-.12,0-.26.1-.3.24l-.45,1.62c-.04.12.04.24.16.24h2.2l-.59.42-.91.57c-.12.08-.18.24-.12.34.38.63.67,1.19.89,1.66l.18.36h-3.36c-.12,0-.26.1-.3.24l-.45,1.6c-.04.12.04.24.16.24h4.25c.2,0,.24.24.04.4-1.68,1.32-3.52,2.37-5.54,3.18-.16.06-.24.22-.18.34.22.45.45.97.69,1.5.04.1.16.12.28.08,2.23-1.11,4.15-2.39,5.79-3.86.18-.16.42-.06.36.16l-1.25,4.43c-.04.12.04.24.16.24h1.86c.12,0,.26-.1.3-.24l1.25-4.43c.06-.22.36-.32.44-.16.79,1.42,2.02,2.69,3.66,3.76.08.06.24.02.32-.08.53-.55,1.05-1.09,1.58-1.6.12-.08.12-.26,0-.32ZM36.58,94.54c-.04.12-.16.24-.3.24h-2.35l.57-.42.97-.59c.12-.08.18-.24.14-.34-.32-.57-.65-1.11-.97-1.6l-.2-.38h2.77c.12,0,.2.1.16.24l-.79,2.85ZM39.05,94.77c-.12,0-.2-.1-.16-.24l.81-2.87c.04-.12.16-.24.3-.24h2.89l-.44.38c-.65.57-1.29,1.11-1.92,1.58-.12.1-.16.26-.08.34l.57.63.34.4h-2.31v.02Z"/>
      </g>
    </g>
  </g>
</svg>