<?xml version="1.0" encoding="UTF-8"?>
<svg id="logo" xmlns="http://www.w3.org/2000/svg" viewBox="0 0 192 192">
  <defs>
    <style>
      .cls-1 {
        fill: #fbb815;
      }

      .cls-1, .cls-2 {
        stroke-width: 0px;
      }

      .cls-2 {
        fill: #808285;
      }
    </style>
  </defs>
  <g>
    <g>
      <path class="cls-2" d="M66.44,109.91c-1.26,0-2.41-.94-2.71-2.08l-3.14-13.25,14.3-7.09c3.44-1.66,6.37-5.1,7.42-9.29l4.91-18.79c1.24-4.7-1.78-8.57-6.67-8.57H27.61L8,127.84h18.58l4.8-18.68,12.52-6.27,4.49,18.58c.84,3.44,4.38,6.37,8.03,6.37h14.81l4.59-17.95h-9.39v.02ZM37.11,86.74l.14-.56,4.45-17.48h21.51c1.66,0,2.81.63,2.41,1.99-.3,1.05-1.05,2.29-3.14,3.35l-25.37,12.71Z"/>
      <path class="cls-2" d="M139.34,94.68l-29.84-19.73c-1.66-1.05-2.29-2.29-1.87-3.96s1.66-2.29,3.35-2.29l27.92.07h.02l.02-.07,4.59-17.83v-.05h-.02l-43.09.05c-3.65,0-7.3,2.93-8.14,6.37l-4.28,16.9c-.84,3.44.84,8.03,3.86,10.02l30.05,20.03c1.66,1.15,1.99,2.2,1.57,3.56-.3,1.05-1.57,2.2-3.23,2.2h-22.66l-4.59,17.95h37.56c3.74,0,7.51-2.93,8.36-6.37l4.28-16.8c.82-3.46-.84-8.05-3.86-10.04Z"/>
      <polygon class="cls-2" points="165.42 50.82 165.42 50.84 165.35 50.84 145.5 127.86 164.27 127.86 184 50.84 165.42 50.82"/>
    </g>
    <polygon class="cls-1" points="88.04 109.91 85.05 109.91 84.98 109.91 80.37 127.86 80.39 127.86 83.43 127.86 83.46 127.86 88.09 109.91 88.04 109.91"/>
    <polygon class="cls-1" points="81.82 109.91 78.82 109.91 78.8 109.94 74.12 127.86 74.16 127.86 77.21 127.86 77.32 127.86 81.96 109.91 81.82 109.91"/>
    <polygon class="cls-1" points="91.3 109.91 91.09 109.91 86.5 127.86 86.66 127.86 89.73 127.86 94.31 109.91 91.3 109.91"/>
    <polygon class="cls-1" points="157.55 68.7 162.12 50.84 159.1 50.84 154.51 68.7 157.55 68.7"/>
    <polygon class="cls-1" points="151.42 68.7 155.99 50.84 152.99 50.84 148.38 68.7 151.42 68.7"/>
    <polygon class="cls-1" points="149.83 50.84 149.76 50.84 149.76 50.82 146.74 50.82 146.55 50.82 146.53 50.84 141.97 68.7 141.94 68.77 142.11 68.77 145.15 68.77 145.17 68.77 145.2 68.7 149.83 50.84"/>
    <g>
      <path class="cls-2" d="M12.07,141.16l-1.92-2.39h-.87v2.39h-1.29v-6.34h4.17c.44,0,.75.09.91.3.16.21.26.51.26.94v1.47c0,.42-.09.75-.26.94-.16.21-.49.3-.91.3h-.51l2.2,2.39h-1.78ZM12.07,136.43c0-.19-.02-.3-.09-.37-.07-.07-.16-.09-.3-.09h-2.39v1.73h2.39c.14,0,.23-.05.3-.09.07-.07.09-.19.09-.37v-.8Z"/>
      <path class="cls-2" d="M21.13,140.85c-.16.21-.51.33-1.03.33h-3.51c-.51,0-.87-.12-1.03-.33s-.26-.61-.26-1.19v-3.35c0-.56.09-.96.26-1.19.16-.21.51-.33,1.03-.33h3.51c.51,0,.87.12,1.03.33s.26.61.26,1.19v3.35c-.02.59-.09.96-.26,1.19ZM20.08,135.99h-3.46v3.98h3.46v-3.98Z"/>
      <path class="cls-2" d="M28.55,140.85c-.23.21-.61.3-1.15.3h-3.89v-6.34h4.19c.44,0,.75.09.91.3.16.21.26.51.26.94v.77c0,.61-.26.96-.8,1.05.56.12.84.51.84,1.22v.82c-.02.42-.14.73-.37.94ZM27.64,136.31c0-.16-.05-.28-.12-.35s-.16-.09-.3-.09h-2.43v1.47h2.43c.14,0,.23-.02.3-.09.07-.07.09-.19.09-.35v-.59h.02ZM27.66,138.96c0-.21-.05-.35-.12-.44-.07-.07-.19-.12-.33-.12h-2.43v1.59h2.43c.14,0,.26-.05.33-.12.07-.07.09-.23.09-.44v-.47h.02Z"/>
      <path class="cls-2" d="M30.84,141.16v-6.34h5.08v1.1h-3.77v1.38h2.2v1.1h-2.2v1.54h3.81v1.22h-5.13Z"/>
      <path class="cls-2" d="M41.89,141.16l-1.92-2.39h-.87v2.39h-1.29v-6.34h4.17c.44,0,.75.09.91.3.16.21.26.51.26.94v1.47c0,.42-.09.75-.26.94-.16.21-.49.3-.91.3h-.51l2.2,2.39h-1.78ZM41.89,136.43c0-.19-.02-.3-.09-.37s-.16-.09-.3-.09h-2.39v1.73h2.39c.14,0,.23-.05.3-.09.07-.07.09-.19.09-.37v-.8Z"/>
      <path class="cls-2" d="M47.41,135.99v5.17h-1.31v-5.2h-2.18v-1.17h5.69v1.17h-2.2v.02Z"/>
      <path class="cls-2" d="M55.91,140.85c-.16.21-.51.33-1.03.33h-2.95c-.51,0-.87-.12-1.03-.33-.16-.21-.26-.61-.26-1.19v-.19l1.19-.33v.8h3.16v-1.4h-2.86c-.51,0-.87-.12-1.03-.33-.16-.21-.26-.61-.26-1.19v-.7c0-.56.09-.96.26-1.19.16-.21.51-.33,1.03-.33h2.67c.51,0,.84.09,1.03.3.16.21.26.56.26,1.08v.14l-1.17.37v-.77h-2.93v1.33h2.88c.51,0,.87.12,1.03.33.16.21.26.61.26,1.19v.87c0,.59-.09.98-.26,1.22Z"/>
      <path class="cls-2" d="M66.96,140.85c-.16.21-.51.33-1.03.33h-2.95c-.51,0-.87-.12-1.03-.33-.16-.21-.26-.61-.26-1.19v-.19l1.19-.33v.8h3.16v-1.4h-2.86c-.51,0-.87-.12-1.03-.33-.16-.21-.26-.61-.26-1.19v-.7c0-.56.09-.96.26-1.19.16-.21.51-.33,1.03-.33h2.71c.51,0,.84.09,1.03.3.16.21.26.56.26,1.08v.14l-1.17.37v-.77h-2.93v1.33h2.88c.51,0,.87.12,1.03.33.16.21.26.61.26,1.19v.87c-.05.59-.14.98-.3,1.22Z"/>
      <path class="cls-2" d="M74.4,138.4c-.16.21-.47.3-.91.3h-2.88v2.46h-1.29v-6.34h4.17c.44,0,.75.09.91.3.16.21.26.51.26.94v1.4c0,.44-.09.75-.26.94ZM73.37,136.43c0-.19-.02-.3-.09-.37s-.16-.09-.3-.09h-2.39v1.64h2.39c.14,0,.23-.02.3-.09.07-.07.09-.19.09-.37v-.7Z"/>
      <path class="cls-2" d="M79.83,141.16l-.56-1.38h-2.83l-.56,1.38h-1.31l2.71-6.34h1.26l2.74,6.34h-1.45ZM77.86,136.31l-.96,2.32h1.87l-.91-2.32Z"/>
      <path class="cls-2" d="M87.43,140.85c-.16.21-.51.33-1.03.33h-2.83c-.51,0-.87-.12-1.03-.33-.16-.21-.26-.61-.26-1.19v-3.35c0-.56.09-.96.26-1.19.16-.21.51-.33,1.03-.33h2.83c.51,0,.87.12,1.03.33.16.21.26.61.26,1.19v.61l-1.31.28v-1.22h-2.79v3.98h2.79v-1.4l1.31.35v.75c0,.59-.09.96-.26,1.19Z"/>
      <path class="cls-2" d="M89.77,141.16v-6.34h5.08v1.1h-3.77v1.38h2.2v1.1h-2.2v1.54h3.81v1.22h-5.13Z"/>
      <path class="cls-2" d="M100.33,141.16v-6.34h1.31v6.34h-1.31Z"/>
      <path class="cls-2" d="M105.03,137.04c.02.26.02.49.02.7v3.42h-1.19v-6.34h.96l3.37,3.74c.14.16.23.28.3.35l.02.02c-.02-.4-.02-.66-.02-.77v-3.35h1.19v6.34h-.96l-3.51-3.91c-.07-.05-.12-.12-.19-.21Z"/>
      <path class="cls-2" d="M116.83,140.67c-.4.33-1.1.51-2.06.51h-2.88v-6.34h3.16c.94,0,1.64.28,2.11.82s.7,1.31.7,2.32c.02,1.22-.33,2.11-1.03,2.69ZM116.15,136.48c-.26-.33-.61-.49-1.08-.49h-1.87v3.98h1.33c.7,0,1.22-.16,1.52-.47s.47-.82.47-1.54c0-.68-.12-1.15-.37-1.47Z"/>
      <path class="cls-2" d="M125.04,140.85c-.16.21-.51.33-1.03.33h-3.02c-.51,0-.87-.12-1.03-.33s-.26-.61-.26-1.19v-4.84h1.31v5.13h2.95v-5.13h1.31v4.84c0,.59-.07.96-.23,1.19Z"/>
      <path class="cls-2" d="M132.65,140.85c-.16.21-.51.33-1.03.33h-2.95c-.51,0-.87-.12-1.03-.33s-.26-.61-.26-1.19v-.19l1.19-.33v.8h3.16v-1.4h-2.86c-.51,0-.87-.12-1.03-.33s-.26-.61-.26-1.19v-.7c0-.56.09-.96.26-1.19.16-.21.51-.33,1.03-.33h2.71c.51,0,.84.09,1.03.3.16.21.26.56.26,1.08v.14l-1.17.37v-.77h-2.93v1.33h2.88c.51,0,.87.12,1.03.33s.26.61.26,1.19v.87c-.05.59-.14.98-.3,1.22Z"/>
      <path class="cls-2" d="M137.43,135.99v5.17h-1.31v-5.2h-2.2v-1.17h5.69v1.17h-2.18v.02Z"/>
      <path class="cls-2" d="M144.84,141.16l-1.92-2.39h-.87v2.39h-1.29v-6.34h4.17c.44,0,.75.09.91.3.16.21.26.51.26.94v1.47c0,.42-.09.75-.26.94-.16.21-.47.3-.91.3h-.51l2.2,2.39h-1.78ZM144.84,136.43c0-.19-.02-.3-.09-.37-.07-.07-.16-.09-.3-.09h-2.39v1.73h2.39c.14,0,.23-.05.3-.09.07-.07.09-.19.09-.37v-.8Z"/>
      <path class="cls-2" d="M148.17,141.16v-6.34h1.31v6.34h-1.31Z"/>
      <path class="cls-2" d="M151.73,141.16v-6.34h5.08v1.1h-3.77v1.38h2.2v1.1h-2.2v1.54h3.81v1.22h-5.13Z"/>
      <path class="cls-2" d="M163.83,140.85c-.16.21-.51.33-1.03.33h-2.95c-.51,0-.87-.12-1.03-.33s-.26-.61-.26-1.19v-.19l1.19-.33v.8h3.16v-1.4h-2.86c-.51,0-.87-.12-1.03-.33s-.26-.61-.26-1.19v-.7c0-.56.09-.96.26-1.19.16-.21.51-.33,1.03-.33h2.71c.51,0,.84.09,1.03.3.16.21.26.56.26,1.08v.14l-1.17.37v-.77h-3v1.33h2.88c.51,0,.87.12,1.03.33s.26.61.26,1.19v.87c0,.59-.07.98-.23,1.22Z"/>
    </g>
  </g>
</svg>