<?xml version="1.0" encoding="UTF-8"?>
<svg xmlns="http://www.w3.org/2000/svg" xml:space="preserve" style="fill-rule:evenodd;clip-rule:evenodd;stroke-linejoin:round;stroke-miterlimit:2" viewBox="0 0 800 800">
	<path d="M0 0h192v192H0z" style="fill:none" transform="scale(4.16667)"/>
	<path d="M76.803 54.77c.157.025.246.15.407.382l.159.23c.102.151.207.307.32.453l.095.125c.397.51.435.588.426.644-.028.179-.218.271-.42.37-.06.03-.124.06-.18.093-.16.09-.28.148-.376.194-.22.104-.259.124-.284.286-.012.082.07.141.258.256.163.1.254.218.463.595.215.426.311.858.303 1.363l-.002.069c-.004.125-.004.183.02.188a.8.8 0 0 0 .258-.05c.086-.026.155-.048.207-.04l.002-.002c.082.013.195.116.18.217-.008.056-.05.117-.469.269-.072.026-.159.06-.25.096-.317.126-.54.21-.66.21q-.016 0-.028-.002c-.234-.036-.305-.213-.385-.624a3 3 0 0 1-.025-.221c-.04-.445-.126-1.37-.518-1.758l-.036-.04a.63.63 0 0 0-.404-.253.3.3 0 0 0-.084.002c-.05.006-.109.013-.15-.03-.04-.044-.036-.106-.03-.15.008-.045.014-.087.561-.327.274-.12.589-.246.746-.305.013-.004.034-.016.044-.05a.17.17 0 0 0-.009-.114l-.037-.042c-.068-.075-.183-.2-.43-.72-.223-.468-.304-.55-.332-.556a.6.6 0 0 0-.16.043c-.154.058-.213.078-.265.07a.17.17 0 0 1-.116-.063.13.13 0 0 1-.023-.097c.013-.09.089-.18.422-.34.13-.062.263-.13.38-.191.295-.154.37-.19.422-.18m7.581 3.979c.09-.016.185.074.198.129.019.083-.043.171-.084.23l-.017.024-.573.888a.2.2 0 0 1-.161.098h-.004l-.11-.01a5 5 0 0 1-.32-.136 3 3 0 0 0-.469-.18c-.907-.237-1.423.231-1.848.773-.064.083-.125.106-.173.106a.2.2 0 0 1-.069-.016c-.077-.038-.128-.143-.114-.199.057-.205.549-1.085 1.76-1.36.47-.107.929.026 1.204.107.09.026.192.055.218.051.106-.024.334-.308.406-.417.025-.04.062-.078.154-.089z" style="fill-rule:nonzero" transform="matrix(14.37907 0 0 14.37908 -728.757 -153.595)"/>
	<path d="M73.381 54.5c.194-.033.438-.032.668.003.238.037.586.195.854.528.205.255.428.698.324 1.364l-.392 2.522q-.045.293-.035.374.005.054.07.106c.483.38.65.499.71.509.159.024.317-.08.471-.18.154-.101.299-.196.44-.154h.002a.09.09 0 0 1 .07.083c.013.14-.273.396-.624.561a2 2 0 0 0-.46.31c-.069.059-.135.115-.196.115q-.042.002-.082-.042c-.571-.668-1.234-.838-1.684-.908-.34-.053-.739.09-.953.167-.121.044-.165.059-.202.053-.06-.01-.104-.046-.12-.096-.016-.054-.007-.145.13-.27.299-.287.722-.35 1.031-.397.122-.018.29-.043.31-.076.13-.84-.474-1.369-.875-1.719-.21-.183-.348-.304-.33-.428a.2.2 0 0 1 .147-.166.6.6 0 0 1 .281-.007c.317.05.52.225.684.368.098.086.185.16.27.186a1 1 0 0 0 .036-.161l.176-1.129c.097-.63-.099-.973-.6-1.05-.341-.054-.434-.098-.472-.15a.1.1 0 0 1-.02-.082c.016-.113.145-.193.371-.233m10.404.319q.11-.026.345.123l.683.43q.063.04.117.068c.09.05.163.09.18.165.019.081-.04.201-.207.412l-.311.383-.1.124-.246.312c-.035.04-.043.071-.033.12.013.015.065.048.11.078.06.039.143.093.238.165l.643.482c.27.198.42.52.541.78.061.132.145.311.192.317.01.001.031-.01.067-.055a.2.2 0 0 1 .115-.078h-.002a.17.17 0 0 1 .17.083c.017.033.047.12-.061.23a5 5 0 0 0-.354.397c-.122.15-.203.248-.315.273a.5.5 0 0 1-.1.012c-.274 0-.425-.288-.583-.591-.123-.235-.25-.478-.442-.618l-.846-.617a9 9 0 0 0-.253-.182c-.155-.11-.22-.156-.234-.219-.021-.091.033-.18.43-.595.486-.508.491-.687.482-.731-.001-.002-.008-.022-.069-.068l-.347-.247c-.04-.025-.065-.022-.072-.02-.039.008-.12.059-.29.25l-.435.504c-.018.02-.058.05-.13.03-.08-.02-.216-.113-.235-.194-.02-.09.048-.179.217-.357l.846-.932.055-.06c.078-.084.14-.152.234-.174m-1.536-.477a.2.2 0 0 1 .195.056.14.14 0 0 1 .028.141c-.59 1.543-.569 1.837-.41 2.534.11.488.088.983-.063 1.396-.128.346-.338.598-.534.644a.5.5 0 0 1-.103.012q-.11 0-.16-.072c-.057-.081-.031-.217.066-.362.08-.121.108-.218.074-.267-.026-.037-.087-.047-.12-.04h.001a.8.8 0 0 0-.193.08 1.7 1.7 0 0 1-.44.166.5.5 0 0 1-.177.015c-.086-.014-.112-.07-.12-.104-.042-.19.037-.362.563-.585.07-.03.16-.044.247-.056.083-.013.21-.033.232-.065 0-.001.003-.004 0-.014l-.07-.31a.64.64 0 0 0-.194-.31.55.55 0 0 0-.512-.113 6 6 0 0 0-.22.074c-.127.042-.18.06-.197.064a.4.4 0 0 1-.18.006.16.16 0 0 1-.115-.121c-.03-.135.143-.211.407-.325.38-.164.95-.412 1.048-.912.053-.264.15-.423.214-.528.037-.06.066-.108.06-.134-.003-.018-.007-.031-.062-.019s-.093.053-.144.108c-.083.089-.186.2-.412.25-.259.06-.46-.027-.637-.103-.162-.07-.303-.13-.475-.091-.18.041-.236.085-.28.121a.3.3 0 0 1-.118.063c-.121.028-.181-.034-.197-.103-.037-.162.134-.437.495-.519a2 2 0 0 1 .501-.034c.195.007.382-.011.572-.055.265-.06.523-.162.773-.262a5 5 0 0 1 .657-.226m-13.894-2.151c.063-.108.398-.106.587-.088.26.025.656.104 1.072.348.67.394.956.796 1.145 1.062.079.111.14.198.198.232.073.042.254 0 .4-.033.176-.04.328-.075.42-.021l.001-.002c.052.032.122.123.048.269-.062.117-.17.13-.273.142-.156.02-.35.043-.558.398l-1.86 3.172c-.094.162-.116.29-.056.325.1.06.398.02.575-.005.173-.023.23-.03.269-.006.11.064.145.142.154.197a.25.25 0 0 1-.05.19c-.06.083-.16.085-.314.086l-.124.003h-.008c-.184.005-.383.01-.572.01-.378 0-.714-.016-.801-.067-.508-.298-.272-.913-.049-1.35l1.577-2.69c.257-.436.249-1.068-.54-1.531-.084-.05-.532-.3-1.101-.398-.055-.01-.102-.05-.131-.111-.012-.025-.036-.087-.01-.133m18.296.643c.06-.04.183.005.23.056l.019.02.002.111v.007a3.04 3.04 0 0 0 .496 2.157c.681 1.019 2.047 1.598 3.338.734l.037-.026c.352-.234.883-.587 1.201-1.564a.47.47 0 0 1 .186-.252c.082-.056.184.014.243.102.101.151.095.611-.09 1.121-.168.458-.537 1.118-1.345 1.659a2.9 2.9 0 0 1-1.595.496c-.82 0-1.673-.382-2.322-1.35-.518-.775-.626-1.621-.643-2.057-.024-.583.081-1.106.244-1.214" style="fill-rule:nonzero" transform="matrix(14.37907 0 0 14.37908 -728.757 -153.595)"/>
	<path d="M68.348 52.911c.215.004.558.059.968.299.733.43.622.801.54.941-.07.121-.4.233-.935.403-.27.086-.635.202-.717.266a.3.3 0 0 0 .05.036l.757.472c.069.04.1.115.082.203a.4.4 0 0 1-.048.12l-.183.262c-.059.08-.179.117-.313.024l-1.084-.723a.35.35 0 0 0-.288-.03.47.47 0 0 0-.253.217c-.096.164-.11.301-.043.421l.664 1 .021.031c.01.017.011.019.027.028.012.007.03.008.037.006l.278-.035a.2.2 0 0 1 .155.023h.001a.2.2 0 0 1 .096.129.2.2 0 0 1-.02.16.21.21 0 0 1-.158.098l-.812.07h-.022a.23.23 0 0 1-.116-.027.2.2 0 0 1-.091-.109l-.596-1.252c-.035-.077-.09-.122-.157-.125a.19.19 0 0 0-.17.1c-.043.074-.05.146-.06.229a.7.7 0 0 1-.08.293c-.139.238-.462.286-.657.172-.21-.123-.288-.46-.193-.62.087-.148.193-.289.625-.514l2.931-1.532a.6.6 0 0 0 .178-.175.2.2 0 0 0 .02-.139.2.2 0 0 0-.096-.127c-.067-.04-.207-.122-.547-.033a.26.26 0 0 1-.198-.024c-.15-.089-.188-.231-.1-.382.057-.097.26-.16.507-.156M89.42 50.77c.112-.061.23-.027.275.04.079.118.018.431-.087.932-.059.28-.148.705-.106.773.006.009.017.026.089-.003.076-.03.183-.1.294-.175.337-.225.367-.296.372-.359q.012-.171.116-.24c.131-.088.206.002.226.032.031.046.04.131-.007.444-.018.126.003.291.021.424.015.11.026.197.015.252l-.004.02a.48.48 0 0 1-.232.365l-1.012.677-.027.02c-.056.04-.131.096-.228.079q-.107-.017-.197-.152c-.13-.196-.13-.903-.055-1.473a.13.13 0 0 0-.008-.086.4.4 0 0 0-.135-.005c-.314.01-.532.062-.598.099-.008.025-.012.113.05.288l.802 2.301c.03.08.118.327-.063.448a.22.22 0 0 1-.123.04c-.063 0-.138-.033-.21-.143l-.937-1.383.002-.001c-.127-.19-.22-.365-.161-.756.026-.18.118-.49.215-.815.04-.129.078-.26.112-.382l.033-.132c.022-.096.035-.155.08-.185s.1-.03.165-.03h.052l.02-.002c.114-.007.46-.029.865-.3a.73.73 0 0 0 .31-.464c.018-.06.03-.106.06-.136zm-29.094-3.908c.161-.117.479.037.631.111.06.03.115.076.173.124.165.138.283.22.427.116.63-.468 1.514-.436 2.07-.207l1.33.548c.055.022.334.14.405.239.12.165.043.4-.16.893l-.018.04c-.018.042-.041.093-.035.103.005.004.034.018.055.029l.031.016.942.454a.85.85 0 0 1 .393.315c.058.08.06.238.057.487-.003.15-.006.355.03.404.138.19.308.252.445.303.101.038.189.07.242.143.057.08.036.184-.052.247-.071.053-.128.035-.25-.002l-.176-.052-.035-.009c-.22-.055-.494-.125-.617-.036l-3.179 2.309a.5.5 0 0 0-.125.152c-.026.051-.034.098-.02.117a1 1 0 0 0 .1.053l.001.001c.076.037.147.071.18.118.035.048.039.11.01.174a.3.3 0 0 1-.099.12.1.1 0 0 1-.053.017.3.3 0 0 1-.131-.048l-.07-.036c-.306-.156-.64-.333-.729-.455-.116-.161-.1-.392.047-.65.145-.253.406-.521.757-.776l2.608-1.894a.5.5 0 0 0 .143-.218q.019-.045.038-.082c.137-.27.144-.35.11-.397a.7.7 0 0 0-.17-.132l-.727-.377-.91.66c-.126.093-.255.23-.159.364l.39.537a.4.4 0 0 1 .078.148c.013.059-.003.11-.046.142-.115.083-.852-.227-1.028-.47l-.013-.017c-.022-.032-.042-.06-.062-.064-.01-.002-.04 0-.104.047l-1.229.892a.23.23 0 0 0-.086.194c.053.07.182.197.465.29a.14.14 0 0 1 .092.109.27.27 0 0 1-.095.224c-.046.034-.115.03-.23-.017l-1.159-.4a.52.52 0 0 1-.254-.186c-.102-.14.055-.934.167-1.015.054-.039.126-.041.202-.043.09-.002.193-.005.279-.068l.889-.646q.353-.257.245-.431l-.375-.588c-.058-.093-.122-.199-.033-.263.047-.035.41-.098.542-.067.106.012.238.123.382.321.06.085.124.172.192.211.044.026.11.045.222-.037l1.12-.814c.122-.087.187-.149.214-.198.017-.033.02-.062-.02-.116-.004-.006-.028-.037-.094-.063l-.91-.378c-.095-.04-.398-.075-1.13.457l-1.657 1.203c-.345.25-.579.288-.75.316a.55.55 0 0 0-.257.083c-.012.015.002.085.018.109.114.165.218.26.287.324a1 1 0 0 1 .082.083c.057.08.08.136.072.183a.1.1 0 0 1-.04.065c-.075.055-.246.07-.423.037-.124-.022-.354-.09-.495-.285-.105-.145-.178-.365-.248-.579-.055-.166-.107-.324-.162-.4a1.42 1.42 0 0 0-.7-.538c-.071-.027-.118-.045-.145-.082q-.116-.157.022-.258c.147-.107.845.15 1.141.284.46.21.747.223.988.048.73-.53.323-1.166.235-1.289a.3.3 0 0 0-.065-.043.24.24 0 0 1-.087-.065.095.095 0 0 1-.001-.11.2.2 0 0 1 .064-.063m18.3-17.858c1.638 0 5.112.482 6.718.559a.15.15 0 0 1 .14.155c-.08 1.803-1.559 3.84-2.397 4.526a.11.11 0 0 1-.17-.038c-.62-1.323-2.212-2.913-6.265-2.734-1.999.089-4.027 1.247-4.027 5.638 0 5.455 3.22 8.052 6.702 8.052 1.896 0 3.276-.77 3.276-2.797 0-2.026-1.614-2.892-4.393-2.892a12 12 0 0 0-.804.03.21.21 0 0 1-.195-.288c.366-.927.778-1.697 1.3-2.095a.3.3 0 0 1 .185-.063l6.43-.024c.17 0 .307.139.304.308-.026 1.693-.28 3.538-1.237 5.143a.3.3 0 0 0 .115.422c.782.424 1.635.904 2.253 1.248.234.13.27.452.069.63-2.699 2.386-5.527 3.038-9.33 2.976-3.662-.06-8.851-2.78-8.851-8.677v.001c0-5.117 3.792-10.08 10.177-10.08" style="fill-rule:nonzero" transform="matrix(14.37907 0 0 14.37908 -728.757 -153.595)"/>
	<path d="M400 207.651a191.3 191.3 0 0 1 136.012 56.337 191.3 191.3 0 0 1 56.337 136.026 191.3 191.3 0 0 1-56.337 135.998 191.3 191.3 0 0 1-136.026 56.351 191.3 191.3 0 0 1-135.998-56.351A191.3 191.3 0 0 1 207.637 400a191.3 191.3 0 0 1 56.351-136.012A191.3 191.3 0 0 1 400 207.651m0 7.218c-102.091 0-185.145 83.054-185.145 185.131S297.91 585.145 400 585.145 585.13 502.092 585.13 400c0-102.091-83.039-185.13-185.13-185.13"/>
	<path d="M461.73 92.058c.862-2.517 4.701-2.589 11.747-.173 4.86 1.668 8.743 4.817 10.957 8.872 2.43 4.472 2.732 9.778.805 15.342l-13.401 39.14c-.95 2.804.144 6.37 2.904 9.562 3.437 3.926 10.224 7.952 18.09 6.413 5.938-1.179 14.177-5.981 19.756-22.273 9.289-27.119.015-35.602-10.28-40.304-2.747-1.28-3.854-2.315-3.538-3.279.36-1.006 3.551-2.358 10.784.115 18.233 6.24 24.445 23.625 16.622 46.488-8.08 23.61-27.464 29.017-43.094 23.912a72 72 0 0 1-7.19-3.307 58 58 0 0 0-5.204-2.444c-1.18-.389-5.206-1.266-7.722-.935-2.56.316-4.975.532-7.103.733-9.98.92-16.004 1.481-18.377 8.398-1.812 5.277.475 9.72 5.953 11.59 4.803 1.653 10.784.387 17.111-.95 7.046-1.495 14.307-3.02 20.85-.79 5.22 1.782 9.26 4.701 11.676 8.397 2.272 3.48 2.876 7.333 1.653 10.842a8.6 8.6 0 0 1-1.696 3.02 211.4 211.4 0 0 1 56.222 40.333 209.95 209.95 0 0 1 54.813 95.088c1.668 6.327 4.96 12.108 9.634 16.695l34.553 33.805-32.727 32.727a35.95 35.95 0 0 0-9.634 17.614c-11.575 51.405-42.188 97.174-88.33 128.779a201.3 201.3 0 0 1-78.266 32.022c-70.601 12.697-139.506-9.26-188.538-58.278a209.96 209.96 0 0 1-56.64-102.466 35.95 35.95 0 0 0-9.648-17.671l-32.727-32.727 34.568-33.834c4.658-4.544 7.966-10.296 9.62-16.608a209.95 209.95 0 0 1 52.512-92.788c48.999-50.516 120.122-73.36 189.372-60.824a18.7 18.7 0 0 1-4.414-4.328 13.38 13.38 0 0 1-1.87-12.423c2.675-7.794 9.318-9.117 15.17-10.267 4.875-.964 9.073-1.798 10.497-5.939 2.243-6.557-1.524-12.006-4.558-16.392-1.913-2.732-3.408-4.889-2.804-6.614q.316-.949 1.15-1.194a2.88 2.88 0 0 1 1.884.173c1.395.46 3.537 2.588 5.277 4.314.863.834 1.912 1.869 2.186 1.984.604.187 1.236.345 1.869.057q1.236-.575 2.114-3.134c.79-2.315-.705-7.621-4.027-14.178-4.529-9.001-4.644-11.187-4.356-12.05a1.44 1.44 0 0 1 1.25-.992 4.3 4.3 0 0 1 2.157.345c1.108.36 2.402 2.128 4.055 5.507q1.97 4.027 4.717 4.99c.143.058.82.072 1.581-.173.59-.2 1.366-.59 1.64-1.409 6.6-19.268-2.244-23.625-7.003-25.94-1.726-.862-2.99-1.466-2.603-2.573M399.756 196.88c-111.64.13-202.76 90.689-202.89 202.889S288.03 603.262 400.23 603.132c111.64-.129 202.76-91.25 202.889-202.889.13-112.185-91.164-203.492-203.363-203.363m76.266-.316c-4.601-1.582-9.82-1.18-15.342-.748q-2.76.23-5.55.36a208 208 0 0 1 24.918 8.411l-.201-1.696c-.302-2.79-.575-5.22-3.825-6.327"/>
	<path d="M96.853 48.526c.034-.018.091-.027.169.028l-.001-.001c.149.108.649 1.395-.372 2.802-.176.243-.664.838-1.39 1.113a2.1 2.1 0 0 1-.757.144q-.71 0-1.408-.505a2.9 2.9 0 0 1-.791-.92c-.217-.406-.252-.748-.097-.96a.14.14 0 0 1 .125-.062.1.1 0 0 1 .085.055c.249.504.624.817.923 1.035.445.322.989.44 1.53.327a2.17 2.17 0 0 0 1.301-.843c.217-.298.62-.853.584-1.91q-.006-.249.099-.303" style="fill-rule:nonzero" transform="matrix(14.37907 0 0 14.37908 -728.757 -153.595)"/>
	<path d="M93.569 45.988a.16.16 0 0 1 .14.029c.135.097.224.33.226.593.002.224-.054.574-.333.958a2.3 2.3 0 0 1-.592.548 1 1 0 0 0-.123.095c-.008.01-.016.022.004.055a.7.7 0 0 0 .196.181l1.795 1.314c.18.13.175.219.139.269-.03.052-.158.532-.206.713l-.021.077c-.011.041-.042.15-.134.17-.084.018-.174-.041-.314-.205l-1.657-1.918a.19.19 0 0 0-.154-.064c-.102.004-.388.082-.848.716-.434.598-.38 1.077-.342 1.427l.003.027-.016.022a.11.11 0 0 1-.092.04.2.2 0 0 1-.108-.039c-.259-.188-.602-1.29.024-2.152.32-.439.742-.815 1.114-1.145.294-.261.549-.486.698-.693.235-.323.315-.536.374-.692.035-.092.063-.166.11-.232a.23.23 0 0 1 .117-.094" style="fill-rule:nonzero" transform="matrix(14.37907 0 0 14.37908 -728.757 -153.595)"/>
	<path d="M123.72 378c7.909 0 14.207 5.407 14.207 15.99 0 13.602-10.223 24.703-23.956 26.845 8.197-5.176 13.675-11.69 15.099-20.245a11.52 11.52 0 0 1-10.051 5.579c-6.414 0-10.857-5.105-10.857-12.007 0-10.209 7.65-16.162 15.559-16.162m-2.675 4.63c-2.3 0-4.213 1.064-4.213 9.16 0 4.874 2.2 8.196 5.708 8.196 2.373 0 5.177-.72 6.888-4.63-.244-7.478-3.925-12.726-8.383-12.726"/>
	<path d="M97.163 37.007c.26.016 1.144.016 1.516.016-.062.372-.273.686-.682 1.079.355.09.773.384.773.703 0 .545-.583 1.131-1.02 1.131-.41 0-.864-.347-1.004-.364.078-.214.21-.466.363-.615.488.417.707.533.913.533a.255.255 0 0 0 .256-.27c0-.28-.484-.594-.905-.747.318-.277.541-.59.707-.85l-1.26.003c.058-.227.178-.512.343-.62m2.053.005c.153.012.892.012 1.669.012-.008.77-.93 1.47-.93 2.231v.001c0 .145.071.29.186.405-.132.203-.297.26-.45.26-.17 0-.29-.112-.29-.335 0-.677.831-1.545 1.004-1.97h-1.52c.037-.224.169-.5.33-.604m-42.221-.049c.54 0 .897.28.897.801 0 .434-.355.83-.988 1.455h.095c.488 0 .773-.013 1.008-.05-.08.471-.285.715-.65.715-.255 0-1.082-.04-1.375-.04.942-.972 1.319-1.443 1.319-1.852 0-.351-.22-.52-.591-.52-.215 0-.463.082-.645.23.12-.4.463-.74.93-.74M92.36 23.685c.287-.245.79-.308 1.38-.173.53.12 1.028.382 1.27.665.058.07.098.184.12.351.04.305.215.943.3 1.055.02.006.096.022.244.045.23.035.28.064.298.084.077.09.061.137.034.16-.032.027-.2.018-.94-.051-.228-.02-.444-.041-.589-.05l-.022-.002-.004-.023-.043-.256c-.07-.433-.157-.974-.341-1.19-.406-.477-.762-.296-.939-.146a.54.54 0 0 0-.184.382c-.019.244.078.675.647 1.334l.635.733c.314.362.483.833.451 1.262a1.15 1.15 0 0 1-.402.807c-.392.334-.906.45-1.315.45q-.1 0-.187-.008c-.251-.024-.445-.093-.52-.185-.167-.214-.206-.271-.167-.304l.007-.007c.032-.028.07-.062.17-.028.535.175.979.057 1.248-.332.379-.548.294-1.453-.193-2.06l-.72-.898c-.264-.318-.882-1.066-.237-1.615m-27.212.011c.328-.018.573.151.728.281.844.704 1.456 2.507.093 4.141-.356.427-1.079.958-1.954.958-.5 0-1.052-.174-1.613-.642l-.02-.018c-.171-.142-.405-.335-.693-1.27-.071-.234-.128-.42-.06-.518q.038-.057.124-.065c.018 0 .184.04.24.161.138.281.433.604.925 1.015.357.298.91.489 1.445.498h.044c.619 0 1.16-.242 1.529-.683.48-.575.29-1.82-.75-2.687-.279-.232-.709-.323-1.08.12q-.06.075-.123.183c-.06.098-.137.22-.248.353a.3.3 0 0 1-.103.09.09.09 0 0 1-.09-.02c-.067-.055-.031-.25.024-.416.047-.138.16-.414.4-.702.413-.495.81-.757 1.182-.779m24.168 1.434c.136-.115.338-.152.554-.101.167.04.42.149.672.445a4.9 4.9 0 0 1 1.03 2.077c.139.6.128 1.067.06 1.124a.02.02 0 0 1-.019.008.4.4 0 0 1-.121-.047c-.008-.005-.85-.433-.839-.648l.01-.279c.016-.34.03-1.489-.428-2.026a.56.56 0 0 0-.275-.183c-.076-.02-.149-.013-.184.018-.365.31-.168.88-.1 1.005.043.078.093.187.035.237-.026.023-.071.042-.14.01a.5.5 0 0 1-.159-.138c-.129-.15-.23-.454-.258-.774-.03-.343.03-.615.162-.728" style="fill-rule:nonzero" transform="matrix(14.37907 0 0 14.37908 -728.757 -153.595)"/>
	<path d="M91.354 23.779c.137-.053.211-.01.25.035.013.015.03.048 0 .092-.014.023-.037.042-.053.056-.135.115-.206.353-.185.621.025.319.173.651.416.937l.963 1.145c.129.152.32.427.43.703.138.339.12.595-.05.739a.38.38 0 0 1-.249.081.8.8 0 0 1-.23-.04 1.1 1.1 0 0 1-.457-.297c-.048-.056-.092-.137-.07-.194q.014-.04.063-.047c.11-.016.178-.04.225-.08.082-.07.177-.508-.207-.973l-.65-.775v-.002c-.733-.896-.893-1.468-.501-1.801q.174-.15.305-.2m-27.969-1.054c.037-.045.1-.083.186-.012.062.052.08.181.066.445-.004.035-.002.105 0 .186.004.279.002.41-.029.445-.064.078-.367.246-.788.475-.223.121-.476.259-.503.29a.2.2 0 0 0-.058.102l-.02.08c-.021.072-.036.118.03.2l1.816 2.224c.054.069.196.25.078.392a.14.14 0 0 1-.106.054c-.04 0-.088-.018-.147-.067l-1.993-1.664h.001c-.09-.076-.192-.218-.173-.472.015-.2.024-.37.03-.521.011-.22.02-.392.044-.544.03-.185.054-.238.083-.259.1-.062.85-.557 1.075-.827.055-.066.171-.217.264-.34.066-.087.123-.163.144-.187m3.826-3.002c.5-.25 1.469-.16 1.962.826l1.116 2.236q.133.265.19.328.046.053.142.057c.623.031.812.031.875 0 .152-.077.227-.265.292-.432.062-.158.121-.308.241-.349a.054.054 0 0 1 .061.016c.061.07.021.394-.185.758a1.9 1.9 0 0 0-.195.516c-.03.12-.052.208-.135.189-.847-.214-1.482.03-1.885.231-.311.156-.552.501-.68.686-.067.094-.094.133-.118.145a.1.1 0 0 1-.11-.005c-.034-.026-.068-.092-.034-.25.074-.387.37-.673.587-.881.123-.118.238-.23.213-.28-.382-.765-1.178-.846-1.704-.9-.259-.026-.43-.043-.475-.134q-.045-.088.02-.175a.6.6 0 0 1 .206-.154c.27-.135.527-.11.733-.09.148.015.275.028.37-.02 0-.005.001-.041-.072-.189l-.5-1c-.285-.573-.665-.747-1.126-.517a2 2 0 0 1-.35.145l.002-.003c-.041.01-.1.017-.124-.033-.09-.18.288-.524.683-.721" style="fill-rule:nonzero" transform="matrix(14.37907 0 0 14.37908 -728.757 -153.595)"/>
	<path d="M69.557 18.377c.124-.062.262-.013.511.076q.13.046.257.094c.168.063.341.127.514.181.028.01.082.025.149.045.5.15.66.21.681.253.07.14-.024.314-.124.498a3 3 0 0 0-.092.177 6 6 0 0 1-.19.366c-.118.212-.146.263-.065.426.049.098.173.094.388.08.18-.012.314.03.687.209a2.7 2.7 0 0 1 1.037.96c.089.135.122.176.172.151.065-.032.132-.119.19-.196.052-.066.093-.12.13-.138.057-.029.181-.015.216.053.012.024.036.073-.219.441l-.146.22c-.159.245-.323.497-.417.543a.3.3 0 0 1-.137.037c-.12 0-.25-.09-.48-.31a3 3 0 0 1-.143-.16c-.287-.336-.886-1.035-1.433-1.124l-.048-.011a.65.65 0 0 0-.493.03c-.028.014-.052.036-.074.055-.034.03-.066.058-.104.05q-.044-.006-.08-.081c-.052-.103.674-1.194.682-1.205a.11.11 0 0 0 .01-.1.2.2 0 0 0-.095-.11.4.4 0 0 0-.058-.015c-.095-.02-.254-.055-.741-.327-.248-.138-.543-.293-.616-.256-.031.016-.065.062-.117.137-.09.134-.123.176-.158.193h-.003c-.078.04-.13.008-.148-.031-.034-.069-.023-.175.144-.476a10 10 0 0 0 .194-.37c.132-.255.181-.347.219-.365m6.473-1.691c.043-.001.114.077.127.132l.003.01-.042.079a3.03 3.03 0 0 0-.66 2.1c.04.65.295 1.241.72 1.665.462.461 1.077.683 1.78.64l.045-.002c.418-.024 1.049-.06 1.811-.737a.43.43 0 0 1 .258-.113c.066-.004.109.083.114.171.017.276-.792 1.494-2.55 1.6a2.74 2.74 0 0 1-1.867-.572c-.59-.47-.93-1.18-.982-2.052-.093-1.527.907-2.9 1.243-2.92m14.522 3.557a.2.2 0 0 1 .127.038.2.2 0 0 1 .085.117l.124.561.008.04c.012.05.021.093-.008.136s-.08.059-.125.067l-.977.268a.4.4 0 0 1-.099.016q-.103 0-.147-.084c-.069-.107.035-.194.08-.231l.3-.266c.021-.015 0-.066-.01-.095l-.007-.02-.098-.243q-.043-.066.01-.144c.03-.044.092-.062.149-.072z" style="fill-rule:nonzero" transform="matrix(14.37907 0 0 14.37908 -728.757 -153.595)"/>
	<path d="M79.387 16.312c.108.003.171.08.174.134.007.12-.203.361-.524.715-.228.252-.487.537-.481.63.006.095.183.09.453.075.414-.025.479-.075.52-.136q.085-.123.19-.13c.105-.007.13.053.134.104.002.04-.034.116-.218.345a1.7 1.7 0 0 0-.198.378 1 1 0 0 1-.105.21l-.014.017c-.043.053-.133.165-.35.178l-1.189.073-.034.003c-.06.005-.143.014-.204-.037q-.07-.058-.077-.199c-.012-.195.29-.753.673-1.246a.15.15 0 0 0 .044-.107c-.003-.031-.093-.079-.132-.099-.27-.146-.5-.221-.583-.216-.018.002-.083.076-.126.299l-.46 2.342c-.025.131-.076.307-.24.317h-.014a.15.15 0 0 1-.143-.082.3.3 0 0 1-.033-.134v.002l-.108-1.632c-.012-.221-.004-.401.23-.692.11-.137.34-.352.583-.58l.283-.266.094-.098c.06-.063.096-.102.135-.104.038-.003.08.02.132.05l.044.025.02.01c.101.05.41.206.898.177a.76.76 0 0 0 .517-.249c.041-.04.07-.068.1-.076z" style="fill-rule:nonzero" transform="matrix(14.37907 0 0 14.37908 -728.757 -153.595)"/>
	<path d="M400 48.777c93.139-.123 182.58 36.924 248.355 102.867a349.4 349.4 0 0 1 75.26 111.625A349.4 349.4 0 0 1 751.223 400c.122 93.139-36.924 182.581-102.868 248.356a349.4 349.4 0 0 1-111.639 75.26A349.4 349.4 0 0 1 400 751.224c-93.139.122-182.58-36.925-248.355-102.868a349.4 349.4 0 0 1-75.275-111.64A349.4 349.4 0 0 1 48.762 400c-.122-93.139 36.925-182.58 102.868-248.356A349.4 349.4 0 0 1 263.27 76.37 349.4 349.4 0 0 1 400 48.762m0 9.907c-188.208 0-341.316 153.109-341.316 341.317S211.778 741.316 400 741.316 741.302 588.179 741.302 400c0-188.208-153.094-341.316-341.302-341.316"/>
	<path d="M400 33.333c97.24-.153 190.626 38.536 259.269 107.412 68.84 68.66 107.519 162.027 107.397 259.255.138 97.238-38.548 190.617-107.411 259.27C590.613 728.136 497.234 766.82 400 766.666c-97.23.129-190.603-38.544-259.269-107.383a365.2 365.2 0 0 1-78.596-116.557A365.2 365.2 0 0 1 33.334 400c-.153-97.241 38.535-190.626 107.411-259.27C209.387 71.864 302.766 33.18 400 33.334m0 5.004C200.577 38.337 38.352 200.577 38.352 400c0 199.41 162.225 361.634 361.634 361.634 199.423 0 361.662-162.225 361.662-361.634 0-199.423-162.225-361.648-361.648-361.648"/>
</svg>
