<?xml version="1.0" encoding="UTF-8"?>
<svg id="logo" xmlns="http://www.w3.org/2000/svg" viewBox="0 0 192 192">
  <defs>
    <style>
      .cls-1 {
        fill: #c85520;
      }

      .cls-1, .cls-2 {
        stroke-width: 0px;
      }

      .cls-2 {
        fill: #353838;
      }
    </style>
  </defs>
  <g>
    <g>
      <path class="cls-2" d="M29.28,84.83v7.25c0,.74-.6,1.29-1.29,1.29-.74,0-1.29-.58-1.29-1.29v-3.33H10.58v3.39c0,.74-.58,1.29-1.29,1.29s-1.29-.58-1.29-1.29v-7.25c0-1.87,1.51-3.39,3.39-3.39h14.54c1.84-.05,3.35,1.46,3.35,3.33ZM26.68,86.13v-1.29c0-.45-.38-.77-.77-.77h-14.54c-.4,0-.77.31-.77.77v1.29h16.09Z"/>
      <path class="cls-2" d="M77.67,88.73l2.51,2.51c.48.48.48,1.36,0,1.82-.48.48-1.36.48-1.82,0l-3.23-3.23c-.58-.58-1.82-1.12-2.6-1.12h-10.62v3.39c0,.74-.6,1.29-1.29,1.29-.74,0-1.29-.58-1.29-1.29v-9.32c0-.74.58-1.29,1.29-1.29h16.64c1.87,0,3.39,1.51,3.39,3.39v.53c-.07,1.68-1.34,3.06-2.97,3.32ZM77.96,84.9c0-.4-.31-.77-.77-.77h-15.32v2.06h15.32c.45,0,.77-.31.77-.77v-.52Z"/>
      <path class="cls-2" d="M180.58,81.49c1.87,0,3.39,1.51,3.39,3.39v5.23c0,1.87-1.51,3.33-3.39,3.33h-14.54c-1.87,0-3.39-1.51-3.39-3.33v-5.23c0-1.87,1.51-3.39,3.39-3.39h14.54ZM166.04,90.88h14.54c.4,0,.77-.38.77-.77v-5.23c0-.4-.38-.77-.77-.77h-14.54c-.4,0-.77.38-.77.77v5.23c-.02.4.36.77.77.77Z"/>
      <path class="cls-2" d="M116.91,87.47c0-.38.14-.69.38-.93s.58-.38.93-.38h10.52c.45,0,.89.09,1.29.24s.74.4,1.07.69c.29.29.53.67.69,1.07.15.4.24.84.24,1.29v.6c0,.45-.09.89-.24,1.29s-.4.77-.69,1.07-.67.53-1.07.74c-.4.15-.83.24-1.29.24h-14.25c-.74,0-1.43-.15-1.99-.53-.58-.38-1.12-.84-1.51-1.43s-.74-1.22-.93-1.91c-.21-.69-.31-1.43-.31-2.06,0-.69.14-1.38.31-2.06.24-.69.58-1.36,1.01-1.91.45-.58.98-1.07,1.58-1.43.6-.38,1.36-.53,2.11-.53h15.97c.38,0,.69.14.93.38.24.24.38.58.38.93,0,.38-.14.69-.38.93s-.58.38-.93.38h-15.37c-.67,0-1.13.14-1.53.31-.4.24-.69.48-.93.84-.24.31-.38.69-.45,1.12-.09.4-.14.74-.14,1.12,0,.31.05.69.14,1.12s.24.74.45,1.12c.24.31.53.6.93.84.4.24.89.31,1.53.31h13.29c.21,0,.4-.09.58-.29.19-.21.24-.45.24-.74s-.09-.53-.24-.69c-.15-.21-.38-.29-.6-.29h-10.42c-.38,0-.69-.14-.93-.38-.28-.4-.38-.69-.38-1.05Z"/>
    </g>
    <g>
      <path class="cls-2" d="M8,110.44l3.94-7.19h1.29l4.01,7.19h-1.29l-.93-1.75h-4.86l-.93,1.75h-1.22ZM10.6,107.76h3.87l-1.96-3.66-1.91,3.66Z"/>
      <path class="cls-2" d="M31.21,104.22h-5.09v1.99h4.52c.67,0,1.07.14,1.29.38.24.24.38.69.38,1.36v.83c0,.67-.14,1.12-.38,1.36s-.67.38-1.29.38h-4.18c-.67,0-1.12-.14-1.36-.38s-.38-.69-.38-1.36v-.24l1.12-.24v1.13h5.38v-2.17h-4.47c-.67,0-1.12-.14-1.36-.38s-.38-.69-.38-1.36v-.6c0-.67.14-1.12.38-1.36.24-.24.69-.38,1.36-.38h3.82c.67,0,1.07.14,1.29.38.24.24.38.67.38,1.22v.15l-1.01.29-.02-1.01h0Z"/>
      <path class="cls-2" d="M44.29,104.23v6.21h-1.19v-6.21h-3.32v-.98h7.79v.98h-3.28Z"/>
      <path class="cls-2" d="M55.18,110.44v-7.19h5.78c.53,0,.93.14,1.19.31.24.21.38.58.38,1.07v1.58c0,.48-.14.84-.38,1.07s-.6.31-1.19.31h-1.07l3.32,2.8h-1.8l-2.94-2.8h-2.11v2.8l-1.17.05h0ZM60.48,104.2h-4.11v2.51h4.11c.29,0,.48-.05.6-.15.14-.1.15-.29.15-.58v-1.05c0-.29-.05-.45-.15-.58-.12-.07-.31-.14-.6-.14Z"/>
      <path class="cls-2" d="M71.22,104.96c0-.67.14-1.12.38-1.36.24-.24.69-.38,1.36-.38h4.98c.67,0,1.12.14,1.29.38.24.24.38.69.38,1.36v3.78c0,.67-.14,1.12-.38,1.36-.24.24-.69.38-1.29.38h-4.98c-.67,0-1.12-.14-1.36-.38s-.38-.69-.38-1.36v-3.78ZM72.39,109.43h5.96v-5.16h-5.96v5.16Z"/>
      <path class="cls-2" d="M88.74,110.46v-7.19h.77l5.38,4.81c.14.14.24.24.4.4.14.15.29.31.4.48-.05-.24-.09-.48-.09-.74,0-.24-.05-.6-.05-1.07v-3.95h1.12v7.19h-.67l-5.5-4.98c-.05-.05-.09-.05-.14-.14-.29-.24-.48-.48-.6-.69.05.21.05.45.05.69v5.09h-1.07v.1h0Z"/>
      <path class="cls-2" d="M104.6,110.44l3.92-7.19h1.29l4.01,7.19h-1.29l-.93-1.75h-4.85l-.93,1.75h-1.22ZM107.15,107.76h3.87l-1.96-3.66-1.91,3.66Z"/>
      <path class="cls-2" d="M122.26,103.25v6.21h5.23v-6.21h1.19v5.45c0,.67-.14,1.12-.38,1.36s-.69.38-1.29.38h-4.3c-.67,0-1.12-.14-1.36-.38s-.38-.69-.38-1.36v-5.45h1.29Z"/>
      <path class="cls-2" d="M140.75,104.23v6.21h-1.19v-6.21h-3.27v-.98h7.74v.98h-3.28Z"/>
      <path class="cls-2" d="M152.01,110.44h-1.12v-7.19h1.12v7.19Z"/>
      <path class="cls-2" d="M166.85,104.23h-4.98v5.23h4.98v-1.8l1.22.24v.84c0,.67-.14,1.12-.38,1.36s-.69.38-1.36.38h-4.02c-.67,0-1.12-.14-1.36-.38s-.38-.69-.38-1.36v-3.78c0-.67.14-1.12.38-1.36s.69-.38,1.36-.38h4.02c.67,0,1.12.14,1.36.38s.38.69.38,1.36v.69l-1.22.24v-1.65Z"/>
      <path class="cls-2" d="M182.88,104.22h-5.09v1.99h4.52c.67,0,1.07.14,1.29.38.24.24.38.69.38,1.36v.83c0,.67-.14,1.12-.38,1.36s-.67.38-1.29.38h-4.18c-.67,0-1.12-.14-1.36-.38s-.38-.69-.38-1.36v-.24l1.12-.24v1.13h5.33v-2.17h-4.52c-.67,0-1.12-.14-1.36-.38s-.38-.69-.38-1.36v-.6c0-.67.14-1.12.38-1.36s.69-.38,1.36-.38h3.83c.67,0,1.07.14,1.29.38.24.24.38.67.38,1.22v.15l-1.01.29v-1.07h.05v.05h.02Z"/>
    </g>
    <rect class="cls-1" x="8" y="97.51" width="176" height="1.65"/>
  </g>
</svg>