<?xml version="1.0" encoding="UTF-8"?>
<svg id="logo" xmlns="http://www.w3.org/2000/svg" viewBox="0 0 192 192">
  <defs>
    <style>
      .cls-1 {
        fill: #000;
        stroke-width: 0px;
      }
    </style>
  </defs>
  <g>
    <path class="cls-1" d="M93.92,77.5h-2.17l-1.32,3.17,2.79-1.58h.28l-1.58,8.04v47.87l4.13,6.1,4.07-6.1v-59.52h-5.68l-.52,2.03ZM95.29,78.27l-.92-.96h2.95l-2.03.96Z"/>
    <polygon class="cls-1" points="102.23 86.91 103.29 86.91 103.29 113.43 108.57 121.46 108.57 86.89 110.13 86.89 110.13 120.19 115.43 112.25 115.43 86.89 116.99 86.89 116.99 109.9 122.29 101.98 122.29 86.89 123.85 86.89 123.85 99.63 129.03 91.89 129.03 86.95 132.4 86.95 135.87 81.72 103.65 81.72 102.23 86.91"/>
    <polygon class="cls-1" points="56.45 81.72 59.9 86.95 63.27 86.95 63.27 91.89 68.45 99.63 68.45 86.89 70.01 86.89 70.01 101.98 75.31 109.9 75.31 86.89 76.87 86.89 76.87 112.25 82.17 120.19 82.17 86.89 83.75 86.89 83.75 121.46 89.01 113.43 89.01 86.91 90.07 86.91 88.65 81.72 56.45 81.72"/>
    <path class="cls-1" d="M14,34.41l82.41,123.18,81.59-123.18H14ZM96.37,152.43L18.96,36.72h154.07l-76.65,115.71Z"/>
    <path class="cls-1" d="M30.45,42.8l14.2,21.35h102.67l14.2-21.35H30.45ZM121.65,51.66h6.4v3.91h-6.4v-3.91ZM50.91,49.58v11.47h-5.2v-14.81h5.2v3.33ZM51.31,58.83v-7.26l4.39-5.32h6l-5,6.06-3.51,4.25-1.89,2.27ZM55.87,61.07l-2.51-4.21,3.51-4.25,5.04,8.47h-6.04ZM68.57,50.04v10.99h-5.2v-14.83h5.2v3.83ZM73.82,61.03l-1.87-4.81h-2.99v-3.81h4.81v-2.37h-4.81v-3.81h7.68l2.23,2.47v4.23l-2.11,2.31,2.59,5.82h-5.54v-.02ZM88.17,61.03h-5.12l-2.37-2.59v-12.24h5.2v10.59h2.29v4.23ZM95.99,58.45l-2.37,2.59h-5.06v-4.23h2.23v-10.59h5.2v12.24ZM105.76,61.03h-5.42l-2.35-2.59v-9.67l2.35-2.57h5.44v3.91h-2.59v7h2.59v3.91h-.02ZM113.94,58.47l-2.35,2.57h-5.46v-3.91h2.61v-1.26h-4.17v-3.73h9.37v6.34ZM113.94,51.32h-5.2v-1.2h-2.61v-3.91h5.44l2.37,2.59v2.53h0ZM121.25,61.03h-5.2v-14.83h5.2v14.83ZM128.91,61.03h-7.26v-3.91h7.26v3.91ZM128.91,50.12h-7.26v-3.91h7.26v3.91ZM135.93,50.04v10.99h-5.2v-14.83h5.2v3.83h0ZM141.19,61.03l-1.87-4.81h-2.99v-3.81h4.81v-2.37h-4.81v-3.81h7.68l2.23,2.47v4.23l-2.11,2.31,2.59,5.82h-5.54v-.02Z"/>
    <rect class="cls-1" x="49.93" y="67.19" width=".56" height="5.56"/>
    <polygon class="cls-1" points="64.86 72.75 64.86 67.77 67.1 67.77 67.1 67.19 62.05 67.19 62.05 67.77 64.27 67.77 64.27 72.75 64.86 72.75"/>
    <polygon class="cls-1" points="74.54 67.77 74.54 67.19 70.33 67.19 70.11 67.19 70.11 72.75 70.33 72.75 70.69 72.75 74.54 72.75 74.54 72.17 70.69 72.17 70.69 70.26 74.14 70.26 74.14 69.68 70.69 69.68 70.69 67.77 74.54 67.77"/>
    <polygon class="cls-1" points="58.5 72.75 59.06 72.75 59.06 71.85 59.06 67.19 58.5 67.19 58.5 71.85 58.23 71.85 54.78 67.19 53.94 67.19 53.94 67.19 53.94 68.09 53.94 72.75 54.5 72.75 54.5 68.09 54.72 68.09 58.21 72.75 58.5 72.75"/>
    <path class="cls-1" d="M77.89,67.19h-.18v5.56h.56v-2.35h2.99l.96,2.35h.62l-1-2.47.82-.82v-1.28h0l-.96-.96h-3.81v-.02ZM82.09,68.4v.82l-.62.62h-3.19v-2.07h3.19l.62.62Z"/>
    <path class="cls-1" d="M94.93,71.14h3.17l.68,1.6h.62l-2.37-5.56h-1.04l-2.37,5.56h.62l.68-1.6ZM96.35,67.75h.3l1.2,2.81h-2.69l1.18-2.81Z"/>
    <path class="cls-1" d="M113.3,71.14l.68,1.6h.62l-2.37-5.56h-1.04l-2.37,5.56h.62l.68-1.6h3.17ZM111.58,67.75h.3l1.2,2.81h-2.69l1.18-2.81Z"/>
    <polygon class="cls-1" points="102.33 67.19 102.33 72.75 102.61 72.75 102.61 72.75 106.46 72.75 106.46 72.19 102.89 72.19 102.89 67.19 102.33 67.19"/>
    <rect class="cls-1" x="133.54" y="67.19" width=".56" height="5.56"/>
    <polygon class="cls-1" points="128.31 72.75 128.31 67.77 130.54 67.77 130.54 67.19 125.48 67.19 125.48 67.77 127.73 67.77 127.73 72.75 128.31 72.75"/>
    <polygon class="cls-1" points="85.94 71.99 85.94 71.99 85.94 71.99 85.94 72.01 85.96 72.01 86.7 72.75 86.7 72.75 90.07 72.75 90.07 72.75 90.81 72.01 90.83 72.01 90.83 69.88 90.65 69.88 90.25 69.88 88.19 69.88 88.19 70.46 90.25 70.46 90.25 71.77 89.85 72.17 86.92 72.17 86.52 71.77 86.52 68.18 86.92 67.75 89.85 67.75 90.25 68.18 90.25 68.8 90.83 68.8 90.83 67.95 90.81 67.95 90.83 67.93 90.07 67.19 90.07 67.19 86.7 67.19 86.7 67.19 85.94 67.93 85.94 67.95 85.94 67.95 85.94 71.99"/>
    <polygon class="cls-1" points="141.41 67.19 141.39 67.19 138.04 67.19 138.02 67.19 137.28 67.93 137.28 67.95 137.28 67.95 137.28 72.01 137.28 72.01 137.28 72.01 137.28 72.01 137.28 72.01 138.02 72.75 138.04 72.75 141.39 72.75 141.41 72.75 142.15 72.01 142.15 72.01 142.15 71.16 141.59 71.16 141.59 71.77 141.17 72.19 138.26 72.19 137.84 71.77 137.84 68.18 138.26 67.75 141.17 67.75 141.59 68.18 141.59 68.8 142.15 68.8 142.15 67.95 142.15 67.95 142.15 67.93 141.41 67.19"/>
    <polygon class="cls-1" points="117.62 72.01 117.62 72.01 117.62 72.01 117.62 72.01 117.64 72.01 118.38 72.75 118.38 72.75 121.75 72.75 121.75 72.75 122.49 72.01 122.51 72.01 122.51 71.16 121.93 71.16 121.93 71.77 121.53 72.19 118.6 72.19 118.2 71.77 118.2 68.18 118.6 67.75 121.53 67.75 121.93 68.18 121.93 68.8 122.51 68.8 122.51 67.95 122.51 67.95 122.51 67.93 121.75 67.19 121.75 67.19 118.38 67.19 118.38 67.19 117.62 67.93 117.64 67.95 117.62 67.95 117.62 72.01"/>
  </g>
</svg>