<?xml version="1.0" encoding="UTF-8"?>
<svg xmlns="http://www.w3.org/2000/svg" viewBox="0 0 192 192">
	<path d="M122.91 46.62H58.74v74.52h74.54V46.62zm3.9 57.56-8.06-8.06 4.04-4.04h-18.48v18.48l4.04-4.04 8.15 8.15H75.64l8.19-8.15 4.04 4.04V92.08H69.39l4.04 4.04-8.23 8.19V63.39l8.23 8.07-4.04 4.04h18.48V57.02l-4.04 4.04-8.13-7.98h40.69l-8.04 7.98-4.04-4.04V75.5h18.48l-4.04-4.04 8.06-8v40.71ZM21.9 145.36H9.24c-.76 0-1.23-.51-1.23-1.33V132.6c0-.8.45-1.33 1.23-1.33H21.9c.76 0 1.27.51 1.27 1.33v3.84h-3.33v-2.55h-8.51v8.8h8.49V140h3.33v4c0 .84-.49 1.35-1.25 1.35Zm26.22 0h-12.6c-.8 0-1.29-.51-1.29-1.33v-12.74h3.33v11.37h8.49v-11.37h3.33v12.74c0 .82-.49 1.33-1.25 1.33Zm23.66 0-6.41-5.66v-1.69h6.19v-4.1h-7.78v11.45h-3.33v-14.07h13.17c.76 0 1.25.51 1.25 1.33v6.47c0 .78-.49 1.29-1.25 1.29h-3.53l5.74 4.86v.14h-4.06v-.02Zm13.95 0v-14.07h13.66v2.72H89.06v2.96h8.21v2.53h-8.21v3.18h10.49v2.7H85.73zm24.19 0v-14.07h3.33v11.37h9.45v2.7zm22.65 0v-14.07h3.33v14.07zm17.72-11.35v3.02h8.02v2.53h-8.02v5.82h-3.33v-14.07h13.33v2.7zm19.89 11.35v-14.07h13.66v2.72h-10.33v2.96h8.21v2.53h-8.21v3.18H184v2.7h-13.82z" style="fill:#0071bb;stroke-width:0"/>
</svg>
