<?xml version="1.0" encoding="UTF-8"?>
<svg xmlns="http://www.w3.org/2000/svg" viewBox="0 0 192 192">
	<path d="M52.65 101.57H48.7l-.52 2.56h-2.46l3.49-16.24h2.92l3.49 16.24h-2.46l-.52-2.56Zm-.44-2.08-1.46-7.22-.07-.58-.07.58-1.46 7.22zm10.93 4.64-3.78-10.71-.07-.31v11h-2.23V87.87h2.51l3.32 9.62.07.33v-9.95h2.23v16.24h-2.05zm6.96 0-3.49-16.24h2.46l2.41 11.86.07.58.07-.58 2.41-11.86h2.46l-3.51 16.24h-2.87Zm7.85 0V87.89h2.32v16.24zm4.64 0V87.89h2.32v14.16h4.64v2.1h-6.96zm19.39-2.56h-3.95l-.52 2.56h-2.46l3.49-16.24h2.92l3.49 16.24h-2.46l-.52-2.56Zm-.45-2.08-1.46-7.22-.07-.58-.07.58-1.46 7.22zm4.85 4.64V87.89h6.96v2.1h-4.64v4.52h3.49v2.1h-3.49v5.45h4.64v2.1h-6.96v-.02Zm14.89 0-1.74-6.62h-1.84v6.62h-2.32V87.89h5.69c1.44 0 2.44 1 2.44 2.44v4.76c0 1.24-.7 2.11-1.8 2.37l2.05 6.69h-2.48zm-3.58-8.71h3.37c.07 0 .12-.05.12-.12v-5.22c0-.07-.05-.12-.12-.12h-3.37v5.47Zm13.8 8.74h-3.25c-1.44 0-2.44-1-2.44-2.44V90.26c0-1.44 1-2.44 2.44-2.44h3.25c1.44 0 2.44 1 2.44 2.44v11.46c0 1.44-1 2.44-2.44 2.44m0-14.19h-3.25c-.07 0-.12.05-.12.12v11.84c0 .07.05.12.12.12h3.25c.07 0 .12-.05.12-.12V90.09c0-.07-.05-.12-.12-.12m10.45 8.87-4.57-4.55c-.77-.74-1.12-1.51-1.12-2.46v-1.55c0-1.44 1-2.44 2.44-2.44h3.25c1.44 0 2.44 1 2.44 2.44v2.25h-2.32v-2.44c0-.07-.05-.12-.12-.12h-3.25c-.07 0-.12.05-.12.12v2.2c0 .12.05.19.12.26l4.57 4.55c.77.74 1.12 1.51 1.12 2.46v2.18c0 1.44-1 2.44-2.44 2.44h-3.25c-1.44 0-2.44-1-2.44-2.44v-2.25h2.32v2.44c0 .07.05.12.12.12h3.25c.07 0 .12-.05.12-.12v-2.85c0-.1-.05-.17-.12-.24m10.45-1.33h-3.37v6.62h-2.32V87.89h5.69c1.44 0 2.44 1 2.44 2.44v4.76c-.02 1.43-.98 2.42-2.44 2.42m0-7.54h-3.37v5.45h3.37c.07 0 .12-.05.12-.12v-5.22c-.02-.05-.05-.1-.12-.1Zm9.8 11.6h-3.95l-.52 2.56h-2.46l3.49-16.24h2.92l3.49 16.24h-2.47zm-.45-2.08-1.46-7.22-.07-.58-.07.58-1.46 7.22zm10.54 4.64h-3.25c-1.39 0-2.44-1.05-2.44-2.44V90.28c0-1.39 1.05-2.44 2.44-2.44h3.25c1.39 0 2.44 1.05 2.44 2.44v2.25h-2.32v-2.44c0-.07-.05-.12-.12-.12h-3.25c-.07 0-.12.05-.12.12v11.84c0 .07.05.12.12.12h3.25c.07 0 .12-.05.12-.12v-2.44h2.32v2.2c0 1.39-1.05 2.44-2.44 2.44m4.76 0V87.89H184v2.1h-4.64v4.52h3.49v2.1h-3.49v5.45H184v2.1h-6.96v-.02Z" style="fill:#525445;stroke-width:0"/>
	<path d="m23.35 71.44 5.09 11.7c6.15 2.17 10.28 7.94 10.28 14.47s-4.49 12.77-10.95 14.68l-4.4 8.27-4.4-8.27C12.49 110.36 8 104.37 8 97.61s4.12-12.31 10.28-14.47zm12.37 31.74c-.48 1.01-1.08 1.98-1.8 2.84l-7-16.41h-.05v13.17L26.8 111l-2.75 5.09V83.88l.02-7.08 11.65 26.4Zm-16.5 7.22-.02-2.46c-1.94-.77-3.63-2.05-4.88-3.68l-1 2.37c1.6 1.72 3.61 3.04 5.9 3.76Zm10.51-22.38-1.46-3.33c5.12 1.98 8.77 6.93 8.75 12.72 0 1.79-.34 3.47-.96 5.04l-1.48-3.35c.09-.55.14-1.1.14-1.67 0-3.94-1.99-7.37-4.98-9.4Zm-12.74 0c-3.01 2.05-4.98 5.48-4.98 9.38 0 .57.05 1.12.15 1.67l-1.48 3.35c-.64-1.55-.98-3.25-.98-5.02 0-5.79 3.64-10.74 8.75-12.72l-1.46 3.33Zm10.5 22.38.02-2.46c1.94-.77 3.63-2.05 4.88-3.68l1.01 2.37c-1.6 1.72-3.63 3.04-5.91 3.76Zm-7.7-20.79h.05v13.17l.07 8.22 2.77 5.1V84.9l-.02-8.13-11.57 26.42c.48 1.01 1.08 1.98 1.8 2.84l6.89-16.41Z" style="fill:#525445;stroke-width:0;fill-rule:evenodd"/>
</svg>
