<?xml version="1.0" encoding="UTF-8"?>
<svg xmlns="http://www.w3.org/2000/svg" id="logo" viewBox="0 0 192 192">
	<defs>
		<style>
			.cls-1{fill:#000;stroke-width:0}
		</style>
	</defs>
	<path d="M98.27 104.07h2.63v8.43h-2.63zm-25.07 0h2.69v8.51H73.2zm-13.19 0h2.73v8.43h-2.73zm88.3 0h2.63v8.43h-2.63z" class="cls-1"/>
	<path d="M8 97.92v31.38h175.95V97.92zm7.03 27.5h-2.25v-23.6h2.25zm13.06 0h-2.25L23.21 111v14.42h-2.25v-23.6h2.25l2.65 13.1v-13.1h2.25v23.6zm12.35-21.35h-2.6v21.35h-2.25v-21.35h-2.6v-2.25h7.45zm12.13 0h-4.9v8.43h3.71v2.25h-3.71v8.43h4.9v2.25h-4.81c-1.21 0-2.21-.91-2.34-2.09v-19.45a2.36 2.36 0 0 1 2.34-2.09h4.81v2.25Zm10.39 21.35c-.13-.33-.2-.7-.2-1.08v-9.59h-2.73v10.68h-2.27v-23.6h4.88c1.26 0 2.31 1.01 2.34 2.25v8.43c0 .68-.68 1.12-1.52 1.12.84 0 1.52.4 1.52 1.12v9.59c0 .35.26 1.01.59 1.08h-2.62Zm15.18-12.79c-.07 1.13-.97 2.07-2.09 2.18H73.2v10.59h-2.25v-23.6h4.83c1.24 0 2.27.97 2.34 2.2v8.64h.02Zm12.46 12.79h-7.15v-23.6h2.25v21.35h2.67v-5.29h2.25v7.54zm12.55 0h-2.25v-10.68h-2.63v10.68h-2.25v-21.3a2.35 2.35 0 0 1 2.36-2.31h2.43c1.24 0 2.27.97 2.34 2.2zm13.12 0h-2.25L111.37 111v14.42h-2.25v-23.6h2.25l2.65 13.1v-13.1h2.25zm13.34-21.35h-4.9v8.43h3.71v2.25h-3.71v8.43h4.9v2.25h-4.81c-1.21 0-2.21-.91-2.34-2.09v-19.45a2.36 2.36 0 0 1 2.34-2.09h4.81v2.25Zm11.49 0h-2.6v21.35h-2.25v-21.35h-2.6v-2.25h7.45zm12.09 21.35h-2.25v-10.68h-2.63v10.68h-2.25v-21.3a2.35 2.35 0 0 1 2.36-2.31h2.43c1.24 0 2.27.97 2.34 2.2zm11.27 0c-.13-.33-.2-.7-.2-1.08v-9.59h-2.73v10.68h-2.25v-23.6h4.88c1.26 0 2.31 1.01 2.34 2.25v8.43c0 .68-.68 1.12-1.52 1.12.84 0 1.52.4 1.52 1.12v9.59c0 .35.26 1.01.59 1.08zm14.93-12.94v.02a2.363 2.363 0 0 1-2.34 2.23h-.09v10.68h-2.25v-10.68h-.09a2.33 2.33 0 0 1-2.34-2.34V101.8h2.25v10.68h2.62V101.8h2.25v10.68Z" class="cls-1"/>
	<path d="M161.53 104.07h2.73v8.43h-2.73zM52.04 75.29h16.04v-4.13H53.74V62.7h22.79v21.04h-8.27l8.27 6.53V96h-6.4L54.62 83.74h-2.58V96h-8.46V66.89l4.19-4.19h4.28zm-12.21-8.12-4.48-4.47H8.22v8.46h23.14v16.39H16.67V73.04H8.22V96h27.33l4.28-4.28zm81.87-4.19-4.22 4.22V96h8.45V67.2zm29.09 33.04.1-.09v-5.69l-11.84-12.11 10.66-9.26v-5.89h-6.11l-15.89 13.77v11.2l4.94-4.28 12.05 12.35zm10.3-8.47v-3.81h14.37l4.26-4.28-4.47-4.17h-14.16v-2.16h-8.47v18.86l4.03 4.01h23.34l4.01-4.01-4.45-4.44zm22.71-20.62-4.23-4.23h-26.95v8.46h26.95zM80.67 96h8.45v-9.46h10.96l4.1-4.1-4.36-4.37h-10.7v-5.14h-8.45z" class="cls-1"/>
	<path d="M113.58 96h-8.45V71.16H80.67V62.7h32.91z" class="cls-1"/>
</svg>
