<?xml version="1.0" encoding="UTF-8"?>
<svg xmlns="http://www.w3.org/2000/svg" xml:space="preserve" style="fill-rule:evenodd;clip-rule:evenodd;stroke-linejoin:round;stroke-miterlimit:2" viewBox="0 0 800 800">
	<path d="M0 0h192v192H0z" style="fill:none" transform="scale(4.16667)"/>
	<path d="M265.473 35.972q-5.609 0-10.64 2.199-4.973 2.197-8.674 5.956-3.7 3.758-5.898 8.79-2.14 4.972-2.14 10.582 0 6.361 2.024 11.045t5.61 7.749q3.643 3.007 8.673 4.51 5.031 1.446 11.045 1.446h18.62q1.447 0 2.891.347a7.6 7.6 0 0 1 2.604 1.156 5.5 5.5 0 0 1 1.907 1.967q.752 1.215.752 2.89 0 1.795-.694 3.009a5.8 5.8 0 0 1-1.85 1.908q-1.099.75-2.601 1.098-1.446.29-3.008.289h-38.797a255 255 0 0 1 3.519 17.984h47.826q6.592 0 11.74-1.85 5.204-1.908 8.73-5.493 3.528-3.645 5.379-8.849t1.851-11.854q0-5.84-2.314-10.408-2.313-4.569-6.187-7.692-3.817-3.123-8.847-4.741a32.2 32.2 0 0 0-10.352-1.678h-24.634q-2.66 0-4.28-1.619-1.62-1.678-1.619-4.453 0-2.775 1.735-4.51t4.51-1.735h46.437V35.972zm123.207 82.925v-32.44h-31.054v32.44h-28.509V35.973h28.51v32.5h31.053v-32.5h28.566v82.924zm116.879 0V35.973h28.509v82.924h-28.51zm97.651.002V99.93q0-1.619-.75-3.47a14 14 0 0 0-2.025-3.527 10.9 10.9 0 0 0-2.833-2.66q-1.62-1.1-3.354-1.099h-25.502v29.723H540.12V36.09h60.14q3.702 0 7.403.52 3.758.463 7.228 1.562a31.6 31.6 0 0 1 6.592 2.89q3.065 1.794 5.32 4.338t3.528 5.956q1.33 3.413 1.33 7.749 0 3.296-.925 6.535a23.2 23.2 0 0 1-2.718 6.071 20.8 20.8 0 0 1-4.28 4.916q-2.486 2.14-5.724 3.18 3.064.694 5.551 2.371a17.8 17.8 0 0 1 4.28 4.048 17.2 17.2 0 0 1 2.833 5.147q.983 2.833.983 5.956v21.57zm0-55.805q0-1.793-.75-3.412a8.5 8.5 0 0 0-1.967-2.833 8.5 8.5 0 0 0-2.834-1.966 8 8 0 0 0-3.411-.752h-25.502v17.984h25.502q1.85 0 3.47-.694a9.6 9.6 0 0 0 2.89-1.966 9 9 0 0 0 1.909-2.833 9.1 9.1 0 0 0 .694-3.528zm82.437 55.803q-7.865 0-14.688-.52t-12.433-2.024q-5.61-1.56-9.946-4.337-4.337-2.834-7.344-7.46-2.95-4.626-4.51-11.276-1.504-6.65-1.504-15.845t1.503-15.844q1.562-6.651 4.51-11.277 3.009-4.626 7.345-7.402 4.337-2.833 9.946-4.337 5.61-1.56 12.433-2.081 6.824-.52 14.688-.52h39.207v18.041h-39.091q-14.688 0-17.522 14.457h56.613v17.984h-56.381q1.445 7.056 5.724 10.756 4.338 3.701 11.566 3.701h39.091v17.984zM34.294 54.015v15.393h47.881v17.984H34.294v31.506H5.669V35.973h76.506v18.042zm53.778-18.043v82.925h54.51a255 255 0 0 1 3.518-17.984h-29.405v-64.94zm363.675 18.043v15.393h47.88v17.984h-47.88v31.506h-28.625V35.973h76.506v18.042z" style="fill:#202319;fill-rule:nonzero" transform="translate(27.553 312.487)scale(1.01967)"/>
	<path d="M16.093 141.046q2.11 0 3.854.57 1.776.536 3.05 1.507a6.85 6.85 0 0 1 1.977 2.347q.704 1.34.704 2.982v.302h-6.2v-.201q0-1.34-1.073-2.01t-2.782-.671q-1.374 0-2.212.536-.804.536-.804 1.508 0 .838.972 1.408t3.284 1.072q5.732 1.24 7.675 3.05 1.944 1.743 1.944 4.525 0 1.977-.737 3.485a6.74 6.74 0 0 1-2.111 2.514q-1.341 1.006-3.285 1.508-1.91.503-4.29.503-2.346 0-4.256-.536-1.91-.57-3.285-1.643a8 8 0 0 1-2.111-2.68q-.738-1.61-.738-3.687h6.234q.1 1.91 1.173 2.815 1.105.905 3.318.905 1.743 0 2.782-.637 1.072-.637 1.072-1.81 0-.637-.435-1.106-.402-.47-1.14-.804a9.4 9.4 0 0 0-1.709-.637 36 36 0 0 0-1.977-.503q-2.48-.57-4.19-1.307-1.676-.77-2.614-1.642-1.81-1.743-1.81-4.39 0-1.876.838-3.252a6.86 6.86 0 0 1 2.212-2.245q1.374-.905 3.117-1.34a14.6 14.6 0 0 1 3.553-.436m111.876.502 4.76 9.72 4.758-9.72h7.072l-8.714 15.015v8.915h-6.234v-8.915l-8.714-15.015zm121.428-.502q2.112 0 3.855.57 1.776.536 3.05 1.507a6.85 6.85 0 0 1 1.977 2.347q.704 1.34.704 2.982v.302h-6.2v-.201q0-1.34-1.073-2.01t-2.782-.671q-1.374 0-2.212.536-.804.536-.804 1.508 0 .838.972 1.408t3.284 1.072q5.731 1.24 7.675 3.05 1.944 1.743 1.944 4.525 0 1.977-.737 3.485a6.75 6.75 0 0 1-2.112 2.514q-1.34 1.006-3.284 1.508-1.91.503-4.29.503-2.346 0-4.257-.536-1.91-.57-3.284-1.643a8 8 0 0 1-2.112-2.68q-.737-1.61-.737-3.687h6.234q.1 1.91 1.173 2.815 1.106.905 3.318.905 1.743 0 2.782-.637 1.072-.637 1.072-1.81 0-.637-.435-1.106-.404-.47-1.14-.804a9.4 9.4 0 0 0-1.71-.637 36 36 0 0 0-1.977-.503q-2.48-.57-4.19-1.307-1.675-.77-2.613-1.642-1.81-1.743-1.81-4.39 0-1.876.838-3.252a6.86 6.86 0 0 1 2.212-2.245q1.374-.905 3.117-1.34a14.6 14.6 0 0 1 3.552-.436m125.316.502v5.363h-7.138v18.567h-6.234v-18.567h-7.139v-5.363zm113.486 0v4.994h-12.837v4.19h11.73v4.826h-11.73v4.558h13.172v5.362h-19.406v-23.93zm103.933 0 4.122 15.954h.067l4.123-15.954h9.183v23.93h-5.865v-18.165h-.067l-5.028 18.165h-4.759l-5.027-18.165h-.067v18.165h-5.865v-23.93zm122.333-.502q2.11 0 3.854.57 1.777.536 3.05 1.507a6.86 6.86 0 0 1 1.978 2.347q.703 1.34.703 2.982v.302h-6.2v-.201q0-1.34-1.072-2.01t-2.782-.671q-1.374 0-2.212.536-.805.536-.805 1.508 0 .838.972 1.408t3.285 1.072q5.731 1.24 7.675 3.05 1.944 1.743 1.944 4.525 0 1.977-.738 3.485a6.74 6.74 0 0 1-2.111 2.514q-1.34 1.006-3.285 1.508-1.91.503-4.29.503-2.346 0-4.256-.536-1.91-.57-3.284-1.643a8 8 0 0 1-2.112-2.68q-.737-1.61-.737-3.687h6.234q.1 1.91 1.173 2.815 1.106.905 3.318.905 1.741 0 2.781-.637 1.073-.637 1.073-1.81a1.57 1.57 0 0 0-.436-1.106q-.402-.47-1.14-.804a9.4 9.4 0 0 0-1.709-.637 36 36 0 0 0-1.977-.503q-2.48-.57-4.19-1.307-1.675-.77-2.614-1.642-1.81-1.743-1.81-4.39 0-1.876.838-3.252a6.86 6.86 0 0 1 2.212-2.245q1.375-.905 3.117-1.34a14.6 14.6 0 0 1 3.553-.436M195.7 5.67c-14.69 19.832-41.958 58.011-50.373 118.818H5.669v9.052h149.534C172.43 86.796 188.92 63.248 195.7 55.355c6.78 7.893 23.27 31.441 40.497 78.185h488.657v-9.052H246.072C237.656 63.681 210.39 25.502 195.7 5.669z" style="fill:#1e211a;fill-rule:nonzero" transform="translate(27.553 312.487)scale(1.01967)"/>
	<path d="M216.1 111.826c0 11.191-9.209 20.4-20.4 20.4s-20.4-9.209-20.4-20.4 9.209-20.4 20.4-20.4 20.4 9.209 20.4 20.4" style="fill:#1e211a;fill-rule:nonzero" transform="translate(27.553 312.487)scale(1.01967)"/>
</svg>
