<?xml version="1.0" encoding="UTF-8"?>
<svg xmlns="http://www.w3.org/2000/svg" xml:space="preserve" style="fill-rule:evenodd;clip-rule:evenodd;stroke-linejoin:round;stroke-miterlimit:2" viewBox="0 0 800 800">
	<path d="M0 0h192v192H0z" style="fill:none" transform="scale(4.16667)"/>
	<path d="M124.281 43.46h-4.161l-5.724-19.21h4.472l3.068 12.6 1.987-12.6h4.434zm17.259-2.41q-.367 2.371-2.778 2.371h-7.777q-2.45 0-2.084-2.372l2.226-14.427q.366-2.372 2.816-2.372h7.777q2.41 0 2.045 2.372zm-2.206-13.184h-4.122l-1.841 11.939h4.122zm10.258 22.555h-4.434l3.088-7.155-1.927-19.016h4.472l.583 12.6 4.472-12.6h4.433zm18.061-7 .102-.66-4.679.583q-.44.077-.757.116-.278.04-.59.04-2.371 0-2.011-2.334l1.068-6.922q.366-2.372 2.815-2.372h5.873l.677-4.395h-4.16l-.42 2.723h-3.928l.552-3.578q.366-2.372 2.816-2.372h7.35q2.41 0 2.045 2.372l-2.592 16.8zm1.365-8.594h-4.161l-.816 5.289 4.185-.156zm17.926 13.222q-.366 2.372-2.816 2.372h-7.544q-2.45 0-2.084-2.372l.474-3.072h4.2l-.354 2.294h3.927l.612-3.966h-4.472q-1.866 0-2.754-1.05t-.618-2.8l1.812-11.744q.258-1.672 1.335-2.606t2.71-.933q.39 0 .811.039t.799.117l3.21.622.107-.7h4.317zm-1.227-20.027-1.797-.195a2.3 2.3 0 0 0-.461-.039h-.428q-1.4 0-1.616 1.4L180 38.366q-.222 1.439 1.217 1.439h2.683zm17.87 13.028q-.366 2.371-2.816 2.371h-7.505q-2.45 0-2.084-2.372l2.226-14.427q.366-2.372 2.815-2.372h7.506q2.45 0 2.084 2.372l-1.086 7.039-1.392 1.205h-7.038l-.828 5.367h4.083l.492-3.19h4.16zm-2.061-13.611h-4.083l-.708 4.588h4.083zm14.359 4.821.678-4.394-3.434.078-2.388 15.477h-4.355l2.958-19.171h4.355l-.108.7 4.063-.622q.362-.078.718-.117.395-.039.706-.039 2.372 0 2.012 2.333l-.888 5.756z" style="fill-rule:nonzero" transform="translate(-436.157 389.826)scale(4.10408)"/>
	<path d="m220.688 53.976.111-.653-3.361.576a7.7 7.7 0 0 1-1.646.192q-1.612 0-2.376-.922-.758-.96-.475-2.61l2.001-11.71q.295-1.728 1.51-2.765 1.213-1.036 3.094-1.036h4.377l1.778-10.405h4.262l-5.014 29.333zm2.625-15.358h-2.65q-1.42 0-1.663 1.42l-1.548 9.062q-.237 1.382 1.107 1.382h.384q.23 0 .429-.039l1.946-.153zm8.762-6.296.755-4.415h4.3l-.755 4.415zm-3.663 21.654 3.236-18.928h4.223l-3.235 18.928zm17.251-11.019.741-4.339-3.391.077-2.612 15.28h-4.3l3.235-18.927h4.3l-.118.69 4.02-.613q.36-.077.712-.116a7 7 0 0 1 .697-.038q2.342 0 1.949 2.304l-.972 5.682zm17.637 8.677q-.4 2.342-2.818 2.342h-7.41q-2.42 0-2.019-2.342l2.435-14.244q.4-2.342 2.82-2.342h7.409q2.419 0 2.018 2.342l-1.187 6.949-1.394 1.19h-6.95l-.905 5.298h4.032l.538-3.148h4.108zm-1.81-13.438h-4.032l-.774 4.53h4.031zm17.413 13.438q-.4 2.342-2.78 2.342h-7.449q-2.419 0-2.018-2.342l2.434-14.244q.4-2.342 2.82-2.342h7.448q2.38 0 1.98 2.342l-.768 4.492h-4.185l.558-3.264h-3.84l-2.014 11.787h3.84l.616-3.609h4.185zm6.297 2.342q-2.38 0-1.98-2.342l2.21-12.939h-2.034l.624-3.647h2.034l.88-5.145h4.261l-.88 5.145h2.765l-.623 3.647h-2.764l-1.989 11.633h2.88l-.624 3.648z" style="fill:#ffa80c;fill-rule:nonzero" transform="translate(-436.157 389.826)scale(4.10408)"/>
	<path d="M55.825 186.413c-13.014-.726-21.759-3.583-22.415-8.127-.713-4.928 8.263-10.653 22.415-15.249v2.308c-10.623 3.528-17.19 7.571-16.696 10.972.455 3.149 6.869 5.11 16.696 5.676zm14.287-27.216a195 195 0 0 1 14.039-2.55c2.483-.359 4.961-.663 7.419-.919l-2.258 2.518q-2.477.296-4.971.654a200 200 0 0 0-14.229 2.579zm18.777 20.772c10.232-1.599 19.824-4.302 27.538-6.923l-3.642-2.654 11.048.832-4.641 9.829-.806-3.969c-8.69 2.999-19.152 5.956-30.181 7.557q-1.94.28-3.852.521z" style="fill:#ffa80c" transform="translate(99.078 -426.11)scale(4.36042)"/>
	<path d="M27.4 20.865 42.58 3.543v38.275c0 1.209 1.232 1.558 1.927.783L79.52 3.543h19.293l-48.207 55.18c-2.119 2.425-2.96 4.11-8.803 4.11-7.758 0-14.403-4.015-14.403-9.844z" style="fill-rule:nonzero" transform="translate(230.046 173.64)scale(4.10408)"/>
	<path d="M27.4 51.922v-4.696c9.053.522 20.832-.069 33.574-1.916q.78-.113 1.555-.234l-4.82 5.517c-11.218 1.408-21.653 1.812-30.309 1.329" style="fill:#ffa80c" transform="translate(230.046 173.64)scale(4.10408)"/>
</svg>
