<?xml version="1.0" encoding="UTF-8"?>
<svg id="logo" xmlns="http://www.w3.org/2000/svg" viewBox="0 0 192 192">
  <defs>
    <style>
      .cls-1 {
        fill: #000;
      }

      .cls-1, .cls-2, .cls-3 {
        stroke-width: 0px;
      }

      .cls-2 {
        fill: gray;
      }

      .cls-3 {
        fill: #fff;
      }
    </style>
  </defs>
  <g>
    <path class="cls-1" d="M161.82,164.23H30.2c-5.63,0-10.2-4.57-10.2-10.2V37.97c0-5.63,4.57-10.2,10.2-10.2h131.59c5.63,0,10.2,4.57,10.2,10.2v116.06c.02,5.63-4.55,10.2-10.18,10.2Z"/>
    <g>
      <path class="cls-3" d="M142.95,61.21h-57.23v40.75l-35.11-40.75h-11.57v54.11h10.51v-40.92l35.18,40.92h11.5v-45.08h45.36c.5,0,.89.39.89.89v34.16c0,.5-.39.89-.89.89h-26.36l-9.05,9.12,36.8-.04c5.52,0,10.01-4.48,10.01-10.03v-34.01c0-5.52-4.51-10.01-10.03-10.01Z"/>
      <g>
        <path class="cls-2" d="M49.55,133.58v-6.72h2.92v10.07h-2.99l-7.56-6.74v6.74h-2.88v-10.07h2.99l7.52,6.72Z"/>
        <path class="cls-2" d="M66.98,126.87v2.19h-9.47v1.75h7.62v2.19h-7.62v1.75h9.47v2.19h-12.39v-10.07h12.39Z"/>
        <path class="cls-2" d="M85.92,126.87h3.05l-4.87,10.07h-2.21l-3.16-6.48-1.19,2.47-1.95,4.01h-2.21l-4.87-10.07h3.03l2.92,6,.48-.93,2.47-5.07h2.66l2.95,6,.48-.93,2.43-5.07Z"/>
        <path class="cls-2" d="M96.86,126.87h10.64c.78,0,1.43.19,1.97.61.54.41.8.89.8,1.45v5.94c0,.56-.26,1.06-.8,1.45-.54.41-1.19.61-1.97.61h-10.64v-10.05ZM99.76,129.06v5.7h7.6v-5.7h-7.6Z"/>
        <path class="cls-2" d="M124.8,126.87v2.19h-9.47v1.75h7.62v2.19h-7.62v1.75h9.47v2.19h-12.39v-10.07h12.39Z"/>
        <path class="cls-2" d="M129.46,126.87h7.88c.78,0,1.43.19,1.97.61.54.41.8.89.8,1.45v8.01h-2.92v-3.25h-7.6v3.25h-2.88v-8.01c0-.58.26-1.06.8-1.47.52-.39,1.17-.58,1.95-.58ZM129.59,131.5h7.6v-2.47h-7.6v2.47Z"/>
        <path class="cls-2" d="M142.26,136.94v-10.07h2.88v7.91h7.84v2.17h-10.72Z"/>
      </g>
    </g>
  </g>
</svg>