<?xml version="1.0" encoding="UTF-8"?>
<svg id="logo" xmlns="http://www.w3.org/2000/svg" viewBox="0 0 192 192">
  <defs>
    <style>
      .cls-1 {
        fill: #000;
        stroke-width: 0px;
      }
    </style>
  </defs>
  <g>
    <path class="cls-1" d="M167,50.98l5-2.23c-5.8-13-18.75-21.39-32.99-21.39-13.02,0-24.99,7.04-31.36,18.23-3.42-2.2-7.38-3.37-11.5-3.37-4.32,0-8.36,1.29-11.7,3.55-6.34-11.26-18.36-18.39-31.46-18.39-14.24,0-27.19,8.39-32.99,21.39l5,2.23c4.56-10.18,14.27-17.04,25.25-18.02v3.55c-13.65,1.37-24.34,12.95-24.34,26.96s10.69,25.58,24.34,26.96v3.57c-10.67-.93-19.99-7.28-24.78-17.04l-4.92,2.41c5.02,10.25,14.32,17.3,25.17,19.5-5.33,3.68-9.68,8.8-12.43,14.94l5,2.23c4.92-11.03,15.9-18.15,27.99-18.15,7.22,0,14.03,2.56,19.39,6.97l-2.54,2.54c-4.64-3.7-10.49-5.93-16.88-5.93-14.94,0-27.09,12.14-27.09,27.09,0,11.24,6.76,21.13,17.22,25.22l1.99-5.1c-7.48-2.93-12.58-9.58-13.54-17.4h9.56v-2.74c0-6.55,5.33-11.86,11.86-11.86s11.86,5.33,11.86,11.86-5.33,11.86-11.86,11.86h-2.74v18.64c-10.67-.93-19.99-7.28-24.78-17.04l-4.92,2.41c6.11,12.48,18.54,20.22,32.45,20.22,12.22,0,23.33-6.01,29.99-15.95,6.65,9.94,17.74,15.95,29.99,15.95,13.88,0,26.31-7.74,32.45-20.22l-4.92-2.41c-1.32,2.69-2.98,5.13-4.92,7.25l-2.56-2.56c4.38-4.82,7.04-11.16,7.04-18.15,0-11.24-6.76-21.13-17.22-25.22l-1.99,5.1c7.48,2.93,12.58,9.61,13.57,17.4h-9.58v2.74c0,6.55-5.33,11.86-11.86,11.86s-11.86-5.33-11.86-11.86c0-4.87,2.93-9.19,7.43-11.01l2.49-1.01-5.33-14.24-2.59,1.01c-10.46,4.09-17.22,14.01-17.22,25.22,0,14.94,12.14,27.09,27.09,27.09,5.98,0,11.5-1.97,15.98-5.26l2.56,2.56c-5.2,3.96-11.65,6.21-18.54,6.21-11.78,0-22.32-6.58-27.53-17.17l-2.46-5-2.46,5c-1.29,2.64-2.93,5.05-4.84,7.15l-2.43-2.64c4.38-4.92,6.84-11.34,6.84-17.97s-2.38-12.64-6.29-17.32l2.54-2.54c1.86,2.2,3.44,4.66,4.66,7.38l5-2.23c-5.8-13-18.75-21.39-32.99-21.39-3.63,0-7.17.54-10.56,1.58v-3.57c9.94-1.01,18.31-7.41,22.11-16.21,3.7,6.27,10.51,10.51,18.31,10.51h2.74v-14.35h-2.74c-3.81,0-6.91-3.11-6.91-6.91s3.11-6.91,6.91-6.91,6.91,3.11,6.91,6.91c0,.67-.1,1.32-.28,1.97-.08.26-.18.54-.28.78h5.7c.21-.91.34-1.81.34-2.74,0-6.84-5.57-12.38-12.38-12.38s-12.38,5.57-12.38,12.38c0,5.88,4.12,10.82,9.66,12.07v3.47c-7.41-1.29-13.05-7.77-13.05-15.54,0-8.7,7.07-15.77,15.77-15.77,3.94,0,7.69,1.45,10.59,4.09l2.8,2.54,1.55-3.42c1.22-2.67,2.77-5.1,4.61-7.28l2.51,2.51c-3.94,4.71-6.29,10.75-6.29,17.35,0,11.24,6.76,21.13,17.22,25.22l1.99-5.1c-7.48-2.93-12.58-9.58-13.54-17.4h9.56v-2.74c0-6.55,5.33-11.86,11.86-11.86s11.86,5.33,11.86,11.86-5.33,11.86-11.86,11.86h-2.74v18.64c-10.67-.93-19.99-7.28-24.78-17.04l-4.92,2.41c6.11,12.48,18.54,20.22,32.45,20.22h2.74v-18.98c8.26-1.32,14.6-8.49,14.6-17.12,0-9.56-7.77-17.35-17.35-17.35-8.62,0-15.8,6.34-17.12,14.6h-4.3c1.35-10.64,10.44-18.88,21.41-18.88,11.91,0,21.62,9.71,21.62,21.62,0,8.96-5.39,16.86-13.75,20.15l1.99,5.1c10.46-4.09,17.22-14.01,17.22-25.22,0-14.94-12.14-27.09-27.09-27.09-6.37,0-12.25,2.23-16.88,5.93l-2.51-2.51c5.39-4.4,12.2-6.97,19.39-6.97,12.14-.03,23.12,7.1,28.04,18.13ZM50.24,84.9c-10.64-1.35-18.88-10.44-18.88-21.41s8.26-20.07,18.88-21.44v42.86ZM126.24,150.13c-11.91,0-21.62-9.71-21.62-21.62,0-8.03,4.32-15.2,11.21-18.95l1.53,4.07c-5.2,3.08-8.47,8.7-8.47,14.92,0,9.56,7.77,17.35,17.35,17.35,8.62,0,15.8-6.34,17.12-14.6h4.32c-1.35,10.59-10.46,18.85-21.44,18.85ZM87.9,128.51c0,6.03-2.54,11.83-6.99,15.93l-2.02,1.86,6.06,6.55c-4.53,3.5-10.02,5.67-15.93,6.19v-13.39c8.26-1.32,14.6-8.49,14.6-17.12,0-9.56-7.77-17.35-17.35-17.35-8.62,0-15.8,6.34-17.12,14.6h-4.3c1.35-10.64,10.44-18.88,21.41-18.88,11.91-.03,21.62,9.66,21.62,21.6ZM77.85,52.72c-2.8-6.5-8.08-11.76-14.99-14.47l-1.99,5.1c8.34,3.26,13.72,11.19,13.72,20.15,0,10.98-8.26,20.07-18.88,21.41v-51.92c10.41.93,19.68,7.15,24.5,16.47-.88,1.01-1.66,2.1-2.36,3.26Z"/>
  </g>
</svg>