<?xml version="1.0" encoding="UTF-8"?>
<svg xmlns="http://www.w3.org/2000/svg" xml:space="preserve" style="fill-rule:evenodd;clip-rule:evenodd;stroke-linejoin:round;stroke-miterlimit:2" viewBox="0 0 800 800">
	<path d="M0 0h192v192H0z" style="fill:none" transform="scale(4.16667)"/>
	<path d="m326.01 271.046 2.782-.244q.198 1.673.912 2.752.73 1.065 2.25 1.734 1.52.653 3.421.653 1.688 0 2.98-.501 1.293-.502 1.916-1.369.638-.882.638-1.915 0-1.05-.608-1.825-.607-.79-2.007-1.323-.897-.349-3.968-1.079-3.071-.745-4.303-1.399-1.596-.836-2.387-2.067a5.17 5.17 0 0 1-.775-2.783q0-1.688.958-3.147.957-1.475 2.797-2.235t4.09-.76q2.478 0 4.364.806 1.9.79 2.919 2.341t1.094 3.512l-2.828.213q-.227-2.113-1.55-3.193-1.308-1.079-3.877-1.079-2.676 0-3.908.988-1.215.973-1.216 2.357 0 1.2.867 1.976.85.775 4.439 1.596 3.603.807 4.941 1.414 1.947.897 2.874 2.281.927 1.368.927 3.162 0 1.779-1.018 3.36-1.018 1.566-2.935 2.448-1.9.867-4.287.867-3.026 0-5.078-.882-2.037-.882-3.208-2.645-1.155-1.779-1.216-4.014m143.027 7.161v-9.442l-8.59-12.847h3.588l4.394 6.72a68 68 0 0 1 2.265 3.771 81 81 0 0 1 2.433-3.938l4.317-6.553h3.436l-8.894 12.847v9.442zm128.462-7.161 2.782-.244q.198 1.673.912 2.752.73 1.065 2.25 1.734 1.52.653 3.421.653 1.688 0 2.98-.501 1.292-.502 1.916-1.369.638-.882.638-1.915 0-1.05-.608-1.825-.607-.79-2.007-1.323-.896-.349-3.968-1.079-3.071-.745-4.303-1.399-1.595-.836-2.387-2.067a5.17 5.17 0 0 1-.775-2.783q0-1.688.958-3.147.958-1.475 2.797-2.235t4.09-.76q2.478 0 4.364.806 1.9.79 2.919 2.341t1.094 3.512l-2.827.213q-.229-2.113-1.551-3.193-1.308-1.079-3.877-1.079-2.676 0-3.908.988-1.216.973-1.216 2.357 0 1.2.867 1.976.85.775 4.439 1.596 3.604.807 4.941 1.414 1.947.897 2.874 2.281.927 1.368.927 3.162 0 1.779-1.018 3.36-1.018 1.566-2.935 2.448-1.9.867-4.287.867-3.026 0-5.078-.882-2.037-.882-3.208-2.645-1.156-1.779-1.216-4.014m143.098 7.161v-19.659h-7.343v-2.63h17.666v2.63h-7.374v19.659zm127.813 0v-22.289h16.116v2.63h-13.167v6.827h12.331v2.615h-12.331v7.586h13.684v2.631zm136.272 0v-22.289h4.439l5.276 15.782q.73 2.204 1.064 3.299.38-1.216 1.186-3.573l5.337-15.508h3.968v22.289h-2.843v-18.655l-6.477 18.655h-2.661l-6.446-18.975v18.975zm140.001-7.161 2.783-.244q.197 1.673.912 2.752.729 1.065 2.25 1.734 1.52.653 3.421.653 1.687 0 2.98-.501 1.292-.502 1.915-1.369.639-.882.639-1.915 0-1.05-.608-1.825-.609-.79-2.007-1.323-.897-.349-3.968-1.079-3.072-.745-4.303-1.399-1.596-.836-2.387-2.067-.775-1.248-.775-2.783 0-1.688.958-3.147.957-1.475 2.797-2.235t4.09-.76q2.478 0 4.363.806 1.9.79 2.919 2.341 1.018 1.551 1.095 3.512l-2.828.213q-.228-2.113-1.551-3.193-1.307-1.079-3.876-1.079-2.676 0-3.908.988-1.216.973-1.216 2.357 0 1.2.866 1.976.852.775 4.44 1.596 3.603.807 4.941 1.414 1.946.897 2.874 2.281.927 1.368.927 3.162 0 1.779-1.019 3.36-1.019 1.566-2.934 2.448-1.9.867-4.287.867-3.026 0-5.078-.882-2.038-.882-3.208-2.645-1.156-1.779-1.217-4.014" style="fill-rule:nonzero" transform="matrix(.67276 0 0 .57361 -15.849 297.783)"/>
	<path d="M455.04 190.96q0 10.098-13.61 14.818-9.769 3.183-22.172 3.183H390.83q-11.743 0-21.951-3.513-13.83-4.719-13.83-14.488v-45.001q0-10.428 13.5-14.927 9.33-3.183 22.281-3.183h28.428q35.782 0 35.782 18.11zm-15.915-40.83q0-6.366-19.099-6.366h-29.964q-18.659 0-18.659 6.366v36.769q0 6.147 18.659 6.147h29.964q19.1 0 19.099-6.147zm136.995 58.831-51.148-27.66h-9.549v27.66h-15.915v-81.112h64.319q15.147 0 22.61 2.305 13.062 4.17 13.062 15.805v19.647q0 7.793-8.781 12.293-7.243 3.622-15.915 3.622h-19.757l51.916 27.44zm7.464-59.929q0-5.268-19.757-5.268h-48.404v21.952l59.38-.11q2.525 0 5.378-.988 3.403-1.317 3.403-3.512zm60.335-21.183h15.915v81.112h-15.915zm100.425 81.112q-13.39 0-22.281-2.964-13.5-4.39-13.501-15.037v-45.001q0-10.428 13.501-15.037 8.89-3.073 22.281-3.073h64.209v15.915h-64.209q-19.757 0-19.757 6.695v35.782q0 6.804 19.757 6.805h48.294v-23.818h-54.001v-15.915h61.904q3.293 0 5.598 2.414 2.414 2.305 2.414 5.598v47.636zm113.697-81.112h15.915v81.112h-15.915zm162 73.209q0 3.402-1.866 5.927t-5.158 2.525q-2.964 0-5.817-2.196l-71.234-55.209v56.856h-15.915v-73.1q0-3.513 1.865-5.927 1.867-2.524 5.269-2.524 2.854 0 5.707 2.195l71.234 55.209v-56.965h15.915zm129.302 7.903v-25.355h-68.16v25.355h-15.915v-55.429q0-12.512 12.183-19.647 10.317-6.036 23.708-6.036h27.22q13.062 0 23.928 6.256 12.951 7.353 12.951 19.427v55.429zm0-52.026q0-6.256-7.683-9.988-6.585-3.183-13.281-3.183h-27.22q-5.707 0-12.403 3.731-7.573 4.281-7.573 9.44v10.756h68.16zm56.976 52.026v-81.112h15.915v65.197h56.526v15.915z" style="fill-rule:nonzero" transform="matrix(.61193 0 0 .63063 -15.849 297.783)"/>
	<path d="M177.286 51.142c13.423 90.253-29.617 135.246-104.181 121.877z" style="fill-rule:nonzero" transform="matrix(.67276 0 0 .57361 -15.849 297.783)"/>
	<path d="M187.554 51.142 290.897 173.25c-78.203 13.053-113.804-34.358-103.343-122.108M73.78 184.802c77.988-13.502 113.986 31.968 103.668 120.453L73.105 184.802z" style="fill-rule:nonzero" transform="matrix(.67276 0 0 .57361 -15.849 297.783)"/>
	<path d="m290.897 184.692-103.48 120.563c-12.213-94.611 33.912-132.942 103.48-120.563" style="fill-rule:nonzero" transform="matrix(.67276 0 0 .57361 -15.849 297.783)"/>
</svg>
