<?xml version="1.0" encoding="UTF-8"?>
<svg id="logo" xmlns="http://www.w3.org/2000/svg" viewBox="0 0 192 192">
  <defs>
    <style>
      .cls-1 {
        fill: #000;
      }

      .cls-1, .cls-2 {
        stroke-width: 0px;
      }

      .cls-2 {
        fill: #5e2368;
      }
    </style>
  </defs>
  <g>
    <polygon class="cls-1" points="114.97 39.81 119.3 32.33 72.67 32.33 77 39.81 91.62 39.81 91.62 65.13 96 72.72 100.38 65.13 100.38 39.81 114.97 39.81"/>
    <polygon class="cls-1" points="82.22 72.72 90.96 72.72 67.65 32.33 44.35 72.72 53.08 72.72 67.65 47.48 82.22 72.72"/>
    <polygon class="cls-1" points="62.63 32.33 16 32.33 39.33 72.72 39.33 72.72 48.07 57.57 48.07 57.57 53.87 47.48 53.87 47.48 53.87 47.48 53.85 47.48 42.26 47.48 43.69 49.98 39.33 57.57 29.12 39.92 58.25 39.92 62.63 32.33"/>
    <polygon class="cls-1" points="138.89 72.72 147.65 72.72 124.32 32.33 101.02 72.72 109.78 72.72 124.32 47.48 138.89 72.72"/>
    <polygon class="cls-1" points="171.62 39.92 176 32.35 129.37 32.33 152.7 72.72 157.08 65.13 142.48 39.92 171.62 39.92"/>
    <path class="cls-2" d="M90.83,92.38l2.11.56c.71.18,1.2.82,1.2,1.55v63.01c0,.74-.48,1.38-1.2,1.55l-2.11.56c-.71.18-1.45-.13-1.81-.74l-18.01-31.3c-.15-.25-.2-.51-.2-.79v-1.55c0-.28.08-.56.2-.79l18.01-31.3c.38-.66,1.12-.97,1.81-.76Z"/>
    <path class="cls-2" d="M101.4,92.38l-2.11.56c-.71.18-1.2.82-1.2,1.55v63.01c0,.74.48,1.38,1.2,1.55l2.11.56c.71.18,1.45-.13,1.81-.74l18.01-31.3c.15-.25.2-.51.2-.79v-1.55c0-.28-.08-.56-.2-.79l-18.01-31.3c-.36-.66-1.1-.97-1.81-.76Z"/>
    <path class="cls-2" d="M43.91,78.81l1.17-2.01c.28-.51.82-.82,1.4-.82h42.59c.59,0,1.1.31,1.4.82l1.17,2.01c.28.51.28,1.12,0,1.6l-21.29,36.88c-.28.51-.82.82-1.4.82h-2.32c-.59,0-1.1-.31-1.4-.82l-21.29-36.88c-.33-.51-.33-1.12-.03-1.6Z"/>
    <path class="cls-2" d="M100.71,78.81l1.17-2.01c.28-.51.82-.82,1.4-.82h42.59c.59,0,1.1.31,1.4.82l1.17,2.01c.28.51.28,1.12,0,1.6l-21.29,36.88c-.28.51-.82.82-1.4.82h-2.32c-.59,0-1.1-.31-1.4-.82l-21.29-36.88c-.31-.51-.31-1.12-.03-1.6Z"/>
  </g>
</svg>