<?xml version="1.0" encoding="UTF-8"?>
<svg id="logo" xmlns="http://www.w3.org/2000/svg" viewBox="0 0 192 192">
  <defs>
    <style>
      .cls-1, .cls-2, .cls-3 {
        stroke-width: 0px;
      }

      .cls-2 {
        fill: #b24535;
      }

      .cls-1, .cls-3 {
        fill: #0d0d0d;
      }
    </style>
  </defs>
  <g>
    <g>
      <path class="cls-3" d="M61.3,179h-4.58c-1.7,0-2.96-1.26-2.96-2.96v-.93c0-.14.03-.19.19-.19h2.39c.19,0,.19.08.19.22v.8c-.03.25.08.3.3.3h8.83c.3,0,.41-.05.41-.38-.03-.88-.03-1.78,0-2.66,0-.27-.08-.36-.36-.36h-8.86c-.9,0-1.67-.25-2.3-.93-.49-.55-.77-1.18-.77-1.92v-3.29c0-1.48,1.29-2.8,2.8-2.82h9.46c1.51,0,2.77,1.29,2.82,2.91v.99c0,.16-.05.19-.19.19h-2.41c-.14,0-.19-.05-.19-.19v-.77c.03-.27-.08-.36-.36-.36h-8.86c-.27,0-.33.08-.33.33,0,.88.03,1.78,0,2.66,0,.3.08.41.38.38h8.89c1.48,0,2.61.85,2.96,2.22.03.11.05.22.05.33.05,1.32.11,2.63-.03,3.95-.14,1.34-1.43,2.41-2.77,2.41-1.56.08-3.13.08-4.72.08Z"/>
      <path class="cls-3" d="M125.11,173.81c1.12,1.32,2.17,2.61,3.24,3.87.08.11.16.22.25.3.3.25.25.58.25.9,0,.14-.08.11-.16.11h-2.71c-.16,0-.22-.11-.27-.19-1.34-1.59-2.69-3.18-4.03-4.77-.14-.14-.25-.22-.44-.22h-4.39c-.25,0-.3.08-.3.3v4.61c0,.25-.05.27-.27.27-.74-.03-1.48,0-2.25,0-.19,0-.25-.03-.25-.25v-14.56c0-.22.05-.27.27-.27h11.93c1.62,0,2.91,1.32,2.91,2.93v3.98c0,1.65-1.29,2.93-2.93,2.96-.27.05-.52.03-.82.03ZM121.33,166.68h-4.47c-.25,0-.33.08-.33.33,0,1.23.03,2.44,0,3.67,0,.33.11.38.38.38h8.78c.36,0,.38-.03.38-.41v-3.56c0-.41-.03-.41-.41-.41-1.45,0-2.88,0-4.33,0Z"/>
      <path class="cls-3" d="M157.5,172.66v6.06c0,.22-.05.27-.27.27-.74-.03-1.48-.03-2.19,0-.22,0-.3-.03-.3-.3.03-1.48,0-2.99,0-4.47,0-.25-.08-.33-.33-.33h-8.89c-.3,0-.36.11-.33.36v4.44c0,.25-.05.27-.27.27-.74-.03-1.48,0-2.25,0-.19,0-.25-.03-.25-.25v-11.98c0-1.62,1.32-2.85,2.93-2.85h9.19c1.67,0,2.96,1.29,2.96,2.93,0,1.97,0,3.89,0,5.84ZM149.93,171.15h4.5c.22,0,.3-.03.3-.27-.03-1.29-.03-2.55,0-3.84,0-.3-.11-.38-.38-.38h-8.78q-.38,0-.38.38v3.81c0,.25.05.27.27.27,1.48.03,2.99.03,4.47.03Z"/>
      <path class="cls-3" d="M34.53,171.43v-7.24c0-.22.03-.3.27-.3h13.33c.22,0,.27.05.27.27-.03.74-.03,1.48,0,2.19,0,.22-.05.3-.3.3h-10.45c-.3,0-.36.08-.36.36.03.93.03,1.84,0,2.77,0,.25.05.27.3.27h8.31c.27,0,.36.05.36.36-.03.71-.03,1.43,0,2.14,0,.25-.05.3-.3.3h-8.28c-.3,0-.38.05-.36.36.03.9.03,1.81,0,2.69,0,.27.05.33.33.33,3.48,0,6.94,0,10.42-.03.3,0,.36.08.33.36-.03.74,0,1.48,0,2.19,0,.16-.05.22-.22.22h-13.44c-.25,0-.22-.11-.22-.27,0-2.39,0-4.83,0-7.27Z"/>
      <path class="cls-3" d="M94.42,171.43v-7.24c0-.22.05-.27.27-.27h13.33c.22,0,.27.03.27.27-.03.74-.03,1.48,0,2.25,0,.25-.08.27-.3.27h-10.48c-.27,0-.33.05-.33.33.03.9.03,1.81,0,2.71,0,.25.05.33.33.33,2.77,0,5.51,0,8.28-.03.27,0,.36.05.33.33-.03.69-.03,1.37,0,2.06,0,.3-.05.41-.38.41-2.74-.03-5.48,0-8.23-.03-.27,0-.33.05-.33.33.03.9.03,1.81,0,2.69,0,.27.05.38.36.38,3.48,0,6.94,0,10.42-.03.27,0,.33.08.33.33-.03.74,0,1.48,0,2.19,0,.19-.03.25-.25.25h-13.41c-.25,0-.25-.08-.25-.27.03-2.41.03-4.83.03-7.27Z"/>
      <path class="cls-3" d="M74.46,171.46v-7.24c0-.25.05-.3.3-.3h11.82c1.65,0,2.96,1.29,2.96,2.93v3.98c0,1.65-1.23,2.91-2.88,2.96h-.11c-3.02,0-6.01.03-9.02,0-.25,0-.33.05-.3.3v4.55c0,.22-.05.27-.27.27-.71-.03-1.45-.03-2.17,0-.25,0-.33-.05-.33-.3v-7.16ZM82,166.68h-4.42c-.25,0-.36.05-.36.36v3.7c0,.27.11.33.36.33h8.86c.27,0,.36-.11.36-.36v-3.62c0-.38,0-.41-.41-.41h-4.39Z"/>
      <path class="cls-3" d="M134.43,171.43v-7.24c0-.25.05-.3.3-.3.71.03,1.45.03,2.17,0,.25,0,.33.05.3.3v14.56c0,.16-.05.22-.22.22h-2.3c-.22,0-.27-.05-.27-.27.03-2.39.03-4.83.03-7.27Z"/>
    </g>
    <g>
      <path class="cls-3" d="M93.22,145.46c1.18-.69,1.95-1.1,2.66-1.56,3.98-2.69,5.35-6.5,3.48-10.91-1.18-2.77-2.96-5.32-4.47-7.95-.11-.22-.36-.36-.58-.49-7.71-4.94-11.46-12.31-12.92-21.06,0-.05-.05-.08-.08-.11-2.85.85-3.51,3.29-2.61,10.17-2.96-1.81-4.8-4.28-5.59-7.49-1.07-4.39,0-8.53,1.95-12.45,1.81-3.65.66-2.85,4.83-2.63.9.05,1.81.22,2.85.36-1.23-1.29-2.3-2.5-3.46-3.62-1.7-1.67-3.43-3.29-5.18-4.88-.41-.38-1.07-.74-1.59-.71-8.42.49-16.18,2.8-22.46,8.75-5.73,5.46-8.01,12.45-8.14,20.13-.08,4.31.49,8.61.77,12.83-2.36-1.23-4.99-2.55-7.57-4-.36-.22-.55-1.01-.55-1.56-.03-11.35-.03-22.73-.03-34.09,0-6.44.05-12.92-.05-19.36-.03-1.59.52-2,1.97-2.17,13.22-1.45,25.04,2.03,35.59,10.04.25.19.47.38.82.66-1.65-3.73-9.63-10.53-16.92-14.42-6.66-3.56-13.66-6.06-21.28-7.05V13.09c.47-.03,1.01-.08,1.56-.08,17.14,0,34.31-.03,51.45.03.9,0,1.92.36,2.69.88,6.94,4.72,13.35,10.06,19.42,15.85.63.6,1.26,1.21,2,1.73-2.28-7.08-6.14-13.14-11.98-18.48h5.98q7.98,0,14.23,4.83c5.29,4.11,9.52,9.19,12.7,15.06,2.93,5.43,2.74,11.3,1.32,17.06-.77,3.1-2.36,6.01-3.51,9.05-.19.47-.19,1.23.05,1.62,2.41,3.67,4.55,7.6,7.49,10.78,1.81,1.95,1.29,3.43.55,5.05-1.12,2.44-.6,4.17,1.01,6.23,4.17,5.18,8.03,10.61,12.09,15.91.71.93.8,1.65.11,2.58-1.97,2.69-3.89,5.4-5.81,8.12-.27-.03-.52-.05-.8-.08-.25-.6-.69-1.18-.74-1.78-.11-1.59-.16-3.21,0-4.8.14-1.43-.41-2.11-1.73-2.36-.3-.05-.58-.19-.85-.27-2.11,4.17-.14,7.73,1.73,11.22-4.52,4.03-14.21,7.62-18.98,7.05.08-1.04.19-2.11.33-3.48-2.8,1.26-5.4,2.44-8.01,3.59,2.28-2.93,2.25-6.5,2.91-9.9.85-4.33-3.51-9.76-8.64-9.54-4.14.16-7.51,2.03-10.53,4.69-.27.25-.49.69-.58,1.04-1.23,5.32.05,9.9,4,13.71,1.01.96,2.14.93,3.32.63,1.84-.49,3.65-1.07,5.48-1.62.38-.11.77-.22,1.45-.41-.66,1.54-1.21,2.82-1.84,4.25,3.54.47,6.88.93,10.5,1.4-.41.47-.66.8-.96,1.12-3.51,3.7-7.08,7.38-10.53,11.13-4.47,4.8-9.41,8.83-15.99,10.37-.41.08-.8.16-1.21.22-.19,0-.44,0-1.15.03ZM101.47,49.21c-.58-.52-.99-.96-1.45-1.34-3.37-2.77-6.72-5.62-10.2-8.25-1.45-1.1-3.21-1.89-4.94-2.5-2.25-.8-3.62.14-3.92,2.5-.16,1.26-.33,2.61-.11,3.84,1.07,5.76,2.25,11.52,3.4,17.25.16.8.44,1.56.69,2.36,0-5.59-.05-11.11.05-16.59.03-1.1.66-2.17.99-3.26.99.52,2.14.85,2.91,1.56,3.62,3.37,7.16,6.83,10.67,10.31,1.26,1.23,2.41,2.58,3.89,4.17.49-5.29.96-10.2,1.43-15.08-.11-.03-.22-.03-.33-.05-1.01,1.67-2,3.35-3.07,5.1ZM129.85,86.64c.08-.05.19-.14.27-.19-1.59-2.74-3.18-5.46-4.8-8.23.93-.88,1.78-1.65,2.82-2.63-4.91-1.7-9.49-3.26-14.04-4.83-.11.19-.19.38-.3.58,5.35,5.07,10.69,10.17,16.04,15.3Z"/>
      <path class="cls-2" d="M93.03,156.48c21.61-16.15,42.97-32.08,64.5-48.15v48.15h-64.5Z"/>
      <path class="cls-1" d="M72.87,87.16c-1.65,2-3.48,3.89-4.85,6.06-2.8,4.44-2.82,9.27-1.26,14.18,2.11,6.58,6.2,11.52,12.34,14.84,2.41,1.32,4.8,2.88,6.77,4.77,2.99,2.82,4.06,6.53,3.43,10.61-.55,3.62-2.14,6.75-4.69,9.46.11-.44.25-.85.36-1.29.11-.44.25-.9.36-1.34,1.23-5.54-2.08-11.02-7.49-12.48-3.92-1.04-10.31,1.37-10.89,6.99-.41,4-.6,8.03-.96,12.04-.16,1.84-.49,3.65-.74,5.51h-3.04c.08-3.26.47-6.47.22-9.63-.41-5.16-2.96-9.49-5.95-13.57-1.15-1.59-2.36-3.15-3.73-4.55-7.24-7.35-7.6-19.55-3.13-27.67,4.28-7.73,11.13-11.63,19.53-13.3,1.32-.27,2.66-.44,3.73-.63Z"/>
      <path class="cls-2" d="M157.5,92.26c-5.21-8.03-10.2-15.71-15.19-23.42-1.48-2.3-3.02-4.55-4.42-6.91-.3-.49-.41-1.4-.16-1.89,6.42-12.94,12.92-25.83,19.39-38.75.05-.11.16-.22.41-.52-.03,23.83-.03,47.47-.03,71.49Z"/>
      <path class="cls-3" d="M59.73,156.51h-25.09v-31.59c.41.19.77.3,1.1.52,3.95,2.41,7.98,4.74,11.85,7.29,6.91,4.55,10.31,11.3,11.6,19.28.25,1.45.36,2.93.55,4.5Z"/>
      <path class="cls-2" d="M142.83,36.59c-5.76-7.9-11.35-15.58-17.11-23.47h28.88c-3.92,7.82-7.79,15.55-11.76,23.47Z"/>
    </g>
  </g>
</svg>