<?xml version="1.0" encoding="UTF-8"?>
<svg xmlns="http://www.w3.org/2000/svg" xml:space="preserve" style="fill-rule:evenodd;clip-rule:evenodd;stroke-linejoin:round;stroke-miterlimit:2" viewBox="0 0 800 800">
	<path d="M0 0h192v192H0z" style="fill:none" transform="scale(4.16667)"/>
	<path d="M404.746 15c113.937 42.812 21.633 145.285-84.716 146.71z" style="fill-rule:nonzero" transform="translate(20.541 249.233)scale(.8528)"/>
	<path d="M546.249 15c44.68 1.564 22.894 57.28-18.381 68.206 16.306 4.433 18.67 49.343-31.634 72.15-11.384 4.669-13.376 6.354-66.196 6.354h-23.146C469.88 140.262 535.526 72.566 460.796 15M91.44 259.543q1.88-3.269.817-5.636-1.006-2.367-4.411-2.423l-8.591-.057-13.031 22.658h8.623q3.414-.057 7.11-2.368 3.753-2.31 5.657-5.523l3.825-6.65zm20.454-35.564q1.912-3.325.85-5.693-1.038-2.31-4.444-2.367l-8.558-.112-12.74 22.15H98.5q6.376-1.973 9.601-7.384zm8.814 22.207q8.736 0 11.533 5.918t-2.034 14.315q-4.506 7.835-13.369 13.64-8.83 5.749-17.31 6.482-.37.056-84.528.169l46.68-81.161 82.433-.057q8.736 0 11.467 6.031t-2.099 14.429q-4.83 8.399-14.433 14.316t-18.34 5.918m101.533-24.461-9.336 16.232h57.49l-9.304 16.176H203.6l-9.303 16.175h57.49l-9.304 16.176h-101.45l46.55-80.935h101.45l-9.303 16.176zm203.911-16.176-46.55 80.935h-43.961l18.606-32.351h-27.053l-18.607 32.351h-43.962l46.55-80.935h43.962l-18.64 32.408h27.054l18.64-32.408zm46.307 36.184h8.623q3.447-.113 7.11-2.367 3.753-2.311 5.69-5.58l5.672-9.863q1.913-3.326.818-5.637-1.005-2.367-4.41-2.423l-8.56-.113zm36.402 12.85-3.17 32.07h-43.963l3.178-31.788-18.283 31.788h-43.962l46.55-80.935h93.898q3.833 0 4.99 2.592 1.247 2.537-.86 6.2l-18.047 31.281q-2.075 3.607-6.271 6.2-4.197 2.592-7.973 2.592zm63.199 31.901h-43.963l46.55-80.935h43.962zm132.046 0h-43.793l-.146.057-6.148-26.941-15.462 26.884h-43.962l46.55-80.935h43.962l-.065.112 4.232 16.064 2.151 10.37 15.268-26.546h43.962zm170.809-80.823-9.303 16.176H816.52q-3.527.057-7.312 2.424-3.842 2.367-5.754 5.692l-19.409 33.648q-1.67 3.1-.565 4.904 1.08 1.748 4.486 1.803h5.805l18.542-32.239h43.962l-27.91 48.528h-92.264q-3.777 0-4.99-2.593-1.247-2.536.86-6.2l36.435-63.35q2.107-3.664 6.272-6.2 4.196-2.593 7.972-2.593zM132.16 335.119l-1.015 2.985h-6.278l7.693-21.003h6.34l7.693 21.003h-6.462l-.97-2.985zm1.462-4.34h4.108l-1.97-6.185zm38.489.892v6.433h-6.309V317.1h9.986q2.847 0 4.463.723 1.861.846 2.954 2.678 1.108 1.861 1.108 4.092 0 2.693-1.616 4.601-2.092 2.477-6.324 2.477zm0-9.416v4.494h3.216q1.123 0 1.692-.4.893-.647.893-1.924 0-1.54-1.185-2-.446-.17-1.323-.17zm37.827 9.416v6.433h-6.308V317.1h9.986q2.846 0 4.462.723 1.862.846 2.954 2.678 1.108 1.861 1.108 4.092 0 2.693-1.616 4.601-2.092 2.477-6.324 2.477zm0-9.416v4.494h3.216q1.123 0 1.693-.4.892-.647.892-1.924 0-1.54-1.185-2-.446-.17-1.323-.17zm37.828-5.155v15.541h9.386v5.463h-15.695V317.1zm35.119 0v21.004h-6.309V317.1zm26.195 12.725v2.817h11.74v5.462h-18.05V317.1h17.756v5.462H309.08v2.647h9.863v4.616zm31.21-12.724h9.617q4.124 0 6.648 1.985 3.508 2.77 3.508 8.509 0 3.986-1.677 6.585-2.016 3.124-5.74 3.74-1.077.184-2.6.184h-9.755zm6.232 5.462v10.079h2.293q1.877 0 2.939-.724 1.908-1.292 1.908-4.246 0-3.185-1.954-4.432-1.062-.677-2.816-.677zm65.179 0v15.541h-6.308v-15.54h-6.062V317.1h18.356v5.462H411.7zm31.918 7.263v2.816h11.74v5.462H437.31v-21.003h17.756v5.462H443.62v2.647h9.863v4.616zm51.381.308q-.385 3.092-2.123 5.17-2.739 3.277-7.494 3.277-4.139 0-7-2.477-1.6-1.4-2.555-3.432-1.092-2.353-1.092-5.154 0-3.17 1.446-5.785 1.647-2.94 4.616-4.263 1.94-.861 4.216-.861 3.324 0 5.924 1.723 2.477 1.662 3.4 4.2.354.955.462 2.37h-6.17q-.154-1.246-.8-1.985-.985-1.108-2.693-1.108-1.646 0-2.6 1.216-1.4 1.8-1.4 4.708 0 2.862 1.37 4.432 1.045 1.215 2.815 1.215 2 0 2.877-1.646.34-.646.446-1.6zm38.934-13.034v21.004h-6.309v-8.278h-6.385v8.278h-6.309v-21.003h6.309v7.263h6.385V317.1zm39.303.001v21.003h-6.417l-6.354-10.817v10.817h-6.309v-21.003h6.355l6.416 10.955v-10.955zm30.993-.477q4.032 0 6.863 2.324 3.693 3.03 3.693 8.662 0 5.601-3.693 8.648-2.816 2.323-6.985 2.323t-6.986-2.323q-3.693-3.047-3.693-8.617 0-5.755 3.693-8.693 2.908-2.324 7.109-2.324zm-.184 5.2q-2.062 0-3.216 1.832-1 1.586-1 3.954 0 2.354 1 3.94 1.154 1.83 3.278 1.83t3.277-1.83q1-1.6 1-3.924 0-2.416-1-3.97-1.17-1.831-3.339-1.831zm36.841-4.723v15.54h9.386v5.463h-15.695v-21.003zm39.118-.477q4.03 0 6.863 2.324 3.692 3.03 3.692 8.662 0 5.601-3.692 8.648-2.816 2.323-6.986 2.323t-6.986-2.323q-3.692-3.047-3.692-8.617 0-5.755 3.692-8.693 2.909-2.324 7.11-2.324zm-.185 5.2q-2.061 0-3.215 1.832-1 1.586-1 3.954 0 2.354 1 3.94 1.154 1.83 3.277 1.83t3.277-1.83q1-1.6 1-3.924 0-2.416-1-3.97-1.169-1.831-3.339-1.831zm50.782 4.616v11.664h-4.278l-.369-2.077q-.97.985-1.692 1.43-1.832 1.124-4.493 1.124-4.416 0-7.201-3.2-2.555-2.94-2.555-7.34 0-5.062 2.985-8.324 2.847-3.093 7.448-3.093 3.262 0 5.616 1.416 3.246 1.938 3.97 6.185h-6.109q-.323-1-1.016-1.585-.984-.83-2.384-.83-2.062 0-3.14 1.707-.953 1.539-.953 4 0 3.078 1.477 4.632 1.17 1.231 3 1.231 1.785 0 2.893-1 .492-.446.738-1.323h-2.708v-4.616zm31.609 4.063v7.601h-6.308v-7.601l-7.617-13.402h6.97l3.816 8.078 3.77-8.078h7.093z" style="fill-rule:nonzero" transform="translate(20.541 249.233)scale(.8528)"/>
</svg>
