<?xml version="1.0" encoding="UTF-8"?>
<svg xmlns="http://www.w3.org/2000/svg" xml:space="preserve" style="fill-rule:evenodd;clip-rule:evenodd;stroke-linejoin:round;stroke-miterlimit:2" viewBox="0 0 800 800">
	<path d="M0 0h192v192H0z" style="fill:none" transform="scale(4.16667)"/>
	<path d="M300.939 639.056v2.215h6.261v12.521h2.215v-12.521h6.26v-2.215zm-1.958 2.649a2.66 2.66 0 0 0-2.665-2.665h-9.407a2.66 2.66 0 0 0-2.665 2.665v3.146a2.66 2.66 0 0 0 2.665 2.665h9.407c.241 0 .449.209.449.449v3.147c0 .24-.208.449-.449.449h-9.407a.46.46 0 0 1-.449-.449v-.867h-2.216v.867a2.66 2.66 0 0 0 2.665 2.664h9.407a2.66 2.66 0 0 0 2.665-2.664v-3.147a2.66 2.66 0 0 0-2.665-2.664h-9.407a.46.46 0 0 1-.449-.45v-3.146a.46.46 0 0 1 .449-.45h9.407a.46.46 0 0 1 .449.45v.867h2.216zm-17.273-2.649h-13.5v14.736h13.5v-2.215h-11.301v-4.045h9.086v-2.215h-9.086v-4.046h11.301zm103.909-306.814 13.404 23.212 147.813 53.792 14.254-24.689-143.735-52.315zm-67.951 319.335h2.215v2.215h-2.215zm31.094-9.872a.46.46 0 0 1 .449-.45h12.072v-2.215h-14.736v5.602c0 .161.016.305.048.45h-.048v2.215h12.071a.46.46 0 0 1 .45.45v3.355a.46.46 0 0 1-.45.449h-9.407a.46.46 0 0 1-.449-.449v-.867h-2.215v.867a2.66 2.66 0 0 0 2.664 2.664h9.407a2.66 2.66 0 0 0 2.665-2.664v-3.355a2.66 2.66 0 0 0-2.665-2.665h-9.407a.46.46 0 0 1-.449-.45zm37.852 6.02h6.951c.241 0 .449.208.449.449v2.954c0 .24-.208.449-.449.449h-12.024a2.67 2.67 0 0 0 2.617 2.215h9.407a2.66 2.66 0 0 0 2.665-2.664v-9.407a2.66 2.66 0 0 0-2.665-2.665h-9.407a2.66 2.66 0 0 0-2.665 2.665v3.355a2.66 2.66 0 0 0 2.665 2.665h2.456zm-2.905-6.02a.46.46 0 0 1 .449-.45h9.407a.46.46 0 0 1 .449.45v3.804h-9.856a.46.46 0 0 1-.449-.449zm-4.929-.45a2.72 2.72 0 0 0-2.664-2.215h-9.407a2.66 2.66 0 0 0-2.665 2.665v2.953c0 .578.177 1.124.514 1.558a2.62 2.62 0 0 0-.514 1.557v3.355a2.66 2.66 0 0 0 2.665 2.664h9.407a2.657 2.657 0 0 0 2.664-2.664v-3.355a2.52 2.52 0 0 0-.513-1.557c.321-.434.513-.98.513-1.558zm-2.215 9.873a.46.46 0 0 1-.449.449h-9.407a.46.46 0 0 1-.45-.449v-3.355a.46.46 0 0 1 .45-.45h9.407a.46.46 0 0 1 .449.45zm0-6.245a.46.46 0 0 1-.449.45h-9.407a.46.46 0 0 1-.45-.45v-3.146a.46.46 0 0 1 .45-.45h9.407a.46.46 0 0 1 .449.45zm-44.835-5.827a2.66 2.66 0 0 0-2.665 2.665v.867h2.216v-.867a.46.46 0 0 1 .449-.45h9.407a.46.46 0 0 1 .449.45v3.355a.46.46 0 0 1-.449.449h-9.407a2.66 2.66 0 0 0-2.665 2.665v5.602H343.8v-2.215h-12.072a.46.46 0 0 1-.449-.449v-2.954c0-.241.208-.449.449-.449h9.407a2.66 2.66 0 0 0 2.665-2.665v-3.355a2.66 2.66 0 0 0-2.665-2.665h-9.407zM486.01 332.242l87.005 31.672 18.284-31.672zm-68.721 54.836 21.847 37.836 81.532 29.665 14.255-24.689zm91.452 88.161-51.353-18.686 31.078 53.825z" style="fill:#eea604"/>
	<path d="M396.228 600.53c0-4.19-3.42-7.545-7.545-7.545h-21.639a7.526 7.526 0 0 0-7.545 7.545v7.239a7.526 7.526 0 0 0 7.545 7.545h21.173v6.421h-20.82v-3.018h-7.914v3.42a7.526 7.526 0 0 0 7.545 7.544h21.639c4.125 0 7.545-3.371 7.545-7.544v-7.224c0-4.19-3.42-7.545-7.545-7.545h-21.27v-6.421h20.82v3.018h8.011zm-46.794-7.561h-33.935v36.744h33.935v-7.962h-25.925v-6.421h20.869v-7.962h-20.869v-6.421h25.925zm-97.648 0h7.962v36.745h-7.962zm-112.465 0h-33.935v36.744h33.935v-7.962h-25.925v-6.421h20.868v-7.962h-20.868v-6.421h25.925zm79.493 26.695-15.411-26.679h-9.182l21.27 36.745h6.581l21.27-36.745h-9.134zm111.405-78.979h-33.935v36.745h33.935v-7.962h-25.925v-6.437h20.869v-7.962h-20.869v-6.437h25.925zM94.582 600.53c0-4.19-3.419-7.545-7.545-7.545H65.382a7.526 7.526 0 0 0-7.544 7.545v7.239a7.526 7.526 0 0 0 7.544 7.545h21.19v6.421h-20.82v-3.018h-7.914v3.42a7.525 7.525 0 0 0 7.544 7.544h21.639c4.126 0 7.545-3.371 7.545-7.544v-7.224c0-4.19-3.419-7.545-7.545-7.545H65.752v-6.421h20.82v3.018h8.01zm244.113-59.845v7.963h14.383v28.782h7.962v-28.782h14.383v-7.963zm-152.372 59.893c0-4.126-3.419-7.545-7.609-7.545h-29.135v36.68h7.914v-11.782c.048.048.16.048.16.048 0-.209-.048-.305-.16-.305l10.514-.048 10.161 12.087h8.171v-2.696c-2.552-3.066-5.361-6.325-7.962-9.391h.353c4.19 0 7.609-3.419 7.609-7.545v-9.503zm-28.83.353h20.82v8.733h-20.82zm119.72-35.749-20.563-24.497h-8.171v36.745h7.914v-24.593l20.66 24.593h8.171v-36.745h-8.011zm-68.994-24.497a7.526 7.526 0 0 0-7.545 7.545v29.184h7.914v-11.831h20.82v11.831h8.011V548.23c0-4.19-3.419-7.545-7.609-7.545zm.353 16.936v-8.973h20.82v8.973zm-52.958 19.809h36.745v-7.962h-28.831v-28.831h-7.914zm283.571-444.097H168.729c-35.171 0-63.68 28.51-63.68 63.681v270.455c0 35.172 28.509 63.681 63.68 63.681h196.18l-47.452-82.173H187.222v-233.47h233.47v93.25h82.173V197.014c0-35.171-28.509-63.681-63.68-63.681m208.09 148.921L510.811 518.613l47.436 82.174 183.915-318.533z" style="fill:#2a2d24"/>
	<path d="m488.466 557.316 47.452 82.174-15.7 27.177H456.73l-15.699-27.177-206.277-357.236h94.903zM304.84 600.915v-7.946h-29.088a7.526 7.526 0 0 0-7.544 7.545v21.639a7.525 7.525 0 0 0 7.544 7.544h29.088v-7.962h-28.734v-20.82zM109.945 540.75v36.664h7.914v-11.783c.048.048.16.048.16.048 0-.208-.048-.305-.16-.305l21.221-.048c4.19 0 7.609-3.419 7.609-7.544v-9.488c0-4.125-3.419-7.544-7.609-7.544zm7.914 7.898h20.82v8.732h-20.82z" style="fill:#2a2d24"/>
</svg>
