<?xml version="1.0" encoding="UTF-8"?>
<svg xmlns="http://www.w3.org/2000/svg" viewBox="0 0 192 192">
	<path d="M21.22 85.08h-9.16v-1.74h20.28v1.74h-9.16v17.15c-.65.14-1.31.26-1.96.4zm62.44 9.76-4.68-11.55h-2.1l4.8 11.69c.65-.05 1.31-.1 1.98-.14m-48.42 5.24V83.29h11.15c5.5 0 8.3 3.95 8.34 7.89.02 2.78-1.2 5.35-3.71 6.7-1.65.21-3.28.41-4.88.62-1.32.17-2.65.36-3.94.53h-5v.74c-.67.12-1.32.21-1.96.31m1.94-2.89h8.99c4.42 0 6.38-2.49 6.41-6.05.03-2.97-1.99-6.05-6.19-6.05h-9.2l-.02 12.1Zm27.38-.77 4.97-11.24 4.59 10.38 1.94-.15-5.43-12.12H68.5l-6 13.34zm61.04-3.54v-9.57h-1.96v9.62c.65-.02 1.31-.03 1.96-.05m19.04-.33v-7.43h15.57v-1.84h-17.5v9.28c.65 0 1.31 0 1.93-.02Zm-40.15 1.09v-8.49h15.57v-1.84h-17.5v10.43c.64-.05 1.29-.09 1.93-.1m-9.07.46 4.43-10.79h-2.1l-4.43 10.91c.7-.05 1.39-.09 2.1-.12m30.18 4.21c-.65.02-1.29.02-1.96.03v10.3h16.23v-1.84H125.6zm-49.38 2.12.22.53 3.44 7.68h2.1l-3.75-8.35c-.65.05-1.34.09-2.01.14m14.97-.93-2.82 6.96-2.7-6.65c-.65.03-1.31.09-1.96.12l3.61 8.78h2.1l3.82-9.32c-.69.03-1.36.07-2.05.1Zm13.3-.6c-.64.02-1.27.05-1.93.07v9.68h17.93v-1.89h-16v-7.85Zm40.15 7.87v-8.63h-1.93v10.5h17.93v-1.89h-16zm-84.44-5-3.09 6.89h2.1l2.85-6.45.28-.64c-.72.05-1.43.12-2.13.19Zm-38.98 5.46v1.41h1.96v-1.79c-.65.12-1.31.26-1.96.38m14.02-2.44v3.85h1.96v-4.14c-.67.1-1.32.19-1.96.29m12.57-1.7 5.07 5.55h2.58l-5.36-5.83c-.77.1-1.53.19-2.29.27ZM184 108.64h-2.58l-8.77-9.59h-6.91v9.59h-1.96V83.29h11.15c5.5 0 8.3 3.95 8.34 7.89.03 4.12-2.68 7.75-8.22 7.75l8.94 9.71Zm-18.25-11.45h8.99c4.42 0 6.38-2.49 6.41-6.05.03-2.97-1.99-6.05-6.19-6.05h-9.2l-.02 12.1Z" style="fill:#282872;stroke-width:0"/>
	<path d="m153.65 95.42-.26-.91c-13.51-.07-97.54.07-145.39 13.27l.1.5c46.54-12.65 131.81-12.22 145.32-12.07l.22-.79Z" style="stroke-width:0;fill:#7f3d7f"/>
	<path d="m159.77 95.42-4.66-2.02.58 2.02-.58 2.03z" style="fill:#0071bc;stroke-width:0"/>
</svg>
