<?xml version="1.0" encoding="UTF-8"?>
<svg xmlns="http://www.w3.org/2000/svg" id="logo" viewBox="0 0 192 192">
	<defs>
		<style>
			.cls-1{fill:#6e6f71;stroke-width:0}
		</style>
	</defs>
	<path d="M95.75 117.57c-26.24 0-47.56-21.32-47.56-47.54s21.32-47.56 47.56-47.56c17.76 0 33.75 9.85 41.91 25.16H123.9a35.83 35.83 0 0 0-28.13-13.59c-19.85 0-35.99 16.14-35.99 35.99s16.14 35.99 35.99 35.99c11.03 0 21.32-5.04 28.13-13.59h13.76c-8.16 15.28-24.15 25.13-41.91 25.13Z" style="fill:#ffa72b;stroke-width:0"/>
	<path d="m153.9 58.66-.02-.1C148.55 31.44 124.67 11 96 11c-32.6 0-59.03 26.43-59.03 59.03S63.4 129.04 96 129.04s59.03-26.43 59.03-59.01c0-3.91-.39-7.69-1.13-11.37m-6.06 22.72c-.42 1.89-.96 3.71-1.57 5.53-7.05 21-26.85 36.16-50.26 36.16-29.31 0-53.09-23.76-53.09-53.06s23.76-53.06 53.09-53.06c23.41 0 43.21 15.16 50.26 36.19h-24.93c-5.45-8.18-14.76-13.59-25.33-13.59-16.83 0-30.46 13.63-30.46 30.46s13.63 30.46 30.46 30.46c10.59 0 19.87-5.4 25.33-13.59 1.15-1.72 2.14-3.56 2.92-5.53H86.82v-22.7h61.02a52.6 52.6 0 0 1 1.25 11.37c-.02 3.88-.47 7.69-1.25 11.35Zm-33.49 5.51A24.87 24.87 0 0 1 96 94.97c-13.76 0-24.96-11.2-24.96-24.96S82.24 45.05 96 45.05c7.03 0 13.66 2.97 18.35 8.08H81.28v33.75h33.07Z" class="cls-1"/>
	<path d="M98.95 65.51v2.04s-.05.1-.12.1h-1.84c-.07 0-.12-.05-.12-.1v-1.33c0-.25-.2-.44-.47-.44H95c-.25 0-.44.2-.44.44v7.66c0 .25.2.44.44.44h1.4c.25 0 .47-.22.47-.44v-1.62h-1.06s-.12-.05-.12-.12v-1.87s.05-.12.12-.12h3.05s.12.05.12.12v4.3c0 1.01-.84 1.87-1.87 1.87h-2.83c-1.01 0-1.87-.84-1.87-1.87V65.5c0-1.01.84-1.87 1.87-1.87h2.8c1.01 0 1.87.86 1.87 1.87Zm8.01-.02v5.38c0 .66-.34 1.23-.84 1.57l.81 3.88s-.02.12-.1.12h-1.84c-.07 0-.12-.05-.15-.12l-.74-3.59h-1.55v3.59s-.05.12-.12.12h-1.87s-.12-.05-.12-.12V63.79c0-.07.05-.12.12-.12h4.54c1.01-.05 1.84.81 1.84 1.82Zm-2.09.69c0-.25-.2-.44-.44-.44h-1.87v4.89h1.87c.25 0 .44-.2.44-.47zm5.7-.45v3.24h2.9c.07 0 .12.05.12.12v1.87s-.05.1-.12.1h-2.9v3.24h3.59c.07 0 .12.05.12.12v1.87s-.05.12-.12.12h-5.55c-.07 0-.12-.05-.12-.12V63.76c0-.07.05-.12.12-.12h5.55c.07 0 .12.05.12.12v1.87s-.05.12-.12.12h-3.59zm11.64 1.28-2.14 6.09-.05.12v3.07s-.02.12-.12.12h-1.87s-.12-.05-.12-.12v-3.07s-.02-.05-.02-.12l-2.11-6.09s-.05-.15-.05-.22l-.2-3.02c-.02-.07.02-.12.1-.12h1.87c.07 0 .12.05.12.12l.22 3.02c.02.07.05.17.05.22l1.08 3.12s.05.05.07 0l1.08-3.12.05-.1v-.12l.22-3.02c0-.07.05-.12.12-.12h1.87c.07 0 .12.05.12.12l-.22 3.02v.12s-.05.05-.07.1m7.99-1.5v2.06s-.05.1-.12.1h-1.87c-.07 0-.12-.05-.12-.1v-1.38c0-.25-.22-.44-.47-.44h-1.4c-.27 0-.47.2-.47.44v7.69c0 .25.2.44.47.44h1.4c.25 0 .47-.22.47-.44v-1.35c0-.07.02-.12.12-.12h1.87s.12.05.12.12v2.04c0 1.01-.86 1.87-1.87 1.87h-2.78c-1.03 0-1.87-.84-1.87-1.87V65.5c0-1.01.84-1.87 1.87-1.87h2.78c1.03 0 1.87.86 1.87 1.87Zm7.98 10.79s-.05.12-.12.12h-1.87s-.12-.05-.12-.12l-.15-1.99h-2.48l-.15 1.99s-.05.12-.12.12h-1.87c-.07 0-.12-.05-.12-.12l.22-3.17 2.19-9.41s.05-.1.12-.1c.02-.02 1.89-.02 1.92 0 .05 0 .1.05.12.1l2.19 9.41.25 3.17Zm-2.51-4.08-.96-4.1-.96 4.1zm8.7-8.43v1.84s-.05.12-.12.12h-2.06v10.56s-.05.1-.12.1h-1.87c-.07 0-.12-.05-.12-.1V65.75h-2.11s-.1-.05-.1-.12v-1.84c0-.07.05-.12.1-.12h6.26q.15-.03.15.12Zm-92.59 78.84v4.62c0 .12-.12.25-.25.25H47.3c-.17 0-.29-.12-.29-.25v-3.02c0-.57-.47-1.03-1.03-1.03h-3.19c-.54 0-1.03.47-1.03 1.03v17.44c0 .54.47 1.03 1.03 1.03h3.19c.57 0 1.03-.47 1.03-1.03v-3.71H44.6c-.12 0-.27-.12-.27-.27v-4.23c0-.12.15-.27.27-.27h6.93c.12 0 .25.12.25.27v9.78c0 2.31-1.92 4.23-4.23 4.23h-6.36c-2.31 0-4.23-1.92-4.23-4.23v-20.61c0-2.28 1.92-4.23 4.23-4.23h6.36c2.31 0 4.23 1.92 4.23 4.23m18.23-.05v12.21c0 1.5-.76 2.78-1.92 3.54l1.82 8.84c.05.12-.05.25-.22.25h-4.18a.37.37 0 0 1-.34-.25l-1.67-8.16h-3.54v8.16c0 .12-.12.25-.29.25h-4.2c-.12 0-.25-.12-.25-.25v-28.5c0-.17.12-.29.25-.29h10.32c2.31-.02 4.23 1.89 4.23 4.2Zm-4.77 1.59c0-.57-.47-1.03-1.03-1.03h-4.23v11.13h4.23c.57 0 1.03-.47 1.03-1.06zm12.97-1.03v7.37h6.58c.17 0 .29.12.29.25v4.23c0 .12-.12.25-.29.25h-6.58v7.39h8.16c.17 0 .29.12.29.29v4.23c0 .12-.12.25-.29.25H73.74c-.17 0-.29-.12-.29-.25v-28.5c0-.17.12-.29.29-.29h12.63c.17 0 .29.12.29.29v4.23c0 .12-.12.27-.29.27h-8.16Zm26.49 2.9-4.86 13.88c-.05.12-.1.27-.1.27v7c0 .12-.07.25-.25.25h-4.23c-.12 0-.27-.12-.27-.25v-7s-.02-.12-.07-.27l-4.82-13.88c-.02-.12-.12-.34-.12-.52l-.47-6.88c-.05-.17.07-.29.22-.29h4.23c.17 0 .29.12.29.29l.49 6.88c.02.17.1.39.12.52l2.48 7.08c.02.12.12.12.17 0l2.48-7.08.1-.25v-.27l.52-6.88c0-.17.12-.29.25-.29h4.23c.17 0 .25.12.25.29l-.52 6.88v.27s-.1.12-.12.25m18.13-3.41v4.69c0 .12-.12.25-.25.25h-4.23c-.17 0-.25-.12-.25-.25v-3.12c0-.57-.52-1.03-1.08-1.03h-3.17c-.59 0-1.06.47-1.06 1.03v17.44c0 .54.47 1.03 1.06 1.03h3.17c.57 0 1.08-.47 1.08-1.03v-3.07c0-.17.07-.29.25-.29h4.23c.12 0 .25.12.25.29v4.64c0 2.31-1.94 4.23-4.23 4.23h-6.31c-2.33 0-4.23-1.92-4.23-4.23V142.6c0-2.28 1.89-4.23 4.23-4.23h6.31c2.31.02 4.23 1.94 4.23 4.25Zm18.15 24.54c0 .12-.1.25-.27.25h-4.23c-.12 0-.25-.12-.25-.25l-.34-4.52h-5.63l-.34 4.52c0 .12-.15.25-.27.25h-4.23c-.17 0-.25-.12-.25-.25l.52-7.17 4.96-21.37c.05-.1.12-.22.25-.22.05-.05 4.3-.05 4.35 0 .12 0 .22.12.25.22l4.96 21.37zm-5.72-9.26-2.16-9.29-2.19 9.29zm19.77-19.21v4.23c0 .12-.1.27-.27.27h-4.72v24.03c0 .12-.12.25-.27.25h-4.23c-.17 0-.27-.12-.27-.25v-24.05h-4.79c-.12 0-.25-.12-.25-.27v-4.2c0-.17.12-.29.25-.29h14.27c.17 0 .27.12.27.29ZM36.97 180.98v-1.06h1.35v-7.2h-1.35v-1.06h3.86v1.06h-1.38v7.2h1.38v1.06zm15.79 0v-2.83l-4.2-4.62v7.44h-1.15v-9.31h1.03l4.35 4.79v-4.79h1.15v9.31h-1.18Zm12.31 0h-4.54v-9.31h4.54c1.18 0 2.04.86 2.04 2.04v5.23c0 1.15-.86 2.04-2.04 2.04m.89-7.37c0-.44-.34-.86-.81-.86h-3.51v7.12h3.51c.44 0 .81-.42.81-.86zm12.25 7.37h-2.48c-1.18 0-2.04-.86-2.04-2.04v-7.27h1.18v7.37c0 .44.34.86.81.86h2.58c.44 0 .81-.42.81-.86v-7.37h1.18v7.27c0 1.15-.86 2.04-2.04 2.04m12.97.02H88.7c-1.18 0-2.04-.86-2.04-2.04v-.39h1.13v.49c0 .44.34.86.81.86h2.7c.44 0 .81-.42.81-.86v-1.28c0-.44-.34-.84-.81-.86l-2.53-.07c-1.18-.02-2.04-.86-2.04-2.04v-1.11c0-1.18.86-2.04 2.04-2.04h2.28c1.18 0 2.04.86 2.04 2.04v.39h-1.13v-.49c0-.44-.34-.86-.81-.86h-2.51c-.44 0-.81.42-.81.86v1.3c0 .44.34.84.81.86l2.53.07c1.15.02 2.04.86 2.04 2.04v1.11c0 1.15-.86 2.01-2.04 2.01Zm12.04-8.25v8.23h-1.23v-8.23h-2.8v-1.08h6.88v1.08zm14.28 8.23v-3.05c0-.69-.2-1.06-.91-1.06h-3.32v4.1h-1.11v-9.31h4.45c1.18 0 2.04.86 2.04 2.04v1.06c0 1.2-.84 1.55-.84 1.55s.84.29.84 1.42V181h-1.15zm0-7.42c0-.44-.37-.91-.81-.91h-3.41v3.1h3.24c.76 0 .98-.29.98-1.01zm7.73 7.42v-1.06h1.35v-7.2h-1.35v-1.06h3.86v1.06h-1.38v7.2h1.38v1.06zm17.03 0h-1.13v-3.1h-4.3v3.1h-1.13v-5.72c0-.64.12-1.01.54-1.45l2.16-2.14h1.23l2.16 2.14c.42.44.54.81.54 1.45v5.72zm-1.43-6.47-1.79-1.89h-.12l-1.84 1.89c-.25.27-.27.42-.27.81v1.55h4.3v-1.55c.02-.39 0-.52-.27-.81Zm8.01 6.47v-9.31h1.18v8.23h4.18v1.08z" class="cls-1"/>
</svg>
