<?xml version="1.0" encoding="UTF-8"?>
<svg xmlns="http://www.w3.org/2000/svg" viewBox="0 0 192 192">
	<path d="m25.61 118.47 4.04-9.9H184v9.9z" style="fill:#edbf00;stroke-width:0"/>
	<path d="M124.41 74.81H119l-11.53 27.14h5.17l3.01-7.4h12.02l3.09 7.4h5.41zm-6.97 15.38L121.59 80l4.27 10.19zm-7.2-15.38H89.63v4.37h7.8v22.77h5.03V79.18h7.78zM82.22 94.59 67.88 74.81h-5.02v27.14h4.84v-20.2l14.34 20.2h5.02V74.81h-4.84zm-59.7 1.81L13.3 74.81H8l10.98 27.14h6.25l11.91-27.14h-5.65zm127.32 5.76c4.79 0 8.17-1.83 11.14-4.9V86.87h-11.95v4.37h6.96v3.96c-2.14 1.72-4 2.17-6.14 2.17-6.76 0-9.37-4.62-9.37-9.1 0-5.61 3.54-10.03 9.37-10.03 2.37 0 5.1.97 6.92 2.72l3.2-3.27a14.35 14.35 0 0 0-10.1-4.16c-9.61 0-14.39 7.07-14.39 14.74-.04 7.14 4.13 13.88 14.36 13.88Zm-8.46 9.42c0-1.21-.71-1.81-2.14-1.81h-3.2v7.51h.97v-6.7h2.14c.8 0 1.21.35 1.21 1.04 0 .88-.71 1.42-2.16 1.66v.64l2.39 3.38h1.28l-2.58-3.54c1.39-.47 2.08-1.19 2.08-2.17Zm24.34-1.79-3.2 7.51h1l.97-2.36h3.45l.97 2.36h1.08l-3.2-7.51h-1.08Zm-.9 4.35 1.39-3.4 1.41 3.4h-2.79Zm7.32-4.35h-.96v7.51h4.91v-.79h-3.95zm8.21 3.31h-.97c-.93 0-1.39-.4-1.39-1.21 0-.91.68-1.37 2.05-1.37.88 0 1.68.15 2.45.42v-.9c-.75-.22-1.57-.31-2.45-.31-2.01 0-3.01.71-3.01 2.16s.79 2.05 2.36 2.05h.97c.95 0 1.42.4 1.42 1.21 0 .95-.64 1.42-1.94 1.42-.91 0-1.77-.15-2.56-.42v.9c.79.22 1.64.31 2.56.31 1.94 0 2.9-.73 2.9-2.21 0-1.37-.8-2.05-2.39-2.05m-10.29-15.51v-7.12h13.01v-4.5h-12.93v-6.83h13.59v-4.33h-18.6v27.14h18.85v-4.36zm-26.03 16.29h3.75v-.78h-3.75v-2.52h3.93v-.79h-4.91v7.51h5v-.79h-4.02zm18.89-4.09h-5.7v.79h2.38v6.72h.96v-6.72h2.36zm-7.87 6.05-4.59-6.05h-.97v7.51h.92v-6.1l4.58 6.1h.99v-7.51h-.93z" style="stroke-width:0;fill:#172799"/>
	<path d="m31.73 101.95 11.53-27.14h5.41l11.76 27.14h-5.41l-9.19-21.97-8.95 21.97zm-11.78 6.62h-3.73l-4.13 9.9h3.71z" style="stroke-width:0;fill:#ea4e00"/>
	<path d="m49.39 94.56-3.56 7.4-3.58-7.4zm-26.5 14.01-4.04 9.9h3.62l4.13-9.9z" style="fill:#f79521;stroke-width:0"/>
</svg>
