<?xml version="1.0" encoding="UTF-8"?>
<svg id="logo" xmlns="http://www.w3.org/2000/svg" viewBox="0 0 192 192">
  <defs>
    <style>
      .cls-1 {
        fill: #000;
        stroke-width: 0px;
      }
    </style>
  </defs>
  <g>
    <g>
      <rect class="cls-1" x="98.27" y="104.07" width="2.63" height="8.43"/>
      <rect class="cls-1" x="73.2" y="104.07" width="2.69" height="8.51"/>
      <rect class="cls-1" x="60.01" y="104.07" width="2.73" height="8.43"/>
      <rect class="cls-1" x="148.31" y="104.07" width="2.63" height="8.43"/>
      <path class="cls-1" d="M8,97.92v31.38h175.95v-31.38H8ZM15.03,125.42h-2.25v-23.6h2.25v23.6ZM28.09,125.42h-2.25l-2.63-14.42v14.42h-2.25v-23.6h2.25l2.65,13.1v-13.1h2.25v23.6h-.02ZM40.44,104.07h-2.6v21.35h-2.25v-21.35h-2.6v-2.25h7.45v2.25ZM52.57,104.07h-4.9v8.43h3.71v2.25h-3.71v8.43h4.9v2.25h-4.81c-1.21,0-2.21-.91-2.34-2.09v-19.45c.13-1.17,1.13-2.09,2.34-2.09h4.81v2.25ZM62.96,125.42c-.13-.33-.2-.7-.2-1.08v-9.59h-2.73v10.68h-2.27v-23.6h4.88c1.26,0,2.31,1.01,2.34,2.25v8.43c0,.68-.68,1.12-1.52,1.12.84,0,1.52.4,1.52,1.12v9.59c0,.35.26,1.01.59,1.08h-2.62ZM78.14,112.63c-.07,1.13-.97,2.07-2.09,2.18h-2.85v10.59h-2.25v-23.6h4.83c1.24,0,2.27.97,2.34,2.2v8.64h.02ZM90.6,125.42h-7.15v-23.6h2.25v21.35h2.67v-5.29h2.25v7.54h-.02ZM103.15,125.42h-2.25v-10.68h-2.63v10.68h-2.25v-21.3c.02-1.28,1.06-2.31,2.36-2.31h2.43c1.24,0,2.27.97,2.34,2.2v21.41ZM116.27,125.42h-2.25l-2.65-14.42v14.42h-2.25v-23.6h2.25l2.65,13.1v-13.1h2.25v23.6ZM129.61,104.07h-4.9v8.43h3.71v2.25h-3.71v8.43h4.9v2.25h-4.81c-1.21,0-2.21-.91-2.34-2.09v-19.45c.13-1.17,1.13-2.09,2.34-2.09h4.81v2.25ZM141.1,104.07h-2.6v21.35h-2.25v-21.35h-2.6v-2.25h7.45v2.25ZM153.19,125.42h-2.25v-10.68h-2.63v10.68h-2.25v-21.3c.02-1.28,1.06-2.31,2.36-2.31h2.43c1.24,0,2.27.97,2.34,2.2v21.41ZM164.46,125.42c-.13-.33-.2-.7-.2-1.08v-9.59h-2.73v10.68h-2.25v-23.6h4.88c1.26,0,2.31,1.01,2.34,2.25v8.43c0,.68-.68,1.12-1.52,1.12.84,0,1.52.4,1.52,1.12v9.59c0,.35.26,1.01.59,1.08h-2.63ZM179.39,112.48v.02c-.07,1.24-1.08,2.21-2.34,2.23h-.09v10.68h-2.25v-10.68h-.09c-1.3,0-2.34-1.04-2.34-2.34v-10.59h2.25v10.68h2.62v-10.68h2.25v10.68Z"/>
      <rect class="cls-1" x="161.53" y="104.07" width="2.73" height="8.43"/>
    </g>
    <polygon class="cls-1" points="52.04 75.29 68.08 75.29 68.08 71.16 53.74 71.16 53.74 62.7 76.53 62.7 76.53 83.74 68.26 83.74 76.53 90.27 76.53 96 76.53 96 70.13 96 54.62 83.74 52.04 83.74 52.04 96 43.58 96 43.58 66.89 47.77 62.7 52.05 62.7 52.04 75.29"/>
    <polygon class="cls-1" points="39.83 67.17 35.35 62.7 8.22 62.7 8.22 71.16 31.36 71.16 31.36 87.55 16.67 87.55 16.67 73.04 8.22 73.04 8.22 87.55 8.22 96 8.22 96 16.67 96 16.67 96 31.36 96 31.36 96 35.55 96 39.83 91.72 39.83 68.61 39.83 68.61 39.83 67.17"/>
    <polygon class="cls-1" points="121.7 62.98 117.48 67.2 117.48 96 125.93 96 125.93 67.2 121.7 62.98"/>
    <polygon class="cls-1" points="150.79 96.02 150.89 95.93 150.89 90.24 139.05 78.13 149.71 68.87 149.71 62.98 149.71 62.98 143.6 62.98 127.71 76.75 127.71 87.95 132.65 83.67 144.7 96.02 150.79 96.02"/>
    <polygon class="cls-1" points="161.09 87.55 161.09 83.74 175.46 83.74 179.72 79.46 175.25 75.29 161.09 75.29 161.09 73.13 152.62 73.13 152.62 91.99 156.65 96 161.09 96 161.09 96 179.99 96 184 91.99 179.55 87.55 161.09 87.55"/>
    <polygon class="cls-1" points="183.8 66.93 179.57 62.7 152.62 62.7 152.62 71.16 179.57 71.16 183.8 66.93"/>
    <polygon class="cls-1" points="80.67 96 89.12 96 89.12 86.54 100.08 86.54 104.18 82.44 99.82 78.07 89.12 78.07 89.12 72.93 80.67 72.93 80.67 96"/>
    <polygon class="cls-1" points="113.58 96 105.13 96 105.13 71.16 80.67 71.16 80.67 62.7 113.58 62.7 113.58 96"/>
  </g>
</svg>