<?xml version="1.0" encoding="UTF-8"?>
<svg id="logo" xmlns="http://www.w3.org/2000/svg" viewBox="0 0 192 192">
  <defs>
    <style>
      .cls-1 {
        fill: #000;
      }

      .cls-1, .cls-2 {
        stroke-width: 0px;
      }

      .cls-2 {
        fill: #124b6b;
      }
    </style>
  </defs>
  <g>
    <g>
      <path class="cls-1" d="M36.2,101.04h0l-4.27,5.06h-11.65l-1.55-5.04v-.02l-1.55-5.04,4.27-5.04v-.02l4.27-5.04h11.65l1.55,5.04v.02l1.55,5.04-4.27,5.04ZM44.04,77.99h-11.63l8.53-10.1h-9.16l-23.78,28.11,5.58,18.01h11.65l-8.55,10.1h9.18l23.78-28.11-5.6-18.01Z"/>
      <polygon class="cls-2" points="18.17 96 28.81 96 25.97 86.76 18.17 96"/>
      <polygon class="cls-2" points="28.83 96 39.49 96 36.63 86.76 28.83 96"/>
      <polygon class="cls-2" points="21.01 105.24 31.67 105.24 28.81 96 21.01 105.24"/>
    </g>
    <g>
      <path class="cls-1" d="M53.2,108.52h7.54c.28,0,.54-.19.6-.47l4.87-17.79c.09-.28.32-.47.6-.47h9.87c.41,0,.73.39.62.8l-4.52,17.15c-.11.41.19.8.62.8h7.26c.28,0,.54-.19.62-.47l4.85-17.79c.09-.28.32-.47.62-.47,1.16,0,4.16.02,6.16.02,2.54,0,3.99,1.7,3.32,4.37l-3.6,13.57c-.11.41.19.8.62.8h7.52c.28,0,.54-.19.6-.47l3.96-14.58c1.29-4.76-1.36-9.95-8.49-9.95l-37.33-.02c-.28,0-.54.19-.62.47l-6.33,23.72c-.09.41.22.82.62.82Z"/>
      <path class="cls-1" d="M111.96,83.51h7.6c.41,0,.73.39.62.8l-6.31,23.74c-.06.28-.32.47-.62.47h-7.56c-.41,0-.73-.39-.62-.8l6.29-23.74c.06-.28.32-.47.6-.47Z"/>
      <path class="cls-1" d="M152.22,84.28l-1.21,4.7c-.06.28-.32.47-.62.47h-17.97c-1.66,0-2.54.62-2.82,1.83s.09,1.9,1.44,1.9h12.28c3.3,0,7.04,2.02,5.88,6.76,0,0,.11-.39-.65,2.37s-3.34,6.2-9.5,6.2c-5.32,0-17.82.02-21.15.02-.41,0-.73-.39-.62-.8l1.36-4.95c.09-.28.32-.47.62-.47h18.27c2.37,0,2.65-.95,2.87-1.77s.39-1.96-2.28-1.96h-11.83c-2.56,0-6.07-2.05-5.41-5.45,0,0,.04-.39.32-2.22s1.98-7.39,10.6-7.39l19.82-.04c.41,0,.71.39.6.8Z"/>
      <path class="cls-1" d="M183.98,84.28l-1.38,5.15c-.06.28-.32.47-.62.47h-14.48c-4.93,0-6.23,4.57-6.46,5.84,0,0-.17.71-.45,2.35s.02,4.01,4.11,4.01h13.64c.41,0,.73.41.6.8l-1.4,5.15c-.09.28-.32.47-.6.47h-15.96c-5.17,0-10.71-2.33-9.35-9.46,1.36-7.13,2.43-7.97,4.14-10.47,1.68-2.5,5.75-5.08,12.6-5.08h15.01c.41-.02.71.37.6.78Z"/>
    </g>
  </g>
</svg>