<?xml version="1.0" encoding="UTF-8"?>
<svg xmlns="http://www.w3.org/2000/svg" xml:space="preserve" style="fill-rule:evenodd;clip-rule:evenodd;stroke-linejoin:round;stroke-miterlimit:2" viewBox="0 0 800 800">
	<path d="M0 0h192v192H0z" style="fill:none" transform="scale(4.16667)"/>
	<path d="M95.986 83.625q-21.38 0-21.38 20.375v109.938q0 21.047 21.158 21.048h302.05V196.25H303.16q-2.673 0-2.674-2.016 0-.896 1.336-2.015l81.293-60.903q5.122-3.805 7.127-6.267 2.228-2.688 3.342-5.375 2.45-5.597 2.45-11.418 0-4.255-1.782-8.51a25.6 25.6 0 0 0-5.123-8.06q-3.34-3.583-8.463-5.82-5.123-2.24-13.586-2.241c-90.366.002-189.796 0-271.094 0m22.494 40.08h214.301q1.781 0 1.781 1.791c0 .746-.245 1.035-.667 1.344l-90.181 65.946c-1.39 1.015-4.69 3.464-9.853 3.464h-115.38q-3.564 0-3.563-4.031v-18.36h106.818l40.082-29.107h-146.9v-17.24q0-3.807 3.562-3.807" style="fill:url(#a);fill-rule:nonzero" transform="translate(-111.578 -45.13)scale(2.16578)"/>
	<path d="M237.62-163.701q-8.116 0-13.34 3.377c-3.484 2.25-6.335 5.648-8.45 10.238l-26.902 58.383a30 30 0 0 0-.78 1.633 49 49 0 0 0-.443 1.634h23.234q.112-.653.334-1.308l.444-1.307 3.89-8.822h44.47l4.001 8.932q.221.544.443 1.197.224.545.446 1.308h22.68a10.6 10.6 0 0 0-.557-1.634 9.4 9.4 0 0 0-.668-1.633l-27.125-58.383c-2.13-4.584-5.012-7.97-8.559-10.238-3.494-2.234-7.857-3.377-13.119-3.377zm-163.015 1.635v73.63h20.233v-28.43h44.8v28.43h20.233v-73.63H139.64v26.685H94.838v-26.685zm244.614 0q-5.003 0-5.004 4.574v64.373q0 4.683 5.004 4.683h54.804q6.67 0 11.118-1.96 4.558-1.962 7.449-5.338a21.2 21.2 0 0 0 3.78-6.317q1.444-3.486 1.444-7.408 0-5.118-2.11-9.475-2.003-4.356-6.227-6.535 3.668-2.396 5.558-6.209 2.001-3.922 2.002-8.715 0-4.682-1.557-8.277-1.555-3.703-4.113-6.426-6.559-6.97-18.455-6.97zm-81.489 17.318q1.113 0 2.002.545c.593.363 1.092.936 1.446 1.742l11.56 26.36h-29.793l11.451-26.36c.378-.868.868-1.423 1.446-1.742.609-.336 1.221-.545 1.888-.545m98.163 1.197h33.462q2.113 0 3.334.655 1.335.544 2.225 1.523 1.334 1.635 1.334 3.596 0 1.96-1.334 3.593a6.55 6.55 0 0 1-2.225 1.743q-1.222.545-3.334.545h-35.017v-10.02q-.001-1.635 1.555-1.635m-1.555 24.834h34.906q2.222 0 3.557.545t2.224 1.526q1.667 1.851 1.666 4.029 0 2.287-1.554 4.138-.89.982-2.336 1.635-1.334.545-3.557.545h-33.351q-1.556 0-1.555-1.635z" style="fill:url(#b);fill-rule:nonzero" transform="translate(-111.578 843.547)scale(2.16578)"/>
	<defs>
		<linearGradient id="a" x1="0" x2="1" y1="0" y2="0" gradientTransform="rotate(-90 236.603 .549)scale(157.164)" gradientUnits="userSpaceOnUse">
			<stop offset="0" style="stop-color:#236b5e;stop-opacity:1"/>
			<stop offset="1" style="stop-color:#329c8a;stop-opacity:1"/>
		</linearGradient>
		<linearGradient id="b" x1="0" x2="1" y1="0" y2="0" gradientTransform="rotate(90 203.332 34.287)scale(87.654)" gradientUnits="userSpaceOnUse">
			<stop offset="0" style="stop-color:#329c8a;stop-opacity:1"/>
			<stop offset="1" style="stop-color:#236b5e;stop-opacity:1"/>
		</linearGradient>
	</defs>
</svg>
