<?xml version="1.0" encoding="UTF-8"?>
<svg xmlns="http://www.w3.org/2000/svg" xml:space="preserve" style="fill-rule:evenodd;clip-rule:evenodd;stroke-linejoin:round;stroke-miterlimit:2" viewBox="0 0 800 800">
	<path d="M0 0h192v192H0z" style="fill:none" transform="scale(4.16667)"/>
	<path d="M880.842 30.575c11.011 0 22.023-.01 33.044.01-.058 34.56.085 65.696-.077 100.266 27.405.01 47.429-.14 74.824.07-.114-34.59-.019-65.756-.048-100.346h32.987v242h-32.987c.029-34.59-.066-69.19.048-103.78-27.395.2-47.419.06-74.814.07.143 34.57.01 69.14.067 103.7-11.021.02-22.033.01-33.044.01zm368.667 0h107.02c8.29.24 16.9-.89 24.89 1.91 13.59 4.37 23.45 17.93 23.51 32.21.12 23.28.11 46.56 0 69.84.02 8.78-3.79 17.1-9.53 23.6 5.4 5.05 9.67 11.87 9.55 19.5.12 31.64.02 63.29.05 94.94h-34.63c0-29.35-.01-58.69.01-88.03.95-7.96-5.75-15.78-13.83-15.64-24.14-.06-48.29.02-72.42-.04.15 34.57.01 69.14.07 103.7-11.57.02-23.13.01-34.69.01zm34.8 34.64c-.32 23.01.05 46.04-.19 69.06 25.48-.06 50.97 0 76.45-.04 3.05-.01 6.39-.95 8.14-3.67 1.92-2.57 1.64-5.93 1.67-8.96-.09-16.04.11-32.08-.09-48.12-.02-4.55-4.11-8.44-8.66-8.21-25.77-.13-51.55.01-77.32-.06m160.12-34.64c11.56 0 23.12-.01 34.69.01q-.015 120.99 0 241.98c-11.57.02-23.13.01-34.69.01zm65.46-.854h138.559v41.377l-95.409 166.043 93.759-.11.01 35.546h-136.919v-35.536l94.619-165.943-94.599.13zM67.688 39.808c5.967-5.91 14.042-9.15 22.164-9.2 25.638-.1 51.276 0 76.915-.05 4.243.01 8.562.13 12.646 1.5 12.664 3.72 22.435 19.953 23.175 46.822.487 9.35.028 18.72.252 28.08-10.8.59-24.918.1-35.728.26.224-13.817 2.125-40.553-8.234-41.952-21.536-.06-36.53-.12-58.065.03-4.609-.14-8.29 4.48-7.887 9.29-.047 50.99 0 101.98-.028 152.97.009 2.77.337 5.84 2.36 7.82 2.098 2.44 5.386 2.53 8.262 2.53 20.608-.08 33.845.05 54.454-.07 4.421.29 8.29-3.79 8.224-8.48.169-20.19-.047-30.965.103-51.155l-37.145-33.694c27.015.12 46.65-.22 73.656.17l-.02 127.828h-32.278c-26.575.13-53.151.041-79.726.051-9.807.1-19.699-4.28-25.957-12.46-5.208-6.47-7.681-15.01-7.681-23.46-.019-56.72-.009-113.44 0-170.16-.103-9.94 3.56-19.96 10.538-26.67m1806.548-9.231h51.81c23.08 63.35 33.669 95.092 56.759 158.432-.02-63.36-.01-95.062-.01-158.432h34.63v242c-17.27 0-22.239-.01-39.499 0l-69.03-156.82c.05 63.4.01 93.42.02 156.82h-34.68zm-1442.536 0c10.097 0 25.115-.01 35.222.01 0 69.08-.018 138.16.009 207.25 35.193.11 65.476.08 100.678.01-.201 11.57-.035 23.15-.087 34.73H431.7zm173.419-.003c40.34.03 80.69-.07 121.03.05 14.16-.06 27.66 9.47 32.32 22.83 2.05 5.46 2.2 11.37 2.15 17.14-.03 55.34.01 110.68-.02 166.03.19 10.51-4.28 21.12-12.51 27.79-6.55 5.69-15.33 8.26-23.92 8.16h-119.05zm34.8 34.64c-.11 2.13-.14 4.27-.13 6.41.1 55.42-.13 110.85.12 166.28 25.76-.06 51.52.06 77.29-.06 5.02.31 9.08-4.31 8.76-9.2q.045-77.085 0-154.17c.35-4.88-3.74-9.49-8.74-9.2-25.76-.12-51.54 0-77.3-.06M266.49 31.386c3.15-.52 6.34-.83 9.54-.84 25.65.02 51.31.01 76.96.01 5.24 0 10.6-.17 15.7 1.25 11.27 2.84 20.71 11.9 24.11 23.01 1.47 4.42 1.68 9.13 1.7 13.76-.05 56.31.05 112.63-.05 168.95.23 14.53-9.56 28.57-23.42 33.05-5.46 1.94-11.31 2.05-17.04 1.99-26.7-.05-53.4.06-80.1-.06-10.33-.11-20.6-4.74-27.06-12.87-5.38-6.42-7.84-14.81-7.82-23.1-.04-55.67.01-111.35-.02-167.02-.06-6.58.5-13.4 3.59-19.34 4.47-9.55 13.64-16.58 23.91-18.79m12.63 34.44c-3.59 1.25-5.62 5.07-5.42 8.77-.03 51.32-.03 102.65 0 153.97-.41 4.79 3.52 9.38 8.42 9.23 21.96.19 43.93 0 65.89.1 2.89-.06 6.15.17 8.51-1.83 2.71-1.86 3.4-5.39 3.35-8.48-.04-51.04.02-102.09-.03-153.13.36-4.9-3.76-9.51-8.77-9.2-21.7-.12-43.4.01-65.1-.07-2.3 0-4.63-.03-6.85.64" style="fill:#231f20;fill-rule:nonzero" transform="matrix(.3741 0 0 .35842 11.958 436.524)"/>
	<path d="M273.382 170.131a16 16 0 0 1 2.409-.203c6.476.005 12.954.002 19.43.002 1.323 0 2.676-.041 3.963.302 2.846.687 5.229 2.879 6.087 5.566.372 1.069.425 2.209.43 3.329-.013 13.62.012 27.243-.013 40.866.058 3.515-2.414 6.911-5.913 7.995-1.378.469-2.855.495-4.302.481-6.741-.012-13.482.014-20.222-.015-2.608-.026-5.201-1.146-6.832-3.113-1.358-1.553-1.98-3.582-1.974-5.587-.011-13.466.003-26.934-.005-40.4-.016-1.592.126-3.241.906-4.678 1.128-2.31 3.444-4.011 6.036-4.545m3.189 8.33c-.906.303-1.419 1.227-1.368 2.122q-.012 18.62 0 37.243c-.104 1.159.888 2.269 2.125 2.233 5.545.046 11.091 0 16.635.024.73-.015 1.553.041 2.149-.443.684-.45.858-1.304.846-2.051-.01-12.346.005-24.694-.008-37.04.091-1.185-.95-2.301-2.214-2.226-5.479-.029-10.957.002-16.436-.016-.581 0-1.169-.007-1.729.154m155.397-8.33a16 16 0 0 1 2.409-.203c6.476.005 12.954.002 19.43.002 1.323 0 2.676-.041 3.963.302 2.846.687 5.229 2.879 6.087 5.566.371 1.069.424 2.209.429 3.329-.012 13.62.013 27.243-.012 40.866.058 3.515-2.414 6.911-5.913 7.995-1.378.469-2.855.495-4.302.481-6.741-.012-13.482.014-20.223-.015-2.608-.026-5.2-1.146-6.831-3.113-1.359-1.553-1.98-3.582-1.975-5.587-.01-13.466.003-26.934-.005-40.4-.015-1.592.127-3.241.907-4.678 1.128-2.31 3.443-4.011 6.036-4.545m3.189 8.33c-.906.303-1.419 1.227-1.368 2.122q-.012 18.62 0 37.243c-.104 1.159.888 2.269 2.125 2.233 5.544.046 11.091 0 16.635.024.73-.015 1.553.041 2.149-.443.684-.45.858-1.304.846-2.051-.01-12.346.005-24.694-.008-37.04.091-1.185-.95-2.301-2.215-2.226-5.478-.029-10.957.002-16.435-.016-.581 0-1.169-.007-1.73.154z" style="fill:#231f20;fill-rule:nonzero" transform="translate(12.332 195.68)scale(1.48176)"/>
	<path d="M121.63 268.066a8.7 8.7 0 0 1-3.82.876q-2.927 0-4.763-1.72-1.885-1.769-1.885-4.663 0-2.943 1.968-4.746 1.902-1.736 4.878-1.736 1.638 0 3.572.711v3.787q-1.488-.86-2.927-.86-1.389 0-2.216.694-.893.728-.893 2.084 0 1.34.927 2.083.843.678 2.232.678 1.323 0 2.927-.859zm33.52-5.623q0 3.01-1.835 4.763-1.82 1.736-4.845 1.736-2.993 0-4.829-1.687-1.885-1.752-1.885-4.713 0-2.992 1.901-4.762 1.836-1.704 4.862-1.703 2.894 0 4.746 1.719 1.885 1.77 1.885 4.647m-4.365.05q0-1.158-.563-1.852-.629-.76-1.752-.761-1.158 0-1.77.777-.562.695-.562 1.885 0 1.158.562 1.853.595.76 1.72.76 1.19 0 1.802-.744.563-.694.563-1.918m37.269 6.234h-4.647a189 189 0 0 0-1.223-2.48q-1.092-2.034-1.621-2.051l-.893-.479v5.01h-4.299v-12.419h6.78q1.983 0 3.175.794 1.405.926 1.405 2.795 0 2.215-2.315 3.042.53.282 2.034 2.878.794 1.455 1.604 2.91m-5.523-8.549q0-1.472-1.852-1.472h-1.009v2.977h.992q.793 0 1.29-.348.579-.396.579-1.157m36.232.215q0 2.811-2.249 3.687-1.257.496-4.614.496v4.151h-4.299v-12.419h6.565q2.067 0 3.291.992 1.305 1.075 1.306 3.093m-5.887-1.455h-.976v2.993h.959q1.72 0 1.72-1.505 0-1.488-1.703-1.488m39.343 3.505q0 3.01-1.835 4.763-1.82 1.736-4.846 1.736-2.992 0-4.828-1.687-1.885-1.752-1.885-4.713 0-2.992 1.901-4.762 1.836-1.704 4.862-1.703 2.893 0 4.746 1.719 1.885 1.77 1.885 4.647m-4.365.05q0-1.158-.563-1.852-.628-.76-1.753-.761-1.157 0-1.769.777-.562.695-.562 1.885 0 1.158.562 1.853.595.76 1.72.76 1.19 0 1.802-.744.563-.694.563-1.918m37.683 6.234h-4.647a189 189 0 0 0-1.223-2.48q-1.092-2.034-1.621-2.051l-.893-.479v5.01h-4.299v-12.419h6.78q1.984 0 3.175.794 1.405.926 1.405 2.795 0 2.215-2.315 3.042.53.282 2.034 2.878.794 1.455 1.604 2.91m-5.523-8.549q0-1.472-1.852-1.472h-1.009v2.977h.992q.793 0 1.29-.348.579-.396.579-1.157m37.272 8.549h-4.316l-.629-1.852h-4.564l-.611 1.852h-4.35l4.895-12.419h4.68zm-5.705-4.2-1.538-4.862-1.521 4.862zm34.045-4.895h-3.208v9.095h-4.283v-9.095h-3.225v-3.324h10.716zm19.635-3.324h4.283v12.419h-4.283zm38.77 6.135q0 3.01-1.835 4.763-1.82 1.736-4.846 1.736-2.993 0-4.828-1.687-1.885-1.752-1.885-4.713 0-2.992 1.901-4.762 1.836-1.704 4.862-1.703 2.894 0 4.746 1.719 1.885 1.77 1.885 4.647m-4.366.05q0-1.158-.562-1.852-.628-.76-1.753-.761-1.157 0-1.769.777-.562.695-.562 1.885 0 1.158.562 1.853.595.76 1.72.76 1.19 0 1.802-.744.562-.694.562-1.918m38.594 6.234h-4.002l-4.928-6.234.116 6.234h-4.332v-12.419h4.018l4.944 6.251-.132-6.251h4.316z" style="fill:#231f20;fill-rule:nonzero" transform="translate(-2.464 184.811)scale(1.48176)"/>
	<path d="M49.71 21.73c4.82-4.68 11.87-5.2 18.24-5.29h88.13c4.56.15 9.31.15 13.53 2.1 5.01 2.05 8.67 6.75 9.85 11.99 7.85 34.06 15.34 68.21 23.34 102.24-13.061-4.008-27.511-6.105-42.81-6.432L160 100h-47.72l15.02 23-30.05.04V87.02c.1-5.81-.88-12.61 3.43-17.26 4.7-5.82 13.32-6.571 19.385-4.233 3.119 1.267 5.226 3.946 6.706 6.833 1.7 3.62 1.271 7.67 1.279 11.54h32.7c.13-7.21-.42-14.59-3.05-21.37-4.32-11.71-13.466-20.659-25.09-26.33-9.57-4.09-20.29-4.34-30.45-2.81-15.893 2.86-36.931 18.386-37.15 42.63 0 16.4-.08 33.908 0 50.318-14.214 1.01-28.527 3.097-43.32 6.642 6.98-31.95 14.46-63.78 21.6-95.69 1.27-5.45 2.08-11.56 6.42-15.56" style="fill:#231f20;fill-rule:nonzero" transform="translate(246.966 194.144)scale(1.37091)"/>
	<path d="M20.01 140.811c46.365-10.34 139.721-11.375 184.78 0 .86 4.74.31 10.87-3.04 14.58-3.65 4.15-9.52 5.07-14.77 5.03-50 .03-99.99.04-149.98 0-3.84-.08-7.9-.42-11.24-2.47-5.69-3.36-8.3-11.02-5.75-17.14" style="fill:#836d42;fill-rule:nonzero" transform="translate(246.966 194.144)scale(1.37091)"/>
</svg>
