<?xml version="1.0" encoding="UTF-8"?>
<svg id="logo" xmlns="http://www.w3.org/2000/svg" viewBox="0 0 192 192">
  <defs>
    <style>
      .cls-1 {
        fill: #474747;
      }

      .cls-1, .cls-2, .cls-3 {
        stroke-width: 0px;
      }

      .cls-4 {
        isolation: isolate;
      }

      .cls-2 {
        fill: #7a7a7a;
      }

      .cls-3 {
        fill: #333;
      }
    </style>
  </defs>
  <g>
    <path class="cls-2" d="M53.73,102.3c0,.63.09,1.22.26,1.77-1.02,1.29-2.19,2.48-3.47,3.58l-1.63-3.44c2.03-1.88,3.66-4.1,4.86-6.53v4.62h-.02Z"/>
    <path class="cls-2" d="M58.4,80.21c-1.15.19-2.15.71-3.02,1.58-.09.09-.17.17-.24.26-2.61-9.34-11.18-16.22-21.34-16.22-.76,0-1.51.03-2.26.12-.19.02-.36.03-.56.07-.09.02-.19.02-.28.03-.28.03-.56.09-.82.14-.19.03-.36.07-.54.1-10,2.05-17.58,10.89-17.68,21.47v.28c.02,6.17,2.57,11.97,7.03,16.13l-1.63,3.44c-5.75-4.9-9.05-11.98-9.07-19.57v-.33c.12-12.21,8.79-22.44,20.28-24.94.42-.09.83-.17,1.27-.24.31-.05.64-.1.96-.14.33-.03.64-.07.97-.1.21-.02.43-.03.66-.05.54-.03,1.09-.05,1.65-.05,11.53,0,21.31,7.59,24.61,18.03Z"/>
    <path class="cls-2" d="M50.62,88.06c0,4.1-1.48,8.01-4.17,11.08l-1.75-3.68c1.48-2.17,2.28-4.72,2.28-7.4,0-7.26-5.9-13.16-13.16-13.16s-13.16,5.9-13.16,13.16c0,2.64.78,5.18,2.24,7.33l-1.75,3.7c-2.67-3.06-4.13-6.95-4.13-11.03,0-9.27,7.54-16.81,16.81-16.81s16.81,7.54,16.81,16.81Z"/>
    <path class="cls-1" d="M58.4,80.21c-1.15.19-2.15.71-3.02,1.58-.09.09-.17.17-.24.26-2.61-9.34-11.18-16.22-21.34-16.22-2.76,0-4.27.42-4.46.45-9.97,2.07-17.52,10.89-17.66,21.48v.28h-3.65v-.33c.16-12.23,8.81-22.42,20.28-24.94.42-.09,2.57-.59,5.51-.59,11.51,0,21.29,7.59,24.59,18.03Z"/>
    <path class="cls-1" d="M20.64,88.06h-3.65c0-9.27,7.54-16.81,16.81-16.81,4.5,0,8.72,1.74,11.88,4.88,3.18,3.16,4.93,7.36,4.93,11.86h-3.65c0-7.22-5.9-13.09-13.16-13.09-7.26,0-13.16,5.9-13.16,13.16Z"/>
    <path class="cls-3" d="M81.57,86.17h-21.83v15.82h21.83v6.04h-22.11c-1.6,0-2.95-.56-4.06-1.67-1.11-1.11-1.67-2.47-1.67-4.06v-16.45c0-1.6.56-2.95,1.67-4.06s2.47-1.67,4.06-1.67h22.11v6.04h0Z"/>
    <path class="cls-3" d="M85.13,108.03v-27.91h6.04v27.91h-6.04Z"/>
    <path class="cls-3" d="M120.71,80.12v6.04h-19.69v4.9h15.86v6.04h-15.86v4.88h19.69v6.04h-25.79v-27.91h25.79Z"/>
    <path class="cls-3" d="M124.62,80.12h22.14c1.6,0,2.97.56,4.1,1.68s1.68,2.48,1.68,4.05v16.45c0,1.58-.56,2.94-1.68,4.05-1.13,1.13-2.48,1.68-4.1,1.68h-22.14v-27.91ZM130.65,86.17v15.82h15.82v-15.82h-15.82Z"/>
    <path class="cls-3" d="M161.82,80.12h16.45c1.58,0,2.94.56,4.05,1.68,1.13,1.13,1.68,2.48,1.68,4.05v16.45c0,1.58-.56,2.94-1.68,4.05-1.13,1.13-2.48,1.68-4.05,1.68h-16.45c-1.6,0-2.95-.56-4.06-1.67-1.11-1.11-1.67-2.47-1.67-4.06v-16.45c0-1.6.56-2.95,1.67-4.06,1.09-1.11,2.47-1.67,4.06-1.67ZM162.08,86.17v15.82h15.82v-15.82h-15.82Z"/>
    <g class="cls-4">
      <path class="cls-3" d="M18.58,129.82c-.34,0-.65-.07-.93-.22-.28-.15-.5-.35-.67-.61-.16-.26-.25-.54-.25-.84v-6.69c0-.31.08-.59.25-.84.16-.26.39-.46.67-.61.28-.15.59-.22.93-.22h9.16v1.13h-9.16c-.16,0-.3.05-.42.16-.12.11-.18.23-.18.38v6.69c0,.15.06.28.18.38.12.11.26.16.42.16h9.16v1.13h-9.16Z"/>
    </g>
    <g class="cls-4">
      <path class="cls-3" d="M32.33,129.59c-.28-.15-.51-.36-.67-.61-.17-.26-.25-.54-.25-.84v-4.71c0-.31.08-.59.25-.84.17-.26.39-.46.67-.61.28-.15.59-.23.93-.23h5.33c.35,0,.66.08.94.23.28.15.51.36.67.61.17.26.25.54.25.84v4.71c0,.31-.08.59-.25.84-.17.26-.39.46-.67.61-.28.15-.6.23-.94.23h-5.33c-.34,0-.65-.08-.93-.23ZM33.26,128.68h5.33c.16,0,.3-.05.42-.16.12-.11.18-.23.18-.38v-4.71c0-.15-.06-.28-.18-.38-.12-.11-.26-.16-.42-.16h-5.33c-.16,0-.3.05-.42.16-.12.11-.18.23-.18.38v4.71c0,.15.06.28.18.38.12.11.26.16.42.16Z"/>
    </g>
    <g class="cls-4">
      <path class="cls-3" d="M44.2,129.82v-8.08h11.74c.35,0,.66.08.94.23.28.15.5.36.67.61.16.26.25.54.25.84v6.39h-1.24v-6.39c0-.15-.06-.28-.18-.38-.12-.11-.27-.16-.43-.16h-3.69c-.16,0-.3.05-.42.16-.12.11-.18.23-.18.38v6.39h-1.27v-6.39c0-.15-.06-.28-.18-.38-.12-.11-.26-.16-.42-.16h-3.71c-.16,0-.3.05-.42.16-.12.11-.18.23-.18.38v6.39h-1.27Z"/>
    </g>
    <g class="cls-4">
      <path class="cls-3" d="M61.13,129.82v-8.08h11.74c.35,0,.66.08.94.23.28.15.5.36.67.61.16.26.25.54.25.84v6.39h-1.24v-6.39c0-.15-.06-.28-.18-.38-.12-.11-.27-.16-.43-.16h-3.69c-.16,0-.3.05-.42.16-.12.11-.18.23-.18.38v6.39h-1.27v-6.39c0-.15-.06-.28-.18-.38-.12-.11-.26-.16-.42-.16h-3.71c-.16,0-.3.05-.42.16-.12.11-.18.23-.18.38v6.39h-1.27Z"/>
    </g>
    <g class="cls-4">
      <path class="cls-3" d="M79.18,129.59c-.28-.15-.51-.36-.67-.61-.17-.26-.25-.54-.25-.84v-6.39h1.26v6.39c0,.15.06.28.18.38.12.11.26.16.42.16h5.33c.16,0,.31-.05.43-.16.12-.11.18-.23.18-.38v-6.39h1.26v6.39c0,.31-.08.59-.25.84-.17.26-.39.46-.67.61-.28.15-.6.23-.94.23h-5.33c-.34,0-.65-.08-.93-.23Z"/>
    </g>
    <g class="cls-4">
      <path class="cls-3" d="M91.14,129.82v-8.08h7.2c.34,0,.65.08.93.23.28.15.51.36.67.61s.25.54.25.84v6.39h-1.26v-6.39c0-.15-.06-.28-.18-.38-.12-.11-.26-.16-.42-.16h-5.33c-.16,0-.31.05-.43.16-.12.11-.18.23-.18.38v6.39h-1.26Z"/>
    </g>
    <g class="cls-4">
      <path class="cls-3" d="M103.91,120.24v-1.14h1.26v1.14h-1.26ZM103.91,129.82v-8.08h1.26v8.08h-1.26Z"/>
    </g>
    <g class="cls-4">
      <path class="cls-3" d="M109.93,129.59c-.28-.15-.51-.36-.67-.61-.17-.26-.25-.54-.25-.84v-4.71c0-.31.08-.59.25-.84.17-.26.39-.46.67-.61.28-.15.59-.23.93-.23h7.17v1.14h-7.17c-.16,0-.3.05-.42.16-.12.11-.18.23-.18.38v4.71c0,.15.06.28.18.38.12.11.26.16.42.16h7.2v1.14h-7.2c-.34,0-.65-.08-.93-.23Z"/>
    </g>
    <g class="cls-4">
      <path class="cls-3" d="M123.67,129.82c-.34,0-.65-.08-.93-.23-.28-.15-.51-.36-.67-.61-.17-.26-.25-.54-.25-.84v-2.93h7.78v-1.78c0-.15-.06-.28-.18-.38-.12-.11-.26-.16-.42-.16h-7.19v-1.14h7.19c.35,0,.66.08.94.23.28.15.51.36.67.61s.25.54.25.84v6.39h-7.2ZM123.67,128.68h5.93v-2.33h-6.53v1.78c0,.15.06.28.18.38.12.11.26.16.42.16Z"/>
    </g>
    <g class="cls-4">
      <path class="cls-3" d="M135.52,129.59c-.28-.15-.5-.36-.67-.61-.16-.26-.25-.54-.25-.84v-9.04h1.26v2.65h3.85v1.14h-3.85v5.25c0,.15.06.28.18.38.12.11.26.16.42.16h3.25v1.14h-3.25c-.35,0-.66-.08-.94-.23Z"/>
    </g>
    <g class="cls-4">
      <path class="cls-3" d="M143.09,120.24v-1.14h1.26v1.14h-1.26ZM143.09,129.82v-8.08h1.26v8.08h-1.26Z"/>
    </g>
    <g class="cls-4">
      <path class="cls-3" d="M149.34,129.59c-.28-.15-.51-.36-.67-.61-.17-.26-.25-.54-.25-.84v-4.71c0-.31.08-.59.25-.84.17-.26.39-.46.67-.61.28-.15.59-.23.93-.23h5.33c.35,0,.66.08.94.23.28.15.51.36.67.61s.25.54.25.84v4.71c0,.31-.08.59-.25.84-.17.26-.39.46-.67.61-.28.15-.6.23-.94.23h-5.33c-.34,0-.65-.08-.93-.23ZM150.27,128.68h5.33c.16,0,.3-.05.42-.16.12-.11.18-.23.18-.38v-4.71c0-.15-.06-.28-.18-.38-.12-.11-.26-.16-.42-.16h-5.33c-.16,0-.3.05-.42.16-.12.11-.18.23-.18.38v4.71c0,.15.06.28.18.38.12.11.26.16.42.16Z"/>
    </g>
    <g class="cls-4">
      <path class="cls-3" d="M160.98,129.82v-8.08h7.2c.34,0,.65.08.93.23.28.15.51.36.67.61s.25.54.25.84v6.39h-1.26v-6.39c0-.15-.06-.28-.18-.38-.12-.11-.26-.16-.42-.16h-5.33c-.16,0-.31.05-.43.16-.12.11-.18.23-.18.38v6.39h-1.26Z"/>
    </g>
    <g class="cls-4">
      <path class="cls-3" d="M174.62,129.59c-.28-.15-.51-.36-.67-.61-.17-.26-.25-.54-.25-.84v-.11h1.26v.11c0,.15.06.28.18.38.12.11.26.16.42.16h5.33c.16,0,.3-.05.42-.16.12-.11.18-.23.18-.38v-1.24c0-.15-.06-.28-.18-.38-.12-.11-.26-.16-.42-.16h-5.33c-.34,0-.65-.08-.93-.23-.28-.15-.51-.36-.67-.61-.17-.26-.25-.54-.25-.84v-1.24c0-.31.08-.59.25-.84.17-.26.39-.46.67-.61.28-.15.59-.23.93-.23h5.33c.35,0,.66.08.94.23.28.15.51.36.67.61s.25.54.25.84v.11h-1.27v-.11c0-.15-.06-.28-.18-.38-.12-.11-.26-.16-.42-.16h-5.33c-.16,0-.3.05-.42.16-.12.11-.18.23-.18.38v1.24c0,.15.06.28.18.38.12.11.26.16.42.16h5.33c.35,0,.66.08.94.23.28.15.51.36.67.61.17.26.25.54.25.84v1.24c0,.31-.08.59-.25.84-.17.26-.39.46-.67.61-.28.15-.6.23-.94.23h-5.33c-.34,0-.65-.08-.93-.23Z"/>
    </g>
    <path class="cls-3" d="M16.89,108l-.02.03h8.46l8.44-19.49,8.46,19.49h8.46l-.02-.03-13.22-27.67h-7.42l-13.15,27.67Z"/>
  </g>
</svg>